<?xml version="1.0" encoding="utf-8"?>
<!-- Generator: Adobe Illustrator 24.3.0, SVG Export Plug-In . SVG Version: 6.00 Build 0)  -->
<svg version="1.1" id="Слой_1" xmlns="http://www.w3.org/2000/svg" xmlns:xlink="http://www.w3.org/1999/xlink" x="0px" y="0px"
	 viewBox="0 0 168 168" style="enable-background:new 0 0 168 168;" xml:space="preserve">
<style type="text/css">
	.st0{fill:#9BD63E;}
	.st1{fill:#333333;}
</style>
<path class="st0" d="M123,137.5H45c-1.1,0-2,0.9-2,2s0.9,2,2,2h78c1.1,0,2-0.9,2-2S124.1,137.5,123,137.5z"/>
<path class="st1" d="M142,54.5h-22v-11c0-3.3-2.7-6-6-6H54c-3.3,0-6,2.7-6,6v11H26c-3.3,0-6,2.7-6,6v67c0,3.3,2.7,6,6,6h116
	c3.3,0,6-2.7,6-6v-67C148,57.2,145.3,54.5,142,54.5z M52,43.5c0-1.1,0.9-2,2-2h60c1.1,0,2,0.9,2,2v76c0,1.1-0.9,2-2,2H54
	c-1.1,0-2-0.9-2-2V43.5z M144,127.5c0,1.1-0.9,2-2,2H26c-1.1,0-2-0.9-2-2v-67c0-1.1,0.9-2,2-2h22v61c0,3.3,2.7,6,6,6h60
	c3.3,0,6-2.7,6-6v-61h22c1.1,0,2,0.9,2,2V127.5z"/>
<path class="st1" d="M76.9,55.7c0.6,4.7,2.8,7.3,6.5,7.8c0.2,0,0.4,0,0.6,0s0.5,0,0.7-0.1c5.5-0.8,6.2-6.1,6.4-7.8
	c0-0.3,0.1-0.5,0.1-0.8c0.3-1.9,0.7-4.3-1.1-6.5c-1.3-1.6-3.2-2.7-5.3-2.9l0,0c-0.6,0-1.1,0-1.7,0c-2.1,0.2-4,1.2-5.3,2.9
	c-1.8,2.2-1.4,4.6-1.1,6.5C76.8,55.1,76.8,55.4,76.9,55.7z M80.9,51c0.6-0.8,1.5-1.3,2.6-1.4c0.1,0,0.3,0,0.5,0s0.4,0,0.4,0
	c1,0.1,2,0.6,2.6,1.4c0.6,0.7,0.5,1.7,0.2,3.3c0,0.3-0.1,0.6-0.1,0.9c-0.4,3.3-1.5,4.1-3.1,4.3c-0.1,0-0.1,0-0.2,0
	c-1.5-0.2-2.7-1-3.1-4.3c0-0.3-0.1-0.6-0.1-0.9C80.4,52.6,80.3,51.7,80.9,51z"/>
<path class="st1" d="M71,85.5c1.1,0,2-0.9,2-2v-9c0.6-0.7,1.3-1.2,2.1-1.6l4.9-2.1l2.7,2.2c0.7,0.6,1.8,0.6,2.5,0l2.7-2.2l4.9,2.1
	c0.8,0.4,1.6,0.9,2.2,1.6v9c0,1.1,0.9,2,2,2s2-0.9,2-2v-9c0-2.9-3.5-4.7-4.6-5.2l-6-2.6c-0.7-0.3-1.5-0.2-2.1,0.3L84,68.9L81.6,67
	c-0.6-0.5-1.4-0.6-2.1-0.3l-6,2.6c-0.8,0.3-4.6,2.2-4.5,5.2v9C69,84.6,69.9,85.5,71,85.5z"/>
<path class="st0" d="M62,101.5h44c2.2,0,4-1.8,4-4v-4c0-2.2-1.8-4-4-4H62c-2.2,0-4,1.8-4,4v4C58,99.7,59.8,101.5,62,101.5z
	 M102,93.5h4v4h-4V93.5z M62,93.5h36v4H62V93.5z"/>
<path class="st1" d="M62,117.5h44c2.2,0,4-1.8,4-4v-4c0-2.2-1.8-4-4-4H62c-2.2,0-4,1.8-4,4v4C58,115.7,59.8,117.5,62,117.5z
	 M102,109.5h4v4h-4V109.5z M62,109.5h36v4H62V109.5z"/>
<circle class="st1" cx="2" cy="147.5" r="2"/>
<path class="st1" d="M11,145.5H8c-1.1,0-2,0.9-2,2s0.9,2,2,2h3c1.1,0,2-0.9,2-2S12.1,145.5,11,145.5z M160,145.5h-3
	c-1.1,0-2,0.9-2,2s0.9,2,2,2h3c1.1,0,2-0.9,2-2S161.1,145.5,160,145.5z"/>
<circle class="st1" cx="166" cy="147.5" r="2"/>
<path class="st0" d="M118.2,153.5h-8.3c-1.1,0.1-1.9,1.1-1.8,2.2c0.1,1,0.9,1.8,1.8,1.8h8.3c1.1-0.1,1.9-1.1,1.8-2.2
	C119.9,154.4,119.1,153.6,118.2,153.5z M58.2,153.5h-8.3c-1.1,0.1-1.9,1.1-1.8,2.2c0.1,1,0.9,1.8,1.8,1.8h8.3
	c1.1-0.1,1.9-1.1,1.8-2.2C59.9,154.4,59.1,153.6,58.2,153.5z M104,153.5H64c-1.1,0-2,0.9-2,2s0.9,2,2,2h15.9v2H72c-1.1,0-2,0.9-2,2
	s0.9,2,2,2h25c1.1,0,2-0.9,2-2s-0.9-2-2-2h-8.9v-2H104c1.1,0,2-0.9,2-2S105.1,153.5,104,153.5z"/>
<path class="st1" d="M150.7,149.5H17.3c-1.1,0.1-2.1-0.6-2.3-1.7c-0.1-1.1,0.6-2.1,1.7-2.3c0.2,0,0.3,0,0.5,0h133.4
	c1.1-0.1,2.1,0.6,2.3,1.7s-0.6,2.1-1.7,2.3C151.1,149.5,150.9,149.5,150.7,149.5z"/>
</svg>
