<?xml version="1.0" encoding="utf-8"?>
<!-- Generator: Adobe Illustrator 24.3.0, SVG Export Plug-In . SVG Version: 6.00 Build 0)  -->
<svg version="1.1" id="Слой_1" xmlns="http://www.w3.org/2000/svg" xmlns:xlink="http://www.w3.org/1999/xlink" x="0px" y="0px"
	 viewBox="0 0 168 168" style="enable-background:new 0 0 168 168;" xml:space="preserve">
<style type="text/css">
	.st0{fill:#333333;}
	.st1{fill:#9BD63E;}
</style>
<path class="st0" d="M84.2,85c0.6,0,1.2-0.2,1.6-0.6c3.8-3.8,12.2-14.7-0.5-28.7c-0.4-0.4-0.9-0.7-1.5-0.7s-1.1,0.2-1.4,0.7
	c-3.7,4.3-12.3,16.7,0.2,28.7C83,84.8,83.6,85,84.2,85z M83.8,60.2c3.4,4.4,4.7,8.8,3.9,12.9c-0.6,2.7-1.8,5.1-3.6,7.2
	C77.3,72.6,80.3,65,83.8,60.2z M63.1,79c-0.1,0-0.1,0-0.2,0c-1.1,0-1.9,0.9-1.9,1.9l0,0c0.3,18.7,13.5,20.9,18.7,21c0,0,0,0,0.1,0
	c1.2-0.1,2.1-1,2.2-2.2C82.9,82.8,68.5,79.6,63.1,79L63.1,79z M70.9,95.2c-3.3-2.4-5.2-6.4-5.7-11.8C70.7,84.5,77.8,88,78,97.9
	C75.4,97.6,73,96.7,70.9,95.2L70.9,95.2z M63.1,102c-0.1,0-0.1,0-0.2,0c-1.1,0-1.9,0.9-1.9,1.9l0,0c0.3,18.7,13.5,20.9,18.7,21
	c0,0,0,0,0.1,0c1.2-0.1,2.1-1,2.2-2.2C82.9,105.8,68.5,102.6,63.1,102L63.1,102z M70.9,118.2c-3.3-2.4-5.2-6.4-5.7-11.8
	c5.6,1.2,12.6,4.6,12.9,14.5C75.4,120.6,73,119.7,70.9,118.2L70.9,118.2z M62,74c1.1,0,2-0.9,2-2V22c0-1.1-0.9-2-2-2s-2,0.9-2,2v50
	C60,73.1,60.9,74,62,74z M105,76c1.1,0,2-0.9,2-2V22c0-1.1-0.9-2-2-2s-2,0.9-2,2v52C103,75.1,103.9,76,105,76z M84,51
	c1.1,0,2-0.9,2-2V22c0-1.1-0.9-2-2-2s-2,0.9-2,2v27C82,50.1,82.9,51,84,51z M105.1,79c-0.1,0-0.1,0-0.2,0
	c-5.5,0.6-19.8,3.8-18.9,20.8c0.1,1.2,1,2.1,2.2,2.2h0.1c5.2-0.1,18.4-2.4,18.7-21C107,79.9,106.2,79,105.1,79L105.1,79z M97.1,95.2
	c-2.1,1.5-4.6,2.4-7.1,2.7c0.2-9.9,7.2-13.3,12.9-14.5C102.4,88.8,100.4,92.8,97.1,95.2z M104.9,102c-5.5,0.6-19.8,3.8-18.9,20.8
	c0.1,1.2,1,2.1,2.2,2.2h0.1c5.2-0.1,18.4-2.4,18.7-21c0-1.1-0.8-1.9-1.8-2l0,0C105.1,102,105,102,104.9,102z M97.1,118.2
	c-2.1,1.5-4.6,2.4-7.1,2.7c0.2-9.9,7.2-13.3,12.9-14.5C102.4,111.8,100.4,115.8,97.1,118.2z M57.7,125L57.7,125
	c1.2-0.1,2.2-1,2.3-2.2c0.9-17-13.4-20.2-18.9-20.8c-0.1,0-0.1,0-0.2,0c-1.1,0-1.9,0.9-1.9,1.9l0,0C39.3,122.6,52.5,124.9,57.7,125
	L57.7,125z M56,120.9c-2.6-0.3-5-1.2-7.1-2.7c-3.3-2.4-5.2-6.4-5.7-11.8C48.7,107.5,55.8,111,56,120.9z M33.6,100.5
	c0.8,0.7,2.1,0.7,2.8-0.1c0.7-0.8,0.7-2.1-0.1-2.8l0,0l-13-12c-0.8-0.8-2.1-0.7-2.8,0.1c-0.8,0.8-0.7,2.1,0.1,2.8l0,0L33.6,100.5z
	 M33.6,123.5c0.8,0.7,2.1,0.7,2.8-0.1c0.7-0.8,0.7-2.1-0.1-2.8l-13-12c-0.8-0.8-2.1-0.7-2.8,0.1c-0.8,0.8-0.7,2.1,0.1,2.8l0,0
	L33.6,123.5z M110.2,125L110.2,125c5.2-0.1,18.4-2.4,18.8-21c0-1.1-0.8-1.9-1.8-2l0,0c-0.1,0-0.1,0-0.2,0
	c-5.5,0.6-19.8,3.8-18.9,20.8C108.1,124,109.1,124.9,110.2,125z M124.9,106.4c-0.5,5.4-2.4,9.4-5.7,11.8c-2.1,1.5-4.6,2.4-7.1,2.7
	C112.2,111,119.3,107.5,124.9,106.4z M133,101c0.5,0,1-0.2,1.4-0.5l13-12c0.8-0.8,0.8-2,0.1-2.8s-2-0.8-2.8-0.1l-13,12
	c-0.8,0.7-0.9,2-0.1,2.8C131.9,100.8,132.4,101,133,101z M133,124c0.5,0,1-0.2,1.4-0.5l13-12c0.8-0.8,0.8-2,0.1-2.8s-2-0.8-2.8-0.1
	l-13,12c-0.8,0.7-0.9,2-0.1,2.8C131.9,123.8,132.4,124,133,124z"/>
<circle class="st0" cx="2" cy="148" r="2"/>
<path class="st1" d="M11,146H8c-1.1,0-2,0.9-2,2s0.9,2,2,2h3c1.1,0,2-0.9,2-2S12.1,146,11,146z M160,146h-3c-1.1,0-2,0.9-2,2
	s0.9,2,2,2h3c1.1,0,2-0.9,2-2S161.1,146,160,146z"/>
<circle class="st0" cx="166" cy="148" r="2"/>
<path class="st1" d="M150.7,146h-31.9c5-2.4,10-7.7,10.2-19c0-1.1-0.8-1.9-1.8-2l0,0c-0.1,0-0.1,0-0.2,0
	c-5.5,0.6-19.8,3.8-18.9,20.8c0,0.1,0,0.1,0,0.2H96.8c5-2.4,10-7.7,10.2-19c0-1.1-0.8-1.9-1.8-2l0,0c-0.1,0-0.1,0-0.2,0
	c-5.5,0.6-19.8,3.8-18.9,20.8c0,0.1,0,0.1,0,0.2H82c0-0.1,0-0.1,0-0.2c0.9-17-13.4-20.2-18.9-20.8c-0.1,0-0.1,0-0.2,0
	c-1.1,0-1.9,0.9-1.9,1.9l0,0c0.2,11.4,5.1,16.6,10.2,19H59.9c0-0.1,0-0.1,0-0.2c0.9-17-13.4-20.2-18.9-20.8c-0.1,0-0.1,0-0.2,0
	c-1.1,0-1.9,0.9-1.9,1.9l0,0c0.2,11.4,5.1,16.6,10.2,19H17.3c-1.1-0.1-2.1,0.6-2.3,1.7c-0.1,1.1,0.6,2.1,1.7,2.3c0.2,0,0.3,0,0.5,0
	h133.4c1.1,0.1,2.1-0.6,2.3-1.7s-0.6-2.1-1.7-2.3C151.1,146,150.9,146,150.7,146L150.7,146z M124.9,129.4c-0.5,5.4-2.4,9.4-5.7,11.8
	c-2.1,1.5-4.6,2.4-7.1,2.7C112.2,134,119.3,130.5,124.9,129.4L124.9,129.4z M102.9,129.4c-0.5,5.4-2.4,9.4-5.7,11.8
	c-2.1,1.5-4.6,2.4-7.1,2.7C90.2,134,97.3,130.5,102.9,129.4L102.9,129.4z M65.1,129.4c5.6,1.2,12.6,4.6,12.9,14.5
	c-2.6-0.3-5-1.2-7.1-2.7C67.6,138.8,65.6,134.8,65.1,129.4z M43.1,129.4c5.6,1.2,12.6,4.6,12.9,14.5c-2.6-0.3-5-1.2-7.1-2.7
	C45.6,138.8,43.6,134.8,43.1,129.4z"/>
<path class="st1" d="M118.2,155h-8.3c-1.1,0.1-1.9,1.1-1.8,2.2c0.1,1,0.9,1.8,1.8,1.8h8.3c1.1-0.1,1.9-1.1,1.8-2.2
	C119.9,155.9,119.1,155.1,118.2,155z M58.2,155h-8.3c-1.1,0.1-1.9,1.1-1.8,2.2c0.1,1,0.9,1.8,1.8,1.8h8.3c1.1-0.1,1.9-1.1,1.8-2.2
	C59.9,155.9,59.1,155.1,58.2,155z M104,155H64c-1.1,0-2,0.9-2,2s0.9,2,2,2h15.9v2H72c-1.1,0-2,0.9-2,2s0.9,2,2,2h25c1.1,0,2-0.9,2-2
	s-0.9-2-2-2h-8.9v-2H104c1.1,0,2-0.9,2-2S105.1,155,104,155z"/>
</svg>
