<?xml version="1.0" encoding="utf-8"?>
<!-- Generator: Adobe Illustrator 24.3.0, SVG Export Plug-In . SVG Version: 6.00 Build 0)  -->
<svg version="1.1" id="Слой_1" xmlns="http://www.w3.org/2000/svg" xmlns:xlink="http://www.w3.org/1999/xlink" x="0px" y="0px"
	 viewBox="0 0 168 168" style="enable-background:new 0 0 168 168;" xml:space="preserve">
<style type="text/css">
	.st0{fill:#9BD63E;}
	.st1{fill:#333333;}
</style>
<path class="st0" d="M106,70h26c1.1,0,2-0.9,2-2V53.1c-0.1-2.4-1.8-4.4-4.2-4.9c-1,1.5-2.4,2.8-3.9,3.8h2.5c0.9,0,1.6,0.6,1.6,1.1
	V66h-22V53.1c0-0.5,0.7-1.1,1.6-1.1h2.5c-1.6-1-2.9-2.3-3.9-3.8c-2.4,0.5-4.1,2.5-4.2,4.9V68C104,69.2,104.9,70,106,70L106,70z"/>
<path class="st0" d="M119,50c5,0,9-4,9-9s-4-9-9-9s-9,4-9,9l0,0C110,46,114,50,119,50z M119,36c2.8,0,5,2.2,5,5s-2.2,5-5,5
	s-5-2.2-5-5C114,38.3,116.2,36.1,119,36z"/>
<path class="st0" d="M128.4,122c0.9,0,1.6,0.6,1.6,1.1V136h-22v-12.9c0-0.5,0.7-1.1,1.6-1.1h2.5c-1.6-1-2.9-2.3-3.9-3.8
	c-2.4,0.5-4.1,2.5-4.2,4.9V138c0,1.1,0.9,2,2,2h26c1.1,0,2-0.9,2-2v-14.9c-0.1-2.4-1.8-4.4-4.2-4.9c-1,1.5-2.4,2.8-3.9,3.8H128.4z"
	/>
<path class="st0" d="M110,111c0,5,4,9,9,9s9-4,9-9s-4-9-9-9C114,102.1,110,106.1,110,111z M124,111c0,2.8-2.2,5-5,5s-5-2.2-5-5
	s2.2-5,5-5C121.8,106.1,124,108.3,124,111z"/>
<path class="st0" d="M36,105h26c1.1,0,2-0.9,2-2V88.1c-0.1-2.4-1.8-4.4-4.2-4.9c-1,1.5-2.4,2.8-3.9,3.8h2.5c0.9,0,1.6,0.6,1.6,1.1
	V101H38V88.1c0-0.5,0.7-1.1,1.6-1.1h2.5c-1.6-1-2.9-2.3-3.9-3.8c-2.4,0.5-4.1,2.5-4.2,4.9V103C34,104.2,34.9,105,36,105z"/>
<path class="st0" d="M49,85c5,0,9-4,9-9s-4-9-9-9s-9,4-9,9S44,85,49,85z M49,71c2.8,0,5,2.2,5,5s-2.2,5-5,5s-5-2.2-5-5
	C44,73.3,46.2,71.1,49,71z"/>
<circle class="st1" cx="2" cy="150.1" r="2"/>
<path class="st1" d="M11,148.1H8c-1.1,0-2,0.9-2,2s0.9,2,2,2h3c1.1,0,2-0.9,2-2S12.1,148.1,11,148.1z M160,148.1h-3
	c-1.1,0-2,0.9-2,2s0.9,2,2,2h3c1.1,0,2-0.9,2-2S161.1,148.1,160,148.1z"/>
<circle class="st1" cx="166" cy="150.1" r="2"/>
<path class="st0" d="M118.2,156.1h-8.3c-1.1,0.1-1.9,1.1-1.8,2.2c0.1,1,0.9,1.8,1.8,1.8h8.3c1.1-0.1,1.9-1.1,1.8-2.2
	C119.9,156.9,119.1,156.1,118.2,156.1z M58.2,156.1h-8.3c-1.1,0.1-1.9,1.1-1.8,2.2c0.1,1,0.9,1.8,1.8,1.8h8.3
	c1.1-0.1,1.9-1.1,1.8-2.2C59.9,156.9,59.1,156.1,58.2,156.1z M104,156.1H64c-1.1,0-2,0.9-2,2s0.9,2,2,2h15.9v2H72c-1.1,0-2,0.9-2,2
	s0.9,2,2,2h25c1.1,0,2-0.9,2-2s-0.9-2-2-2h-8.9v-2H104c1.1,0,2-0.9,2-2S105.1,156.1,104,156.1z"/>
<path class="st1" d="M150.7,148.1h-17.1c13.8-8.1,18.4-25.9,10.3-39.7c-4.8-8.3-13.5-13.6-23-14.3V82c16-1.1,28-15,26.9-30.9
	c-1.1-16-15-28-30.9-26.9s-28,15-26.9,30.9c0.2,2.2,0.6,4.4,1.2,6.5L73.1,72c-8.9-13.3-26.9-16.9-40.2-8s-16.9,26.9-8,40.2
	s26.9,16.9,40.2,8c3.2-2.1,5.9-4.9,8-8l18.2,10.4c-4,12.9,1.4,26.7,13,33.5h-87c-1.1-0.1-2.1,0.6-2.3,1.7c-0.1,1.1,0.6,2.1,1.7,2.3
	c0.2,0,0.3,0,0.5,0h133.4c1.1,0.1,2.1-0.6,2.3-1.7s-0.6-2.1-1.7-2.3C151.1,148,150.9,148,150.7,148.1L150.7,148.1z M119,28
	c13.8,0,25,11.2,25,25s-11.2,25-25,25S94,66.9,94,53C94,39.2,105.2,28.1,119,28z M49,113c-13.8,0-25-11.2-25-25s11.2-25,25-25
	s25,11.2,25,25C74,101.9,62.8,113,49,113z M75.1,100.7c3.9-8,3.9-17.3,0-25.2l17.6-10.1c4.5,9.5,13.8,15.9,24.3,16.6v12.2
	c-10.5,0.7-19.8,7.1-24.3,16.6L75.1,100.7z M94,123c0-13.8,11.2-25,25-25s25,11.2,25,25s-11.2,25-25,25l0,0
	C105.2,148,94,136.9,94,123z"/>
</svg>
