<?xml version="1.0" encoding="utf-8"?>
<!-- Generator: Adobe Illustrator 24.3.0, SVG Export Plug-In . SVG Version: 6.00 Build 0)  -->
<svg version="1.1" id="Слой_1" xmlns="http://www.w3.org/2000/svg" xmlns:xlink="http://www.w3.org/1999/xlink" x="0px" y="0px"
	 viewBox="0 0 168 168" style="enable-background:new 0 0 168 168;" xml:space="preserve">
<style type="text/css">
	.st0{fill:#333333;}
	.st1{fill:#9BD63E;}
</style>
<path class="st0" d="M127,51.5c-5.3,2.2-12.9,6.6-16.4,14.8c0.2,2.8,0.3,5.5,0.4,8.3c0.6-0.2,1.2-0.4,1.9-0.6
	c1.3-16.4,19.7-20.2,20.5-20.4c1.1-0.2,1.8-1.3,1.6-2.3c-0.1-0.6-0.5-1.1-1-1.4c-0.5-0.3-12.9-6.7-26.5-2.4c0.3,1.3,0.7,2.6,1,3.9
	C114.4,49.6,120.9,49.6,127,51.5z M34.6,53.6c0.9,0.2,19.2,3.9,20.5,20.4c0.6,0.2,1.2,0.4,1.9,0.6c0-2.8,0.1-5.5,0.4-8.3
	C53.9,58,46.3,53.6,41,51.4c6.1-1.9,12.5-1.9,18.6-0.1c0.3-1.3,0.6-2.6,1-3.9c-13.6-4.3-26,2.1-26.5,2.4c-1,0.5-1.4,1.7-0.8,2.7
	C33.5,53.1,34,53.5,34.6,53.6L34.6,53.6z"/>
<path class="st1" d="M62.8,77.2c0.3,0.2,1.8,1,2.2,1.3c0-0.1,0-0.3,0-0.4h7v5.7c0.5,0.5,1,1,1.5,1.5c0.9,0.9,1.8,1.8,2.7,2.8H82v6
	h-1.2c0.4,0.6,0.8,1.3,1.2,1.9c0.7,1.1,1.3,2.2,2,3.3c1-1.8,2.1-3.5,3.2-5.2H86v-6h5.8c0.3-0.3,0.6-0.6,0.9-1
	c1.1-1.2,2.1-2.3,3.3-3.3V78h7c0,0.1,0,0.3,0,0.4c0.4-0.2,0.8-0.5,1.2-0.7c0.9-0.5,1.8-1,2.8-1.5c0-0.1,0-0.2,0-0.2
	c0-29.2-10.1-52-23-52S61,46.8,61,76c0,0.1,0,0.2,0,0.2C61.6,76.5,62.2,76.8,62.8,77.2z M96,39.2c0.8,1.6,1.4,3.2,2,4.8h-2V39.2z
	 M96,48h3.3c0.6,1.9,1.1,3.9,1.5,6H96V48z M96,58h5.6c0.3,1.9,0.6,3.9,0.8,6H96V58z M96,68h6.7c0.1,1.9,0.2,3.9,0.2,6h-7v-6H96z
	 M86,28.3c2.4,0.9,4.5,2.4,6,4.5V34h-6V28.3z M86,38h6v6h-6V38z M86,48h6v6h-6V48z M86,58h6v6h-6V58z M86,68h6v6h-6V68z M86,78h6v6
	h-6V78z M76,32.8c1.5-2,3.6-3.6,6-4.5V34h-6V32.8z M76,38h6v6h-6V38z M76,48h6v6h-6V48z M76,58h6v6h-6V58z M76,68h6v6h-6V68z M76,78
	h6v6h-6V78z M72,39.2V44h-2C70.6,42.4,71.2,40.8,72,39.2L72,39.2z M68.7,48H72v6h-4.9C67.6,51.9,68.1,49.9,68.7,48z M66.4,58H72v6
	h-6.4C65.8,61.9,66.1,59.9,66.4,58z M65.3,68H72v6h-7C65.1,71.9,65.1,69.9,65.3,68z"/>
<circle class="st0" cx="2" cy="150" r="2"/>
<path class="st0" d="M11,148H8c-1.1,0-2,0.9-2,2s0.9,2,2,2h3c1.1,0,2-0.9,2-2S12.1,148,11,148z M160,148h-3c-1.1,0-2,0.9-2,2
	s0.9,2,2,2h3c1.1,0,2-0.9,2-2S161.1,148,160,148z"/>
<circle class="st0" cx="166" cy="150" r="2"/>
<path class="st1" d="M118.2,156h-8.3c-1.1,0.1-1.9,1.1-1.8,2.2c0.1,1,0.9,1.8,1.8,1.8h8.3c1.1-0.1,1.9-1.1,1.8-2.2
	C119.9,156.9,119.1,156.1,118.2,156z M58.2,156h-8.3c-1.1,0.1-1.9,1.1-1.8,2.2c0.1,1,0.9,1.8,1.8,1.8h8.3c1.1-0.1,1.9-1.1,1.8-2.2
	C59.9,156.9,59.1,156.1,58.2,156z M104,156H64c-1.1,0-2,0.9-2,2s0.9,2,2,2h15.9v2H72c-1.1,0-2,0.9-2,2s0.9,2,2,2h25c1.1,0,2-0.9,2-2
	s-0.9-2-2-2h-8.9v-2H104c1.1,0,2-0.9,2-2S105.1,156,104,156z"/>
<path class="st0" d="M150.7,148H90.1c0.6-1.2,1-2.6,0.9-4c0-0.1,0-0.1,0-0.2c26.5-2.4,29.1-24.9,29.2-25.1c0-0.2,0-0.3,0-0.5
	c-3.5-27.4,25-33.4,26.2-33.6c1.1-0.2,1.8-1.3,1.6-2.3c-0.1-0.6-0.5-1.1-1-1.4c-0.7-0.4-17.3-9-35.1-2.4
	c-11.8,4.4-21.1,14.4-27.8,29.7C77.4,92.9,68,82.9,56.3,78.5c-17.8-6.7-34.4,2-35.1,2.4c-1,0.5-1.3,1.7-0.8,2.7
	c0.3,0.5,0.8,0.9,1.4,1c1.2,0.2,29.8,6.1,26.2,33.6c0,0.2,0,0.3,0,0.5s2.7,22.7,29.2,25.1c0,0.1,0,0.2,0,0.2c0,1.4,0.3,2.8,0.9,4
	H17.3c-1.1-0.1-2.1,0.6-2.3,1.7c-0.1,1.1,0.6,2.1,1.7,2.3c0.2,0,0.3,0,0.5,0h133.4c1.1,0.1,2.1-0.6,2.3-1.7s-0.6-2.1-1.7-2.3
	C151.1,148,150.9,148,150.7,148L150.7,148z M113.2,82.3c10.6-4,20.9-1.9,26.8,0.1c-9.3,3.5-26.7,13.2-23.9,36.1
	c-0.3,2.4-3.8,21.6-30.1,21.5v-11.2c4.4-0.7,15-3.6,18.3-16.9c1.7-6.7,3-14.4,10.4-17.1c1-0.4,1.6-1.5,1.2-2.6
	c-0.4-1-1.5-1.6-2.6-1.2l0,0c-11.2,4.1-12.7,18.1-12.9,20c-2.7,10.5-10.6,13-14.4,13.7c0,0,0-10.8,0-10.9
	C92.4,97.3,101.5,86.7,113.2,82.3z M51.9,118.5c2.8-23-14.6-32.6-23.9-36.1c5.9-2,16.3-4.1,26.8-0.1c11.7,4.4,20.8,15,27.2,31.7
	v10.9c-3.8-0.6-11.7-3.2-14.4-13.7c-0.2-1.9-1.7-15.9-12.9-20c-1-0.4-2.2,0.2-2.6,1.2s0.2,2.2,1.2,2.6c7.3,2.6,8.7,10.5,10.4,17.1
	C67,125.4,77.6,128.3,82,129v11C55.6,140.1,52.2,120.8,51.9,118.5z M81,144c0,0,2.7,0,3,0c1,0,2,0,3,0c0,2.2-1.4,4-3,4
	S81,146.2,81,144z"/>
</svg>
