<?xml version="1.0" encoding="utf-8"?>
<!-- Generator: Adobe Illustrator 24.3.0, SVG Export Plug-In . SVG Version: 6.00 Build 0)  -->
<svg version="1.1" id="Слой_1" xmlns="http://www.w3.org/2000/svg" xmlns:xlink="http://www.w3.org/1999/xlink" x="0px" y="0px"
	 viewBox="0 0 168 168" style="enable-background:new 0 0 168 168;" xml:space="preserve">
<style type="text/css">
	.st0{fill:#9BD63E;}
	.st1{fill:#333333;}
</style>
<path class="st0" d="M118.2,155.2h-8.3c-1.1,0.1-1.9,1.1-1.8,2.2c0.1,1,0.9,1.8,1.8,1.8h8.3c1.1-0.1,1.9-1.1,1.8-2.2
	C119.9,156.1,119.1,155.3,118.2,155.2z M58.2,155.2h-8.3c-1.1,0.1-1.9,1.1-1.8,2.2c0.1,1,0.9,1.8,1.8,1.8h8.3
	c1.1-0.1,1.9-1.1,1.8-2.2C59.9,156.1,59.1,155.3,58.2,155.2z M104,155.2H64c-1.1,0-2,0.9-2,2s0.9,2,2,2h15.9v2H72c-1.1,0-2,0.9-2,2
	s0.9,2,2,2h25c1.1,0,2-0.9,2-2s-0.9-2-2-2h-8.9v-2H104c1.1,0,2-0.9,2-2S105.1,155.2,104,155.2z"/>
<path class="st1" d="M91.6,62.8c1.6,0.3,3.2,0.5,4.9,0.5l0,0c5.9,0,16.3-2,19.5-15.2c0.3-1.1-0.4-2.2-1.5-2.4h-0.1
	c-1.5-0.2-2.9-0.3-4.4-0.3c-11.1,0-18.3,5.6-19.9,15.3C89.9,61.5,90.5,62.5,91.6,62.8z M109.9,49.2c0.5,0,1,0,1.4,0
	c-2.5,7.1-7.9,9.4-12.8,9.8l6.1-3.7c0.9-0.6,1.3-1.8,0.7-2.7c-0.6-0.9-1.8-1.3-2.7-0.7l0,0l-7.2,4.4
	C98.6,50.6,104.8,49.2,109.9,49.2L109.9,49.2z M24.2,110.2c0.4,1,1.6,1.5,2.6,1.2c1-0.4,1.5-1.6,1.2-2.6l0,0
	c-0.1-0.3-0.2-0.6-0.3-0.9c-0.4-1-1.5-1.6-2.6-1.2c-1,0.4-1.6,1.5-1.2,2.6C24,109.6,24.1,109.9,24.2,110.2z"/>
<path class="st0" d="M33.6,51c0.9,0.7,2.1,0.5,2.8-0.4l0,0c0.2-0.3,0.4-0.5,0.6-0.8c0.7-0.9,0.5-2.1-0.3-2.8
	c-0.9-0.7-2.1-0.5-2.8,0.3c-0.2,0.3-0.4,0.5-0.6,0.8C32.6,49.1,32.8,50.3,33.6,51L33.6,51z M47.8,38.9c0.4,0,0.8-0.1,1.2-0.4
	c0.3-0.2,0.5-0.4,0.8-0.6c0.9-0.6,1.1-1.9,0.5-2.8c-0.6-0.9-1.9-1.1-2.8-0.5l0,0c-0.3,0.2-0.6,0.4-0.8,0.6c-0.9,0.6-1.1,1.9-0.5,2.8
	C46.6,38.6,47.2,38.9,47.8,38.9z M25.4,100.4c-0.1-0.3-0.1-0.6-0.2-1c-0.2-1.1-1.3-1.8-2.4-1.6c-1.1,0.2-1.8,1.3-1.6,2.4
	c0.1,0.3,0.1,0.7,0.2,1c0.2,1.1,1.3,1.8,2.4,1.5C25,102.5,25.7,101.5,25.4,100.4L25.4,100.4z"/>
<path class="st1" d="M40.9,44.7c0.5,0,1-0.2,1.4-0.6c0.2-0.2,0.5-0.4,0.7-0.7c0.8-0.8,0.8-2,0.1-2.8c-0.8-0.8-2-0.8-2.8-0.1
	c-0.3,0.2-0.5,0.5-0.8,0.7c-0.8,0.8-0.8,2,0,2.8C39.8,44.5,40.3,44.7,40.9,44.7z"/>
<path class="st1" d="M134.5,54.8c0.6,0.9,1.8,1.2,2.8,0.6c0.9-0.6,1.2-1.8,0.6-2.8c-0.2-0.3-0.4-0.6-0.6-0.9
	c-0.6-0.9-1.9-1.2-2.8-0.6s-1.2,1.9-0.6,2.8l0,0C134.1,54.3,134.3,54.5,134.5,54.8z M93.6,26c0.1-1.1-0.6-2.1-1.7-2.2l0,0
	c-0.3,0-0.7-0.1-1-0.1c-0.1,0-0.1,0-0.2,0c0.9,1.1,1.7,2.2,2.4,3.4C93.4,26.7,93.6,26.4,93.6,26z"/>
<path class="st1" d="M138.3,61.6c0.1,0.3,0.3,0.6,0.4,0.9c0.5,1,1.6,1.5,2.6,1s1.5-1.6,1-2.6l0,0c-0.1-0.3-0.3-0.6-0.4-0.9
	c-0.5-1-1.7-1.4-2.7-0.9C138.2,59.4,137.8,60.6,138.3,61.6L138.3,61.6z M145,76.1c-1.1,0.2-1.8,1.2-1.7,2.3l0,0c0,0.3,0.1,0.6,0.1,1
	c0.1,1,1,1.7,2,1.7c0.1,0,0.2,0,0.3,0c1.1-0.1,1.9-1.1,1.7-2.2c0-0.3-0.1-0.7-0.1-1C147.1,76.6,146.1,75.9,145,76.1L145,76.1z"/>
<path class="st1" d="M141.4,69.8c0.1,0.3,0.2,0.6,0.3,0.9c0.3,1.1,1.4,1.7,2.5,1.4c1.1-0.3,1.7-1.4,1.4-2.5c-0.1-0.3-0.2-0.7-0.3-1
	c-0.3-1.1-1.4-1.7-2.5-1.3C141.7,67.6,141.1,68.7,141.4,69.8L141.4,69.8L141.4,69.8z"/>
<path class="st1" d="M22.2,93.9h0.1c1.1-0.1,1.9-1,1.8-2.1l0,0c0-0.3,0-0.6-0.1-1c-0.1-1.1-1-2-2.1-1.9s-2,1-1.9,2.1l0,0
	c0,0.3,0,0.7,0.1,1C20.3,93.1,21.1,93.9,22.2,93.9z"/>
<path class="st1" d="M22,84.8h0.1c1,0,1.9-0.8,2-1.9c0-0.3,0-0.6,0.1-1c0.1-1.1-0.7-2.1-1.8-2.2c-1.1-0.1-2.1,0.7-2.2,1.8
	c0,0.3-0.1,0.7-0.1,1C20.1,83.8,20.9,84.7,22,84.8z"/>
<path class="st1" d="M23,75.8c0.1,0,0.3,0,0.4,0c0.9,0,1.7-0.7,2-1.6c0.1-0.3,0.1-0.6,0.2-1c0.3-1.1-0.4-2.2-1.5-2.4
	c-1.1-0.3-2.1,0.4-2.4,1.5c-0.1,0.3-0.2,0.7-0.2,1C21.3,74.5,21.9,75.6,23,75.8L23,75.8z M72.6,28.3c0.1,0,0.2,0,0.4,0
	c0.3-0.1,0.6-0.1,1-0.2c0.2,0,0.3-0.1,0.5-0.1c0.4-0.7,0.8-1.4,1.2-2.1v-0.1c-0.2-1.1-1.2-1.8-2.3-1.6l0,0c-0.3,0.1-0.7,0.1-1,0.2
	c-1.1,0.2-1.8,1.2-1.6,2.3C70.8,27.6,71.6,28.3,72.6,28.3L72.6,28.3z"/>
<path class="st1" d="M25.3,67.1c1,0.4,2.2-0.1,2.6-1.2l0,0c0.1-0.3,0.2-0.6,0.4-0.9c0.4-1-0.1-2.2-1.1-2.6c-1-0.4-2.2,0.1-2.6,1.1
	l0,0c-0.1,0.3-0.3,0.6-0.4,1C23.8,65.5,24.3,66.7,25.3,67.1z"/>
<path class="st1" d="M28.9,58.7c1,0.5,2.2,0.2,2.7-0.8l0,0c0.2-0.3,0.3-0.6,0.5-0.8c0.6-1,0.2-2.2-0.7-2.7c-1-0.6-2.2-0.2-2.7,0.7
	c-0.2,0.3-0.3,0.6-0.5,0.9C27.6,57,27.9,58.2,28.9,58.7z M55.5,34.2c0.3,0,0.6-0.1,0.9-0.2c0.3-0.1,0.6-0.3,0.9-0.4
	c1-0.5,1.4-1.7,0.9-2.7s-1.7-1.4-2.7-0.9c-0.3,0.2-0.6,0.3-0.9,0.5c-1,0.5-1.4,1.7-0.9,2.7C54.1,33.7,54.8,34.2,55.5,34.2z
	 M129.2,47.8c0.7,0.8,2,0.9,2.8,0.2s0.9-2,0.2-2.8l0,0c-0.2-0.3-0.5-0.5-0.7-0.8c-0.7-0.8-2-0.9-2.8-0.1c-0.8,0.7-0.9,2-0.1,2.8
	C128.8,47.3,129,47.6,129.2,47.8z"/>
<path class="st0" d="M123,41.7c0.8,0.7,2.1,0.6,2.8-0.2c0.7-0.8,0.6-2.1-0.2-2.8l0,0c-0.3-0.2-0.5-0.4-0.8-0.7
	c-0.8-0.7-2.1-0.6-2.8,0.3c-0.7,0.8-0.6,2.1,0.3,2.8l0,0C122.5,41.2,122.8,41.4,123,41.7z M146,85.1c-1.1,0-2,0.9-2,2v0.2
	c0,0.3,0,0.6,0,1c0,1.1,0.9,2,2,2l0,0l0,0c1.1,0,2-0.9,2-2c0-0.3,0-0.7,0-1.1V87C148,85.9,147.1,85.1,146,85.1z"/>
<path class="st1" d="M115.1,35.9c0.3,0.2,0.6,0.3,0.8,0.5c0.9,0.6,2.2,0.3,2.8-0.6c0.6-0.9,0.3-2.2-0.6-2.8l0,0
	c-0.3-0.2-0.6-0.4-0.9-0.5c-0.9-0.6-2.2-0.3-2.7,0.7C113.9,34.1,114.2,35.4,115.1,35.9z M147.2,97.6c0.1-0.3,0.1-0.7,0.2-1
	c0.2-1.1-0.6-2.1-1.7-2.3s-2.1,0.6-2.3,1.7l0,0c0,0.3-0.1,0.6-0.1,1c-0.2,1.1,0.6,2.1,1.7,2.3l0,0c0.1,0,0.2,0,0.3,0
	C146.2,99.3,147,98.6,147.2,97.6z"/>
<path class="st1" d="M144,103.2c-1.1-0.3-2.2,0.3-2.5,1.3l0,0c-0.1,0.3-0.2,0.6-0.3,0.9c-0.3,1.1,0.2,2.2,1.3,2.5s2.2-0.2,2.5-1.3
	l0,0c0.1-0.3,0.2-0.7,0.3-1C145.6,104.6,145,103.5,144,103.2z M63.9,30.6c0.2,0,0.4,0,0.6-0.1c0.3-0.1,0.6-0.2,0.9-0.3
	c1.1-0.3,1.6-1.5,1.3-2.5c-0.3-1.1-1.5-1.6-2.5-1.3c-0.3,0.1-0.7,0.2-1,0.3c-1,0.4-1.6,1.5-1.2,2.5C62.2,30.1,63,30.6,63.9,30.6
	L63.9,30.6z M107.3,32c0.3,0.1,0.6,0.3,0.9,0.4c1,0.4,2.2,0,2.6-1s0-2.2-1-2.6c-0.3-0.1-0.6-0.3-1-0.4c-1-0.4-2.2,0-2.6,1.1
	C105.8,30.4,106.3,31.5,107.3,32L107.3,32z"/>
<path class="st1" d="M99,29.1c0.3,0.1,0.6,0.2,0.9,0.3c1.1,0.3,2.2-0.3,2.5-1.4s-0.3-2.1-1.4-2.4c-0.3-0.1-0.7-0.2-1-0.3
	c-1.1-0.3-2.2,0.4-2.4,1.4C97.3,27.8,98,28.9,99,29.1L99,29.1z M71.6,63.2c1.6,0,3.3-0.1,4.9-0.5c1-0.2,1.7-1.2,1.5-2.3
	c-1.6-9.7-8.8-15.3-19.9-15.3c-1.5,0-2.9,0.1-4.4,0.3c-1.1,0.2-1.8,1.2-1.6,2.3v0.1C55.3,61.3,65.7,63.2,71.6,63.2z M58.1,49.2
	c5.2,0,11.4,1.4,14.4,7.1L65.3,52c-0.9-0.6-2.2-0.3-2.7,0.7c-0.6,0.9-0.3,2.2,0.7,2.7l0,0l6.1,3.7c-4.8-0.5-10.2-2.8-12.8-9.8
	C57,49.3,57.5,49.2,58.1,49.2z M116.9,94.6c1,0.3,1.9,1,2.2,2.1c0.3,1.1,1.4,1.7,2.4,1.4s1.7-1.4,1.4-2.4c-0.7-2.4-2.6-4.2-4.9-4.9
	v-1.5c0-1.1-0.9-2-2-2s-2,0.9-2,2v1.5c-1.5,0.3-2.8,1.3-3.6,2.6c-1.1,1.8-1.1,4.1,0,6c1.2,2.2,3.5,2.9,5.2,3.4
	c1.8,0.5,2.6,0.9,2.9,1.7c1.3-0.4,2.6-0.7,3.9-0.9c0-0.1,0-0.1,0-0.2c-0.9-3-3.6-3.9-5.6-4.4c-1.5-0.5-2.5-0.8-2.9-1.5
	c-0.3-0.6-0.4-1.3,0-1.9C114.4,94.5,115.8,94.3,116.9,94.6z M126.9,123.6c1,0.3,1.9,1,2.2,2.1s1.4,1.7,2.4,1.4s1.7-1.4,1.4-2.4
	c-0.7-2.4-2.6-4.2-4.9-4.9v-1.5c0-1.1-0.9-2-2-2s-2,0.9-2,2v1.5c-1.5,0.3-2.8,1.3-3.6,2.6c-1.1,1.8-1.1,4.1,0,6
	c1.2,2.2,3.5,2.9,5.2,3.4c1.9,0.6,2.6,0.9,2.9,1.8c0.1,0.7-0.3,1.5-1,1.7c-0.9,0.4-1.9,0.3-2.7-0.1c-0.9-0.4-1.6-1.1-1.9-2
	c-0.3-1.1-1.5-1.6-2.5-1.3s-1.6,1.5-1.3,2.5c0.7,2,2.2,3.6,4.1,4.5c0.3,0.1,0.5,0.2,0.8,0.3v1.2c0,1.1,0.9,2,2,2s2-0.9,2-2v-1
	c0.4-0.1,0.8-0.2,1.2-0.4c2.6-1.1,3.9-3.9,3.2-6.5c-0.9-3-3.6-3.9-5.6-4.4c-1.5-0.5-2.5-0.8-2.9-1.5c-0.3-0.6-0.4-1.3,0-1.9
	C124.4,123.5,125.8,123.3,126.9,123.6z M42.9,123.6c1,0.3,1.9,1,2.2,2.1s1.4,1.7,2.4,1.4s1.7-1.4,1.4-2.4c-0.7-2.4-2.6-4.2-4.9-4.9
	v-1.5c0-1.1-0.9-2-2-2s-2,0.9-2,2v1.5c-1.5,0.3-2.8,1.3-3.6,2.6c-1.1,1.8-1.1,4.1,0,6c1.2,2.2,3.5,2.9,5.2,3.4
	c1.9,0.6,2.6,0.9,2.9,1.8c0.1,0.7-0.3,1.5-1,1.7c-0.9,0.4-1.9,0.3-2.7-0.1c-0.9-0.4-1.6-1.1-1.9-2c-0.3-1.1-1.5-1.6-2.5-1.3
	c-1.1,0.3-1.6,1.5-1.3,2.5c0.7,2,2.2,3.6,4.1,4.5c0.3,0.1,0.5,0.2,0.8,0.3v1.2c0,1.1,0.9,2,2,2s2-0.9,2-2v-1
	c0.4-0.1,0.8-0.2,1.2-0.4c2.6-1.1,3.9-3.9,3.2-6.5c-0.9-3-3.6-3.9-5.6-4.4c-1.5-0.5-2.5-0.8-2.9-1.5c-0.3-0.6-0.4-1.3,0-1.9
	C40.3,123.5,41.8,123.3,42.9,123.6z"/>
<path class="st1" d="M82,68.1c-0.4,0.5-0.8,1-1.1,1.4c-0.6,0.7-1.5,1.2-2.5,1.3c-0.4,0-0.8-0.1-1.2-0.3c-1.3-0.6-2.4-1.9-3.8-2.3
	c-0.1,0-0.3-0.1-0.4-0.1c-0.9,0-1.6,0.7-1.6,1.6l0,0c-0.1,1.3,1,2.6,1.6,3.5c0,0,1.9,2.8,3.4,9.9H76c-1.1,0-2,0.9-2,2s0.9,2,2,2
	c-2.9,4.1-6.4,8-9.2,12c-2.6,3.6-4.8,7.3-6.8,11.3c1.1,1,2,2.1,2.9,3.3c2-4.3,4.4-8.4,7.2-12.3c1.3-1.9,2.8-3.8,4.4-5.8
	c2-2.5,4-5,5.8-7.7l0.6-0.9h8l0.5,0.8c1.8,2.8,3.9,5.4,6.1,7.9c1.6,1.9,3.1,3.6,4.5,5.6c2.4,3.4,4.6,6.9,6.4,10.7
	c0.9-1.1,1.9-2.1,3-3c-1.8-3.5-3.9-6.8-6.2-10c-3.1-4.4-6.7-7.8-9.6-12.1c1.1-0.3,1.7-1.4,1.4-2.4c-0.2-0.8-0.9-1.4-1.7-1.5
	c0.5-2.9,1.5-7.3,2.5-9.6c0.8-1.8,3.5-4.9,2.8-7.2c-0.4-0.8-1.3-1.4-2.2-1.3c-0.2,0-0.3,0-0.5,0c-2.9,0.5-4.6,5-7.6,5
	c-0.3,0-0.6,0-0.9-0.1c-0.6-0.2-1.1-0.7-1.4-1.3V52.2c1.5-1.7,6.3-7.8,6-15.3c-0.2-4.9-2.5-9.3-6.7-13.1c-0.7-0.7-1.8-0.7-2.6-0.1
	c-3.7,3.3-6.1,7.8-6.6,12.8c-0.4,5.2,1.6,10.3,6,15.3v16.3H82z M86.3,74c1.7,0.5,3.6,0.3,5.2-0.5c-1,3.2-1.8,6.4-2.3,9.8h-8.7
	c-0.5-2.9-1.3-5.7-2.4-8.4c0.1,0,0.2,0,0.3,0c2,0,3.9-0.9,5.3-2.4C84.4,73.1,85.3,73.7,86.3,74z M80,36.8c0.3-3.3,1.7-6.3,3.9-8.8
	c2.4,2.4,3.9,5.6,4.1,8.9c0,2.8-0.6,5.5-1.9,7.9L86,35.2c0-1.1-0.9-2-2-2s-2,0.9-2,2v9.7C80.6,42.5,79.9,39.7,80,36.8z M46.4,102.8
	c-0.4,0.1-0.7,0.4-1,0.7c1.2,0.2,2.4,0.4,3.5,0.7c0,0,0-0.1-0.1-0.1C48.6,103,47.4,102.5,46.4,102.8L46.4,102.8z"/>
<path class="st1" d="M30,100.2c0,1.9,0.2,3.8,0.7,5.6c1.2-0.6,2.5-1.1,3.8-1.5c-2.3-9.7,3.7-19.4,13.4-21.6
	c7.8-1.8,15.9,1.7,19.8,8.8c0.2-0.2,0.3-0.4,0.5-0.6c0.7-0.9,1.4-1.8,2.1-2.7C63.7,78,50,75.2,39.9,81.9C33.7,86,30,92.9,30,100.2z"
	/>
<path class="st1" d="M52.9,94.6c1,0.3,1.9,1,2.2,2.1s1.4,1.7,2.4,1.4s1.7-1.4,1.4-2.4c-0.7-2.4-2.6-4.2-4.9-4.9v-1.5
	c0-1.1-0.9-2-2-2s-2,0.9-2,2v1.5c-1.5,0.3-2.8,1.3-3.6,2.6c-1.1,1.8-1.1,4.1,0,6c1.2,2.2,3.5,2.9,5.2,3.4c1.9,0.6,2.6,0.9,2.9,1.8
	c0.1,0.7-0.2,1.3-0.8,1.6c1,0.5,2,1.1,2.9,1.7c0.6-1.2,1.2-2.4,1.9-3.5c0-0.3-0.1-0.7-0.2-1c-0.9-3-3.6-3.9-5.6-4.4
	c-1.5-0.5-2.5-0.8-2.9-1.5c-0.3-0.6-0.4-1.3,0-1.9C50.3,94.5,51.8,94.3,52.9,94.6z M110.4,102.8c-0.1,0-0.2,0.1-0.3,0.1
	c0.8,1.4,1.6,2.7,2.3,4.2c0.7-0.4,1.4-0.8,2.1-1.2c-0.7-0.4-1.3-1.1-1.6-1.9C112.6,103,111.4,102.5,110.4,102.8L110.4,102.8z
	 M137.3,105.8c3.1-11.8-4-23.8-15.7-26.9c-8.6-2.3-17.8,0.9-23.2,8.1c0.8,1.1,1.7,2.1,2.6,3.2c5.5-8.3,16.6-10.5,24.9-5.1
	c6.3,4.2,9.3,11.8,7.6,19.2C134.8,104.7,136.1,105.2,137.3,105.8z"/>
<path class="st0" d="M86.7,112.1c2,0.4,3.7,1.8,4.4,3.7c0.3,1.1,1.4,1.7,2.5,1.4s1.7-1.4,1.4-2.5l0,0c-1.1-3.4-4-5.9-7.5-6.5
	c-0.1,0-0.3,0-0.4-0.1l0,0v-2.8c0-1.1-0.9-2-2-2s-2,0.9-2,2v2.8c0,0,0,0,0,0.1c-2.4,0.3-4.5,1.5-5.9,3.5c-1.6,2.4-1.6,5.5,0,7.9
	c1.8,2.8,4.9,3.7,7.7,4.5c3,0.8,4.8,1.4,5.4,3.2c0.5,1.6-0.8,3-2.2,3.5c-1.9,0.7-3.9,0.6-5.7-0.2c-1.6-0.6-2.8-1.9-3.4-3.4
	c-0.4-1-1.5-1.6-2.6-1.2s-1.6,1.5-1.2,2.6c1,2.6,3,4.7,5.6,5.7c0.7,0.3,1.5,0.6,2.3,0.8v2.3c0,1.1,0.9,2,2,2s2-0.9,2-2v-2.2
	c0.9-0.1,1.7-0.3,2.5-0.7c3.7-1.5,5.6-5.1,4.5-8.5c-1.3-3.9-5.1-5-8.2-5.8c-2.3-0.6-4.4-1.2-5.4-2.7c-0.7-1.1-0.7-2.4-0.1-3.5
	C81.6,112.1,84.4,111.7,86.7,112.1z"/>
<circle class="st1" cx="2" cy="149.2" r="2"/>
<path class="st1" d="M11,147.2H8c-1.1,0-2,0.9-2,2s0.9,2,2,2h3c1.1,0,2-0.9,2-2S12.1,147.2,11,147.2z M160,147.2h-3
	c-1.1,0-2,0.9-2,2s0.9,2,2,2h3c1.1,0,2-0.9,2-2S161.1,147.2,160,147.2z"/>
<circle class="st1" cx="166" cy="149.2" r="2"/>
<path class="st1" d="M150.7,147.2h-12.1c9.9-7,12.3-20.7,5.4-30.6c-7-9.9-20.7-12.3-30.6-5.4c-9.9,7-12.3,20.7-5.4,30.6
	c1.5,2.1,3.3,3.9,5.4,5.4h-10.8c1-0.6,2-1.2,3-2c-0.8-1.1-1.6-2.2-2.2-3.3c-4.1,3.1-9.1,4.9-14.3,5.2c-1.3,0.1-2.5,0.1-3.7,0.1
	c-0.2,0-3.1-0.1-4.3-0.1H81c-5.7-0.3-11.6-2.4-15.6-6.4c-0.6,1.2-1.3,2.4-2.1,3.5c1.3,1.1,2.7,2.1,4.2,3H54.6
	c9.9-7,12.3-20.7,5.4-30.6s-20.7-12.3-30.6-5.4c-9.9,7-12.3,20.7-5.4,30.6c1.5,2.1,3.3,3.9,5.4,5.4H17.3c-1.1-0.1-2.1,0.6-2.3,1.7
	c-0.1,1.1,0.6,2.1,1.7,2.3c0.2,0,0.3,0,0.5,0h133.4c1.1,0.1,2.1-0.6,2.3-1.7s-0.6-2.1-1.7-2.3C151.1,147.2,150.9,147.2,150.7,147.2z
	 M24,129.2c0-9.9,8.1-18,18-18s18,8.1,18,18s-8.1,18-18,18S24,139.2,24,129.2z M108,129.2c0-9.9,8.1-18,18-18s18,8.1,18,18
	s-8.1,18-18,18S108,139.2,108,129.2z"/>
</svg>
