<?xml version="1.0" encoding="utf-8"?>
<!-- Generator: Adobe Illustrator 24.3.0, SVG Export Plug-In . SVG Version: 6.00 Build 0)  -->
<svg version="1.1" id="Слой_1" xmlns="http://www.w3.org/2000/svg" xmlns:xlink="http://www.w3.org/1999/xlink" x="0px" y="0px"
	 viewBox="0 0 168 168" style="enable-background:new 0 0 168 168;" xml:space="preserve">
<style type="text/css">
	.st0{fill:#333333;}
	.st1{fill:#9BD63E;}
</style>
<path class="st0" d="M28.6,107c-0.5-1.2-1-2.4-1.4-3.7c-0.4-1-1.5-1.6-2.5-1.3s-1.6,1.5-1.3,2.5l0,0c0.4,1.3,0.9,2.6,1.5,3.9
	c0.4,1,1.6,1.5,2.6,1.1S29,108,28.6,107z M40.1,42.2c0.5,0,1-0.2,1.4-0.6c0.9-0.9,1.9-1.8,2.9-2.7c0.8-0.7,0.9-2,0.2-2.8
	s-2-0.9-2.8-0.2l0,0c-1,0.9-2.1,1.9-3,2.9c-0.8,0.8-0.8,2,0,2.8C39,41.9,39.5,42.2,40.1,42.2L40.1,42.2z M25.9,62.1
	c1,0.4,2.2-0.1,2.6-1.1l0,0c0.5-1.2,1-2.4,1.6-3.6c0.5-1,0.1-2.2-0.9-2.7s-2.2-0.1-2.7,0.9l0,0c-0.6,1.3-1.2,2.5-1.7,3.8
	C24.4,60.5,24.9,61.7,25.9,62.1L25.9,62.1z"/>
<path class="st0" d="M31.3,51.2c0.9,0.6,2.2,0.4,2.8-0.6c0.7-1.1,1.5-2.2,2.3-3.2c0.7-0.9,0.5-2.1-0.4-2.8s-2.1-0.5-2.8,0.4l0,0
	c-0.8,1.1-1.7,2.2-2.4,3.4C30.1,49.4,30.3,50.6,31.3,51.2z M25.2,95.7c-0.3-1.3-0.5-2.6-0.6-3.9c-0.1-1.1-1.1-1.9-2.2-1.7
	c-1.1,0.1-1.9,1.1-1.7,2.2c0.2,1.4,0.4,2.8,0.7,4.1c0.2,0.9,1,1.6,2,1.6c0.1,0,0.3,0,0.4,0C24.7,97.9,25.4,96.8,25.2,95.7z"/>
<path class="st0" d="M22,86c1.1,0,2-0.9,2-2l0,0v-0.1c0-1.3,0-2.6,0.1-3.8c0.1-1.1-0.8-2.1-1.9-2.1c-1.1-0.1-2.1,0.8-2.1,1.9
	c-0.1,1.3-0.1,2.6-0.1,4V84C20,85.1,20.9,86,22,86L22,86z"/>
<path class="st0" d="M22.8,73.9c1.1,0.2,2.1-0.5,2.3-1.6l0,0c0.2-1.3,0.5-2.6,0.9-3.8c0.3-1.1-0.4-2.2-1.4-2.4
	c-1.1-0.3-2.2,0.4-2.4,1.4c-0.4,1.3-0.7,2.7-0.9,4.1C21,72.6,21.7,73.7,22.8,73.9z"/>
<path class="st0" d="M60.1,28.7c0.3,0,0.5,0,0.8-0.1c1.2-0.5,2.4-1,3.7-1.4c1-0.4,1.6-1.5,1.2-2.5s-1.5-1.6-2.5-1.2
	c-1.3,0.4-2.6,0.9-3.9,1.5c-1,0.4-1.5,1.6-1.1,2.6l0,0C58.6,28.2,59.3,28.7,60.1,28.7z"/>
<path class="st0" d="M95.5,25c1.3,0.3,2.6,0.5,3.8,0.9c1.1,0.3,2.1-0.4,2.4-1.4c0.3-1.1-0.4-2.2-1.4-2.4c-1.3-0.4-2.7-0.7-4.1-0.9
	c-1.1-0.2-2.1,0.5-2.3,1.6C93.8,23.8,94.5,24.8,95.5,25z"/>
<path class="st0" d="M106.8,28.4c1.2,0.5,2.4,1,3.6,1.6c1,0.5,2.2,0.1,2.7-0.9s0.1-2.2-0.9-2.7c-1.2-0.6-2.5-1.2-3.8-1.7
	c-1-0.4-2.2,0.1-2.6,1.1C105.3,26.8,105.8,28,106.8,28.4z"/>
<path class="st0" d="M117.2,33.9c1.1,0.7,2.2,1.5,3.2,2.3c0.9,0.7,2.1,0.5,2.8-0.4c0.7-0.9,0.5-2.1-0.4-2.8l0,0
	c-1.1-0.8-2.3-1.7-3.4-2.4c-0.9-0.6-2.2-0.4-2.8,0.6C116,32.1,116.3,33.3,117.2,33.9L117.2,33.9z"/>
<path class="st0" d="M83.8,23.9H84c1.3,0,2.5,0,3.8,0.1c1.1,0.1,2-0.8,2.1-1.9s-0.8-2-1.9-2.1c-1.3-0.1-2.7-0.1-4-0.1h-0.2
	c-1.1,0-2,0.9-2,2S82.7,23.9,83.8,23.9L83.8,23.9z M129,44.2c0.7,0.8,2,0.9,2.8,0.2s0.9-2,0.2-2.8c-0.9-1-1.9-2.1-2.9-3
	c-0.8-0.8-2-0.8-2.8,0s-0.8,2,0,2.8l0,0C127.2,42.3,128.1,43.2,129,44.2z"/>
<path class="st0" d="M49.4,34.4c0.4,0,0.8-0.1,1.1-0.3c1.1-0.7,2.2-1.4,3.3-2.1c1-0.6,1.3-1.8,0.7-2.7c-0.6-1-1.8-1.3-2.7-0.7
	c-1.2,0.7-2.4,1.4-3.5,2.2c-0.9,0.6-1.2,1.9-0.5,2.8l0,0C48.2,34.1,48.8,34.4,49.4,34.4z M71.7,25.1c0.1,0,0.3,0,0.4,0
	c1.3-0.3,2.6-0.5,3.9-0.6c1.1-0.1,1.9-1.2,1.7-2.2s-1.2-1.9-2.2-1.7c-1.4,0.2-2.8,0.4-4.1,0.7c-1.1,0.2-1.8,1.3-1.6,2.4
	C70,24.4,70.8,25.1,71.7,25.1L71.7,25.1z"/>
<path class="st0" d="M139.4,60.8c0.5,1.2,1,2.4,1.4,3.7c0.3,0.8,1,1.4,1.9,1.4c1.1,0,2-0.9,2-2.1c0-0.2,0-0.4-0.1-0.6
	c-0.4-1.3-0.9-2.6-1.5-3.9c-0.4-1-1.6-1.5-2.6-1.1C139.4,58.6,138.9,59.7,139.4,60.8L139.4,60.8z"/>
<path class="st0" d="M142.8,72c0.3,1.3,0.5,2.6,0.6,3.9c0.1,1.1,1.2,1.9,2.2,1.7s1.9-1.2,1.7-2.2c-0.2-1.4-0.4-2.8-0.7-4.1
	c-0.2-1.1-1.3-1.8-2.4-1.6C143.3,69.9,142.6,70.9,142.8,72L142.8,72z"/>
<path class="st0" d="M126.4,126.3c-0.9,0.9-1.9,1.8-2.9,2.7c-0.8,0.7-0.9,2-0.2,2.8l0,0c0.7,0.8,2,0.9,2.8,0.2
	c1-0.9,2.1-1.9,3.1-2.9c0.8-0.8,0.8-2,0-2.8S127.2,125.5,126.4,126.3L126.4,126.3L126.4,126.3z"/>
<path class="st0" d="M136.7,116.7c-0.9-0.6-2.2-0.4-2.8,0.5l0,0c-0.7,1.1-1.5,2.2-2.3,3.2c-0.7,0.9-0.5,2.1,0.4,2.8
	c0.9,0.6,2.1,0.5,2.8-0.4c0.8-1.1,1.7-2.2,2.4-3.4C137.8,118.5,137.6,117.3,136.7,116.7z"/>
<path class="st0" d="M107,139.3c-1.2,0.5-2.4,1-3.7,1.4c-1,0.4-1.6,1.5-1.3,2.5l0,0c0.4,1,1.5,1.6,2.5,1.2c1.3-0.4,2.6-0.9,3.9-1.5
	c1-0.4,1.5-1.6,1.1-2.6S108,138.9,107,139.3L107,139.3z"/>
<path class="st0" d="M117.4,133.5c-1.1,0.7-2.2,1.4-3.3,2.1c-1,0.6-1.3,1.8-0.7,2.7l0,0c0.6,0.9,1.8,1.3,2.7,0.7
	c1.2-0.7,2.4-1.4,3.5-2.2c0.9-0.6,1.2-1.9,0.5-2.8C119.5,133.2,118.3,132.9,117.4,133.5L117.4,133.5z M139.3,51.7
	c-0.7-1.2-1.4-2.4-2.2-3.5c-0.6-0.9-1.9-1.2-2.8-0.5c-0.9,0.6-1.2,1.9-0.5,2.8l0,0c0.7,1.1,1.4,2.2,2.1,3.3c0.6,0.9,1.8,1.3,2.7,0.7
	C139.6,53.9,139.9,52.7,139.3,51.7L139.3,51.7z"/>
<path class="st0" d="M146,81.7c-1.1,0-2,0.9-2,2v0.2c0,1.3,0,2.6-0.1,3.9c-0.1,1.1,0.8,2.1,1.9,2.1s2.1-0.8,2.1-1.9
	c0.1-1.4,0.1-2.8,0.1-4.2c0.1-1.1-0.8-2.1-1.9-2.2C146.1,81.7,146,81.7,146,81.7z M142.1,105.8c-1-0.4-2.2,0.1-2.6,1.1
	c-0.5,1.2-1,2.4-1.6,3.6c-0.5,1-0.1,2.2,0.9,2.7s2.2,0.1,2.7-0.9c0.6-1.2,1.2-2.5,1.7-3.8C143.6,107.4,143.1,106.2,142.1,105.8
	L142.1,105.8z"/>
<path class="st0" d="M145.2,94c-1.1-0.2-2.1,0.5-2.3,1.6l0,0c-0.3,1.3-0.6,2.6-0.9,3.8c-0.3,1.1,0.3,2.2,1.4,2.4
	c1.1,0.3,2.2-0.3,2.4-1.4l0,0c0.4-1.3,0.7-2.7,0.9-4.1C147,95.3,146.3,94.3,145.2,94L145.2,94z M95.8,142.5
	c-1.3,0.3-2.6,0.5-3.9,0.6c-1.1,0.1-1.9,1.1-1.7,2.2l0,0c0.2,1.1,1.2,1.8,2.2,1.7c1.4-0.2,2.8-0.4,4.1-0.7c1.1-0.2,1.8-1.3,1.6-2.3
	C97.9,143,96.8,142.3,95.8,142.5L95.8,142.5L95.8,142.5z M50.7,133.8c-1.1-0.7-2.2-1.5-3.2-2.3c-0.9-0.7-2.1-0.5-2.8,0.4
	s-0.5,2.1,0.4,2.8c1.1,0.8,2.2,1.7,3.4,2.4c0.9,0.6,2.2,0.4,2.8-0.6C51.9,135.7,51.6,134.5,50.7,133.8z"/>
<path class="st0" d="M38.9,123.5c-0.7-0.8-2-0.9-2.8-0.2s-0.9,2-0.2,2.8c0.9,1,1.9,2.1,2.9,3c0.8,0.8,2.1,0.8,2.8,0
	c0.8-0.8,0.8-2,0-2.8C40.7,125.5,39.8,124.5,38.9,123.5z M61.1,139.4c-1.2-0.5-2.4-1-3.6-1.6c-1-0.5-2.2-0.1-2.7,0.9
	s-0.1,2.2,0.9,2.7c1.2,0.6,2.5,1.2,3.8,1.7c1,0.4,2.2-0.1,2.6-1.1C62.6,141,62.1,139.8,61.1,139.4z"/>
<path class="st0" d="M32.1,114c-0.6-1-1.8-1.3-2.7-0.7c-1,0.6-1.3,1.8-0.7,2.7l0,0c0.7,1.2,1.4,2.4,2.2,3.5c0.6,0.9,1.9,1.2,2.8,0.6
	c0.9-0.6,1.2-1.9,0.6-2.8l0,0C33.4,116.2,32.7,115.1,32.1,114z M72.4,142.5c-1.3-0.2-2.6-0.5-3.8-0.9c-1.1-0.3-2.2,0.4-2.4,1.4
	s0.4,2.2,1.4,2.4c1.3,0.4,2.7,0.7,4.1,0.9c0.1,0,0.3,0,0.4,0c1.1,0,2-0.9,2-2C74,143.5,73.3,142.7,72.4,142.5z"/>
<path class="st1" d="M90.2,134c-4.3-8.5-4.4-19.7-4-25.7c5.1,5.5,12.2,8.6,19.7,8.6c15.2-0.2,27.4-12.7,27.1-27.9
	c-0.2-13-9.4-24.1-22.1-26.6c0.2-1.3,0.3-2.7,0.3-4c0.2-15-11.8-27.3-26.8-27.5S57.1,42.7,56.9,57.7c0,0.2,0,0.5,0,0.7
	c0,1.3,0.1,2.7,0.3,4c-14.9,3-24.6,17.5-21.6,32.4c2.5,12.7,13.6,22,26.6,22.1c7.6,0,14.9-3.3,20-8.9c-0.4,6.4-0.3,18.3,4.5,27.8
	c0.3,0.7,1,1.1,1.8,1.1c1.1,0,2-0.9,2-2.1C90.4,134.6,90.3,134.3,90.2,134z M86.4,101c0.8-2.9,3-8.6,7.6-11.2l0,0
	c4.7-2.6,10.9-1.6,13.8-0.9c-0.8,2.9-3,8.6-7.6,11.2C95.5,102.8,89.3,101.8,86.4,101z M67.8,100.2c-4.6-2.6-6.8-8.3-7.6-11.2
	c3-0.7,9.1-1.8,13.8,0.9l0,0c4.6,2.6,6.8,8.3,7.6,11.2C78.7,101.8,72.5,102.8,67.8,100.2z M75.9,86.3L75.9,86.3
	c-8-4.5-18.4-0.8-18.9-0.6c-0.9,0.3-1.5,1.3-1.3,2.2c0.1,0.5,2,11.2,10,15.7c2.9,1.5,6.1,2.3,9.3,2.2c1.3,0,2.5-0.1,3.7-0.3
	c-4.3,4.7-10.4,7.3-16.8,7.3c-13-0.2-23.3-10.9-23.1-23.9c0.2-11.8,9-21.6,20.7-23c1.1-0.1,1.9-1.1,1.8-2.2c0-0.1,0-0.2,0-0.2
	c-0.4-1.7-0.6-3.5-0.6-5.2c-0.2-12.8,10-23.3,22.8-23.5s23.3,10,23.5,22.8c0,0.2,0,0.5,0,0.7c0,1.8-0.2,3.5-0.6,5.2
	c-0.2,1.1,0.4,2.1,1.5,2.4c0.1,0,0.2,0,0.2,0c12.9,1.6,22.1,13.3,20.5,26.2c-1.4,11.7-11.2,20.5-23,20.7c-6.4,0-12.4-2.7-16.8-7.3
	c1.2,0.2,2.5,0.3,3.7,0.3c3.3,0.1,6.5-0.7,9.3-2.2c8-4.5,9.9-15.3,10-15.7c0.2-1-0.4-1.9-1.3-2.2c-0.4-0.2-10.9-3.9-18.9,0.6
	c-4.1,2.3-6.6,6.2-8.1,9.6C82.5,92.6,80,88.6,75.9,86.3z"/>
<circle class="st0" cx="2" cy="148.9" r="2"/>
<path class="st0" d="M11,146.9H8c-1.1,0-2,0.9-2,2s0.9,2,2,2h3c1.1,0,2-0.9,2-2S12.1,146.9,11,146.9z M160,146.9h-3
	c-1.1,0-2,0.9-2,2s0.9,2,2,2h3c1.1,0,2-0.9,2-2S161.1,146.9,160,146.9z"/>
<circle class="st0" cx="166" cy="148.9" r="2"/>
<path class="st1" d="M118.2,154.9h-8.3c-1.1,0.1-1.9,1.1-1.8,2.2c0.1,1,0.9,1.8,1.8,1.8h8.3c1.1-0.1,1.9-1.1,1.8-2.2
	C119.9,155.8,119.1,155,118.2,154.9z M58.2,154.9h-8.3c-1.1,0.1-1.9,1.1-1.8,2.2c0.1,1,0.9,1.8,1.8,1.8h8.3c1.1-0.1,1.9-1.1,1.8-2.2
	C59.9,155.8,59.1,155,58.2,154.9z M104,154.9H64c-1.1,0-2,0.9-2,2s0.9,2,2,2h15.9v2H72c-1.1,0-2,0.9-2,2s0.9,2,2,2h25
	c1.1,0,2-0.9,2-2s-0.9-2-2-2h-8.9v-2H104c1.1,0,2-0.9,2-2S105.1,154.9,104,154.9z"/>
<path class="st0" d="M150.7,146.9H85.8c0.2-0.3,0.3-0.6,0.3-1c0-1.1-0.9-2-2-2c0,0,0,0-0.1,0c-1.3,0-2.6,0-3.9-0.1
	c-1.1-0.1-2.1,0.8-2.1,1.9c0,0.4,0.1,0.9,0.4,1.3H17.3c-1.1-0.1-2.1,0.6-2.3,1.7c-0.1,1.1,0.6,2.1,1.7,2.3c0.2,0,0.3,0,0.5,0h133.4
	c1.1,0.1,2.1-0.6,2.3-1.7s-0.6-2.1-1.7-2.3C151.1,146.9,150.9,146.9,150.7,146.9L150.7,146.9z"/>
</svg>
