<?xml version="1.0" encoding="utf-8"?>
<!-- Generator: Adobe Illustrator 24.3.0, SVG Export Plug-In . SVG Version: 6.00 Build 0)  -->
<svg version="1.1" id="Слой_1" xmlns="http://www.w3.org/2000/svg" xmlns:xlink="http://www.w3.org/1999/xlink" x="0px" y="0px"
	 viewBox="0 0 168 168" style="enable-background:new 0 0 168 168;" xml:space="preserve">
<style type="text/css">
	.st0{fill:#333333;}
	.st1{fill:#9BD63E;}
</style>
<path class="st0" d="M31.3,55.3c0.9,0.6,2.2,0.4,2.8-0.6c0.7-1.1,1.5-2.2,2.3-3.2c0.7-0.9,0.5-2.1-0.4-2.8s-2.1-0.5-2.8,0.4
	c-0.8,1.1-1.7,2.2-2.4,3.4C30.1,53.5,30.3,54.7,31.3,55.3z M22.8,78c1.1,0.2,2.1-0.5,2.3-1.6l0,0c0.2-1.3,0.5-2.6,0.9-3.8
	c0.3-1.1-0.4-2.2-1.4-2.4c-1.1-0.3-2.2,0.4-2.4,1.4l0,0c-0.4,1.3-0.7,2.7-0.9,4.1C21,76.7,21.7,77.8,22.8,78L22.8,78L22.8,78z"/>
<path class="st0" d="M25.9,66.2c1,0.4,2.2-0.1,2.6-1.1l0,0c0.5-1.2,1-2.4,1.6-3.6c0.5-1,0.1-2.2-0.9-2.7s-2.2-0.1-2.7,0.9l0,0
	c-0.6,1.3-1.2,2.5-1.7,3.8C24.4,64.6,24.9,65.8,25.9,66.2L25.9,66.2z M40.1,46.2c0.5,0,1-0.2,1.4-0.6c0.9-0.9,1.9-1.8,2.9-2.7
	c0.8-0.7,0.9-2,0.1-2.8c-0.7-0.8-2-0.9-2.8-0.2c-1,0.9-2.1,1.9-3,2.9c-0.8,0.8-0.8,2,0,2.8C39,46,39.5,46.2,40.1,46.2L40.1,46.2z"/>
<path class="st0" d="M32.1,118.1c-0.5-1-1.8-1.3-2.7-0.8c-1,0.5-1.3,1.8-0.8,2.7c0,0,0,0,0,0.1c0.7,1.2,1.4,2.4,2.2,3.5
	c0.6,0.9,1.8,1.2,2.8,0.6c0.9-0.6,1.2-1.8,0.6-2.8c0,0,0-0.1-0.1-0.1C33.4,120.3,32.7,119.2,32.1,118.1z"/>
<path class="st0" d="M28.6,111c-0.5-1.2-1-2.4-1.4-3.7c-0.3-1-1.5-1.6-2.5-1.3c-1,0.3-1.6,1.5-1.3,2.5l0,0c0.4,1.3,0.9,2.6,1.5,3.9
	c0.4,1,1.5,1.5,2.6,1.2c1-0.4,1.5-1.5,1.2-2.6C28.6,111.1,28.6,111.1,28.6,111L28.6,111z M38.9,127.6c-0.7-0.8-2-0.9-2.8-0.2
	c-0.8,0.7-0.9,2-0.2,2.8c0.9,1,1.9,2.1,2.9,3.1c0.8,0.8,2,0.8,2.8,0s0.8-2,0-2.8l0,0C40.7,129.5,39.8,128.6,38.9,127.6z"/>
<path class="st0" d="M25.2,99.8c-0.3-1.3-0.5-2.6-0.6-3.9c-0.1-1.1-1.1-1.9-2.2-1.8s-1.9,1.1-1.8,2.2c0,0,0,0,0,0.1
	c0.2,1.4,0.4,2.8,0.7,4.1c0.2,0.9,1,1.6,2,1.6c0.1,0,0.3,0,0.4,0C24.7,101.9,25.4,100.9,25.2,99.8L25.2,99.8z"/>
<path class="st0" d="M22,90.1c1.1,0,2-0.9,2-2V88c0-1.3,0-2.6,0.1-3.8c0.1-1.1-0.8-2.1-1.9-2.1s-2.1,0.8-2.1,1.9
	C20,85.3,20,86.6,20,88v0.1C20,89.2,20.9,90.1,22,90.1z"/>
<path class="st0" d="M95.5,29.1c1.3,0.2,2.6,0.5,3.8,0.9c1.1,0.3,2.2-0.4,2.4-1.5c0.3-1-0.4-2.1-1.4-2.4c-1.3-0.4-2.7-0.7-4.1-0.9
	c-1.1-0.2-2.1,0.5-2.3,1.6C93.8,27.9,94.5,28.9,95.5,29.1z"/>
<path class="st0" d="M106.8,32.5c1.2,0.5,2.4,1,3.6,1.6c1,0.5,2.2,0.1,2.7-0.9s0.1-2.2-0.9-2.7l0,0c-1.3-0.6-2.5-1.2-3.8-1.7
	c-1-0.4-2.2,0.1-2.6,1.1C105.3,30.9,105.8,32.1,106.8,32.5L106.8,32.5z M139.4,64.8c0.5,1.2,1,2.4,1.4,3.7c0.3,1.1,1.5,1.6,2.5,1.3
	c1.1-0.3,1.6-1.5,1.3-2.5v-0.1c-0.4-1.3-0.9-2.6-1.5-3.9c-0.4-1-1.6-1.5-2.6-1.1C139.4,62.7,138.9,63.8,139.4,64.8L139.4,64.8z"/>
<path class="st0" d="M49.4,38.5c0.4,0,0.8-0.1,1.1-0.3c1.1-0.7,2.2-1.4,3.3-2.1c1-0.6,1.3-1.8,0.7-2.7c-0.6-1-1.8-1.3-2.7-0.7l0,0
	c-1.2,0.7-2.4,1.4-3.5,2.2c-0.9,0.6-1.2,1.9-0.5,2.8C48.2,38.2,48.8,38.5,49.4,38.5L49.4,38.5z M142.8,76.1c0.3,1.3,0.5,2.6,0.6,3.9
	c0.1,1,1,1.7,2,1.7c0.1,0,0.2,0,0.3,0c1.1-0.1,1.9-1.2,1.7-2.2l0,0c-0.2-1.4-0.4-2.8-0.7-4.1c-0.2-1.1-1.3-1.8-2.4-1.6
	C143.3,73.9,142.6,75,142.8,76.1z"/>
<path class="st0" d="M60.1,32.8c0.3,0,0.5-0.1,0.8-0.2c1.2-0.5,2.4-1,3.7-1.4c1-0.4,1.6-1.5,1.2-2.6c-0.4-1-1.5-1.6-2.5-1.2
	c-1.3,0.5-2.6,0.9-3.9,1.5c-1,0.4-1.5,1.6-1.1,2.6C58.6,32.3,59.3,32.8,60.1,32.8L60.1,32.8z"/>
<path class="st0" d="M71.7,29.2c0.1,0,0.3,0,0.4,0c1.3-0.3,2.6-0.5,3.9-0.6c1.1-0.2,1.8-1.2,1.7-2.3c-0.2-1.1-1.1-1.8-2.2-1.7
	c-1.4,0.2-2.8,0.4-4.1,0.7c-1.1,0.2-1.8,1.3-1.6,2.4C70,28.5,70.8,29.2,71.7,29.2L71.7,29.2z"/>
<path class="st0" d="M83.8,28H84c1.3,0,2.5,0,3.8,0.1h0.1c1.1,0,2-0.9,2-2s-0.8-1.9-1.9-2C86.7,24,85.3,24,84,24h-0.2
	c-1.1,0-2,0.9-2,2S82.7,28,83.8,28z"/>
<path class="st0" d="M95.8,146.9c-1.3,0.3-2.6,0.5-3.9,0.6c-1.1,0.1-1.9,1.1-1.7,2.2l0,0c0.2,1.1,1.2,1.8,2.2,1.7
	c1.4-0.2,2.8-0.4,4.1-0.7c1.1-0.2,1.8-1.2,1.6-2.3S96.9,146.6,95.8,146.9C95.8,146.8,95.8,146.8,95.8,146.9L95.8,146.9z
	 M136.7,120.8c-0.9-0.6-2.2-0.4-2.8,0.5l0,0c-0.7,1.1-1.5,2.2-2.3,3.2c-0.7,0.9-0.5,2.1,0.4,2.8c0.9,0.7,2.1,0.5,2.8-0.4
	c0.9-1.1,1.7-2.2,2.4-3.4C137.8,122.6,137.6,121.4,136.7,120.8z M139.3,55.8c-0.7-1.2-1.4-2.4-2.2-3.5c-0.6-0.9-1.9-1.2-2.8-0.5
	c-0.9,0.6-1.2,1.9-0.5,2.8c0.7,1.1,1.4,2.2,2.1,3.3c0.6,1,1.8,1.3,2.7,0.7S139.9,56.8,139.3,55.8z"/>
<path class="st0" d="M142.1,109.9c-1-0.4-2.2,0.1-2.6,1.1c-0.5,1.2-1,2.4-1.6,3.6c-0.5,1-0.1,2.2,0.9,2.7s2.2,0.1,2.7-0.9
	c0.6-1.3,1.2-2.5,1.7-3.8C143.6,111.5,143.1,110.3,142.1,109.9L142.1,109.9z"/>
<path class="st0" d="M117.4,137.9c-1.1,0.7-2.2,1.4-3.3,2.1c-1,0.6-1.3,1.8-0.7,2.7l0,0c0.6,0.9,1.8,1.2,2.7,0.7
	c1.2-0.7,2.4-1.4,3.6-2.2c0.9-0.6,1.2-1.9,0.5-2.8C119.5,137.5,118.3,137.3,117.4,137.9z M122.8,37.1c-1.1-0.8-2.2-1.7-3.4-2.4
	c-0.9-0.6-2.2-0.3-2.8,0.6c-0.6,0.9-0.3,2.1,0.5,2.7c1.1,0.7,2.2,1.5,3.2,2.3c0.9,0.7,2.1,0.5,2.8-0.4
	C123.8,39,123.7,37.8,122.8,37.1L122.8,37.1z"/>
<path class="st0" d="M132,45.7c-0.9-1-1.9-2.1-2.9-3c-0.8-0.8-2.1-0.8-2.8,0c-0.8,0.8-0.8,2.1,0,2.8c0.9,0.9,1.8,1.9,2.7,2.9
	c0.7,0.8,2,0.9,2.8,0.2C132.6,47.8,132.7,46.5,132,45.7z"/>
<path class="st0" d="M145.2,98.1c-1.1-0.2-2.1,0.5-2.3,1.6l0,0c-0.3,1.3-0.5,2.6-0.9,3.8c-0.3,1.1,0.4,2.2,1.4,2.4
	c1.1,0.3,2.1-0.4,2.4-1.4c0.4-1.3,0.7-2.7,0.9-4.1C147,99.4,146.3,98.3,145.2,98.1z"/>
<path class="st0" d="M107,143.4c-1.2,0.5-2.4,1-3.7,1.4c-1,0.4-1.6,1.5-1.2,2.5s1.5,1.6,2.5,1.2c1.3-0.4,2.6-0.9,3.9-1.5
	c1-0.4,1.5-1.6,1-2.6C109.1,143.5,108,143,107,143.4L107,143.4z M126.4,130.4c-0.9,0.9-1.9,1.8-2.9,2.7c-0.8,0.7-1,2-0.2,2.8
	c0.7,0.8,2,1,2.8,0.2c0,0,0,0,0.1-0.1c1-0.9,2.1-1.9,3.1-2.9c0.8-0.8,0.7-2.1,0-2.8C128.4,129.7,127.2,129.7,126.4,130.4z M146,85.8
	c-1.1,0-2,0.9-2,2V88c0,1.3,0,2.6-0.1,3.9c-0.1,1.1,0.8,2.1,1.9,2.1l0,0h0.1c1.1,0,1.9-0.8,2-1.9c0.1-1.4,0.1-2.8,0.1-4.2v-0.2
	C148,86.7,147.1,85.8,146,85.8z M61.1,143.5c-1.2-0.5-2.4-1-3.6-1.6c-1-0.5-2.2-0.1-2.7,0.9s-0.1,2.2,0.9,2.7
	c1.3,0.6,2.5,1.2,3.8,1.7c1,0.4,2.2-0.1,2.6-1.1C62.6,145.1,62.1,143.9,61.1,143.5z"/>
<path class="st0" d="M72.4,146.9c-1.3-0.3-2.6-0.5-3.8-0.9c-1.1-0.3-2.2,0.4-2.4,1.5c-0.3,1,0.4,2.1,1.4,2.4
	c1.3,0.4,2.7,0.7,4.1,0.9c0.1,0,0.3,0,0.4,0c1.1,0,2-0.9,2-2C74,147.9,73.3,147.1,72.4,146.9L72.4,146.9z M50.7,137.9
	c-1.1-0.7-2.2-1.5-3.2-2.3c-0.9-0.7-2.1-0.5-2.8,0.4c-0.6,0.9-0.5,2.1,0.4,2.7c1.1,0.8,2.2,1.7,3.4,2.4c0.9,0.6,2.2,0.3,2.8-0.6
	C51.8,139.7,51.6,138.5,50.7,137.9L50.7,137.9z"/>
<path class="st0" d="M114.7,129.8v-9.6c5.7-26.2,5.7-37.6,0-63.9V46.2c0-1.1-0.9-2-2-2h-6.2c-14.8-3-30.1-3-45,0h-6.2
	c-1.1,0-2,0.9-2,2v10.1c-5.7,26.2-5.7,37.6,0,63.9v9.6c0,1.1,0.9,2,2,2h6.2c14.8,3,30.1,3,45,0h6.2
	C113.8,131.8,114.7,130.9,114.7,129.8z M57.3,48.2h4.4c0.1,0,0.3,0,0.4,0c14.5-2.9,29.4-2.9,43.8,0c0.1,0,0.3,0,0.4,0h4.4V54H57.3
	V48.2z M110.7,127.8h-4.4c-0.1,0-0.3,0-0.4,0c-14.5,2.9-29.4,2.9-43.8,0c-0.1,0-0.3,0-0.4,0h-4.4V122h53.4V127.8z M111.1,118H56.9
	c-5.3-24.6-5.3-35.3,0.1-60h54C116.3,82.7,116.3,93.4,111.1,118L111.1,118z"/>
<path class="st1" d="M90,97.2L90,97.2L90,97.2l-3.5-2.1v6.2l-7,4.1V97l5.2-3.1l-3.9-2.3l-3.3,1.9l-7.1-4.2L76,86c0-0.2,0-0.5,0-0.7
	v-3.9l-10.5,6.2l0,0c-0.6,0.4-1,1-1,1.7v13c0,0.7,0.4,1.4,1,1.7l11,6.5c0.6,0.3,1.4,0.3,2,0l11-6.5c0.6-0.4,1-1,1-1.7v-5.1
	c0,0-0.1,0-0.1-0.1C90.2,97.3,90.1,97.3,90,97.2z M75.5,105.5l-7-4.1V93l7,4.1V105.5z"/>
<path class="st1" d="M105.9,71.8c-0.2-0.4-0.5-0.8-0.9-1l-11-6.5c-0.6-0.4-1.4-0.4-2,0l-11,6.5l0,0c-0.6,0.4-1,1-1,1.7v13
	c0,0.7,0.4,1.4,1,1.7l11,6.5c0.6,0.4,1.4,0.3,2,0l11-6.5c0.6-0.4,1-1,1-1.7v-13C106,72.3,106,72,105.9,71.8z M91,88.5l-7-4.1V76
	l7,4.1V88.5z M93,76.7l-7.1-4.2l7.1-4.2l7.1,4.2L93,76.7z M102,84.4l-7,4.1v-8.4l7-4.1V84.4z"/>
<circle class="st0" cx="2" cy="150" r="2"/>
<path class="st0" d="M11,148H8c-1.1,0-2,0.9-2,2s0.9,2,2,2h3c1.1,0,2-0.9,2-2S12.1,148,11,148z M160,148h-3c-1.1,0-2,0.9-2,2
	s0.9,2,2,2h3c1.1,0,2-0.9,2-2S161.1,148,160,148z"/>
<circle class="st0" cx="166" cy="150" r="2"/>
<path class="st1" d="M118.2,156h-8.3c-1.1,0.1-1.9,1.1-1.8,2.2c0.1,1,0.9,1.8,1.8,1.8h8.3c1.1-0.1,1.9-1.1,1.8-2.2
	C119.9,156.9,119.1,156.1,118.2,156z M58.2,156h-8.3c-1.1,0.1-1.9,1.1-1.8,2.2c0.1,1,0.9,1.8,1.8,1.8h8.3c1.1-0.1,1.9-1.1,1.8-2.2
	C59.9,156.9,59.1,156.1,58.2,156z M104,156H64c-1.1,0-2,0.9-2,2s0.9,2,2,2h15.9v2H72c-1.1,0-2,0.9-2,2s0.9,2,2,2h25c1.1,0,2-0.9,2-2
	s-0.9-2-2-2h-8.9v-2H104c1.1,0,2-0.9,2-2S105.1,156,104,156z"/>
<path class="st0" d="M150.7,148H84c-1.3,0-2.6,0-3.8-0.1c-0.3,0-0.6,0-0.8,0.1h-62c-1.1-0.1-2.1,0.6-2.3,1.7
	c-0.1,1.1,0.6,2.1,1.7,2.3c0.2,0,0.3,0,0.5,0h133.4c1.1,0.1,2.1-0.6,2.3-1.7s-0.6-2.1-1.7-2.3C151.1,148,150.9,148,150.7,148
	L150.7,148z"/>
</svg>
