<?xml version="1.0" encoding="utf-8"?>
<!-- Generator: Adobe Illustrator 24.3.0, SVG Export Plug-In . SVG Version: 6.00 Build 0)  -->
<svg version="1.1" id="Слой_1" xmlns="http://www.w3.org/2000/svg" xmlns:xlink="http://www.w3.org/1999/xlink" x="0px" y="0px"
	 viewBox="0 0 17.2 17" style="enable-background:new 0 0 17.2 17;" xml:space="preserve">
<style type="text/css">
	.st0{fill:#FFFFFF;}
</style>
<path class="st0" d="M17,12.3c0-0.1-0.3-0.7-1.7-1.9C13.9,9,14.1,9.2,15.8,7c1.1-1.4,1.5-2.2,1.3-2.6C17,4,16.3,4.1,16.3,4.1l-2.6,0
	c0,0-0.2,0-0.3,0.1c-0.1,0.1-0.2,0.3-0.2,0.3s-0.4,1.1-1,2c-1.2,1.9-1.6,2-1.8,1.9C9.9,8.1,10,7.2,10,6.6c0-1.9,0.3-2.6-0.6-2.8
	C9.2,3.7,9,3.7,8.3,3.7c-0.9,0-1.7,0-2.1,0.2C5.8,4,5.6,4.4,5.7,4.4c0.2,0,0.6,0.1,0.8,0.4c0.3,0.4,0.3,1.1,0.3,1.1s0.2,2.2-0.4,2.5
	C6.1,8.6,5.6,8.2,4.6,6.4C4,5.5,3.6,4.6,3.6,4.6S3.6,4.4,3.4,4.3C3.3,4.2,3,4.1,3,4.1l-2.5,0c0,0-0.4,0-0.5,0.2
	c-0.1,0.1,0,0.4,0,0.4S2,9.1,4.2,11.4c2,2,4.3,1.9,4.3,1.9h1c0,0,0.3,0,0.5-0.2c0.1-0.2,0.1-0.4,0.1-0.4s0-1.4,0.6-1.6
	c0.6-0.2,1.4,1.3,2.3,1.9c0.6,0.4,1.1,0.3,1.1,0.3l2.3,0C16.4,13.3,17.6,13.2,17,12.3z"/>
</svg>
