<?xml version="1.0" encoding="utf-8"?>
<!-- Generator: Adobe Illustrator 24.3.0, SVG Export Plug-In . SVG Version: 6.00 Build 0)  -->
<svg version="1.1" id="Слой_1" xmlns="http://www.w3.org/2000/svg" xmlns:xlink="http://www.w3.org/1999/xlink" x="0px" y="0px"
	 viewBox="0 0 17.2 17" style="enable-background:new 0 0 17.2 17;" xml:space="preserve">
<style type="text/css">
	.st0{fill:#FFFFFF;}
</style>
<path class="st0" d="M16.5,3.8c-0.5-0.8-1-1-2-1c-1-0.1-3.6-0.1-5.9-0.1c-2.2,0-4.8,0-5.9,0.1c-1,0.1-1.5,0.2-2,1C0.2,4.6,0,6,0,8.5
	c0,0,0,0,0,0c0,0,0,0,0,0v0c0,2.5,0.2,3.9,0.7,4.7c0.5,0.8,1,1,2,1c1,0.1,3.6,0.1,5.9,0.1c2.2,0,4.8,0,5.9-0.1c1-0.1,1.5-0.2,2-1
	c0.5-0.8,0.7-2.2,0.7-4.7c0,0,0,0,0,0c0,0,0,0,0,0C17.2,6,17,4.6,16.5,3.8z M6.5,11.7V5.3l5.4,3.2L6.5,11.7z"/>
</svg>
