<?xml version="1.0" encoding="utf-8"?>
<!-- Generator: Adobe Illustrator 24.3.0, SVG Export Plug-In . SVG Version: 6.00 Build 0)  -->
<svg version="1.1" id="Слой_1" xmlns="http://www.w3.org/2000/svg" xmlns:xlink="http://www.w3.org/1999/xlink" x="0px" y="0px"
	 viewBox="0 0 17.2 17" style="enable-background:new 0 0 17.2 17;" xml:space="preserve">
<style type="text/css">
	.st0{fill:#FFFFFF;}
</style>
<path class="st0" d="M0.9,8.2l3.7,1.4L6,14.2c0.1,0.3,0.4,0.4,0.7,0.2l2.1-1.7c0.2-0.2,0.5-0.2,0.7,0l3.7,2.7c0.3,0.2,0.6,0,0.7-0.3
	L16.6,2c0.1-0.3-0.3-0.6-0.6-0.5L0.9,7.4C0.5,7.5,0.5,8.1,0.9,8.2z M5.8,8.9L13,4.4c0.1-0.1,0.3,0.1,0.2,0.2l-5.9,5.6
	c-0.2,0.2-0.3,0.5-0.4,0.7l-0.2,1.5c0,0.2-0.3,0.2-0.4,0L5.5,9.7C5.4,9.4,5.5,9,5.8,8.9z"/>
</svg>
