<?xml version="1.0" encoding="utf-8"?>
<!-- Generator: Adobe Illustrator 24.3.0, SVG Export Plug-In . SVG Version: 6.00 Build 0)  -->
<svg version="1.1" id="Слой_1" xmlns="http://www.w3.org/2000/svg" xmlns:xlink="http://www.w3.org/1999/xlink" x="0px" y="0px"
	 viewBox="0 0 17.2 17" style="enable-background:new 0 0 17.2 17;" xml:space="preserve">
<style type="text/css">
	.st0{fill:#FFFFFF;}
</style>
<path class="st0" d="M5.9,8.5c0-1.5,1.2-2.7,2.7-2.7s2.7,1.2,2.7,2.7c0,1.5-1.2,2.7-2.7,2.7S5.9,10,5.9,8.5 M4.4,8.5
	c0,2.3,1.9,4.2,4.2,4.2s4.2-1.9,4.2-4.2c0-2.3-1.9-4.2-4.2-4.2S4.4,6.2,4.4,8.5 M12,4.2c0,0.5,0.4,1,1,1c0.5,0,1-0.4,1-1s-0.4-1-1-1
	C12.4,3.2,12,3.6,12,4.2 M5.3,15.1c-0.8,0-1.2-0.2-1.5-0.3c-0.4-0.1-0.6-0.3-0.9-0.6c-0.3-0.3-0.5-0.6-0.6-0.9C2.2,13,2,12.6,2,11.8
	c0-0.9,0-1.1,0-3.3c0-2.2,0-2.4,0-3.3C2,4.4,2.2,4,2.3,3.7c0.1-0.4,0.3-0.6,0.6-0.9c0.3-0.3,0.6-0.5,0.9-0.6
	c0.3-0.1,0.7-0.2,1.5-0.3c0.9,0,1.1,0,3.3,0c2.2,0,2.4,0,3.3,0c0.8,0,1.2,0.2,1.5,0.3c0.4,0.1,0.6,0.3,0.9,0.6
	c0.3,0.3,0.5,0.6,0.6,0.9C15,4,15.2,4.4,15.2,5.2c0,0.9,0,1.1,0,3.3c0,2.2,0,2.4,0,3.3c0,0.8-0.2,1.2-0.3,1.5
	c-0.1,0.4-0.3,0.6-0.6,0.9c-0.3,0.3-0.6,0.5-0.9,0.6c-0.3,0.1-0.7,0.2-1.5,0.3c-0.9,0-1.1,0-3.3,0C6.4,15.2,6.2,15.1,5.3,15.1
	 M5.3,0.4c-0.9,0-1.5,0.2-2,0.4C2.8,1,2.3,1.3,1.8,1.7C1.4,2.2,1.1,2.7,0.9,3.2c-0.2,0.5-0.3,1.1-0.4,2c0,0.9,0,1.1,0,3.3
	s0,2.5,0,3.3c0,0.9,0.2,1.5,0.4,2c0.2,0.5,0.5,1,0.9,1.4c0.5,0.5,0.9,0.7,1.4,0.9c0.5,0.2,1.1,0.3,2,0.4c0.9,0,1.1,0,3.3,0
	c2.2,0,2.5,0,3.3,0c0.9,0,1.5-0.2,2-0.4c0.5-0.2,1-0.5,1.4-0.9c0.5-0.5,0.7-0.9,0.9-1.4c0.2-0.5,0.3-1.1,0.4-2c0-0.9,0-1.1,0-3.3
	s0-2.5,0-3.3c0-0.9-0.2-1.5-0.4-2c-0.2-0.5-0.5-1-0.9-1.4c-0.5-0.5-0.9-0.7-1.4-0.9c-0.5-0.2-1.1-0.3-2-0.4c-0.9,0-1.1,0-3.3,0
	C6.4,0.4,6.1,0.4,5.3,0.4"/>
</svg>
