<?xml version="1.0" encoding="utf-8"?>
<!-- Generator: Adobe Illustrator 24.3.0, SVG Export Plug-In . SVG Version: 6.00 Build 0)  -->
<svg version="1.1" id="Слой_1" xmlns="http://www.w3.org/2000/svg" xmlns:xlink="http://www.w3.org/1999/xlink" x="0px" y="0px"
	 viewBox="0 0 17.2 17" style="enable-background:new 0 0 17.2 17;" xml:space="preserve">
<style type="text/css">
	.st0{fill:#FFFFFF;}
</style>
<path class="st0" d="M12.3,0l-1.9,0C8.2,0,6.8,1.6,6.8,4.2v1.9H4.9c-0.2,0-0.3,0.2-0.3,0.3v2.8c0,0.2,0.1,0.3,0.3,0.3h1.9v7.1
	C6.8,16.8,7,17,7.1,17h2.5c0.2,0,0.3-0.2,0.3-0.3V9.6h2.3c0.2,0,0.3-0.2,0.3-0.3l0-2.8c0-0.1,0-0.2-0.1-0.2
	c-0.1-0.1-0.1-0.1-0.2-0.1H10V4.5c0-0.8,0.2-1.2,1.1-1.2l1.3,0c0.2,0,0.3-0.2,0.3-0.3V0.4C12.6,0.2,12.5,0,12.3,0z"/>
</svg>
