<?xml version="1.0" encoding="utf-8"?>
<!-- Generator: Adobe Illustrator 24.3.0, SVG Export Plug-In . SVG Version: 6.00 Build 0)  -->
<svg version="1.1" id="Слой_1" xmlns="http://www.w3.org/2000/svg" xmlns:xlink="http://www.w3.org/1999/xlink" x="0px" y="0px"
	 viewBox="0 0 168 168" style="enable-background:new 0 0 168 168;" xml:space="preserve">
<style type="text/css">
	.st0{fill:#333333;}
	.st1{fill:#9BD63E;}
</style>
<path class="st0" d="M68.3,8c1.7,0,3-1.3,3-3s-1.3-3-3-3s-3,1.3-3,3C65.3,6.7,66.6,8,68.3,8z M68.3,3.5c0.8,0,1.5,0.7,1.5,1.5
	s-0.7,1.5-1.5,1.5S66.8,5.8,66.8,5C66.8,4.2,67.5,3.5,68.3,3.5z M158.3,53.5c-1.1,0-2,0.9-2,2s0.9,2,2,2s2-0.9,2-2
	C160.3,54.4,159.4,53.5,158.3,53.5z M158.3,56.5c-0.6,0-1-0.4-1-1s0.4-1,1-1s1,0.4,1,1C159.3,56.1,158.9,56.5,158.3,56.5z M9.5,4.5
	c-1.1,0-2,0.9-2,2s0.9,2,2,2s2-0.9,2-2C11.5,5.4,10.6,4.5,9.5,4.5z M9.5,7.5c-0.6,0-1-0.4-1-1s0.4-1,1-1s1,0.4,1,1
	C10.5,7.1,10.1,7.5,9.5,7.5z M144,2.5c-1.1,0-2,0.9-2,2c0,1.1,0.9,2,2,2c1.1,0,2-0.9,2-2C146,3.4,145.1,2.5,144,2.5z M144,5.5
	c-0.6,0-1-0.4-1-1c0-0.6,0.4-1,1-1c0.6,0,1,0.4,1,1C145,5,144.6,5.5,144,5.5z M42,14c0-1.1-0.9-2-2-2s-2,0.9-2,2s0.9,2,2,2
	C41.1,16,42,15.1,42,14z M39,14c0-0.6,0.4-1,1-1s1,0.4,1,1s-0.4,1-1,1C39.4,15,39,14.6,39,14z"/>
<path class="st0" d="M10.9,69l1.5-2l-0.9-0.5l-1,2.2h0l-1-2.2l-1,0.5L10,69v0l-2.3-0.3v1.1l2.3-0.3v0l-1.5,1.9L9.4,72l1-2.2h0
	l0.9,2.2l1-0.6l-1.5-1.9v0l2.4,0.3v-1.1L10.9,69C10.9,69,10.9,69,10.9,69z M3.7,36.2l-0.9,1.1l0.5,0.3L4,36.3h0l0.5,1.3l0.6-0.3
	l-0.9-1.1v0l1.4,0.2v-0.6l-1.4,0.2v0l0.9-1.1l-0.5-0.3L4,35.7h0l-0.6-1.3l-0.6,0.3l0.8,1.1v0l-1.3-0.2v0.6L3.7,36.2
	C3.7,36.1,3.7,36.2,3.7,36.2z M163,31.2v-1l-2.3,0.3v0l1.5-1.9l-0.9-0.5l-0.9,2.1h0l-1-2.1l-0.9,0.5l1.4,1.9v0l-2.3-0.3v1l2.3-0.3v0
	l-1.5,1.9l0.9,0.6l1-2.2h0l0.9,2.1l1-0.6l-1.5-1.8v0L163,31.2L163,31.2z M116.7,19.6l1.3-1.7l-0.8-0.5l-0.8,1.9h0l-0.8-1.8l-0.8,0.5
	l1.2,1.6v0l-1.9-0.3v0.9l2-0.3v0l-1.3,1.6l0.8,0.5l0.9-1.9h0l0.8,1.9l0.8-0.5l-1.3-1.6v0l2,0.2v-0.9L116.7,19.6
	C116.7,19.6,116.7,19.6,116.7,19.6z"/>
<circle class="st0" cx="2" cy="150" r="2"/>
<path class="st0" d="M11,148H8c-1.1,0-2,0.9-2,2s0.9,2,2,2h3c1.1,0,2-0.9,2-2S12.1,148,11,148z"/>
<path class="st0" d="M118.2,156h-8.3c-1.1,0.1-1.9,1.1-1.8,2.2c0.1,1,0.9,1.8,1.8,1.8h8.3c1.1-0.1,1.9-1.1,1.8-2.2
	C119.9,156.9,119.1,156.1,118.2,156z M58.2,156h-8.3c-1.1,0.1-1.9,1.1-1.8,2.2c0.1,1,0.9,1.8,1.8,1.8h8.3c1.1-0.1,1.9-1.1,1.8-2.2
	C59.9,156.9,59.1,156.1,58.2,156z M104,156H64c-1.1,0-2,0.9-2,2s0.9,2,2,2h15.9v2H72c-1.1,0-2,0.9-2,2s0.9,2,2,2h25c1.1,0,2-0.9,2-2
	s-0.9-2-2-2h-8.9v-2H104c1.1,0,2-0.9,2-2S105.1,156,104,156z"/>
<circle class="st0" cx="2" cy="150" r="2"/>
<path class="st0" d="M11,148H8c-1.1,0-2,0.9-2,2s0.9,2,2,2h3c1.1,0,2-0.9,2-2S12.1,148,11,148z"/>
<path class="st0" d="M118.2,156h-8.3c-1.1,0.1-1.9,1.1-1.8,2.2c0.1,1,0.9,1.8,1.8,1.8h8.3c1.1-0.1,1.9-1.1,1.8-2.2
	C119.9,156.9,119.1,156.1,118.2,156z M58.2,156h-8.3c-1.1,0.1-1.9,1.1-1.8,2.2c0.1,1,0.9,1.8,1.8,1.8h8.3c1.1-0.1,1.9-1.1,1.8-2.2
	C59.9,156.9,59.1,156.1,58.2,156z M104,156H64c-1.1,0-2,0.9-2,2s0.9,2,2,2h15.9v2H72c-1.1,0-2,0.9-2,2s0.9,2,2,2h25c1.1,0,2-0.9,2-2
	s-0.9-2-2-2h-8.9v-2H104c1.1,0,2-0.9,2-2S105.1,156,104,156z"/>
<circle class="st0" cx="2" cy="150" r="2"/>
<path class="st0" d="M11,148H8c-1.1,0-2,0.9-2,2s0.9,2,2,2h3c1.1,0,2-0.9,2-2S12.1,148,11,148z"/>
<path class="st0" d="M118.2,156h-8.3c-1.1,0.1-1.9,1.1-1.8,2.2c0.1,1,0.9,1.8,1.8,1.8h8.3c1.1-0.1,1.9-1.1,1.8-2.2
	C119.9,156.9,119.1,156.1,118.2,156z M58.2,156h-8.3c-1.1,0.1-1.9,1.1-1.8,2.2c0.1,1,0.9,1.8,1.8,1.8h8.3c1.1-0.1,1.9-1.1,1.8-2.2
	C59.9,156.9,59.1,156.1,58.2,156z M104,156H64c-1.1,0-2,0.9-2,2s0.9,2,2,2h15.9v2H72c-1.1,0-2,0.9-2,2s0.9,2,2,2h25c1.1,0,2-0.9,2-2
	s-0.9-2-2-2h-8.9v-2H104c1.1,0,2-0.9,2-2S105.1,156,104,156z"/>
<circle class="st0" cx="2" cy="150" r="2"/>
<path class="st0" d="M11,148H8c-1.1,0-2,0.9-2,2s0.9,2,2,2h3c1.1,0,2-0.9,2-2S12.1,148,11,148z"/>
<path class="st1" d="M118.2,156h-8.3c-1.1,0.1-1.9,1.1-1.8,2.2c0.1,1,0.9,1.8,1.8,1.8h8.3c1.1-0.1,1.9-1.1,1.8-2.2
	C119.9,156.9,119.1,156.1,118.2,156z M58.2,156h-8.3c-1.1,0.1-1.9,1.1-1.8,2.2c0.1,1,0.9,1.8,1.8,1.8h8.3c1.1-0.1,1.9-1.1,1.8-2.2
	C59.9,156.9,59.1,156.1,58.2,156z M104,156H64c-1.1,0-2,0.9-2,2s0.9,2,2,2h15.9v2H72c-1.1,0-2,0.9-2,2s0.9,2,2,2h25c1.1,0,2-0.9,2-2
	s-0.9-2-2-2h-8.9v-2H104c1.1,0,2-0.9,2-2S105.1,156,104,156z"/>
<circle class="st0" cx="40" cy="34" r="2"/>
<circle class="st0" cx="32" cy="34" r="2"/>
<circle class="st0" cx="56" cy="34" r="2"/>
<circle class="st0" cx="48" cy="34" r="2"/>
<circle class="st0" cx="136" cy="34" r="2"/>
<circle class="st0" cx="128" cy="34" r="2"/>
<path class="st1" d="M46,49H30c-1.1,0-2,0.9-2,2s0.9,2,2,2h16c1.1,0,2-0.9,2-2S47.1,49,46,49z"/>
<path class="st0" d="M46,59H30c-1.1,0-2,0.9-2,2s0.9,2,2,2h16c1.1,0,2-0.9,2-2S47.1,59,46,59z"/>
<path class="st0" d="M46,69H30c-1.1,0-2,0.9-2,2s0.9,2,2,2h16c1.1,0,2-0.9,2-2S47.1,69,46,69z"/>
<path class="st0" d="M46,79H30c-1.1,0-2,0.9-2,2s0.9,2,2,2h16c1.1,0,2-0.9,2-2S47.1,79,46,79z"/>
<path class="st0" d="M46,89H30c-1.1,0-2,0.9-2,2s0.9,2,2,2h16c1.1,0,2-0.9,2-2S47.1,89,46,89z"/>
<path class="st0" d="M46,99H30c-1.1,0-2,0.9-2,2s0.9,2,2,2h16c1.1,0,2-0.9,2-2S47.1,99,46,99z"/>
<path class="st0" d="M46,109H30c-1.1,0-2,0.9-2,2s0.9,2,2,2h16c1.1,0,2-0.9,2-2S47.1,109,46,109z"/>
<path class="st0" d="M46,119H30c-1.1,0-2,0.9-2,2s0.9,2,2,2h16c1.1,0,2-0.9,2-2S47.1,119,46,119z"/>
<path class="st1" d="M46,129H30c-1.1,0-2,0.9-2,2s0.9,2,2,2h16c1.1,0,2-0.9,2-2S47.1,129,46,129z"/>
<path class="st0" d="M46,139H30c-1.1,0-2,0.9-2,2s0.9,2,2,2h16c1.1,0,2-0.9,2-2S47.1,139,46,139z M136,84H66v-3.2l10.3-11L89,78.2
	c0.9,0.6,2,0.4,2.7-0.4l10.4-13l14,8.6c0.8,0.5,1.9,0.4,2.5-0.3l10.9-11.6c0.8-0.8,0.8-2.1,0-2.8c-0.8-0.8-2.1-0.8-2.8,0
	c0,0,0,0.1-0.1,0.1L116.8,69l-14.1-8.6c-0.9-0.5-2-0.3-2.6,0.5l-10.4,13l-12.5-8.3c-0.8-0.5-1.9-0.4-2.6,0.3L66,75V50
	c0-1.1-0.9-2-2-2s-2,0.9-2,2v36c0,1.1,0.9,2,2,2h72c1.1,0,2-0.9,2-2S137.1,84,136,84z M100,90c-17.6,0-32,14.6-32,32.5
	c0,7.5,2.6,14.9,7.3,20.7c0.4,0.5,0.9,0.7,1.6,0.7h46.2c0.6,0,1.2-0.3,1.6-0.7c4.8-5.9,7.3-13.2,7.3-20.7C132,104.6,117.6,90,100,90
	z M122.1,140H77.9c-3.8-5-5.9-11.2-5.9-17.5C72,106.8,84.6,94,100,94s28,12.8,28,28.5C128,128.8,125.9,135,122.1,140z"/>
<ellipse transform="matrix(3.460300e-02 -0.9994 0.9994 3.460300e-02 -5.9249 198.9184)" class="st0" cx="100" cy="102.5" rx="2.6" ry="2.6"/>
<path class="st0" d="M84.4,106.4c-1.1,1-1.1,2.7-0.1,3.7c1,1.1,2.6,1.1,3.7,0.2c0,0,0,0,0,0c1.1-1,1.1-2.7,0.1-3.7
	C87.1,105.5,85.5,105.4,84.4,106.4C84.4,106.4,84.4,106.4,84.4,106.4z"/>
<ellipse transform="matrix(3.460300e-02 -0.9994 0.9994 3.460300e-02 -44.54 198.4172)" class="st0" cx="80.4" cy="122.3" rx="2.6" ry="2.6"/>
<ellipse transform="matrix(3.517856e-02 -0.9994 0.9994 3.517856e-02 -6.8265 237.455)" class="st0" cx="119.6" cy="122.3" rx="2.6" ry="2.6"/>
<path class="st0" d="M112.1,106.4c-1.1,1-1.1,2.7-0.1,3.7c1,1.1,2.6,1.1,3.7,0.2c0,0,0,0,0,0c1.1-1,1.1-2.7,0.1-3.7
	C114.8,105.5,113.1,105.4,112.1,106.4C112.1,106.4,112.1,106.4,112.1,106.4z"/>
<path class="st1" d="M106,111.2c-1-0.4-2.2,0.1-2.6,1.1c0,0,0,0,0,0l-3.7,9.3c-1.7,0.1-3.4,0.8-4.6,1.9c-2.9,2.8-3.1,7.4-0.3,10.3
	c1.3,1.4,3.1,2.2,5,2.3c0.1,0,0.2,0,0.3,0c1.8,0,3.6-0.7,4.9-2c2.9-2.8,3.1-7.4,0.3-10.3c-0.5-0.5-1-0.9-1.6-1.3l3.5-8.8
	C107.5,112.8,107,111.6,106,111.2C106,111.2,106,111.2,106,111.2z M102.2,131.2c-0.6,0.6-1.4,0.9-2.3,0.9c-1.8-0.1-3.2-1.6-3.1-3.4
	c0-0.8,0.4-1.6,1-2.2c0.6-0.6,1.4-0.9,2.3-0.9c1.8,0.1,3.2,1.6,3.1,3.4C103.2,129.9,102.8,130.7,102.2,131.2z M120,32H80
	c-1.1,0-2,0.9-2,2s0.9,2,2,2h40c1.1,0,2-0.9,2-2S121.1,32,120,32z"/>
<path class="st0" d="M160,148h-3c-1.1,0-2,0.9-2,2s0.9,2,2,2h3c1.1,0,2-0.9,2-2S161.1,148,160,148z"/>
<circle class="st0" cx="166" cy="150" r="2"/>
<path class="st0" d="M150.7,148h-3.1c0.2-0.6,0.3-1.3,0.4-2V30c0-3.3-2.7-6-6-6H26c-3.3,0-6,2.7-6,6v116c0,0.7,0.1,1.4,0.4,2h-3.1
	c-1.1-0.1-2.1,0.6-2.3,1.7c-0.1,1.1,0.6,2.1,1.7,2.3c0.2,0,0.3,0,0.5,0h133.4c1.1,0.1,2.1-0.6,2.3-1.7s-0.6-2.1-1.7-2.3
	C151.1,148,150.9,148,150.7,148L150.7,148z M24,30c0-1.1,0.9-2,2-2h116c1.1,0,2,0.9,2,2v10H24V30z M26,148c-1.1,0-2-0.9-2-2V44h28
	v104H26z M56,148V44h88v102c0,1.1-0.9,2-2,2H56z"/>
</svg>
