<?xml version="1.0" encoding="utf-8"?>
<!-- Generator: Adobe Illustrator 24.3.0, SVG Export Plug-In . SVG Version: 6.00 Build 0)  -->
<svg version="1.1" id="Слой_1" xmlns="http://www.w3.org/2000/svg" xmlns:xlink="http://www.w3.org/1999/xlink" x="0px" y="0px"
	 viewBox="0 0 168 168" style="enable-background:new 0 0 168 168;" xml:space="preserve">
<style type="text/css">
	.st0{fill:#333333;}
	.st1{fill:#9BD63E;}
</style>
<circle class="st0" cx="2" cy="148.9" r="2"/>
<path class="st0" d="M11,146.9H8c-1.1,0-2,0.9-2,2s0.9,2,2,2h3c1.1,0,2-0.9,2-2S12.1,146.9,11,146.9z M160,146.9h-3
	c-1.1,0-2,0.9-2,2s0.9,2,2,2h3c1.1,0,2-0.9,2-2S161.1,146.9,160,146.9z"/>
<circle class="st0" cx="166" cy="148.9" r="2"/>
<path class="st1" d="M118.2,154.9h-8.3c-1.1,0.1-1.9,1.1-1.8,2.2c0.1,1,0.9,1.8,1.8,1.8h8.3c1.1-0.1,1.9-1.1,1.8-2.2
	C119.9,155.7,119.1,154.9,118.2,154.9z M58.2,154.9h-8.3c-1.1,0.1-1.9,1.1-1.8,2.2c0.1,1,0.9,1.8,1.8,1.8h8.3
	c1.1-0.1,1.9-1.1,1.8-2.2C59.9,155.7,59.1,154.9,58.2,154.9z M104,154.9H64c-1.1,0-2,0.9-2,2s0.9,2,2,2h15.9v2H72c-1.1,0-2,0.9-2,2
	s0.9,2,2,2h25c1.1,0,2-0.9,2-2s-0.9-2-2-2h-8.9v-2H104c1.1,0,2-0.9,2-2S105.1,154.9,104,154.9z"/>
<path class="st0" d="M150.7,146.9H118v-81c0-1.7-1.3-3-3-3h-12c-1.7,0-3,1.3-3,3v81H74v-81c0-1.7-1.3-3-3-3H59c-1.7,0-3,1.3-3,3v81
	H24v-14h2c1.1,0,2-0.9,2-2s-0.9-2-2-2h-2v-24h2c1.1,0,2-0.9,2-2s-0.9-2-2-2h-2v-24h2c1.1,0,2-0.9,2-2s-0.9-2-2-2h-2v-24h2
	c1.1,0,2-0.9,2-2s-0.9-2-2-2h-2v-20c0-1.1-0.9-2-2-2s-2,0.9-2,2v122h-2.7c-1.1-0.1-2.1,0.6-2.3,1.7c-0.1,1.1,0.6,2.1,1.7,2.3
	c0.2,0,0.3,0,0.5,0h133.4c1.1,0.1,2.1-0.6,2.3-1.7s-0.6-2.1-1.7-2.3C151.1,146.8,150.9,146.8,150.7,146.9z M60,146.9v-80h10v80H60z
	 M104,146.9v-80h10v80H104z"/>
<path class="st1" d="M140,84.9v62h-4v-61h-10v61h-4v-62c0-1.7,1.3-3,3-3h12C138.7,81.9,140,83.2,140,84.9z M96,109.9v37h-4v-36H82
	v36h-4v-37c0-1.7,1.3-3,3-3h12C94.7,106.9,96,108.2,96,109.9z M52,99.9v47h-4v-46H38v46h-4v-47c0-1.7,1.3-3,3-3h12
	C50.7,96.9,52,98.2,52,99.9z"/>
<path class="st0" d="M48,44.9c1.7,0,3-1.3,3-3s-1.3-3-3-3s-3,1.3-3,3C45,43.5,46.3,44.9,48,44.9z M48,40.4c0.8,0,1.5,0.7,1.5,1.5
	s-0.7,1.5-1.5,1.5s-1.5-0.7-1.5-1.5C46.5,41,47.2,40.4,48,40.4z M159.3,50.6c-1.1,0-2,0.9-2,2s0.9,2,2,2s2-0.9,2-2
	C161.3,51.5,160.4,50.7,159.3,50.6z M159.3,53.6c-0.6,0-1-0.4-1-1s0.4-1,1-1s1,0.4,1,1C160.3,53.2,159.9,53.6,159.3,53.6z M94,23.7
	c-1.1,0-2,0.9-2,2s0.9,2,2,2s2-0.9,2-2C96,24.6,95.1,23.7,94,23.7z M94,26.7c-0.6,0-1-0.4-1-1s0.4-1,1-1s1,0.4,1,1
	C95,26.3,94.6,26.7,94,26.7z M127.3,55.3c-1.1,0-2,0.9-2,2s0.9,2,2,2c1.1,0,2-0.9,2-2C129.3,56.2,128.5,55.3,127.3,55.3z
	 M127.3,58.3c-0.6,0-1-0.4-1-1s0.4-1,1-1s1,0.4,1,1C128.3,57.9,127.9,58.3,127.3,58.3z M15,46c0-1.1-0.9-2-2-2s-2,0.9-2,2s0.9,2,2,2
	C14.1,48,15,47.2,15,46z M12,46c0-0.6,0.4-1,1-1s1,0.4,1,1s-0.4,1-1,1C12.4,47,12,46.6,12,46z"/>
<path class="st0" d="M6.4,6.6l1.5-2L7,4.1L6,6.3h0L5,4.1l-1,0.5l1.5,1.9v0L3.2,6.3v1.1l2.3-0.3v0L4.1,9l0.9,0.6l1-2.2h0l0.9,2.2
	l1-0.6L6.4,7.1v0l2.4,0.3V6.3L6.4,6.6C6.4,6.6,6.4,6.6,6.4,6.6z M69.7,5.6l-0.9,1.1L69.4,7L70,5.8h0L70.5,7l0.6-0.3l-0.9-1.1v0
	l1.4,0.2V5.2l-1.4,0.2v0l0.9-1.1l-0.5-0.3L70,5.1h0l-0.6-1.3l-0.6,0.3l0.8,1.1v0l-1.3-0.2v0.6L69.7,5.6C69.7,5.6,69.7,5.6,69.7,5.6z
	 M162,16.9v-1l-2.3,0.3v0l1.5-1.9l-0.9-0.5l-0.9,2.1h0l-1-2.1l-0.9,0.5l1.4,1.9v0l-2.3-0.3v1l2.3-0.3v0l-1.5,1.9l0.9,0.6l1-2.2h0
	l0.9,2.1l1-0.6l-1.5-1.8v0L162,16.9L162,16.9z M125.4,5.2l1.3-1.7l-0.8-0.5L125,5h0l-0.8-1.8l-0.8,0.5l1.2,1.6v0L122.7,5v0.9l2-0.3
	v0l-1.3,1.6l0.8,0.5l0.9-1.9h0l0.8,1.9l0.8-0.5l-1.3-1.6v0l2,0.2V5L125.4,5.2L125.4,5.2z"/>
</svg>
