<?xml version="1.0" encoding="utf-8"?>
<!-- Generator: Adobe Illustrator 24.3.0, SVG Export Plug-In . SVG Version: 6.00 Build 0)  -->
<svg version="1.1" id="Слой_1" xmlns="http://www.w3.org/2000/svg" xmlns:xlink="http://www.w3.org/1999/xlink" x="0px" y="0px"
	 viewBox="0 0 168 168" style="enable-background:new 0 0 168 168;" xml:space="preserve">
<style type="text/css">
	.st0{fill:#9BD63E;}
	.st1{fill:#333333;}
</style>
<path class="st0" d="M98,74.1c6.2,0,12-2.4,15.5-6.5c0.7-0.8,0.6-2-0.2-2.7c0,0,0,0,0,0c-0.8-0.7-2.1-0.6-2.8,0.2
	c-2.8,3.2-7.5,5.2-12.5,5.2c-5,0-9.7-1.9-12.5-5.2c-0.7-0.8-2-0.9-2.8-0.2c-0.8,0.7-1,1.9-0.3,2.7c0,0,0,0,0,0
	C86,71.7,91.8,74.1,98,74.1z M60.3,73.2c-1.1-0.1-2.1,0.6-2.2,1.7c-0.1,0.4-1.2,9.3,6.9,13.8c1,0.5,2.2,0.2,2.7-0.8
	c0.5-0.9,0.2-2.1-0.7-2.7c0,0,0,0,0,0c-5.7-3.2-5-9.6-4.9-9.8C62.2,74.3,61.4,73.3,60.3,73.2C60.3,73.2,60.3,73.2,60.3,73.2z
	 M134,76.2c0.1,1,1,1.8,2,1.8c0,0,0.1,0,0.1,0c1.1-0.1,1.9-1,1.9-2.1c0,0,0,0,0,0c-0.5-5.4-4.2-10-9.4-11.6c-1-0.3-2.2,0.2-2.5,1.3
	c-0.3,1,0.2,2.1,1.3,2.5c0,0,0,0,0,0C131,69.3,133.6,72.5,134,76.2z M82.5,99.3c-2.8,3.3-7.5,5.2-12.5,5.2c-5,0-9.7-2-12.5-5.3
	c-0.7-0.8-2-1-2.8-0.2c-0.8,0.7-1,2-0.2,2.8c3.5,4.2,9.4,6.7,15.6,6.7c6.2,0,12-2.5,15.5-6.7c0.7-0.8,0.6-2.1-0.2-2.8
	C84.5,98.3,83.2,98.4,82.5,99.3C82.5,99.3,82.5,99.3,82.5,99.3L82.5,99.3z M39,119.8c-5.7-3.2-5-9.7-4.9-10c0.1-1.1-0.6-2.1-1.7-2.2
	c-1.1-0.1-2.1,0.6-2.2,1.7c-0.1,0.4-1.2,9.5,6.9,14c1,0.5,2.2,0.2,2.7-0.8S39.9,120.3,39,119.8L39,119.8z M100.6,98.6
	c-1.1-0.3-2.2,0.3-2.5,1.3c-0.3,1.1,0.3,2.2,1.3,2.5c3.6,1.2,6.2,4.4,6.6,8.2c0.1,1,0.9,1.9,2,1.9c0,0,0.1,0,0.1,0
	c1.1-0.1,1.9-1,1.9-2.1C110,110,109.3,101.4,100.6,98.6z"/>
<path class="st1" d="M147.1,70.5c-1.1-3.6-3-6.9-5.6-9.6c-7.9-8.3-20.3-10.7-30.3-5.9c-2,1-3.9,2.2-5.5,3.8c-2,2-4.7,3.1-7.6,3.3
	c-2.9-0.1-5.6-1.3-7.6-3.3c-4.5-4.4-11.5-6.7-18.9-6.1c-10.8,0.9-19.9,8.4-22.7,18.9c-0.9,3.5-1.1,7.1-0.4,10.6
	c1.4,0.1,2.8,0.3,4.2,0.6c-0.8-3.4-0.8-6.9,0-10.2c2.4-8.8,10.1-15.2,19.2-16c0.7-0.1,1.4-0.1,2.1-0.1c5.4,0,10.4,1.8,13.6,5
	c2.8,2.7,6.5,4.3,10.5,4.4c3.9-0.1,7.6-1.7,10.4-4.4c1.3-1.3,2.8-2.3,4.4-3.1c8.4-4,19-1.9,25.7,5.1c2.2,2.3,3.8,5,4.7,8
	c3.4,12-5.1,24.4-15.4,30.5c-1.5,0.9-3,1.7-4.5,2.3c0.3,1.3,0.5,2.7,0.6,4c2.1-0.9,4.1-1.9,6-3C141.5,98.6,151.1,84.3,147.1,70.5z
	 M44.3,59.2c1.7,0,3-1.3,3-3s-1.3-3-3-3s-3,1.3-3,3C41.3,57.9,42.6,59.2,44.3,59.2z M44.3,54.7c0.8,0,1.5,0.7,1.5,1.5
	s-0.7,1.5-1.5,1.5s-1.5-0.7-1.5-1.5l0,0C42.8,55.4,43.5,54.8,44.3,54.7z M158.3,58c-1.1,0-2,0.9-2,2s0.9,2,2,2s2-0.9,2-2
	C160.3,58.9,159.4,58,158.3,58z M158.3,61c-0.6,0-1-0.4-1-1s0.4-1,1-1s1,0.4,1,1C159.3,60.6,158.9,61,158.3,61z M107,14.7
	c-1.1,0-2,0.9-2,2c0,1.1,0.9,2,2,2s2-0.9,2-2C109,15.6,108.1,14.8,107,14.7z M107,17.7c-0.6,0-1-0.4-1-1s0.4-1,1-1s1,0.4,1,1
	C108,17.3,107.6,17.7,107,17.7z M158.3,5.5c-1.1,0-2,0.9-2,2s0.9,2,2,2s2-0.9,2-2C160.3,6.4,159.4,5.5,158.3,5.5z M158.3,8.5
	c-0.6,0-1-0.4-1-1s0.4-1,1-1s1,0.4,1,1C159.3,8.1,158.9,8.5,158.3,8.5z M17.5,14.5c0-1.1-0.9-2-2-2s-2,0.9-2,2s0.9,2,2,2
	C16.6,16.5,17.5,15.6,17.5,14.5z M14.5,14.5c0-0.6,0.4-1,1-1c0.6,0,1,0.4,1,1s-0.4,1-1,1C14.9,15.5,14.5,15.1,14.5,14.5z"/>
<polygon class="st1" points="7.6,48 9.1,46.1 8.2,45.5 7.2,47.7 7.2,47.7 6.2,45.5 5.3,46.1 6.7,48 6.7,48 4.4,47.7 4.4,48.8 
	6.8,48.5 6.8,48.5 5.3,50.4 6.2,51 7.2,48.8 7.2,48.8 8.2,51 9.1,50.4 7.6,48.5 7.6,48.5 10,48.8 10,47.7 7.6,48 "/>
<polygon class="st1" points="99.6,46.3 98.7,47.4 99.2,47.8 99.8,46.5 99.8,46.5 100.4,47.8 101,47.4 100.1,46.4 100.1,46.3 
	101.4,46.5 101.4,45.9 100.1,46.1 100.1,46 100.9,44.9 100.4,44.6 99.9,45.9 99.8,45.9 99.3,44.6 98.7,44.9 99.6,46 99.6,46.1 
	98.2,45.9 98.2,46.5 99.6,46.3 "/>
<polygon class="st1" points="140.6,38 140.6,36.9 138.2,37.2 138.2,37.2 139.7,35.3 138.8,34.8 137.8,36.9 137.8,36.9 136.9,34.8 
	135.9,35.3 137.4,37.2 137.4,37.2 135.1,36.9 135.1,38 137.4,37.7 137.4,37.7 135.9,39.6 136.8,40.1 137.8,38 137.8,38 138.7,40.1 
	139.7,39.6 138.2,37.7 138.2,37.7 "/>
<polygon class="st1" points="59.2,27.7 60.5,26.1 59.7,25.6 58.9,27.5 58.9,27.5 58.1,25.7 57.2,26.1 58.5,27.7 58.5,27.8 
	56.5,27.5 56.5,28.4 58.5,28.2 58.5,28.2 57.2,29.8 58,30.3 58.9,28.4 58.9,28.4 59.7,30.3 60.5,29.8 59.2,28.2 59.2,28.2 
	61.2,28.4 61.2,27.5 59.2,27.8 "/>
<circle class="st1" cx="2" cy="146.5" r="2"/>
<path class="st1" d="M11,144.5H8c-1.1,0-2,0.9-2,2s0.9,2,2,2h3c1.1,0,2-0.9,2-2S12.1,144.5,11,144.5z M160,144.5h-3
	c-1.1,0-2,0.9-2,2s0.9,2,2,2h3c1.1,0,2-0.9,2-2S161.1,144.5,160,144.5z"/>
<circle class="st1" cx="166" cy="146.5" r="2"/>
<path class="st0" d="M118.2,152.5h-8.3c-1.1,0.1-1.9,1.1-1.8,2.2c0.1,1,0.9,1.8,1.8,1.8h8.3c1.1-0.1,1.9-1.1,1.8-2.2
	C119.9,153.4,119.1,152.6,118.2,152.5z M58.2,152.5h-8.3c-1.1,0.1-1.9,1.1-1.8,2.2c0.1,1,0.9,1.8,1.8,1.8h8.3
	c1.1-0.1,1.9-1.1,1.8-2.2C59.9,153.4,59.1,152.6,58.2,152.5z M104,152.5H64c-1.1,0-2,0.9-2,2s0.9,2,2,2h15.9v2H72c-1.1,0-2,0.9-2,2
	s0.9,2,2,2h25c1.1,0,2-0.9,2-2s-0.9-2-2-2h-8.9v-2H104c1.1,0,2-0.9,2-2S105.1,152.5,104,152.5z"/>
<path class="st1" d="M150.7,144.5H93.3c3-1.1,5.9-2.5,8.6-4.1c11.6-7,21.2-21.5,17.2-35.6c-1.1-3.7-3-7-5.6-9.8
	c-7.9-8.4-20.3-10.9-30.3-6c-2,1-3.9,2.3-5.5,3.9c-2,2-4.7,3.2-7.6,3.3c-2.9-0.1-5.6-1.3-7.6-3.3C58,88.4,50.9,86,43.6,86.7
	c-10.9,1-19.9,8.7-22.7,19.2c-2.4,9.1,0.7,19.3,8.3,27.3c2.7,2.8,5.7,5.2,9,7.2c2.7,1.6,5.6,3,8.6,4.1H17.3
	c-1.1-0.1-2.1,0.6-2.3,1.7c-0.1,1.1,0.6,2.1,1.7,2.3c0.2,0,0.3,0,0.5,0h133.4c1.1,0.1,2.1-0.6,2.3-1.7s-0.6-2.1-1.7-2.3
	C151.1,144.5,150.9,144.5,150.7,144.5z M40.2,136.9c-3-1.8-5.8-4-8.2-6.5c-6.7-7-9.4-15.7-7.4-23.5c2.4-8.9,10-15.4,19.2-16.2
	c0.7-0.1,1.4-0.1,2.1-0.1c5.4,0,10.4,1.8,13.6,5.1c2.8,2.8,6.5,4.4,10.5,4.5c3.9-0.1,7.6-1.7,10.4-4.5c1.3-1.3,2.8-2.3,4.4-3.1
	c8.4-4.1,19-2,25.7,5.2c2.2,2.3,3.8,5.1,4.7,8.2c3.4,12.2-5.1,24.8-15.4,31.1c-7.7,4.7-17.5,7.2-27.4,7.6h-4.9
	C57.7,144.1,48,141.6,40.2,136.9z"/>
</svg>
