<?xml version="1.0" encoding="utf-8"?>
<!-- Generator: Adobe Illustrator 24.3.0, SVG Export Plug-In . SVG Version: 6.00 Build 0)  -->
<svg version="1.1" id="Слой_1" xmlns="http://www.w3.org/2000/svg" xmlns:xlink="http://www.w3.org/1999/xlink" x="0px" y="0px"
	 viewBox="0 0 168 168" style="enable-background:new 0 0 168 168;" xml:space="preserve">
<style type="text/css">
	.st0{fill:#FFC813;}
	.st1{fill:#9BD63E;}
</style>
<path class="st0" d="M70.5,81h21.8c10.1,0,18.2-8.9,18.2-19.9c0-10.6-8.2-19.1-18.2-19.1H70.5c-1.1,0-2,0.9-2,2v35
	C68.5,80.1,69.4,81,70.5,81z M72.5,46h19.8c7.9,0,14.2,6.8,14.2,15.1c0,8.7-6.4,15.9-14.2,15.9H72.5V46z M70.5,126h21.8
	c10.2,0,18.2-8.3,18.2-18.9c0-10.9-8.4-20.1-18.2-20.1H70.5c-1.1,0-2,0.9-2,2v35C68.5,125.1,69.4,126,70.5,126z M72.5,91h19.8
	c7.6,0,14.2,7.5,14.2,16.1c0,8.5-6.1,14.9-14.2,14.9H72.5V91z"/>
<path class="st0" d="M97.5,60c0,1.1,0.9,2,2,2s2-0.9,2-2c0-6.2-4-10-10.5-10H80.5c-1.1,0-2,0.9-2,2v5.5c0,1.1,0.9,2,2,2s2-0.9,2-2
	V54H91C94,54,97.5,55,97.5,60z M101.5,108c0-1.1-0.9-2-2-2s-2,0.9-2,2c0,5-3.5,6-6.5,6h-8.5v-3.5c0-1.1-0.9-2-2-2s-2,0.9-2,2v5.5
	c0,1.1,0.9,2,2,2H91C97.5,118,101.5,114.2,101.5,108z M142,53c1.7,0,3-1.3,3-3s-1.3-3-3-3s-3,1.3-3,3C139,51.7,140.3,53,142,53z
	 M142,48.5c0.8,0,1.5,0.7,1.5,1.5s-0.7,1.5-1.5,1.5s-1.5-0.7-1.5-1.5C140.5,49.2,141.2,48.5,142,48.5z M69,8c1.7,0,3-1.3,3-3
	s-1.3-3-3-3s-3,1.3-3,3C66,6.7,67.3,8,69,8z M69,3.5c0.8,0,1.5,0.7,1.5,1.5S69.8,6.5,69,6.5S67.5,5.8,67.5,5
	C67.5,4.2,68.2,3.5,69,3.5z M159,84c1.1,0,2-0.9,2-2s-0.9-2-2-2s-2,0.9-2,2C157,83.1,157.9,84,159,84z M159,81c0.6,0,1,0.4,1,1
	s-0.4,1-1,1s-1-0.4-1-1C158,81.4,158.4,81,159,81z M27,51c1.1,0,2-0.9,2-2s-0.9-2-2-2s-2,0.9-2,2C25,50.1,25.9,51,27,51z M27,48
	c0.6,0,1,0.4,1,1s-0.4,1-1,1s-1-0.4-1-1C26,48.4,26.4,48,27,48z M40,25c1.1,0,2-0.9,2-2s-0.9-2-2-2s-2,0.9-2,2
	C38,24.1,38.9,25,40,25z M40,22c0.6,0,1,0.4,1,1s-0.4,1-1,1s-1-0.4-1-1C39,22.4,39.4,22,40,22z"/>
<circle class="st0" cx="2" cy="146" r="2"/>
<path class="st0" d="M11,144H8c-1.1,0-2,0.9-2,2s0.9,2,2,2h3c1.1,0,2-0.9,2-2S12.1,144,11,144z M160,144h-3c-1.1,0-2,0.9-2,2
	s0.9,2,2,2h3c1.1,0,2-0.9,2-2S161.1,144,160,144z"/>
<circle class="st0" cx="166" cy="146" r="2"/>
<path class="st0" d="M150.7,144h-50.1c0.6-1.1,1-2.4,0.9-3.7v-4.7c12.6-3.6,20.9-15,20.9-28.9c-0.1-8.6-3.7-16.7-10-22.5
	c6.4-5.9,10-14.1,10-22.8c0-13.9-8.3-25.3-20.9-28.9v-4.7c0-4.2-3.4-7.7-7.7-7.7c-4.1,0-7.4,3.4-7.4,7.5c0,0.1,0,0.1,0,0.2V32h-14
	v-4.3c0.1-4.1-3.1-7.6-7.2-7.7c-0.1,0-0.1,0-0.2,0c-4.2,0-7.7,3.5-7.7,7.7V32h-4.2c-4.5,0-7.7,3-7.7,7.1c0,4.1,3.2,6.9,7.7,6.9h4.2
	v76h-4.2c-4.5,0-7.7,2.8-7.7,6.9c0,4.1,3.2,7.1,7.7,7.1h4.3v4.3c0,1.3,0.3,2.6,0.9,3.7H17.3c-1.1-0.1-2.1,0.6-2.3,1.7
	c-0.1,1.1,0.6,2.1,1.7,2.3c0.2,0,0.3,0,0.5,0h133.4c1.1,0.1,2.1-0.6,2.3-1.7s-0.6-2.1-1.7-2.3C151.1,144,150.9,144,150.7,144z
	 M61.5,140.3V134c0-1.1-0.9-2-2-2h-6.3c-1.8,0-3.7-1-3.7-3.1c0-2.8,3.1-2.9,3.7-2.9h6.2c1.1,0,2-0.9,2-2V44c0-1.1-0.9-2-2-2h-6.2
	c-0.6,0-3.7-0.1-3.7-2.9c0-2.1,1.9-3.1,3.7-3.1h6.2c1.1,0,2-0.9,2-2v-6.3c0-2,1.7-3.7,3.7-3.7c1.9,0.1,3.4,1.6,3.4,3.6
	c0,0,0,0.1,0,0.1V34c0,1.1,0.9,2,2,2h18c1.1,0,2-0.9,2-2v-6.3c-0.1-1.9,1.3-3.6,3.2-3.7c0,0,0.1,0,0.1,0c2,0,3.7,1.7,3.7,3.7V34
	c0,0.9,0.6,1.7,1.6,2c11.6,2.6,19.4,12.8,19.4,25.4c0,8.3-3.8,16.1-10.3,21.2c-0.9,0.7-1,1.9-0.3,2.8c0.1,0.1,0.2,0.2,0.3,0.3
	c6.5,5,10.3,12.8,10.3,20.9c0,12.6-7.8,22.8-19.4,25.4c-0.9,0.2-1.6,1-1.6,2v6.3c0,2-1.6,3.7-3.7,3.7c-1.9,0-3.4-1.6-3.4-3.6
	c0,0,0-0.1,0-0.1V134c0-1.1-0.9-2-2-2h-18c-1.1,0-2,0.9-2,2v6.3c0.1,1.9-1.3,3.6-3.2,3.7c0,0-0.1,0-0.1,0
	C63.1,144,61.5,142.3,61.5,140.3z M87.4,144H71.6c0.6-1.1,0.9-2.4,0.9-3.7V136h14v4.3C86.5,141.6,86.8,142.9,87.4,144z"/>
<circle class="st1" cx="97.5" cy="67" r="2"/>
<circle class="st1" cx="97.5" cy="101" r="2"/>
<polygon class="st1" points="11.6,69 13.1,67.1 12.1,66.5 11.2,68.7 11.1,68.7 10.2,66.5 9.2,67.1 10.7,69 10.7,69 8.4,68.7 
	8.4,69.8 10.7,69.5 10.7,69.5 9.2,71.4 10.1,72 11.1,69.8 11.2,69.8 12.1,72 13.1,71.4 11.6,69.5 11.6,69.5 13.9,69.8 13.9,68.7 
	11.6,69 "/>
<polygon class="st1" points="95.8,7.1 94.9,8.2 95.4,8.5 96,7.2 96,7.2 96.6,8.5 97.1,8.2 96.3,7.1 96.3,7.1 97.6,7.2 97.6,6.6 
	96.3,6.8 96.3,6.8 97.1,5.6 96.6,5.3 96,6.6 96,6.6 95.5,5.3 94.9,5.7 95.8,6.8 95.8,6.8 94.4,6.6 94.4,7.2 95.8,7 "/>
<polygon class="st1" points="9.1,9.2 8.3,8.1 8.3,8.1 9.6,8.2 9.6,7.6 8.3,7.8 8.3,7.8 9.1,6.6 8.6,6.3 8,7.6 8,7.6 7.5,6.3 
	6.9,6.7 7.8,7.8 7.8,7.8 6.4,7.6 6.4,8.2 7.8,8 7.8,8.1 6.9,9.2 7.4,9.5 8,8.2 8,8.2 8.6,9.5 "/>
<polygon class="st1" points="155,6.7 155,5.7 152.7,6 152.7,5.9 154.1,4 153.2,3.5 152.3,5.7 152.3,5.7 151.3,3.5 150.4,4.1 
	151.8,5.9 151.8,6 149.6,5.7 149.6,6.7 151.8,6.4 151.8,6.5 150.4,8.3 151.2,8.9 152.2,6.7 152.3,6.7 153.2,8.9 154.2,8.3 
	152.7,6.5 152.7,6.4 "/>
<polygon class="st1" points="122.4,34.6 123.7,32.9 122.9,32.5 122.1,34.3 122.1,34.3 121.3,32.5 120.4,33 121.7,34.6 121.7,34.6 
	119.7,34.3 119.7,35.2 121.7,35 121.7,35 120.4,36.6 121.2,37.1 122.1,35.2 122.1,35.2 122.9,37.1 123.7,36.6 122.4,35 122.4,35 
	124.4,35.2 124.4,34.3 122.4,34.6 "/>
<path class="st1" d="M118.2,153h-8.3c-1.1,0.1-1.9,1.1-1.8,2.2c0.1,1,0.9,1.8,1.8,1.8h8.3c1.1-0.1,1.9-1.1,1.8-2.2
	C119.9,153.9,119.1,153.1,118.2,153z M58.2,153h-8.3c-1.1,0.1-1.9,1.1-1.8,2.2c0.1,1,0.9,1.8,1.8,1.8h8.3c1.1-0.1,1.9-1.1,1.8-2.2
	C59.9,153.9,59.1,153.1,58.2,153z M104,153H64c-1.1,0-2,0.9-2,2s0.9,2,2,2h15.9v2H72c-1.1,0-2,0.9-2,2s0.9,2,2,2h25c1.1,0,2-0.9,2-2
	s-0.9-2-2-2h-8.9v-2H104c1.1,0,2-0.9,2-2S105.1,153,104,153z"/>
</svg>
