<?xml version="1.0" encoding="utf-8"?>
<!-- Generator: Adobe Illustrator 24.3.0, SVG Export Plug-In . SVG Version: 6.00 Build 0)  -->
<svg version="1.1" id="Слой_1" xmlns="http://www.w3.org/2000/svg" xmlns:xlink="http://www.w3.org/1999/xlink" x="0px" y="0px"
	 viewBox="0 0 168 168" style="enable-background:new 0 0 168 168;" xml:space="preserve">
<style type="text/css">
	.st0{fill:#333333;}
	.st1{fill:#9BD63E;}
</style>
<path class="st0" d="M157,14c0-1.7-1.3-3-3-3s-3,1.3-3,3s1.3,3,3,3C155.7,17,157,15.7,157,14z M154,15.5c-0.8,0-1.5-0.7-1.5-1.5
	s0.7-1.5,1.5-1.5s1.5,0.7,1.5,1.5C155.5,14.8,154.8,15.5,154,15.5z M67,8c1.7,0,3-1.3,3-3s-1.3-3-3-3s-3,1.3-3,3C64,6.7,65.3,8,67,8
	z M67,3.5c0.8,0,1.5,0.7,1.5,1.5S67.8,6.5,67,6.5S65.5,5.8,65.5,5C65.5,4.2,66.2,3.5,67,3.5z M162,37c-1.1,0-2,0.9-2,2s0.9,2,2,2
	s2-0.9,2-2C164,37.9,163.1,37,162,37z M162,40c-0.6,0-1-0.4-1-1s0.4-1,1-1s1,0.4,1,1C163,39.6,162.6,40,162,40z M110,9
	c1.1,0,2-0.9,2-2s-0.9-2-2-2s-2,0.9-2,2C108,8.1,108.9,9,110,9z M110,6c0.6,0,1,0.4,1,1s-0.4,1-1,1s-1-0.4-1-1
	C109,6.4,109.4,6,110,6z M7,59c0-1.1-0.9-2-2-2s-2,0.9-2,2s0.9,2,2,2C6.1,61,7,60.1,7,59z M5,60c-0.6,0-1-0.4-1-1s0.4-1,1-1
	s1,0.4,1,1C6,59.6,5.6,60,5,60z"/>
<circle class="st0" cx="2" cy="147" r="2"/>
<path class="st0" d="M11,145H8c-1.1,0-2,0.9-2,2s0.9,2,2,2h3c1.1,0,2-0.9,2-2S12.1,145,11,145z M160,145h-3c-1.1,0-2,0.9-2,2
	s0.9,2,2,2h3c1.1,0,2-0.9,2-2S161.1,145,160,145z"/>
<circle class="st0" cx="166" cy="147" r="2"/>
<path class="st0" d="M150.7,145h-65l15.2-25c0.4-0.5,0.4-0.8,0.2-0.8c-0.3,0-0.5,0.1-0.7,0.3l-15.9,8.9c-0.5,0.3-1.1,0.3-1.6,0
	l-16.2-8.9c-0.2-0.1-0.4-0.2-0.7-0.3c-0.2,0-0.2,0.3,0.2,0.8l15.2,25H17.3c-1.1-0.1-2.1,0.6-2.3,1.7c-0.1,1.1,0.6,2.1,1.7,2.3
	c0.2,0,0.3,0,0.5,0h133.4c1.1,0.1,2.1-0.6,2.3-1.7s-0.6-2.1-1.7-2.3C151.1,145,150.9,145,150.7,145z M85.7,132.2
	c0.3-0.1,0.6-0.2,0.8-0.4l3.8-2.1l-4.6,7.7V132.2z M80.9,131.8c0.2,0.1,0.5,0.3,0.8,0.4v5.6l-5-8.3L80.9,131.8z M126.9,73.3
	c0.1,1.9,0.6,3.7,1.6,5.3c0.1,0.2,0.1,0.3,0.2,0.5c-0.1,0.1-0.1,0.1-0.2,0.1l-0.1,0.1c-0.2,0.1-0.5,0-0.7-0.3l-0.1-0.2
	c-1.1-1.5-2.4-2.7-3.9-3.8l-0.1-0.1c-3.2-1.8-7.2-1.8-10.5,0c-4.9,2.8-6.7,9.1-3.9,14c0.9,1.6,2.3,3,3.9,3.9c3.2,1.8,7.2,1.8,10.4,0
	c1.7-1,3.1-2.4,4.1-4.1c0.1-0.1,0.3-0.3,0.4-0.3c0.3,0,0.5,0.3,0.5,0.6c0,0,0,0.1,0,0.1c-1,1.6-1.5,3.5-1.5,5.4c0,3.7,2,7.1,5.2,8.9
	c3.2,1.9,7.2,1.9,10.5,0c4.9-2.8,6.7-9,3.9-14c-0.9-1.7-2.3-3-4-3.9c-1.7-0.9-3.7-1.4-5.6-1.3c-0.4,0-0.4-0.2-0.4-0.4
	c0-0.1,0-0.4,0.4-0.4c2,0,3.9-0.4,5.7-1.3c4.9-2.8,6.7-9,3.9-14c-0.9-1.6-2.2-3-3.8-3.9c-1.6-0.9-3.5-1.4-5.3-1.4
	c-1.8,0-3.6,0.4-5.2,1.3C128.9,66.2,126.9,69.6,126.9,73.3z M134.2,67.8c1-0.5,2-0.8,3.1-0.8c3.5-0.1,6.4,2.6,6.5,6.1
	c0.1,2.3-1.1,4.5-3.2,5.7c-1.1,0.6-2.4,0.9-3.7,0.8c-2.4,0-4.4,1.9-4.4,4.3s1.9,4.4,4.3,4.4c0,0,0.1,0,0.1,0c1.3,0,2.5,0.2,3.7,0.8
	c3,1.7,4.1,5.5,2.5,8.5c-0.6,1-1.4,1.9-2.4,2.4c-2,1.2-4.5,1.2-6.5,0c-2-1.1-3.2-3.2-3.2-5.5c0-1.2,0.4-2.5,1-3.5
	c1.2-2.2,0.4-4.9-1.8-6s-4.9-0.4-6,1.8c-0.6,1.1-1.5,2-2.5,2.6c-2,1.1-4.4,1.1-6.5,0c-3-1.7-4.1-5.5-2.4-8.5c0.6-1,1.4-1.9,2.4-2.4
	c2-1.1,4.4-1.1,6.4,0c1.1,0.7,2,1.7,2.8,2.7c0.9,1.3,2.3,2.1,3.9,2.1c0.7,0,1.4-0.2,2.1-0.5c1.2-0.6,2.1-1.7,2.3-3
	c0.1-1-0.1-2.1-0.6-3c-0.7-1-1-2.2-1.1-3.4C130.9,71,132.2,68.9,134.2,67.8L134.2,67.8z M23.8,88h10.9c2.1-0.1,3.9-1.5,4.4-3.5
	l0.7-3.1c0.5-1.9-0.7-3.8-2.6-4.3c-0.3-0.1-0.6-0.1-0.9-0.1H25.3c-2.1,0.1-3.9,1.5-4.4,3.5l-0.7,3.1c-0.5,1.9,0.7,3.8,2.6,4.3
	C23.2,87.9,23.5,88,23.8,88z M24.9,81.3c0.1-0.2,0.3-0.3,0.5-0.4h10.4l-0.6,2.6c-0.1,0.2-0.3,0.3-0.5,0.4H24.3L24.9,81.3z"/>
<path class="st0" d="M32.4,75.2l17,0L46.8,93L38,93l0-0.1c0.2-0.8-0.1-1.7-0.6-2.4c-0.5-0.6-1.3-1-2.1-1h0l-5.3-0.2
	c-1.6,0-2.9,1.2-3.2,2.7l-1.3,8.4c-0.2,0.8,0.1,1.7,0.6,2.4c0.5,0.6,1.3,1,2.2,1c4.5,0,24.4,0,24.4,0c2.6-0.1,4.7-1.9,5.2-4.5
	L62,69.3c0.2-1.3-0.1-2.6-0.9-3.6c-0.8-1-2-1.5-3.3-1.5H33.4c-1.6,0-2.9,1.2-3.2,2.7l-0.7,4.9c-0.2,0.8,0.1,1.7,0.6,2.4
	C30.7,74.8,31.5,75.2,32.4,75.2z M34.1,68.2h23.7c0.1,0,0.2,0,0.2,0.1c0,0,0.1,0.2,0,0.4l-4.2,29.9c-0.1,0.6-0.6,1-1.2,1.1
	c0,0-16.8,0-23,0l1-6.4l3.2,0.1L33.3,97L47,97l0.5,0c1.6,0.1,3-1,3.2-2.6c0,0,0-0.1,0-0.1l2.9-19.7c0.2-0.9,0-1.8-0.5-2.5
	c-0.6-0.6-1.4-1-2.3-0.9l-17,0L34.1,68.2z M83.7,86c-0.4,0-0.8,0.3-1,0.7l-16.4,27.8c-0.5,0.9-0.2,2.1,0.7,2.6c0,0,0.1,0,0.1,0.1
	l14.9,7.9c1.1,0.5,2.4,0.5,3.5,0l14.9-7.9c0.9-0.5,1.3-1.6,0.8-2.6c0,0,0-0.1-0.1-0.1L84.7,86.7C84.5,86.3,84.1,86,83.7,86z
	 M81.7,120.4l-8.2-4.3l8.2-3.1V120.4z M81.7,108.7l-9.5,3.6l9.5-16L81.7,108.7z M85.7,96.3l9.5,16.2l-9.5-3.7V96.3z M85.7,113l8,3.1
	l-8,4.2V113z M67.7,29.2c0,2.5,1.7,4.7,4.2,5.3v16.9c-2.5,0.6-4.2,2.8-4.2,5.3c0,2.6,1.8,4.8,4.3,5.4c0.8,2.3,3.1,3.9,5.5,3.9
	c1.9,0,3.6-0.9,4.7-2.4c1.1,1.5,2.9,2.4,4.7,2.4c2.9,0,5.3-2,5.8-4.8c4.3-2.1,7-6.5,6.9-11.2c0-2.5-0.8-4.9-2.2-6.9
	c3.9-5.7,2.4-13.5-3.3-17.4c-0.5-0.3-1-0.6-1.5-0.9C92.2,22,89.8,20,86.9,20c-1.9,0-3.6,0.9-4.7,2.4c-1.1-1.5-2.8-2.4-4.7-2.4
	c-2.5,0-4.7,1.5-5.6,3.9C69.5,24.5,67.7,26.7,67.7,29.2z M73.6,27.7h2v-1.9c0-1,0.9-1.8,1.9-1.7c1,0,1.7,0.7,1.8,1.7c0,0,0,0,0,0.1
	v1.9h5.9v-1.9c0-1,0.8-1.7,1.7-1.7c0,0,0,0,0.1,0c1,0,1.8,0.8,1.9,1.7v1.9c4,0.8,6.9,4.3,6.9,8.4c0,2.8-1.4,5.4-3.6,7
	c2.2,1.6,3.6,4.2,3.6,6.9c0,4.1-2.9,7.6-6.9,8.4v1.9c0,1-0.9,1.8-1.9,1.7c-1,0-1.7-0.7-1.8-1.7c0,0,0,0,0-0.1v-1.9h-5.9v1.9
	c0,1-0.7,1.7-1.7,1.7c0,0,0,0-0.1,0c-1,0-1.8-0.8-1.8-1.7v-1.9h-2.1c-0.9,0.1-1.8-0.5-1.9-1.5c0,0,0-0.1,0-0.1c0-1,0.8-1.5,1.9-1.5
	h2.4V30.7h-2.4c-1,0-1.9-0.5-1.9-1.5C71.8,28.3,72.6,27.6,73.6,27.7C73.5,27.7,73.6,27.7,73.6,27.7z"/>
<path class="st0" d="M91.7,36c0-2.9-2.4-5.3-5.3-5.3h-7.1v10.7h7.1C89.4,41.4,91.8,39,91.7,36z M83.3,34.7h3.1
	c0.7,0,1.3,0.5,1.3,1.3c0,0.8-0.6,1.4-1.3,1.5h-3.1V34.7z M91.7,50.1c0-3-2.4-5.4-5.3-5.6h-7.1v10.7h7.1c2.9,0.1,5.2-2.2,5.3-5
	C91.7,50.2,91.7,50.1,91.7,50.1z M83.3,48.5h3.1c0.8,0.1,1.3,0.8,1.3,1.6c0,0.7-0.6,1.2-1.2,1.2c0,0-0.1,0-0.1,0h-3.1V48.5z
	 M45.5,134.5c-0.2,1.1,0.6,2.1,1.7,2.3l9.6,1.5c1,0.4,2.2,0,2.6-1c0.3-0.7,0.2-1.5-0.3-2c0,0,0,0,0-0.1c0,0-0.1-0.1-0.1-0.1
	l-0.1-0.1c0,0-0.1-0.1-0.1-0.1l-21-21.1c-0.8-0.8-2-0.8-2.8,0c-0.8,0.8-0.8,2,0,2.8l0,0l16.8,16.8l-4-0.6
	C46.7,132.6,45.6,133.4,45.5,134.5z M63.2,132.8c1.1,0,2-0.9,2-2c0-0.5-0.2-1-0.6-1.4l-16.8-16.8l4,0.6c0.1,0,0.2,0,0.3,0
	c1.1,0,2-0.9,2-2c0-1-0.7-1.8-1.7-2l-9.6-1.5c-1-0.4-2.2,0-2.6,1c-0.3,0.7-0.2,1.5,0.3,2c0,0,0,0,0,0c0,0,0.1,0.1,0.1,0.1l0.1,0.1
	c0,0,0,0,0.1,0.1l21,21.1C62.2,132.6,62.7,132.8,63.2,132.8z M134.5,113.8c-0.8-0.8-2-0.8-2.8,0l-21,21.1c0,0-0.1,0.1-0.1,0.1
	l-0.1,0.1c0,0-0.1,0.1-0.1,0.1c0,0,0,0,0,0.1c-0.7,0.9-0.6,2.1,0.3,2.8c0.6,0.5,1.4,0.6,2.1,0.3l9.6-1.5c1.1-0.2,1.8-1.2,1.7-2.3
	c-0.2-1.1-1.2-1.8-2.3-1.7l-4,0.6l16.8-16.8C135.3,115.8,135.3,114.6,134.5,113.8z M106.2,132.8c0.5,0,1-0.2,1.4-0.6l21-21.1
	c0,0,0,0,0.1-0.1l0.1-0.1c0,0,0.1-0.1,0.1-0.1c0,0,0,0,0,0c0.7-0.9,0.6-2.1-0.3-2.8c-0.6-0.5-1.4-0.6-2.1-0.3l-9.6,1.5
	c-1.1,0.2-1.8,1.2-1.7,2.3c0.2,1,1,1.7,2,1.7c0.1,0,0.2,0,0.3,0l4-0.6l-16.8,16.8c-0.8,0.8-0.8,2,0,2.8
	C105.2,132.6,105.7,132.8,106.2,132.8L106.2,132.8z M36.4,54.8c0.5,0,1-0.2,1.4-0.6l21-21.1c0,0,0,0,0.1-0.1L59,33
	c0,0,0.1-0.1,0.1-0.1c0,0,0,0,0,0c0.7-0.9,0.6-2.1-0.3-2.8c-0.6-0.5-1.4-0.6-2.1-0.3l-9.6,1.5c-1.1,0.2-1.8,1.2-1.7,2.3
	c0.2,1,1,1.7,2,1.7c0.1,0,0.2,0,0.3,0l4-0.6L35,51.4c-0.8,0.8-0.8,2,0,2.8C35.3,54.6,35.9,54.8,36.4,54.8L36.4,54.8z M40.7,56.9
	L40.7,56.9c-0.1,0.1-0.1,0.1-0.2,0.2c0,0,0,0-0.1,0.1c-0.7,0.9-0.6,2.1,0.3,2.8c0.6,0.5,1.4,0.6,2.1,0.3l9.6-1.5
	c1.1-0.2,1.8-1.2,1.7-2.3s-1.2-1.8-2.3-1.7l-4,0.6l16.8-16.8c0.8-0.8,0.8-2,0-2.8c-0.8-0.8-2-0.8-2.8,0L40.7,56.9
	C40.7,56.9,40.7,56.9,40.7,56.9z M110.4,32.8C110.4,32.8,110.4,32.8,110.4,32.8c0.1,0.1,0.1,0.1,0.1,0.2l0.1,0.1c0,0,0,0,0.1,0.1
	l21,21.1c0.8,0.8,2,0.8,2.8,0c0.8-0.8,0.8-2,0-2.8c0,0,0,0,0,0l-16.8-16.8l4,0.6c0.1,0,0.2,0,0.3,0c1.1,0,2-0.9,2-2
	c0-1-0.7-1.8-1.7-2l-9.6-1.5c-1-0.4-2.2,0-2.6,1C109.8,31.4,109.9,32.2,110.4,32.8L110.4,32.8z M121.6,55.4l-4-0.6
	c-1.1-0.2-2.1,0.6-2.3,1.7s0.6,2.1,1.7,2.3l9.6,1.5c1,0.4,2.2,0,2.6-1c0.3-0.7,0.2-1.5-0.3-2c0,0,0,0,0-0.1c0,0-0.1-0.1-0.1-0.1
	l-0.1-0.1c0,0-0.1-0.1-0.1-0.1l-21-21.1c-0.8-0.8-2-0.8-2.8,0c-0.8,0.8-0.8,2,0,2.8L121.6,55.4z"/>
<polygon class="st0" points="26.6,42 28.1,40.1 27.1,39.5 26.2,41.7 26.1,41.7 25.2,39.5 24.2,40.1 25.7,42 25.7,42 23.4,41.7 
	23.4,42.8 25.7,42.5 25.7,42.5 24.2,44.4 25.1,45 26.1,42.8 26.2,42.8 27.1,45 28.1,44.4 26.6,42.5 26.6,42.5 28.9,42.8 28.9,41.7 
	26.6,42 "/>
<polygon class="st0" points="37.3,14.8 38.1,13.6 37.6,13.3 37,14.6 37,14.6 36.5,13.3 35.9,13.7 36.8,14.8 36.8,14.8 35.4,14.6 
	35.4,15.2 36.8,15 36.8,15.1 35.9,16.2 36.4,16.5 37,15.2 37,15.2 37.6,16.5 38.1,16.2 37.3,15.1 37.3,15.1 38.6,15.2 38.6,14.6 
	37.3,14.8 "/>
<polygon class="st0" points="138,30.7 138,29.7 135.7,30 135.7,29.9 137.1,28 136.2,27.5 135.3,29.7 135.3,29.7 134.3,27.5 
	133.4,28.1 134.8,29.9 134.8,30 132.6,29.7 132.6,30.7 134.8,30.4 134.8,30.5 133.4,32.3 134.2,32.9 135.2,30.7 135.3,30.7 
	136.2,32.9 137.2,32.3 135.7,30.5 135.7,30.4 "/>
<polygon class="st0" points="10.4,15.6 11.7,13.9 10.9,13.5 10.1,15.3 10.1,15.3 9.3,13.5 8.4,14 9.7,15.6 9.7,15.6 7.7,15.3 
	7.7,16.2 9.7,16 9.7,16 8.4,17.6 9.2,18.1 10.1,16.2 10.1,16.2 10.9,18.1 11.7,17.6 10.4,16 10.4,16 12.4,16.2 12.4,15.3 10.4,15.6 
	"/>
<path class="st1" d="M118.2,154h-8.3c-1.1,0.1-1.9,1.1-1.8,2.2c0.1,1,0.9,1.8,1.8,1.8h8.3c1.1-0.1,1.9-1.1,1.8-2.2
	C119.9,154.9,119.1,154.1,118.2,154z M58.2,154h-8.3c-1.1,0.1-1.9,1.1-1.8,2.2c0.1,1,0.9,1.8,1.8,1.8h8.3c1.1-0.1,1.9-1.1,1.8-2.2
	C59.9,154.9,59.1,154.1,58.2,154z M104,154H64c-1.1,0-2,0.9-2,2s0.9,2,2,2h15.9v2H72c-1.1,0-2,0.9-2,2s0.9,2,2,2h25c1.1,0,2-0.9,2-2
	s-0.9-2-2-2h-8.9v-2H104c1.1,0,2-0.9,2-2S105.1,154,104,154z"/>
</svg>
