<?xml version="1.0" encoding="utf-8"?>
<!-- Generator: Adobe Illustrator 24.3.0, SVG Export Plug-In . SVG Version: 6.00 Build 0)  -->
<svg version="1.1" id="Слой_1" xmlns="http://www.w3.org/2000/svg" xmlns:xlink="http://www.w3.org/1999/xlink" x="0px" y="0px"
	 viewBox="0 0 168 168" style="enable-background:new 0 0 168 168;" xml:space="preserve">
<style type="text/css">
	.st0{fill:#9BD63E;}
	.st1{fill:#333333;}
</style>
<path class="st0" d="M44,57.5h4c3.3,0,6-2.7,6-6v-13c0-3.3-2.7-6-6-6h-4c-3.3,0-6,2.7-6,6v13C38,54.8,40.7,57.5,44,57.5z M42,38.5
	c0-1.1,0.9-2,2-2h4c1.1,0,2,0.9,2,2v13c0,1.1-0.9,2-2,2h-4c-1.1,0-2-0.9-2-2V38.5z M120,57.5h4c3.3,0,6-2.7,6-6v-13c0-3.3-2.7-6-6-6
	h-4c-3.3,0-6,2.7-6,6v13C114,54.8,116.7,57.5,120,57.5z M118,38.5c0-1.1,0.9-2,2-2h4c1.1,0,2,0.9,2,2v13c0,1.1-0.9,2-2,2h-4
	c-1.1,0-2-0.9-2-2V38.5z"/>
<rect x="96" y="42.5" class="st1" width="14" height="4"/>
<path class="st0" d="M82,57.5h4c3.3,0,6-2.7,6-6v-13c0-3.3-2.7-6-6-6h-4c-3.3,0-6,2.7-6,6v13C76,54.8,78.7,57.5,82,57.5z M80,38.5
	c0-1.1,0.9-2,2-2h4c1.1,0,2,0.9,2,2v13c0,1.1-0.9,2-2,2h-4c-1.1,0-2-0.9-2-2V38.5z M30,136.5h4c1.1,0,2-0.9,2-2s-0.9-2-2-2h-4
	c-1.1,0-2,0.9-2,2S28.9,136.5,30,136.5z"/>
<path class="st1" d="M46,136.5h4c1.1,0,2-0.9,2-2s-0.9-2-2-2h-4c-1.1,0-2,0.9-2,2S44.9,136.5,46,136.5z"/>
<path class="st1" d="M64,136.5h4c1.1,0,2-0.9,2-2s-0.9-2-2-2h-4c-1.1,0-2,0.9-2,2S62.9,136.5,64,136.5z"/>
<path class="st1" d="M82,136.5h4c1.1,0,2-0.9,2-2s-0.9-2-2-2h-4c-1.1,0-2,0.9-2,2S80.9,136.5,82,136.5z"/>
<path class="st1" d="M100,136.5h4c1.1,0,2-0.9,2-2s-0.9-2-2-2h-4c-1.1,0-2,0.9-2,2S98.9,136.5,100,136.5z"/>
<path class="st1" d="M118,136.5h4c1.1,0,2-0.9,2-2s-0.9-2-2-2h-4c-1.1,0-2,0.9-2,2S116.9,136.5,118,136.5z"/>
<path class="st1" d="M134,136.5h4c1.1,0,2-0.9,2-2s-0.9-2-2-2h-4c-1.1,0-2,0.9-2,2S132.9,136.5,134,136.5z"/>
<path class="st1" d="M30,126.5h4c1.1,0,2-0.9,2-2s-0.9-2-2-2h-4c-1.1,0-2,0.9-2,2S28.9,126.5,30,126.5z"/>
<path class="st1" d="M46,126.5h4c1.1,0,2-0.9,2-2s-0.9-2-2-2h-4c-1.1,0-2,0.9-2,2S44.9,126.5,46,126.5z"/>
<path class="st1" d="M64,126.5h4c1.1,0,2-0.9,2-2s-0.9-2-2-2h-4c-1.1,0-2,0.9-2,2S62.9,126.5,64,126.5z"/>
<path class="st1" d="M82,126.5h4c1.1,0,2-0.9,2-2s-0.9-2-2-2h-4c-1.1,0-2,0.9-2,2S80.9,126.5,82,126.5z"/>
<path class="st1" d="M100,126.5h4c1.1,0,2-0.9,2-2s-0.9-2-2-2h-4c-1.1,0-2,0.9-2,2S98.9,126.5,100,126.5z"/>
<path class="st1" d="M118,126.5h4c1.1,0,2-0.9,2-2s-0.9-2-2-2h-4c-1.1,0-2,0.9-2,2S116.9,126.5,118,126.5z"/>
<path class="st0" d="M134,126.5h4c1.1,0,2-0.9,2-2s-0.9-2-2-2h-4c-1.1,0-2,0.9-2,2S132.9,126.5,134,126.5z"/>
<path class="st1" d="M30,116.5h4c1.1,0,2-0.9,2-2s-0.9-2-2-2h-4c-1.1,0-2,0.9-2,2S28.9,116.5,30,116.5z"/>
<path class="st1" d="M46,116.5h4c1.1,0,2-0.9,2-2s-0.9-2-2-2h-4c-1.1,0-2,0.9-2,2S44.9,116.5,46,116.5z"/>
<path class="st0" d="M64,116.5h4c1.1,0,2-0.9,2-2s-0.9-2-2-2h-4c-1.1,0-2,0.9-2,2S62.9,116.5,64,116.5z"/>
<path class="st1" d="M82,116.5h4c1.1,0,2-0.9,2-2s-0.9-2-2-2h-4c-1.1,0-2,0.9-2,2S80.9,116.5,82,116.5z"/>
<path class="st1" d="M100,116.5h4c1.1,0,2-0.9,2-2s-0.9-2-2-2h-4c-1.1,0-2,0.9-2,2S98.9,116.5,100,116.5z"/>
<path class="st1" d="M118,116.5h4c1.1,0,2-0.9,2-2s-0.9-2-2-2h-4c-1.1,0-2,0.9-2,2S116.9,116.5,118,116.5z"/>
<path class="st1" d="M134,116.5h4c1.1,0,2-0.9,2-2s-0.9-2-2-2h-4c-1.1,0-2,0.9-2,2S132.9,116.5,134,116.5z"/>
<path class="st1" d="M30,106.5h4c1.1,0,2-0.9,2-2s-0.9-2-2-2h-4c-1.1,0-2,0.9-2,2S28.9,106.5,30,106.5z"/>
<path class="st1" d="M46,106.5h4c1.1,0,2-0.9,2-2s-0.9-2-2-2h-4c-1.1,0-2,0.9-2,2S44.9,106.5,46,106.5z"/>
<path class="st1" d="M64,106.5h4c1.1,0,2-0.9,2-2s-0.9-2-2-2h-4c-1.1,0-2,0.9-2,2S62.9,106.5,64,106.5z"/>
<path class="st1" d="M82,106.5h4c1.1,0,2-0.9,2-2s-0.9-2-2-2h-4c-1.1,0-2,0.9-2,2S80.9,106.5,82,106.5z"/>
<path class="st1" d="M100,106.5h4c1.1,0,2-0.9,2-2s-0.9-2-2-2h-4c-1.1,0-2,0.9-2,2S98.9,106.5,100,106.5z"/>
<path class="st1" d="M118,106.5h4c1.1,0,2-0.9,2-2s-0.9-2-2-2h-4c-1.1,0-2,0.9-2,2S116.9,106.5,118,106.5z"/>
<path class="st1" d="M134,106.5h4c1.1,0,2-0.9,2-2s-0.9-2-2-2h-4c-1.1,0-2,0.9-2,2S132.9,106.5,134,106.5z"/>
<path class="st1" d="M30,96.5h4c1.1,0,2-0.9,2-2s-0.9-2-2-2h-4c-1.1,0-2,0.9-2,2S28.9,96.5,30,96.5z"/>
<path class="st1" d="M46,96.5h4c1.1,0,2-0.9,2-2s-0.9-2-2-2h-4c-1.1,0-2,0.9-2,2S44.9,96.5,46,96.5z"/>
<rect x="58" y="42.5" class="st1" width="14" height="4"/>
<circle class="st1" cx="2" cy="150.5" r="2"/>
<path class="st1" d="M11,148.5H8c-1.1,0-2,0.9-2,2s0.9,2,2,2h3c1.1,0,2-0.9,2-2S12.1,148.5,11,148.5z M160,148.5h-3
	c-1.1,0-2,0.9-2,2s0.9,2,2,2h3c1.1,0,2-0.9,2-2S161.1,148.5,160,148.5z"/>
<circle class="st1" cx="166" cy="150.5" r="2"/>
<path class="st0" d="M118.2,156.5h-8.3c-1.1,0.1-1.9,1.1-1.8,2.2c0.1,1,0.9,1.8,1.8,1.8h8.3c1.1-0.1,1.9-1.1,1.8-2.2
	C119.9,157.4,119.1,156.6,118.2,156.5z M58.2,156.5h-8.3c-1.1,0.1-1.9,1.1-1.8,2.2c0.1,1,0.9,1.8,1.8,1.8h8.3
	c1.1-0.1,1.9-1.1,1.8-2.2C59.9,157.4,59.1,156.6,58.2,156.5z M104,156.5H64c-1.1,0-2,0.9-2,2s0.9,2,2,2h15.9v2H72c-1.1,0-2,0.9-2,2
	s0.9,2,2,2h25c1.1,0,2-0.9,2-2s-0.9-2-2-2h-8.9v-2H104c1.1,0,2-0.9,2-2S105.1,156.5,104,156.5z"/>
<path class="st1" d="M150.7,148.5h-3.8c0.7-1.2,1.1-2.6,1.1-4v-94c0-4.4-3.6-8-8-8h-6v4h6c2.2,0,4,1.8,4,4v15H24v-15
	c0-2.2,1.8-4,4-4h6v-4h-6c-4.4,0-8,3.6-8,8v94c0,1.4,0.4,2.8,1.1,4h-3.8c-1.1-0.1-2.1,0.6-2.3,1.7c-0.1,1.1,0.6,2.1,1.7,2.3
	c0.2,0,0.3,0,0.5,0h133.4c1.1,0.1,2.1-0.6,2.3-1.7s-0.6-2.1-1.7-2.3C151.1,148.5,150.9,148.5,150.7,148.5z M144,84.5h-13v-7h13V84.5
	z M24,69.5h120v4H24V69.5z M127,77.5v7h-14v-7H127z M109,77.5v7H95v-7H109z M91,77.5v7H77v-7H91z M73,77.5v7H59v-7H73z M55,77.5v7
	H41v-7H55z M24,77.5h13v7H24V77.5z M24,88.5h120v52H24V88.5z M28,148.5c-2.2,0-4-1.8-4-4h120c0,2.2-1.8,4-4,4H28z M68.3,27.1
	c1.7,0,3-1.3,3-3s-1.3-3-3-3s-3,1.3-3,3S66.6,27.1,68.3,27.1z M68.3,22.6c0.8,0,1.5,0.7,1.5,1.5s-0.7,1.5-1.5,1.5s-1.5-0.7-1.5-1.5
	S67.5,22.6,68.3,22.6z M158.3,69.5c-1.1,0-2,0.9-2,2s0.9,2,2,2s2-0.9,2-2S159.4,69.5,158.3,69.5z M158.3,72.5c-0.6,0-1-0.4-1-1
	s0.4-1,1-1s1,0.4,1,1S158.9,72.5,158.3,72.5z M6,14.3c-1.1,0-2,0.9-2,2c0,1.1,0.9,2,2,2s2-0.9,2-2C8,15.2,7.1,14.3,6,14.3
	C6,14.3,6,14.3,6,14.3z M6,17.3c-0.6,0-1-0.4-1-1s0.4-1,1-1s1,0.4,1,1S6.6,17.3,6,17.3z M124,20.6c-1.1,0-2,0.9-2,2s0.9,2,2,2
	s2-0.9,2-2S125.1,20.6,124,20.6z M124,23.6c-0.6,0-1-0.4-1-1s0.4-1,1-1s1,0.4,1,1S124.6,23.6,124,23.6z M162.3,38.5c0-1.1-0.9-2-2-2
	s-2,0.9-2,2s0.9,2,2,2S162.3,39.6,162.3,38.5z M159.3,38.5c0-0.6,0.4-1,1-1s1,0.4,1,1s-0.4,1-1,1S159.3,39.1,159.3,38.5z"/>
<polygon class="st1" points="92.4,4 93.9,2 93,1.5 92,3.7 92,3.7 91,1.5 90.1,2 91.5,3.9 91.5,4 89.2,3.7 89.2,4.7 91.5,4.4 
	91.5,4.5 90.1,6.4 90.9,6.9 92,4.7 92,4.7 92.9,6.9 93.9,6.4 92.4,4.5 92.4,4.5 94.8,4.7 94.8,3.7 92.4,4 "/>
<polygon class="st1" points="5.7,52.3 4.9,53.4 5.4,53.8 6,52.5 6,52.5 6.5,53.7 7.1,53.4 6.2,52.3 6.2,52.3 7.6,52.5 7.6,51.9 
	6.2,52.1 6.2,52 7.1,50.9 6.6,50.6 6,51.9 6,51.9 5.4,50.6 4.9,50.9 5.7,52 5.7,52 4.4,51.9 4.4,52.5 5.7,52.3 "/>
<polygon class="st1" points="34.7,10.1 34.7,9.1 32.4,9.4 32.4,9.4 33.9,7.4 32.9,6.9 32,9.1 32,9.1 31,6.9 30.1,7.5 31.5,9.3 
	31.5,9.4 29.3,9.1 29.3,10.1 31.5,9.8 31.5,9.9 30.1,11.7 31,12.3 32,10.1 32,10.1 32.9,12.3 33.9,11.7 32.4,9.9 32.4,9.8 "/>
<polygon class="st1" points="158.7,8.3 159.9,6.7 159.1,6.2 158.3,8.1 158.3,8.1 157.5,6.2 156.7,6.7 157.9,8.3 157.9,8.3 156,8.1 
	156,9 157.9,8.7 157.9,8.8 156.7,10.4 157.4,10.8 158.3,9 158.3,9 159.1,10.8 159.9,10.4 158.7,8.8 158.7,8.7 160.7,9 160.7,8.1 
	158.7,8.3 "/>
</svg>
