<?xml version="1.0" encoding="utf-8"?>
<!-- Generator: Adobe Illustrator 24.3.0, SVG Export Plug-In . SVG Version: 6.00 Build 0)  -->
<svg version="1.1" id="Слой_1" xmlns="http://www.w3.org/2000/svg" xmlns:xlink="http://www.w3.org/1999/xlink" x="0px" y="0px"
	 viewBox="0 0 168 168" style="enable-background:new 0 0 168 168;" xml:space="preserve">
<style type="text/css">
	.st0{fill:#9BD63E;}
	.st1{fill:#333333;}
</style>
<path class="st0" d="M108.7,60.4l-40.6,41.4L55.3,88.7c-4.4-4.4-11.5-4.4-15.9,0c-4.5,4.6-4.5,11.9,0,16.5c0,0,23,23.4,23,23.4
	c3.2,3.2,8.3,3.2,11.5,0c0,0,0,0,0,0l50.8-51.7c4.5-4.6,4.5-11.9,0-16.5C120.3,55.9,113.1,55.9,108.7,60.4
	C108.7,60.3,108.7,60.3,108.7,60.4z M121.8,74c0,0-50.8,51.7-50.8,51.7c-1.6,1.6-4.2,1.6-5.8,0c0,0,0,0,0,0l-23-23.4
	c-2.9-3-2.9-7.8,0-10.9c2.8-2.8,7.4-2.8,10.2,0L66.7,106c0.8,0.8,2,0.8,2.8,0c0,0,0,0,0,0l42-42.8c2.8-2.8,7.4-2.8,10.2,0
	C124.5,66.1,124.4,70.9,121.8,74z"/>
<circle class="st1" cx="2" cy="150" r="2"/>
<path class="st1" d="M11,148H8c-1.1,0-2,0.9-2,2s0.9,2,2,2h3c1.1,0,2-0.9,2-2S12.1,148,11,148z M160,148h-3c-1.1,0-2,0.9-2,2
	s0.9,2,2,2h3c1.1,0,2-0.9,2-2S161.1,148,160,148z"/>
<circle class="st1" cx="166" cy="150" r="2"/>
<path class="st0" d="M118.2,156h-8.3c-1.1,0.1-1.9,1.1-1.8,2.2c0.1,1,0.9,1.8,1.8,1.8h8.3c1.1-0.1,1.9-1.1,1.8-2.2
	C119.9,156.9,119.1,156.1,118.2,156z M58.2,156h-8.3c-1.1,0.1-1.9,1.1-1.8,2.2c0.1,1,0.9,1.8,1.8,1.8h8.3c1.1-0.1,1.9-1.1,1.8-2.2
	C59.9,156.9,59.1,156.1,58.2,156z M104,156H64c-1.1,0-2,0.9-2,2s0.9,2,2,2h15.9v2H72c-1.1,0-2,0.9-2,2s0.9,2,2,2h25c1.1,0,2-0.9,2-2
	s-0.9-2-2-2h-8.9v-2H104c1.1,0,2-0.9,2-2S105.1,156,104,156z"/>
<path class="st1" d="M150.7,148h-44.5c33.1-12.3,50-49.1,37.7-82.3S94.9,15.7,61.7,28s-50,49.1-37.7,82.3
	c6.5,17.5,20.3,31.3,37.7,37.7H17.3c-1.1-0.1-2.1,0.6-2.3,1.7c-0.1,1.1,0.6,2.1,1.7,2.3c0.2,0,0.3,0,0.5,0h133.4
	c1.1,0.1,2.1-0.6,2.3-1.7s-0.6-2.1-1.7-2.3C151.1,148,150.9,148,150.7,148z M24,88c0-33.1,26.9-60,60-60s60,26.9,60,60
	s-26.9,60-60,60C50.9,148,24,121.1,24,88z M158.3,8c1.7,0,3-1.3,3-3s-1.3-3-3-3s-3,1.3-3,3C155.3,6.7,156.6,8,158.3,8z M158.3,3.5
	c0.8,0,1.5,0.7,1.5,1.5s-0.7,1.5-1.5,1.5s-1.5-0.7-1.5-1.5C156.8,4.2,157.5,3.5,158.3,3.5z M153.3,59c-1.1,0-2,0.9-2,2s0.9,2,2,2
	s2-0.9,2-2C155.3,59.9,154.4,59,153.3,59z M153.3,62c-0.6,0-1-0.4-1-1s0.4-1,1-1s1,0.4,1,1C154.3,61.6,153.9,62,153.3,62z M58.3,3
	c-1.1,0-2,0.9-2,2s0.9,2,2,2s2-0.9,2-2C60.3,3.9,59.4,3,58.3,3z M58.3,6c-0.6,0-1-0.4-1-1s0.4-1,1-1s1,0.4,1,1
	C59.3,5.6,58.9,6,58.3,6z M130.3,26c-1.1,0-2,0.9-2,2s0.9,2,2,2s2-0.9,2-2C132.3,26.9,131.4,26,130.3,26z M130.3,29
	c-0.6,0-1-0.4-1-1s0.4-1,1-1s1,0.4,1,1C131.3,28.6,130.9,29,130.3,29z M32.3,36c0-1.1-0.9-2-2-2s-2,0.9-2,2s0.9,2,2,2
	C31.4,38,32.3,37.1,32.3,36z M29.3,36c0-0.6,0.4-1,1-1s1,0.4,1,1s-0.4,1-1,1C29.8,37,29.3,36.6,29.3,36z"/>
<polygon class="st1" points="10.9,69 12.4,67.1 11.4,66.5 10.5,68.7 10.4,68.7 9.5,66.5 8.5,67.1 10,69 10,69 7.7,68.7 7.7,69.8 
	10,69.5 10,69.5 8.5,71.4 9.4,72 10.4,69.8 10.5,69.8 11.4,72 12.4,71.4 10.9,69.5 10.9,69.5 13.2,69.8 13.2,68.7 10.9,69 "/>
<polygon class="st1" points="6.1,5.1 5.2,6.2 5.7,6.5 6.3,5.2 6.3,5.2 6.9,6.5 7.5,6.2 6.6,5.1 6.6,5.1 7.9,5.2 7.9,4.6 6.6,4.8 
	6.6,4.8 7.4,3.6 6.9,3.3 6.4,4.6 6.3,4.6 5.8,3.3 5.2,3.7 6.1,4.8 6.1,4.8 4.7,4.6 4.7,5.2 6.1,5 "/>
<polygon class="st1" points="164.3,37.7 164.3,36.7 162,37 162,36.9 163.4,35 162.5,34.5 161.6,36.7 161.6,36.7 160.6,34.5 
	159.7,35.1 161.1,36.9 161.1,37 158.9,36.7 158.9,37.7 161.1,37.4 161.1,37.5 159.7,39.3 160.5,39.9 161.5,37.7 161.6,37.7 
	162.5,39.9 163.5,39.3 162,37.5 162,37.4 "/>
<polygon class="st1" points="101.7,17.6 103,15.9 102.2,15.5 101.4,17.3 101.4,17.3 100.6,15.5 99.7,16 101,17.6 101,17.6 99,17.3 
	99,18.2 101,18 101,18 99.7,19.6 100.5,20.1 101.4,18.2 101.4,18.2 102.2,20.1 103,19.6 101.7,18 101.7,18 103.7,18.2 103.7,17.3 
	101.7,17.6 "/>
</svg>
