<svg xmlns="http://www.w3.org/2000/svg" width="24" height="24" fill="none" viewBox="0 0 24 24"><path fill="#242C3C" fill-rule="evenodd" d="M2 12C2 6.47715 6.47715 2 12 2C17.5228 2 22 6.47715 22 12C22 17.5228 17.5228 22 12 22C6.47715 22 2 17.5228 2 12ZM12 0C5.37258 0 0 5.37258 0 12C0 18.6274 5.37258 24 12 24C18.6274 24 24 18.6274 24 12C24 5.37258 18.6274 0 12 0ZM8.46451 8.46456C8.07399 8.85509 8.07399 9.48825 8.46451 9.87878L10.5858 12.0001L8.46437 14.1216C8.07384 14.5121 8.07384 15.1453 8.46437 15.5358C8.85489 15.9263 9.48806 15.9263 9.87858 15.5358L12 13.4143L14.1217 15.5359C14.5122 15.9265 15.1454 15.9265 15.5359 15.5359C15.9264 15.1454 15.9264 14.5122 15.5359 14.1217L13.4143 12.0001L15.5357 9.87863C15.9263 9.4881 15.9263 8.85494 15.5357 8.46441C15.1452 8.07389 14.512 8.07389 14.1215 8.46441L12 10.5859L9.87873 8.46456C9.4882 8.07404 8.85504 8.07404 8.46451 8.46456Z" clip-rule="evenodd"/></svg>