<?xml version="1.0" encoding="utf-8"?>
<!-- Generator: Adobe Illustrator 24.3.0, SVG Export Plug-In . SVG Version: 6.00 Build 0)  -->
<svg version="1.1" id="Слой_1" xmlns="http://www.w3.org/2000/svg" xmlns:xlink="http://www.w3.org/1999/xlink" x="0px" y="0px"
	 viewBox="0 0 24 24" style="enable-background:new 0 0 24 24;" xml:space="preserve">
<g>
	<path d="M5.2,21C4,21,3,20,3,18.8c0-0.3,0.1-0.7,0.2-1L10,4.2c0.5-1.1,1.9-1.6,3-1c0.4,0.2,0.8,0.6,1,1l6.7,13.5
		c0.3,0.5,0.3,1.1,0.1,1.7c-0.2,0.6-0.6,1-1.1,1.3c-0.3,0.2-0.7,0.2-1,0.2H5.2C5.2,21,5.2,21,5.2,21z M12,5c-0.1,0-0.2,0.1-0.2,0.1
		L5,18.6c0,0,0,0.1,0,0.1C5,18.9,5.1,19,5.2,19c0,0,0,0,0,0h13.5c0,0,0.1,0,0.1,0c0.1,0,0.1-0.1,0.1-0.1c0,0,0-0.1,0-0.2L12.2,5.1
		c0,0,0,0,0,0c0,0-0.1-0.1-0.1-0.1C12.1,5,12,5,12,5z"/>
</g>
<g>
	<circle cx="12" cy="16" r="1"/>
</g>
<g>
	<path d="M12,14c-0.6,0-1-0.4-1-1v-3c0-0.6,0.4-1,1-1s1,0.4,1,1v3C13,13.6,12.6,14,12,14z"/>
</g>
</svg>
