<?xml version="1.0" encoding="utf-8"?>
<!-- Generator: Adobe Illustrator 24.3.0, SVG Export Plug-In . SVG Version: 6.00 Build 0)  -->
<svg version="1.1" id="Слой_1" xmlns="http://www.w3.org/2000/svg" xmlns:xlink="http://www.w3.org/1999/xlink" x="0px" y="0px"
	 viewBox="0 0 168 168" style="enable-background:new 0 0 168 168;" xml:space="preserve">
<style type="text/css">
	.st0{fill:#FFC813;}
	.st1{fill:#9BD63E;}
</style>
<path class="st0" d="M46.7,89.6l35.6,21.8c1.1,0.6,2.3,0.6,3.4,0l35.6-21.8c0.9-0.6,1.3-1.8,0.7-2.8L85,20.7
	c-0.2-0.5-0.7-0.8-1.3-0.7c-0.3,0.1-0.6,0.4-0.7,0.7L46,86.8C45.4,87.8,45.8,89,46.7,89.6z M86,30.7l30.5,54.4L86,73.4V30.7z
	 M86,77.7l28.9,11.1L86,106.5V77.7z M82,106.5L52.9,88.7L82,77.6V106.5z M82,30.7v42.6L51.6,84.9L82,30.7z"/>
<path class="st1" d="M76,53.2c-1-0.5-2.2-0.2-2.7,0.8l-6,11c-0.5,1-0.2,2.2,0.8,2.7c1,0.5,2.2,0.2,2.7-0.8l6-11
	C77.3,55,76.9,53.8,76,53.2z M100.8,65l-6-11c-0.5-1-1.7-1.3-2.7-0.8c-1,0.5-1.3,1.7-0.8,2.7l6,11c0.5,1,1.7,1.3,2.7,0.8
	C100.9,67.2,101.3,66,100.8,65z M148.9,16c1.7,0.1,3.1-1.2,3.1-2.8c0.1-1.7-1.2-3.1-2.8-3.1c-1.7-0.1-3.1,1.2-3.1,2.8c0,0,0,0,0,0
	C145.9,14.5,147.2,15.9,148.9,16z M149.1,11.5c0.8,0,1.5,0.7,1.4,1.6s-0.7,1.5-1.6,1.4s-1.5-0.7-1.4-1.6c0,0,0,0,0,0
	C147.5,12.1,148.2,11.5,149.1,11.5z M70,8c1.7,0,3-1.3,3-3s-1.3-3-3-3s-3,1.3-3,3C67,6.7,68.3,8,70,8z M70,3.5
	c0.8,0,1.5,0.7,1.5,1.5S70.8,6.5,70,6.5S68.5,5.8,68.5,5C68.5,4.2,69.2,3.5,70,3.5z M165,78c0-1.1-0.9-2-2-2s-2,0.9-2,2s0.9,2,2,2
	C164.1,80,165,79.1,165,78z M163,79c-0.6,0-1-0.4-1-1s0.4-1,1-1s1,0.4,1,1C164,78.6,163.6,79,163,79z M113,25c1.1,0,2-0.9,2-2
	s-0.9-2-2-2s-2,0.9-2,2C111,24.1,111.9,25,113,25z M113,22c0.6,0,1,0.4,1,1s-0.4,1-1,1s-1-0.4-1-1C112,22.4,112.4,22,113,22z M16,29
	c0-1.1-0.9-2-2-2s-2,0.9-2,2s0.9,2,2,2C15.1,31,16,30.1,16,29z M14,30c-0.6,0-1-0.4-1-1s0.4-1,1-1s1,0.4,1,1C15,29.6,14.6,30,14,30z
	"/>
<circle class="st0" cx="2" cy="146" r="2"/>
<path class="st0" d="M11,144H8c-1.1,0-2,0.9-2,2s0.9,2,2,2h3c1.1,0,2-0.9,2-2S12.1,144,11,144z M160,144h-3c-1.1,0-2,0.9-2,2
	s0.9,2,2,2h3c1.1,0,2-0.9,2-2S161.1,144,160,144z"/>
<circle class="st0" cx="166" cy="146" r="2"/>
<path class="st0" d="M150.7,144H87.2l33.2-47.2c0.8-1.1,0.9-1.8,0.4-1.8c-0.5,0.1-1,0.3-1.5,0.7l-33.7,22c-1,0.6-2.3,0.6-3.4,0
	L48.1,95.7c-0.4-0.3-0.9-0.6-1.5-0.6c-0.5,0-0.4,0.6,0.4,1.8L80.2,144h-63c-1.1-0.1-2.1,0.6-2.3,1.7c-0.1,1.1,0.6,2.1,1.7,2.3
	c0.2,0,0.3,0,0.5,0h133.4c1.1,0.1,2.1-0.6,2.3-1.7s-0.6-2.1-1.7-2.3C151.1,144,150.9,144,150.7,144z M82,139.6l-22.2-31.6l20.4,13.2
	c0.6,0.4,1.2,0.6,1.8,0.8V139.6z M86,121.9c0.7-0.2,1.3-0.5,1.9-0.8l19.5-12.8L86,138.8V121.9z"/>
<circle class="st1" cx="65" cy="73" r="2"/>
<circle class="st1" cx="103" cy="73" r="2"/>
<polygon class="st0" points="51.7,43.5 50.2,45.4 51.1,46 52.1,43.8 52.2,43.8 53.1,46 54.1,45.4 52.6,43.5 52.6,43.5 54.9,43.8 
	54.9,42.7 52.6,43 52.6,43 54.1,41.1 53.1,40.5 52.2,42.7 52.1,42.7 51.2,40.5 50.2,41.1 51.7,43 51.7,43 49.4,42.7 49.4,43.8 
	51.7,43.5 "/>
<polygon class="st0" points="21.3,87.8 22.1,86.6 21.6,86.3 21,87.6 21,87.6 20.5,86.3 19.9,86.7 20.8,87.8 20.8,87.8 19.4,87.6 
	19.4,88.2 20.8,88 20.8,88.1 19.9,89.2 20.4,89.5 21,88.2 21,88.2 21.6,89.5 22.1,89.2 21.3,88.1 21.3,88.1 22.6,88.2 22.6,87.6 
	21.3,87.8 "/>
<polygon class="st0" points="137,70.7 137,69.7 134.7,70 134.7,69.9 136.1,68 135.2,67.5 134.3,69.7 134.3,69.7 133.3,67.5 
	132.4,68.1 133.8,69.9 133.8,70 131.6,69.7 131.6,70.7 133.8,70.4 133.8,70.5 132.4,72.3 133.2,72.9 134.2,70.7 134.3,70.7 
	135.2,72.9 136.2,72.3 134.7,70.5 134.7,70.4 "/>
<polygon class="st0" points="111.7,58 110.4,59.6 111.2,60.1 112.1,58.2 112.1,58.2 112.9,60.1 113.7,59.6 112.4,58 112.4,58 
	114.4,58.2 114.4,57.3 112.4,57.6 112.4,57.6 113.7,55.9 112.9,55.5 112.1,57.3 112.1,57.3 111.3,55.5 110.4,56 111.7,57.6 
	111.7,57.6 109.7,57.3 109.7,58.2 111.7,58 "/>
<path class="st1" d="M118.2,153h-8.3c-1.1,0.1-1.9,1.1-1.8,2.2c0.1,1,0.9,1.8,1.8,1.8h8.3c1.1-0.1,1.9-1.1,1.8-2.2
	C119.9,153.9,119.1,153.1,118.2,153z M58.2,153h-8.3c-1.1,0.1-1.9,1.1-1.8,2.2c0.1,1,0.9,1.8,1.8,1.8h8.3c1.1-0.1,1.9-1.1,1.8-2.2
	C59.9,153.9,59.1,153.1,58.2,153z M104,153H64c-1.1,0-2,0.9-2,2s0.9,2,2,2h15.9v2H72c-1.1,0-2,0.9-2,2s0.9,2,2,2h25c1.1,0,2-0.9,2-2
	s-0.9-2-2-2h-8.9v-2H104c1.1,0,2-0.9,2-2S105.1,153,104,153z"/>
</svg>
