<?xml version="1.0" encoding="utf-8"?>
<!-- Generator: Adobe Illustrator 24.3.0, SVG Export Plug-In . SVG Version: 6.00 Build 0)  -->
<svg version="1.1" id="Слой_1" xmlns="http://www.w3.org/2000/svg" xmlns:xlink="http://www.w3.org/1999/xlink" x="0px" y="0px"
	 viewBox="0 0 168 168" style="enable-background:new 0 0 168 168;" xml:space="preserve">
<style type="text/css">
	.st0{fill:#9BD63E;}
	.st1{fill:#333333;}
</style>
<path class="st0" d="M131.2,86.3l-19-13c-0.9-0.6-2.2-0.4-2.8,0.6c-0.2,0.3-0.3,0.7-0.3,1.1v3.9H83.9c-2.5,0-2.6,4,0,4H111
	c1.1,0,2-0.9,2-2v-2.1l13.5,9.2L113,97.2v-2.1c0-1.1-0.9-2-2-2c0,0,0,0,0,0H90.1c-2.6,0-2.6,4,0,4H109v3.9c0,1.1,1,2,2.1,2
	c0.4,0,0.7-0.1,1.1-0.3c0,0,19-13,19-13c0.9-0.7,1.1-1.9,0.5-2.9C131.5,86.6,131.3,86.5,131.2,86.3L131.2,86.3z"/>
<path class="st1" d="M90.8,74.3c0.7,0.8,2,1,2.8,0.3l3.6-3c0.9-0.7,1-2,0.3-2.8c-0.1-0.1-0.2-0.2-0.3-0.3l-3.6-3
	c-0.8-0.7-2.1-0.6-2.8,0.3c-0.5,0.6-0.6,1.6-0.2,2.3H84c-1.1,0-2,0.9-2,2c0,1.1,0.9,2,2,2h6.6C90.2,72.7,90.3,73.6,90.8,74.3z
	 M82,106c0,1.1,0.9,2,2,2h6.6c-0.4,0.7-0.3,1.6,0.2,2.3c0.7,0.8,2,1,2.8,0.3l3.6-3c0.9-0.7,1-2,0.3-2.8c-0.1-0.1-0.2-0.2-0.3-0.3
	l-3.6-3c-0.8-0.7-2.1-0.6-2.8,0.3c-0.5,0.6-0.6,1.6-0.2,2.3H84C82.9,104,82,104.9,82,106C82,106,82,106,82,106z"/>
<path class="st1" d="M68,84c-1.1,0-2,0.9-2,2v4c0,1.1,0.9,2,2,2s2-0.9,2-2v-4C70,84.9,69.1,84,68,84z"/>
<path class="st1" d="M160,148h-3c-1.1,0-2,0.9-2,2s0.9,2,2,2h3c1.1,0,2-0.9,2-2S161.1,148,160,148z"/>
<circle class="st1" cx="166" cy="150" r="2"/>
<path class="st0" d="M118.2,156h-8.3c-1.1,0.1-1.9,1.1-1.8,2.2c0.1,1,0.9,1.8,1.8,1.8h8.3c1.1-0.1,1.9-1.1,1.8-2.2
	C119.9,156.9,119.1,156.1,118.2,156z M58.2,156h-8.3c-1.1,0.1-1.9,1.1-1.8,2.2c0.1,1,0.9,1.8,1.8,1.8h8.3c1.1-0.1,1.9-1.1,1.8-2.2
	C59.9,156.9,59.1,156.1,58.2,156z M104,156H64c-1.1,0-2,0.9-2,2s0.9,2,2,2h15.9v2H72c-1.1,0-2,0.9-2,2s0.9,2,2,2h25c1.1,0,2-0.9,2-2
	s-0.9-2-2-2h-8.9v-2H104c1.1,0,2-0.9,2-2S105.1,156,104,156z"/>
<circle class="st1" cx="2" cy="150" r="2"/>
<path class="st1" d="M11,148H8c-1.1,0-2,0.9-2,2s0.9,2,2,2h3c1.1,0,2-0.9,2-2S12.1,148,11,148z M150.7,148h-39.1
	c0.2-0.6,0.3-1.3,0.3-1.9V107c-1.1,0.1-2.2-0.1-3.2-0.6c-0.3-0.2-0.5-0.3-0.8-0.5v40.2c0,1.1-0.9,1.9-1.9,1.9H42.7l31.6-13.9
	c2.3-0.9,3.7-3.1,3.7-5.5v-81c0-2.4-1.4-4.6-3.7-5.5L42.7,28H106c1.1,0,1.9,0.9,2,2v40.2c1.1-0.9,2.6-1.3,4-1.2V29.9
	c0-3.3-2.7-5.9-5.9-6H42c-3.3,0-5.9,2.7-6,6v116.1c0,0.7,0.1,1.3,0.3,1.9H17.3c-1.1-0.1-2.1,0.6-2.3,1.7c-0.1,1.1,0.6,2.1,1.7,2.3
	c0.2,0,0.3,0,0.5,0h133.4c1.1,0.1,2.1-0.6,2.3-1.7s-0.6-2.1-1.7-2.3C151.1,148,150.9,148,150.7,148L150.7,148z M40,31.2l32.8,14.5
	c0.7,0.3,1.2,1,1.2,1.8v81c0,0.8-0.5,1.6-1.3,1.9L40,144.8V31.2z M68.3,8c1.7,0,3-1.3,3-3s-1.3-3-3-3s-3,1.3-3,3
	C65.3,6.7,66.6,8,68.3,8z M68.3,3.5c0.8,0,1.5,0.7,1.5,1.5s-0.7,1.5-1.5,1.5S66.8,5.8,66.8,5C66.8,4.2,67.5,3.5,68.3,3.5z M137.3,3
	c-1.1,0-2,0.9-2,2s0.9,2,2,2s2-0.9,2-2C139.3,3.9,138.4,3,137.3,3z M137.3,6c-0.6,0-1-0.4-1-1s0.4-1,1-1s1,0.4,1,1
	C138.3,5.6,137.9,6,137.3,6z M160,62.7c-1.1,0-2,0.9-2,2c0,1.1,0.9,2,2,2s2-0.9,2-2c0,0,0,0,0,0C162,63.6,161.1,62.7,160,62.7z
	 M160,65.7c-0.6,0-1-0.4-1-1s0.4-1,1-1s1,0.4,1,1C161,65.3,160.6,65.7,160,65.7z M162,22c-1.1,0-2,0.9-2,2s0.9,2,2,2s2-0.9,2-2
	C164,22.9,163.1,22,162,22z M162,25c-0.6,0-1-0.4-1-1s0.4-1,1-1s1,0.4,1,1C163,24.6,162.6,25,162,25z M34.7,17.5c0-1.1-0.9-2-2-2
	c-1.1,0-2,0.9-2,2s0.9,2,2,2C33.8,19.5,34.7,18.6,34.7,17.5z M31.7,17.5c0-0.6,0.4-1,1-1s1,0.4,1,1s-0.4,1-1,1
	C32.1,18.5,31.7,18,31.7,17.5z"/>
<path class="st1" d="M8.1,46.9l1.5-2l-0.9-0.5l-1,2.2h0l-1-2.2l-1,0.5l1.5,1.9v0l-2.3-0.3v1.1l2.3-0.3v0l-1.5,1.9l0.9,0.6l1-2.2h0
	l0.9,2.2l1-0.6l-1.5-1.9v0l2.4,0.3v-1.1L8.1,46.9C8.1,47,8.1,46.9,8.1,46.9z M5.7,5.2L4.9,6.3l0.5,0.3L6,5.3h0l0.5,1.3l0.6-0.3
	L6.2,5.2v0l1.4,0.2V4.7L6.2,4.9v0l0.9-1.1L6.6,3.4L6,4.7h0L5.4,3.4L4.9,3.7l0.8,1.1v0L4.4,4.7v0.6L5.7,5.2C5.7,5.1,5.7,5.2,5.7,5.2z
	 M132,47.7v-1l-2.3,0.3v0l1.5-1.9l-0.9-0.5l-0.9,2.1h0l-1-2.1l-0.9,0.5l1.4,1.9v0l-2.3-0.3v1l2.3-0.3v0l-1.5,1.9l0.9,0.6l1-2.2h0
	l0.9,2.1l1-0.6l-1.5-1.8v0L132,47.7L132,47.7z M100.7,14.7l1.3-1.7l-0.8-0.4l-0.8,1.9h0l-0.8-1.8l-0.8,0.5l1.2,1.6v0L98,14.5v0.9
	l2-0.3v0l-1.3,1.6l0.8,0.5l0.9-1.9h0l0.8,1.9l0.8-0.5l-1.3-1.6v0l2,0.2v-0.9L100.7,14.7C100.7,14.8,100.7,14.7,100.7,14.7z"/>
</svg>
