<?xml version="1.0" encoding="utf-8"?>
<!-- Generator: Adobe Illustrator 24.3.0, SVG Export Plug-In . SVG Version: 6.00 Build 0)  -->
<svg version="1.1" id="Слой_1" xmlns="http://www.w3.org/2000/svg" xmlns:xlink="http://www.w3.org/1999/xlink" x="0px" y="0px"
	 viewBox="0 0 168 168" style="enable-background:new 0 0 168 168;" xml:space="preserve">
<style type="text/css">
	.st0{fill:#333333;}
	.st1{fill:#9BD63E;}
</style>
<path class="st0" d="M49,92.6c0.9-0.7,1.4-1.8,1.2-2.9l-1.5-9.2l6.4-6.5c1.2-1.2,1.2-3.1,0-4.2c-0.4-0.4-1-0.7-1.6-0.8l-8.8-1.3
	l-4-8.3c-0.7-1.5-2.5-2.1-3.9-1.4c-0.6,0.3-1.1,0.8-1.4,1.4l-4,8.3l-8.8,1.3c-1.6,0.3-2.7,1.8-2.5,3.4c0.1,0.6,0.4,1.2,0.8,1.6
	l6.4,6.5l-1.5,9.2c-0.3,1.6,0.8,3.1,2.4,3.4c0.7,0.1,1.3,0,1.9-0.3l7.9-4.3l7.9,4.3C46.9,93.4,48.1,93.3,49,92.6z M38,84.4
	c-0.5,0-1,0.1-1.4,0.4l-6.5,3.6l1.3-7.7c0.2-0.9-0.1-1.9-0.8-2.6L25,72.5l7.5-1.1c1-0.1,1.8-0.8,2.2-1.7l3.3-6.8l3.3,6.8
	c0.4,0.9,1.3,1.5,2.2,1.7l7.5,1.1l-5.5,5.5c-0.7,0.7-1,1.6-0.8,2.6l1.3,7.7l-6.5-3.6C39,84.5,38.5,84.4,38,84.4L38,84.4z
	 M147.8,70.9c-0.4-1.1-1.3-1.8-2.4-2l-8.8-1.3l-4-8.3c-0.7-1.5-2.5-2.1-3.9-1.4c-0.6,0.3-1.1,0.8-1.4,1.4l-4,8.3l-8.8,1.3
	c-1.6,0.3-2.7,1.8-2.5,3.4c0.1,0.6,0.4,1.2,0.8,1.6l6.4,6.5l-1.5,9.2c-0.3,1.6,0.8,3.1,2.4,3.4c0.7,0.1,1.3,0,1.9-0.3l7.9-4.3
	l7.9,4.3c1.4,0.8,3.2,0.2,4-1.2c0.3-0.6,0.4-1.3,0.3-1.9l-1.5-9.2l6.4-6.5C147.9,73.2,148.2,72,147.8,70.9L147.8,70.9z M137.5,78.1
	c-0.7,0.7-1,1.6-0.8,2.6l1.3,7.7l-6.5-3.6c-0.9-0.5-1.9-0.5-2.8,0l-6.5,3.6l1.3-7.7c0.2-0.9-0.2-1.9-0.8-2.6l-5.5-5.5l7.5-1.1
	c1-0.1,1.8-0.8,2.2-1.7l3.3-6.8l3.3,6.8c0.4,0.9,1.3,1.5,2.2,1.7l7.5,1.1L137.5,78.1z M73.3,46.8l-1.5,9.2c-0.3,1.6,0.8,3.1,2.4,3.4
	c0.7,0.1,1.3,0,1.9-0.3l7.9-4.3l7.9,4.3c1.4,0.8,3.2,0.2,4-1.2c0.3-0.6,0.4-1.3,0.3-1.9l-1.5-9.2l6.4-6.5c1.2-1.2,1.2-3.1,0-4.2
	c-0.4-0.4-1-0.7-1.6-0.8L90.6,34l-4-8.3c-0.7-1.5-2.5-2.1-3.9-1.4c-0.6,0.3-1.1,0.8-1.4,1.4l-4,8.3l-8.8,1.3
	c-1.6,0.3-2.7,1.8-2.5,3.4c0.1,0.6,0.4,1.2,0.8,1.6L73.3,46.8z M78.5,37.8c1-0.1,1.8-0.8,2.2-1.7l3.3-6.8l3.3,6.8
	c0.4,0.9,1.3,1.5,2.2,1.7l7.5,1.1l-5.5,5.5c-0.7,0.7-1,1.6-0.8,2.6l1.3,7.7l-6.5-3.6c-0.9-0.5-1.9-0.5-2.8,0l-6.5,3.6l1.3-7.7
	c0.2-0.9-0.2-1.9-0.8-2.6L71,38.9L78.5,37.8z M30.5,41.2l-0.9,5.4c-0.2,1.4,0.7,2.8,2.1,3c0.6,0.1,1.2,0,1.7-0.3l4.6-2.5l4.6,2.5
	c1.3,0.7,2.8,0.2,3.5-1c0.3-0.5,0.4-1.1,0.3-1.7l-0.9-5.4l3.8-3.8c1-1,1-2.7,0-3.7c-0.4-0.4-0.9-0.6-1.4-0.7l-5.1-0.8l-2.3-4.8
	c-0.6-1.3-2.2-1.9-3.5-1.2c-0.5,0.3-1,0.7-1.2,1.2l-2.3,4.8L28.2,33c-1.4,0.2-2.4,1.5-2.2,3c0.1,0.5,0.3,1.1,0.7,1.4L30.5,41.2z
	 M34.7,36c0.9-0.1,1.6-0.7,2-1.5l1.4-2.8l1.4,2.8c0.4,0.8,1.1,1.3,2,1.5l3.2,0.5l-2.4,2.4c-0.6,0.6-0.9,1.4-0.7,2.3l0.5,3.3L39.2,43
	c-0.8-0.4-1.7-0.4-2.5,0L34,44.5l0.5-3.3c0.1-0.8-0.1-1.7-0.7-2.3l-2.4-2.4L34.7,36z M122.5,41.2l-0.9,5.4c-0.2,1.4,0.7,2.8,2.1,3
	c0.6,0.1,1.2,0,1.7-0.3l4.6-2.5l4.6,2.5c1.3,0.7,2.8,0.2,3.5-1c0.3-0.5,0.4-1.1,0.3-1.7l-0.9-5.4l3.8-3.8c1-1,1-2.7,0-3.7
	c-0.4-0.4-0.9-0.6-1.4-0.7l-5.1-0.8l-2.3-4.8c-0.6-1.3-2.2-1.9-3.5-1.2c-0.5,0.3-1,0.7-1.2,1.2l-2.3,4.8l-5.1,0.8
	c-1.4,0.2-2.4,1.5-2.2,3c0.1,0.5,0.3,1.1,0.7,1.4L122.5,41.2z M126.7,36c0.9-0.1,1.6-0.7,2-1.5l1.4-2.8l1.4,2.8
	c0.4,0.8,1.1,1.3,2,1.5l3.2,0.5l-2.4,2.4c-0.6,0.6-0.9,1.4-0.7,2.3l0.5,3.3l-2.7-1.5c-0.8-0.4-1.7-0.4-2.5,0l-2.7,1.5l0.5-3.3
	c0.1-0.8-0.1-1.7-0.7-2.3l-2.4-2.4L126.7,36z"/>
<path class="st1" d="M110.8,79l-16.3-2.3l-7.3-14.2c-1-1.8-3.2-2.5-5-1.6c-0.7,0.4-1.2,0.9-1.6,1.6l-7.3,14.2L57.2,79
	c-1.4,0.2-2.6,1.1-3,2.5c-0.4,1.3-0.1,2.8,1,3.7l11.7,11l-1.2,6.5c0.5,0.4,1,0.9,1.4,1.5l3.2-4.5l0.5-2.9c0.2-1.2-0.2-2.4-1.1-3.2
	L58.4,82.8l15.7-2.2c1.2-0.2,2.2-0.9,2.8-2L84,64.8l7.1,13.8c0.6,1.1,1.6,1.8,2.8,2l15.7,2.2L98.2,93.4c-0.9,0.8-1.3,2-1.1,3.2
	l2.7,15.1l-8.6-4.3c0.8,1.4,1.3,2.9,1.3,4.5c0.6,0.4,1.1,0.9,1.5,1.4l4.4,2.2c1.3,0.6,2.8,0.5,3.9-0.3c1.1-0.8,1.7-2.2,1.4-3.5
	l-2.8-15.5l11.7-11c1-0.9,1.4-2.4,1-3.7C113.4,80.1,112.2,79.1,110.8,79z"/>
<circle class="st0" cx="2" cy="149.9" r="2"/>
<path class="st0" d="M11,147.9H8c-1.1,0-2,0.9-2,2s0.9,2,2,2h3c1.1,0,2-0.9,2-2S12.1,147.9,11,147.9z M160,147.9h-3
	c-1.1,0-2,0.9-2,2s0.9,2,2,2h3c1.1,0,2-0.9,2-2S161.1,147.9,160,147.9z"/>
<circle class="st0" cx="166" cy="149.9" r="2"/>
<path class="st1" d="M118.2,155.9h-8.3c-1.1,0.1-1.9,1.1-1.8,2.2c0.1,1,0.9,1.8,1.8,1.8h8.3c1.1-0.1,1.9-1.1,1.8-2.2
	C119.9,156.8,119.1,156,118.2,155.9z M58.2,155.9h-8.3c-1.1,0.1-1.9,1.1-1.8,2.2c0.1,1,0.9,1.8,1.8,1.8h8.3c1.1-0.1,1.9-1.1,1.8-2.2
	C59.9,156.8,59.1,156,58.2,155.9z M104,155.9H64c-1.1,0-2,0.9-2,2s0.9,2,2,2h15.9v2H72c-1.1,0-2,0.9-2,2s0.9,2,2,2h25
	c1.1,0,2-0.9,2-2s-0.9-2-2-2h-8.9v-2H104c1.1,0,2-0.9,2-2S105.1,155.9,104,155.9z"/>
<path class="st0" d="M150.7,147.9H85.1L96,131.8c1.8-2.7,1.1-6.3-1.6-8.1c-0.6-0.4-1.3-0.7-2-0.9c1.1-3.1-0.5-6.4-3.6-7.5
	c-0.1-0.1-0.3-0.1-0.4-0.1c1-3.1-0.6-6.4-3.7-7.4c-0.1,0-0.2-0.1-0.3-0.1l4.5-6.5c1.8-2.6,1.1-6.2-1.5-8.1c-1.3-0.9-2.8-1.3-4.4-1
	c-1.5,0.3-2.8,1.1-3.7,2.4L66,113.7c0-2.1-0.7-4.2-1.8-6.1c-0.9-1.3-2.3-2.2-3.8-2.4c-1.3-0.3-2.7-0.1-3.8,0.7
	c-2.3,1.6-3.5,5.2-3.6,10.9L51.4,137c-1.6-0.6-3.3-0.2-4.4,1.1l-3,3.4c-1.5,1.7-1.3,4.2,0.4,5.7c0,0,0,0,0.1,0.1l0.9,0.7h-28
	c-1.1-0.1-2.1,0.6-2.3,1.7c-0.1,1.1,0.6,2.1,1.7,2.3c0.2,0,0.3,0,0.5,0h133.4c1.1,0.1,2.1-0.6,2.3-1.7s-0.6-2.1-1.7-2.3
	C151.1,147.9,150.9,147.9,150.7,147.9L150.7,147.9z M57,117c0,0,0-0.1,0-0.1c0.1-5.9,1.4-7.4,1.8-7.7c0.7-0.5,1.8,0.1,2.2,0.7
	c1.5,2.1,1.2,7.5,0.6,10.4c-0.2,0.9,0.3,1.9,1.2,2.2c1,0.3,2.2-0.1,2.6-1.1l17.2-24.9c0.6-0.8,1.7-0.9,2.4-0.4
	c0.8,0.6,1,1.7,0.5,2.5l-17.5,25.3c-0.6,0.9-0.4,2.2,0.5,2.8c1,0.6,2.3,0.4,3-0.5l9.8-14.2c0.3-0.4,0.6-0.6,1.1-0.7
	c0.5-0.1,1,0,1.4,0.3c0.8,0.6,1,1.7,0.5,2.5l-9.9,14.3c-0.6,0.9-0.4,2.1,0.5,2.8s2.1,0.4,2.8-0.5c0,0,0,0,0,0l7.9-11.3
	c0.2-0.3,0.6-0.5,1-0.6c0.5-0.1,1,0,1.4,0.3c0.8,0.6,1,1.7,0.5,2.5l-7.7,11.1c-0.6,1.1-0.3,2.5,0.8,3.1c0.1,0.1,0.2,0.1,0.3,0.2
	c0.8,0.3,1.8,0,2.3-0.8l5.6-8c0.3-0.4,0.6-0.6,1.1-0.7c0.5-0.1,1,0,1.4,0.3c0.8,0.6,1,1.7,0.5,2.5l-12.5,18.4H64.8l-9.6-8.1L57,117z
	 M47,144.1l3-3.4l8.6,7.2h-7.1L47,144.1z M93.7,22.3c1.7,0,3-1.3,3-3s-1.3-3-3-3s-3,1.3-3,3C90.7,20.9,92,22.3,93.7,22.3z
	 M93.7,17.8c0.8,0,1.5,0.7,1.5,1.5s-0.7,1.5-1.5,1.5s-1.5-0.7-1.5-1.5C92.2,18.4,92.8,17.8,93.7,17.8z M5.3,34.9c-1.1,0-2,0.9-2,2
	s0.9,2,2,2s2-0.9,2-2C7.3,35.8,6.4,34.9,5.3,34.9z M5.3,37.9c-0.6,0-1-0.4-1-1s0.4-1,1-1s1,0.4,1,1C6.3,37.5,5.9,37.9,5.3,37.9z
	 M145,19.9c-1.1,0-2,0.9-2,2s0.9,2,2,2s2-0.9,2-2C147,20.8,146.1,19.9,145,19.9z M145,22.9c-0.6,0-1-0.4-1-1s0.4-1,1-1s1,0.4,1,1
	C146,22.5,145.6,22.9,145,22.9z M164.3,8.9c-1.1,0-2,0.9-2,2s0.9,2,2,2s2-0.9,2-2C166.3,9.8,165.4,8.9,164.3,8.9z M164.3,11.9
	c-0.6,0-1-0.4-1-1s0.4-1,1-1s1,0.4,1,1C165.3,11.5,164.9,11.9,164.3,11.9z M36,15.9c0-1.1-0.9-2-2-2c-1.1,0-2,0.9-2,2s0.9,2,2,2l0,0
	C35.1,17.9,36,17,36,15.9z M33,15.9c0-0.6,0.4-1,1-1s1,0.4,1,1c0,0.6-0.4,1-1,1l0,0C33.4,16.9,33,16.5,33,15.9z"/>
<path class="st0" d="M5.3,4.6l1.5-2L5.9,2.1l-1,2.2h0l-1-2.2L3,2.6l1.5,1.9v0L2.1,4.3v1.1L4.5,5v0L3,7l0.9,0.6l1-2.2h0l0.9,2.2
	l1-0.6L5.3,5.1v0l2.4,0.3V4.3L5.3,4.6C5.3,4.6,5.3,4.6,5.3,4.6z M56.8,4.3l-0.9,1.1l0.5,0.3L57,4.4h0l0.5,1.3l0.6-0.3l-0.9-1.1v0
	l1.4,0.2V3.8L57.3,4v0l0.9-1.1l-0.5-0.3L57,3.8h0l-0.6-1.3l-0.6,0.3L56.7,4v0l-1.3-0.2v0.6L56.8,4.3C56.8,4.3,56.8,4.3,56.8,4.3z
	 M161,45.3v-1l-2.3,0.3v0l1.5-1.9l-0.9-0.5l-0.9,2.1h0l-1-2.1l-0.9,0.5l1.4,1.9v0l-2.3-0.3v1l2.3-0.3v0l-1.5,1.9l0.9,0.6l1-2.2h0
	l0.9,2.1l1-0.6l-1.5-1.8v0L161,45.3L161,45.3z M133.8,5.6l1.3-1.7l-0.8-0.5l-0.8,1.9h0l-0.8-1.8L131.8,4l1.2,1.6v0l-1.9-0.3v0.9
	l2-0.3v0l-1.3,1.6l0.8,0.5l0.9-1.9h0l0.8,1.9l0.8-0.5L133.8,6v0l2,0.2V5.3L133.8,5.6C133.8,5.6,133.8,5.6,133.8,5.6z"/>
</svg>
