<svg xmlns="http://www.w3.org/2000/svg" enable-background="new 0 0 34 34" viewBox="0 0 34 34"><path d="M17,1C8.2,1,1,8.1,1,17c0,0,0,0,0,0s0,0,0,0c0,0,0,0,0,0c0,8.9,7.3,16,16,16c8.6,0,16-7,16-16C33,8.1,25.7,1,17,1z
		 M28.8,24.5c-1-0.7-2.1-1.4-3.4-1.9c0.3-1.4,0.5-3,0.5-4.6h5C30.8,20.3,30.1,22.5,28.8,24.5z M22.4,29.9c1.1-1.4,2-3.2,2.6-5.3
		c1,0.4,1.9,0.9,2.7,1.5C26.1,27.9,24.4,29.1,22.4,29.9z M6.4,26.1C7.2,25.5,8.1,25,9,24.6c0.6,2.1,1.5,3.9,2.6,5.3
		C9.6,29.1,7.9,27.8,6.4,26.1z M5.2,9.5c1,0.7,2.1,1.4,3.4,1.9c-0.3,1.4-0.5,3-0.5,4.6H3C3.2,13.7,3.9,11.5,5.2,9.5z M11.6,4.1
		c-1.1,1.4-2,3.2-2.6,5.3C8.1,9,7.2,8.5,6.4,7.9C7.9,6.1,9.7,4.9,11.6,4.1z M27.6,7.9C26.8,8.5,25.9,9,25,9.4
		c-0.6-2.1-1.5-3.9-2.6-5.3C24.4,4.9,26.1,6.2,27.6,7.9z M16,11c-1.8-0.1-3.5-0.4-5.1-0.8c1.1-3.7,2.9-6.3,5.1-7V11z M16,13v3h-6
		c0.1-1.4,0.2-2.7,0.4-3.9C12.2,12.6,14.1,12.9,16,13z M16,18v3c-1.9,0.1-3.8,0.4-5.5,0.9c-0.2-1.2-0.4-2.6-0.4-3.9H16z M16,23v7.8
		c-2.1-0.6-4-3.3-5.1-6.9C12.5,23.4,14.2,23.1,16,23z M18,30.8V23c1.8,0.1,3.5,0.4,5.1,0.8C22,27.5,20.1,30.2,18,30.8z M18,21v-3h6
		c-0.1,1.4-0.2,2.7-0.4,3.9C21.8,21.4,19.9,21.1,18,21z M18,16v-3c1.9-0.1,3.8-0.4,5.5-0.9c0.2,1.2,0.4,2.6,0.4,3.9H18z M18,11V3.2
		c2.1,0.6,4,3.3,5.1,7C21.5,10.6,19.8,10.9,18,11z M8,18c0.1,1.6,0.2,3.2,0.5,4.6c-1.2,0.5-2.4,1.2-3.4,1.9c-1.2-2-2-4.2-2.1-6.5H8z
		 M26,16c-0.1-1.6-0.2-3.2-0.5-4.6c1.2-0.5,2.4-1.2,3.4-1.9c1.2,2,2,4.2,2.1,6.5H26z"/></svg>