<?xml version="1.0" encoding="utf-8"?>
<!-- Generator: Adobe Illustrator 24.3.0, SVG Export Plug-In . SVG Version: 6.00 Build 0)  -->
<svg version="1.1" id="Слой_1" xmlns="http://www.w3.org/2000/svg" xmlns:xlink="http://www.w3.org/1999/xlink" x="0px" y="0px"
	 viewBox="0 0 168 168" style="enable-background:new 0 0 168 168;" xml:space="preserve">
<style type="text/css">
	.st0{fill:#9BD63E;}
	.st1{fill:#333333;}
</style>
<path class="st0" d="M75,122c0,5,4,9,9,9c5,0,9-4,9-9s-4-9-9-9c0,0,0,0,0,0C79,113,75,117,75,122z M84,117c2.8,0,5,2.2,5,5
	s-2.2,5-5,5c-2.8,0-5-2.2-5-5C79,119.2,81.2,117,84,117z M123,122c0,5,4,9,9,9c5,0,9-4,9-9s-4-9-9-9c0,0,0,0,0,0
	C127,113,123,117,123,122z M137,122c0,2.8-2.2,5-5,5s-5-2.2-5-5s2.2-5,5-5c0,0,0,0,0,0C134.8,117,137,119.2,137,122z M36,131
	c5,0,9-4,9-9s-4-9-9-9c-5,0-9,4-9,9C27,127,31,131,36,131z M36,117c2.8,0,5,2.2,5,5s-2.2,5-5,5c-2.8,0-5-2.2-5-5
	C31,119.2,33.2,117,36,117z"/>
<path class="st1" d="M109,86h19c1.1,0,2,0.9,2,2v11.3c-1-0.6-2.2-0.2-2.7,0.7c-0.4,0.7-0.3,1.6,0.1,2.2l3,4c0.7,0.9,1.9,1.1,2.8,0.4
	c0.2-0.1,0.3-0.2,0.4-0.4l3-4c0.7-0.9,0.5-2.1-0.4-2.8c-0.6-0.5-1.5-0.5-2.2-0.1V88c0-3.3-2.7-6-6-6h-19c-1.1,0-2,0.9-2,2
	C107,85.1,107.9,86,109,86C109,86,109,86,109,86L109,86z M34.4,106.2c0.7,0.9,1.9,1.1,2.8,0.4c0.2-0.1,0.3-0.2,0.4-0.4l3-4
	c0.7-0.9,0.5-2.1-0.4-2.8c-0.6-0.5-1.5-0.5-2.2-0.1V88c0-1.1,0.9-2,2-2h18c1.1,0,2-0.9,2-2c0-1.1-0.9-2-2-2c0,0,0,0,0,0H40
	c-3.3,0-6,2.7-6,6v11.3c-1-0.6-2.2-0.2-2.7,0.7c-0.4,0.7-0.3,1.6,0.1,2.2L34.4,106.2z M84,90c-0.7,0-1.3,0-2-0.1v9.4
	c-1-0.6-2.2-0.2-2.7,0.7c-0.4,0.7-0.3,1.6,0.1,2.2l3,4c0.7,0.9,1.9,1.1,2.8,0.4c0.2-0.1,0.3-0.2,0.4-0.4l3-4
	c0.7-0.9,0.5-2.1-0.4-2.8c-0.6-0.5-1.5-0.5-2.2-0.1v-9.4C85.3,90,84.7,90,84,90z M84,86c11.6,0,21-9.4,21-21s-9.4-21-21-21
	c-11.6,0-21,9.4-21,21C63,76.6,72.4,86,84,86z M84,48c9.4,0,17,7.6,17,17c0,9.4-7.6,17-17,17c-9.4,0-17-7.6-17-17
	C67,55.6,74.6,48,84,48z"/>
<path class="st0" d="M83.4,65.6c1.3,0.4,2.5,0.7,2.9,1.4c0.3,0.4,0.3,1,0,1.4c-0.5,0.8-2,1-3.2,0.8c-0.5-0.1-0.9-0.3-1.2-0.6
	c-0.9-0.7-2.1-0.5-2.8,0.4c-0.7,0.9-0.5,2.1,0.4,2.8l0,0c0.8,0.6,1.7,1,2.6,1.3v1.2c0,1.1,0.9,2,2,2s2-0.9,2-2v-1.2
	c1.4-0.3,2.7-1.1,3.6-2.3c1.1-1.7,1.2-4,0-5.8c-1.3-2-3.5-2.6-5.2-3.1s-2.6-0.8-2.9-1.5c-0.2-0.6,0.6-1.1,0.9-1.3
	c1.1-0.4,2.4-0.3,3.5,0.4c0.9,0.6,2.2,0.3,2.8-0.6c0.6-0.9,0.3-2.2-0.6-2.8c-0.4-0.3-0.9-0.5-1.4-0.7v-1.1c0-1.1-0.9-2-2-2
	s-2,0.9-2,2l0,0v0.6c-0.6,0.1-1.2,0.2-1.7,0.5c-2.6,0.9-4,3.6-3.2,6.2C78.7,64.3,81.4,65.1,83.4,65.6z M46.4,66.5
	c1.3,0.4,2.5,0.7,2.9,1.4c0.3,0.4,0.3,1,0,1.4c-0.5,0.8-2,1-3.2,0.8c-0.5-0.1-0.9-0.3-1.2-0.6c-0.9-0.7-2.1-0.5-2.8,0.4
	c-0.7,0.9-0.5,2.1,0.4,2.8l0,0c0.8,0.6,1.7,1,2.6,1.3V75c0,1.1,0.9,2,2,2s2-0.9,2-2v-1.2c1.4-0.3,2.7-1.1,3.6-2.3
	c1.1-1.7,1.2-4,0-5.8c-1.3-2-3.5-2.6-5.2-3.1c-1.8-0.5-2.6-0.8-2.9-1.5c-0.2-0.6,0.6-1.1,0.9-1.3c1.1-0.4,2.4-0.3,3.5,0.4
	c0.9,0.6,2.2,0.3,2.8-0.6c0.6-0.9,0.3-2.2-0.6-2.8l0,0c-0.4-0.3-0.9-0.5-1.4-0.7V55c0-1.1-0.9-2-2-2s-2,0.9-2,2v0.6
	c-0.6,0.1-1.2,0.2-1.7,0.5c-2.6,0.9-4,3.6-3.2,6.2C41.7,65.2,44.4,65.9,46.4,66.5z M120.4,66.5c1.3,0.4,2.5,0.7,2.9,1.4
	c0.3,0.4,0.3,1,0,1.4c-0.5,0.8-2,1-3.2,0.8c-0.5-0.1-0.9-0.3-1.2-0.6c-0.9-0.7-2.1-0.5-2.8,0.4c-0.7,0.9-0.5,2.1,0.4,2.8
	c0,0,0,0,0,0c0.8,0.6,1.7,1,2.6,1.3V75c0,1.1,0.9,2,2,2s2-0.9,2-2v-1.2c1.4-0.3,2.7-1.1,3.6-2.3c1.1-1.7,1.2-4,0-5.8
	c-1.3-2-3.5-2.6-5.2-3.1c-1.8-0.5-2.6-0.8-2.9-1.5c-0.2-0.6,0.6-1.1,0.9-1.3c1.1-0.4,2.4-0.3,3.5,0.4c0.9,0.6,2.2,0.3,2.8-0.6
	c0.6-0.9,0.3-2.2-0.6-2.8c-0.4-0.3-0.9-0.5-1.4-0.7V55c0-1.1-0.9-2-2-2s-2,0.9-2,2v0.6c-0.6,0.1-1.2,0.2-1.7,0.5
	c-2.6,0.9-4,3.6-3.2,6.2C115.7,65.2,118.4,65.9,120.4,66.5z"/>
<path class="st1" d="M67.8,109l-0.9-0.9c0.4-0.6,0.7-1.3,0.9-2.1H69c1.1,0,2-0.9,2-2c0-1.1-0.9-2-2-2c0,0,0,0,0,0h-1.3
	c-0.2-0.7-0.5-1.4-0.9-2.1l0.9-0.9c0.8-0.8,0.8-2,0-2.8c-0.8-0.8-2-0.8-2.8,0c0,0,0,0,0,0l-0.9,0.9c-0.6-0.4-1.3-0.7-2.1-0.9V95
	c0-1.1-0.9-2-2-2s-2,0.9-2,2v1.3c-0.7,0.2-1.4,0.5-2.1,0.9l-0.9-0.9c-0.8-0.8-2-0.8-2.8,0s-0.8,2,0,2.8l0.9,0.9
	c-0.4,0.6-0.7,1.3-0.9,2.1H51c-1.1,0-2,0.9-2,2c0,1.1,0.9,2,2,2c0,0,0,0,0,0h1.3c0.2,0.7,0.5,1.4,0.9,2.1l-0.9,0.9
	c-0.8,0.8-0.8,2,0,2.8c0,0,0,0,0,0c0.8,0.8,2,0.8,2.8,0l0.9-0.9c0.6,0.4,1.3,0.7,2.1,0.9v1.3c0,1.1,0.9,2,2,2s2-0.9,2-2v-1.3
	c0.7-0.2,1.4-0.5,2.1-0.9l0.9,0.9c0.8,0.8,2,0.8,2.8,0c0.8-0.8,0.9-2,0.1-2.8C67.9,109,67.9,108.9,67.8,109z M56,104
	c0-2.2,1.8-4,4-4s4,1.8,4,4c0,2.2-1.8,4-4,4c0,0,0,0,0,0C57.8,108,56,106.2,56,104z M115.8,109l-0.9-0.9c0.4-0.6,0.7-1.3,0.9-2.1
	h1.3c1.1,0,2-0.9,2-2c0-1.1-0.9-2-2-2c0,0,0,0,0,0h-1.3c-0.2-0.7-0.5-1.4-0.9-2.1l0.9-0.9c0.8-0.8,0.8-2,0-2.8c-0.8-0.8-2-0.8-2.8,0
	c0,0,0,0,0,0l-0.9,0.9c-0.6-0.4-1.3-0.7-2.1-0.9V95c0-1.1-0.9-2-2-2s-2,0.9-2,2v1.3c-0.7,0.2-1.4,0.5-2.1,0.9l-0.9-0.9
	c-0.8-0.8-2-0.8-2.8,0c-0.8,0.8-0.8,2,0,2.8l0.9,0.9c-0.4,0.6-0.7,1.3-0.9,2.1H99c-1.1,0-2,0.9-2,2c0,1.1,0.9,2,2,2c0,0,0,0,0,0h1.3
	c0.2,0.7,0.5,1.4,0.9,2.1l-0.9,0.9c-0.8,0.8-0.8,2,0,2.8c0,0,0,0,0,0c0.8,0.8,2,0.8,2.8,0l0.9-0.9c0.6,0.4,1.3,0.7,2.1,0.9v1.3
	c0,1.1,0.9,2,2,2s2-0.9,2-2v-1.3c0.7-0.2,1.4-0.5,2.1-0.9l0.9,0.9c0.8,0.8,2,0.8,2.8,0C116.6,111,116.6,109.7,115.8,109z M104,104
	c0-2.2,1.8-4,4-4s4,1.8,4,4s-1.8,4-4,4c0,0,0,0,0,0C105.8,108,104,106.2,104,104z M68.3,8c1.7,0,3-1.3,3-3s-1.3-3-3-3s-3,1.3-3,3
	C65.3,6.7,66.6,8,68.3,8z M68.3,3.5c0.8,0,1.5,0.7,1.5,1.5s-0.7,1.5-1.5,1.5S66.8,5.8,66.8,5C66.8,4.2,67.5,3.5,68.3,3.5z M158.3,69
	c-1.1,0-2,0.9-2,2s0.9,2,2,2s2-0.9,2-2C160.3,69.9,159.4,69,158.3,69z M158.3,72c-0.6,0-1-0.4-1-1s0.4-1,1-1s1,0.4,1,1
	C159.3,71.6,158.9,72,158.3,72z M98.3,40c-1.1,0-2,0.9-2,2s0.9,2,2,2s2-0.9,2-2C100.3,40.9,99.4,40,98.3,40z M98.3,43
	c-0.6,0-1-0.4-1-1s0.4-1,1-1s1,0.4,1,1C99.3,42.6,98.9,43,98.3,43z M158.3,10c-1.1,0-2,0.9-2,2s0.9,2,2,2s2-0.9,2-2
	C160.3,10.9,159.4,10,158.3,10z M158.3,13c-0.6,0-1-0.4-1-1s0.4-1,1-1s1,0.4,1,1C159.3,12.6,158.9,13,158.3,13z M17.3,28
	c0-1.1-0.9-2-2-2s-2,0.9-2,2s0.9,2,2,2C16.4,30,17.3,29.1,17.3,28z M14.3,28c0-0.6,0.4-1,1-1s1,0.4,1,1s-0.4,1-1,1
	C14.8,29,14.3,28.6,14.3,28z"/>
<polygon class="st1" points="10.9,69 12.4,67.1 11.4,66.5 10.5,68.7 10.4,68.7 9.5,66.5 8.5,67.1 10,69 10,69 7.7,68.7 7.7,69.8 
	10,69.5 10,69.5 8.5,71.4 9.4,72 10.4,69.8 10.5,69.8 11.4,72 12.4,71.4 10.9,69.5 10.9,69.5 13.2,69.8 13.2,68.7 10.9,69 "/>
<polygon class="st1" points="52.1,34.1 51.2,35.2 51.7,35.5 52.3,34.2 52.3,34.2 52.9,35.5 53.5,35.2 52.6,34.1 52.6,34.1 
	53.9,34.2 53.9,33.6 52.6,33.8 52.6,33.8 53.4,32.6 52.9,32.3 52.4,33.6 52.3,33.6 51.8,32.3 51.2,32.7 52.1,33.8 52.1,33.8 
	50.7,33.6 50.7,34.2 52.1,34 "/>
<polygon class="st1" points="155.3,47.7 155.3,46.7 153,47 153,46.9 154.4,45 153.5,44.5 152.6,46.7 152.6,46.7 151.6,44.5 
	150.7,45.1 152.1,46.9 152.1,47 149.9,46.7 149.9,47.7 152.1,47.4 152.1,47.5 150.7,49.3 151.5,49.9 152.5,47.7 152.6,47.7 
	153.5,49.9 154.5,49.3 153,47.5 153,47.4 "/>
<polygon class="st1" points="116.7,19.6 118,17.9 117.2,17.5 116.4,19.3 116.4,19.3 115.6,17.5 114.7,18 116,19.6 116,19.6 
	114,19.3 114,20.2 116,20 116,20 114.7,21.6 115.5,22.1 116.4,20.2 116.4,20.2 117.2,22.1 118,21.6 116.7,20 116.7,20 118.7,20.2 
	118.7,19.3 116.7,19.6 "/>
<circle class="st1" cx="2" cy="150" r="2"/>
<path class="st1" d="M11,148H8c-1.1,0-2,0.9-2,2s0.9,2,2,2h3c1.1,0,2-0.9,2-2S12.1,148,11,148z M160,148h-3c-1.1,0-2,0.9-2,2
	s0.9,2,2,2h3c1.1,0,2-0.9,2-2S161.1,148,160,148z"/>
<circle class="st1" cx="166" cy="150" r="2"/>
<path class="st0" d="M118.2,156h-8.3c-1.1,0.1-1.9,1.1-1.8,2.2c0.1,1,0.9,1.8,1.8,1.8h8.3c1.1-0.1,1.9-1.1,1.8-2.2
	C119.9,156.9,119.1,156.1,118.2,156z M58.2,156h-8.3c-1.1,0.1-1.9,1.1-1.8,2.2c0.1,1,0.9,1.8,1.8,1.8h8.3c1.1-0.1,1.9-1.1,1.8-2.2
	C59.9,156.9,59.1,156.1,58.2,156z M104,156H64c-1.1,0-2,0.9-2,2s0.9,2,2,2h15.9v2H72c-1.1,0-2,0.9-2,2s0.9,2,2,2h25c1.1,0,2-0.9,2-2
	s-0.9-2-2-2h-8.9v-2H104c1.1,0,2-0.9,2-2S105.1,156,104,156z"/>
<path class="st1" d="M150.7,148h-3.1c0.2-0.6,0.3-1.3,0.4-2v-5.5c0.2-4.3-2.4-8.2-6.4-9.8c-1.3,1.4-2.9,2.5-4.6,3.3h0.6
	c3.4-0.2,6.3,2.5,6.4,5.8c0,0.2,0,0.5,0,0.7v5.5c0,1.1-0.9,2-2,2h-20c-1.1,0-2-0.9-2-2v-5.5c-0.2-3.4,2.3-6.3,5.7-6.5
	c0.2,0,0.5,0,0.7,0h0.6c-1.8-0.7-3.3-1.9-4.6-3.3c-4,1.6-6.6,5.5-6.4,9.8v5.5c0,0.7,0.1,1.4,0.3,2H99.7c0.2-0.6,0.3-1.3,0.3-2v-5.5
	c0.2-4.3-2.4-8.2-6.4-9.8c-1.3,1.4-2.9,2.5-4.6,3.3h0.6c3.4-0.2,6.3,2.5,6.4,5.8c0,0.2,0,0.5,0,0.7v5.5c0,1.1-0.9,2-2,2H74
	c-1.1,0-2-0.9-2-2v-5.5c-0.2-3.4,2.3-6.3,5.7-6.5c0.2,0,0.5,0,0.7,0H79c-1.8-0.7-3.3-1.9-4.6-3.3c-4,1.6-6.6,5.5-6.4,9.8v5.5
	c0,0.7,0.1,1.4,0.3,2H51.7c0.2-0.6,0.3-1.3,0.3-2v-5.5c0.2-4.3-2.4-8.2-6.4-9.8c-1.3,1.4-2.9,2.5-4.6,3.3h0.6
	c3.4-0.2,6.3,2.5,6.4,5.8c0,0.2,0,0.5,0,0.7v5.5c0,1.1-0.9,2-2,2H26c-1.1,0-2-0.9-2-2v-5.5c-0.2-3.4,2.3-6.3,5.7-6.5
	c0.2,0,0.5,0,0.7,0H31c-1.8-0.7-3.3-1.9-4.6-3.3c-4,1.6-6.6,5.5-6.4,9.8v5.5c0,0.7,0.1,1.4,0.4,2h-3.1c-1.1-0.1-2.1,0.6-2.3,1.7
	c-0.1,1.1,0.6,2.1,1.7,2.3c0.2,0,0.3,0,0.5,0h133.4c1.1,0.1,2.1-0.6,2.3-1.7s-0.6-2.1-1.7-2.3C151.1,148,150.9,148,150.7,148z"/>
</svg>
