<?xml version="1.0" encoding="utf-8"?>
<!-- Generator: Adobe Illustrator 24.3.0, SVG Export Plug-In . SVG Version: 6.00 Build 0)  -->
<svg version="1.1" id="Слой_1" xmlns="http://www.w3.org/2000/svg" xmlns:xlink="http://www.w3.org/1999/xlink" x="0px" y="0px"
	 viewBox="0 0 168 168" style="enable-background:new 0 0 168 168;" xml:space="preserve">
<style type="text/css">
	.st0{fill:#FFC813;}
	.st1{fill:#9BD63E;}
</style>
<path class="st0" d="M77,74c14.9,0,27-12.1,27-27S91.9,20,77,20S50,32.1,50,47c0,0,0,0,0,0C50,61.9,62.1,74,77,74z M77,24
	c12.7,0,23,10.3,23,23S89.7,70,77,70c-12.7,0-23-10.3-23-23C54,34.3,64.3,24,77,24z M133.5,97.7c-0.7-0.8-2-0.9-2.8-0.1c0,0,0,0,0,0
	l-14.2,12.8l-7.1-6.6c-0.8-0.8-2.1-0.7-2.8,0.1s-0.7,2.1,0.1,2.8l8.4,7.9c0.8,0.7,1.9,0.7,2.7,0l15.6-14
	C134.2,99.7,134.2,98.5,133.5,97.7z M46.5,93.4c0.8-0.8,0.8-2,0-2.8c-0.8-0.8-2-0.8-2.8,0c-6.2,5.9-9.7,14.1-9.7,22.6v16.7
	c0,4.4,1.6,6.1,6.1,6.1H70c1.1,0,2-0.9,2-2s-0.9-2-2-2H40.1c-0.6,0.1-1.3,0-1.9-0.2c-0.2-0.6-0.3-1.3-0.2-1.9v-16.7
	C38,105.7,41.1,98.6,46.5,93.4z M136,16c1.7,0,3-1.3,3-3s-1.3-3-3-3s-3,1.3-3,3C133,14.7,134.3,16,136,16z M136,11.5
	c0.8,0,1.5,0.7,1.5,1.5s-0.7,1.5-1.5,1.5s-1.5-0.7-1.5-1.5C134.5,12.2,135.2,11.5,136,11.5z M71,8c1.7,0,3-1.3,3-3s-1.3-3-3-3
	s-3,1.3-3,3C68,6.7,69.3,8,71,8z M71,3.5c0.8,0,1.5,0.7,1.5,1.5S71.8,6.5,71,6.5S69.5,5.8,69.5,5C69.5,4.2,70.2,3.5,71,3.5z M152,40
	c-1.1,0-2,0.9-2,2s0.9,2,2,2s2-0.9,2-2C154,40.9,153.1,40,152,40z M152,43c-0.6,0-1-0.4-1-1s0.4-1,1-1s1,0.4,1,1
	C153,42.6,152.6,43,152,43z M126,55c1.1,0,2-0.9,2-2s-0.9-2-2-2s-2,0.9-2,2C124,54.1,124.9,55,126,55z M126,52c0.6,0,1,0.4,1,1
	s-0.4,1-1,1s-1-0.4-1-1C125,52.4,125.4,52,126,52z M36,48c1.1,0,2-0.9,2-2s-0.9-2-2-2s-2,0.9-2,2C34,47.1,34.9,48,36,48z M36,45
	c0.6,0,1,0.4,1,1s-0.4,1-1,1s-1-0.4-1-1C35,45.4,35.4,45,36,45z"/>
<circle class="st1" cx="2" cy="146" r="2"/>
<path class="st1" d="M11,144H8c-1.1,0-2,0.9-2,2s0.9,2,2,2h3c1.1,0,2-0.9,2-2S12.1,144,11,144z M160,144h-3c-1.1,0-2,0.9-2,2
	s0.9,2,2,2h3c1.1,0,2-0.9,2-2S161.1,144,160,144z"/>
<circle class="st1" cx="166" cy="146" r="2"/>
<path class="st1" d="M150.7,144h-18.4c1.1-1.6,1.7-3.5,1.7-5.4v-9.8c6.2-6.5,13.6-18.8,14-40.6c0-0.9-0.7-1.8-1.6-1.9
	c-0.2,0-16.8-2.5-24.9-11.7c-0.4-0.4-0.9-0.6-1.4-0.6c0,0,0,0-0.1,0c-0.5,0-1,0.2-1.4,0.6c-1.4,1.3-2.8,2.6-4.4,3.7
	c-5-3.7-10.7-6.4-16.7-8.1c-1.3,1.1-2.7,2.2-4.1,3.1c6.1,1.4,12,3.9,17.2,7.4c-4.7,2.9-10.1,4.6-15.6,4.8c-0.3,0-0.7,0-1,0
	c0,0-0.1,0-0.1,0c-1,0-1.8,0.8-1.9,1.8c-0.2,7.1,0.7,14.2,2.6,21.1c4,14.9,12.4,25.1,24.3,29.6c0.2,0.1,0.4,0.1,0.7,0.1
	c0.2,0,0.3,0,0.5-0.1c3.6-1.2,7-3,10-5.5v6.1c0,3-2.4,5.4-5.4,5.4H29.4c-3,0-5.4-2.4-5.4-5.4v-22.8c0-12,5.3-23.4,14.3-31.2
	c6.3-5.6,14-9.5,22.2-11.3c-1.5-0.9-2.8-1.9-4.1-3.1C36,76,20,93.5,20,115.8v22.8c0,1.9,0.6,3.8,1.7,5.4h-4.4
	c-1.1-0.1-2.1,0.6-2.3,1.7c-0.1,1.1,0.6,2.1,1.7,2.3c0.2,0,0.3,0,0.5,0h133.4c1.1,0.1,2.1-0.6,2.3-1.7s-0.6-2.1-1.7-2.3
	C151.1,144,150.9,144,150.7,144z M119.6,133.9c-10.2-4.2-17.6-13.4-21.2-26.7c-1.6-5.8-2.4-11.8-2.4-17.8
	c11.2-0.4,20.4-7.4,23.9-10.6c7.6,7.2,19.5,10.2,24,11.1c-0.8,19.5-7.4,30.4-12.9,36.2C127.9,129.6,124,132.2,119.6,133.9z"/>
<circle class="st1" cx="51" cy="87" r="2"/>
<polygon class="st1" points="13.6,69 15.1,67.1 14.1,66.5 13.2,68.7 13.1,68.7 12.2,66.5 11.2,67.1 12.7,69 12.7,69 10.4,68.7 
	10.4,69.8 12.7,69.5 12.7,69.5 11.2,71.4 12.1,72 13.1,69.8 13.2,69.8 14.1,72 15.1,71.4 13.6,69.5 13.6,69.5 15.9,69.8 15.9,68.7 
	13.6,69 "/>
<polygon class="st1" points="18.3,19.8 19.1,18.6 18.6,18.3 18,19.6 18,19.6 17.5,18.3 16.9,18.7 17.8,19.8 17.8,19.8 16.4,19.6 
	16.4,20.2 17.8,20 17.8,20.1 16.9,21.2 17.4,21.5 18,20.2 18,20.2 18.6,21.5 19.1,21.2 18.3,20.1 18.3,20.1 19.6,20.2 19.6,19.6 
	18.3,19.8 "/>
<polygon class="st1" points="163,70.7 163,69.7 160.7,70 160.7,69.9 162.1,68 161.2,67.5 160.3,69.7 160.3,69.7 159.3,67.5 
	158.4,68.1 159.8,69.9 159.8,70 157.6,69.7 157.6,70.7 159.8,70.4 159.8,70.5 158.4,72.3 159.2,72.9 160.2,70.7 160.3,70.7 
	161.2,72.9 162.2,72.3 160.7,70.5 160.7,70.4 "/>
<polygon class="st1" points="107.4,22 107.4,22 109.4,22.2 109.4,21.3 107.4,21.6 107.4,21.6 108.7,19.9 107.9,19.5 107.1,21.3 
	107.1,21.3 106.3,19.5 105.4,20 106.7,21.6 106.7,21.6 104.7,21.3 104.7,22.2 106.7,22 106.7,22 105.4,23.6 106.2,24.1 107.1,22.2 
	107.1,22.2 107.9,24.1 108.7,23.6 "/>
<path class="st1" d="M118.2,153h-8.3c-1.1,0.1-1.9,1.1-1.8,2.2c0.1,1,0.9,1.8,1.8,1.8h8.3c1.1-0.1,1.9-1.1,1.8-2.2
	C119.9,153.9,119.1,153.1,118.2,153z M58.2,153h-8.3c-1.1,0.1-1.9,1.1-1.8,2.2c0.1,1,0.9,1.8,1.8,1.8h8.3c1.1-0.1,1.9-1.1,1.8-2.2
	C59.9,153.9,59.1,153.1,58.2,153z M104,153H64c-1.1,0-2,0.9-2,2s0.9,2,2,2h15.9v2H72c-1.1,0-2,0.9-2,2s0.9,2,2,2h25c1.1,0,2-0.9,2-2
	s-0.9-2-2-2h-8.9v-2H104c1.1,0,2-0.9,2-2S105.1,153,104,153z"/>
</svg>
