<?xml version="1.0" encoding="utf-8"?>
<!-- Generator: Adobe Illustrator 24.3.0, SVG Export Plug-In . SVG Version: 6.00 Build 0)  -->
<svg version="1.1" id="Слой_1" xmlns="http://www.w3.org/2000/svg" xmlns:xlink="http://www.w3.org/1999/xlink" x="0px" y="0px"
	 viewBox="0 0 168 168" style="enable-background:new 0 0 168 168;" xml:space="preserve">
<style type="text/css">
	.st0{fill:#FFC813;}
	.st1{fill:#9BD63E;}
</style>
<path class="st0" d="M84,54.4c1.1,0,2-0.9,2-2v-4c0-1.1-0.9-2-2-2s-2,0.9-2,2v4C82,53.5,82.9,54.4,84,54.4z M120,86.4
	c-1.1,0-2,0.9-2,2s0.9,2,2,2h4c1.1,0,2-0.9,2-2s-0.9-2-2-2H120z"/>
<path class="st0" d="M54.3,58.7c-0.8,0.8-0.8,2,0,2.8c0,0,0,0,0,0l2.8,2.8c0.8,0.8,2,0.8,2.8,0c0.8-0.8,0.8-2,0-2.8l-2.8-2.8
	C56.3,57.9,55.1,57.9,54.3,58.7C54.3,58.7,54.3,58.7,54.3,58.7z M109.5,64.9c0.5,0,1-0.2,1.4-0.6l2.8-2.8c0.8-0.8,0.8-2,0-2.8
	c-0.8-0.8-2-0.8-2.8,0l-2.8,2.8c-0.8,0.8-0.8,2.1,0,2.8C108.4,64.7,108.9,64.9,109.5,64.9z"/>
<path class="st1" d="M36.6,84.7l-1.7-5.5C34.3,82.1,34,85,34,88C34.9,86.8,35.8,85.7,36.6,84.7z"/>
<path class="st0" d="M51,118.6H49c-1.6,0.1-2.9-1.2-3-2.8c0-0.1,0-0.2,0-0.3c0-0.7,0.2-1.5,0.7-2.1c0.6-0.6,1.4-0.9,2.2-0.9h5.8
	c1.1,0,2-0.9,2-2s-0.9-2-2-2h-1.5v-3.3c0-1.1-0.9-2-2-2s-2,0.9-2,2v3.3H49c-2-0.1-3.9,0.7-5.2,2.2c-1.1,1.3-1.8,3-1.7,4.7
	c-0.1,3.8,2.9,6.9,6.7,7c0.1,0,0.2,0,0.3,0H51c1.5-0.1,2.9,1,3,2.5c0,0.1,0,0.3,0,0.4c0,0.8-0.3,1.5-0.8,2.1
	c-0.6,0.6-1.4,0.9-2.2,0.9h-5.8c-1.1,0-2,0.9-2,2s0.9,2,2,2h4v2.8c0,1.1,0.9,2,2,2s2-0.9,2-2v-3.1c1.2-0.4,2.2-1,3-1.9
	c1.1-1.3,1.8-3,1.8-4.8c0.1-3.7-2.8-6.8-6.5-6.9C51.3,118.6,51.2,118.6,51,118.6z"/>
<path class="st1" d="M25.1,99.9c-6.4-32.5,14.8-64.1,47.3-70.4s64.1,14.8,70.4,47.3c1.9,9.4,1.4,19.2-1.3,28.4c1.2,1,2.2,2,3.2,3.2
	c11-33.6-7.3-69.7-40.9-80.7s-69.7,7.3-80.7,40.9C19.3,80.3,19,93,22.2,105C23.1,103.2,24.1,101.5,25.1,99.9z"/>
<path class="st0" d="M132.6,100.1c6.4-26.9-10.1-53.8-37-60.3C73,34.4,49.5,45.3,39.2,66.3c0.7,0,1.3,0.1,1.9,0.4l2,0.8
	C54.7,44.8,82.4,35.9,105,47.5c18.8,9.7,28.6,30.9,23.7,51.5C130.1,99.3,131.4,99.6,132.6,100.1z M79.5,138.2c1.5,0.1,3,0.2,4.5,0.2
	c3.9,0,7.8-0.5,11.6-1.4c-0.4-1.3-0.8-2.6-1.1-3.9c-3.5,0.8-7,1.2-10.6,1.2c-0.9,0-1.8,0-2.8-0.1C80.8,135.7,80.2,136.9,79.5,138.2z
	"/>
<path class="st0" d="M128.2,116c-1-0.5-2.2,0-2.6,1c0,0,0,0,0,0l-8,18c-0.4,1,0,2.2,1,2.6c1,0.4,2.2,0,2.6-1l0,0l8-18
	C129.7,117.6,129.2,116.4,128.2,116C128.2,116,128.2,116,128.2,116z M120,121.4c0-3.3-2.7-6-6-6s-6,2.7-6,6s2.7,6,6,6
	C117.3,127.4,120,124.7,120,121.4z M114,123.4c-1.1,0-2-0.9-2-2s0.9-2,2-2s2,0.9,2,2C116,122.5,115.1,123.4,114,123.4z M132,127.4
	c-3.3,0-6,2.7-6,6s2.7,6,6,6s6-2.7,6-6C138,130.1,135.3,127.4,132,127.4z M132,135.4c-1.1,0-2-0.9-2-2s0.9-2,2-2s2,0.9,2,2
	C134,134.5,133.1,135.4,132,135.4z M84,130.4c1.1,0,2-0.9,2-2v-4c0-1.1-0.9-2-2-2c-0.4,0-0.7,0.1-1,0.3c0.1,2.4,0,4.7-0.5,7
	C82.9,130.2,83.4,130.4,84,130.4z M107.8,99.2c0.5-1,0-2.2-1-2.6L90,88.9c0-0.2,0-0.3,0-0.5c0-2.5-1.6-4.8-4-5.7V67.9
	c0-1.1-0.9-2-2-2s-2,0.9-2,2v14.8c-3.1,1.1-4.8,4.5-3.7,7.6s4.5,4.8,7.6,3.7c0.9-0.3,1.7-0.8,2.3-1.5l16.9,7.7
	C106.2,100.7,107.4,100.2,107.8,99.2C107.8,99.2,107.8,99.2,107.8,99.2z M84,90.4c-1.1,0-2-0.9-2-2s0.9-2,2-2s2,0.9,2,2
	C86,89.5,85.1,90.4,84,90.4z"/>
<circle class="st1" cx="2" cy="150.4" r="2"/>
<path class="st1" d="M11,148.4H8c-1.1,0-2,0.9-2,2s0.9,2,2,2h3c1.1,0,2-0.9,2-2S12.1,148.4,11,148.4z M160,148.4h-3
	c-1.1,0-2,0.9-2,2s0.9,2,2,2h3c1.1,0,2-0.9,2-2S161.1,148.4,160,148.4z"/>
<circle class="st1" cx="166" cy="150.4" r="2"/>
<path class="st1" d="M118.2,156.4h-8.3c-1.1,0.1-1.9,1.1-1.8,2.2c0.1,1,0.9,1.8,1.8,1.8h8.3c1.1-0.1,1.9-1.1,1.8-2.2
	C119.9,157.3,119.1,156.5,118.2,156.4z M58.2,156.4h-8.3c-1.1,0.1-1.9,1.1-1.8,2.2c0.1,1,0.9,1.8,1.8,1.8h8.3
	c1.1-0.1,1.9-1.1,1.8-2.2C59.9,157.3,59.1,156.5,58.2,156.4z M104,156.4H64c-1.1,0-2,0.9-2,2s0.9,2,2,2h15.9v2H72c-1.1,0-2,0.9-2,2
	s0.9,2,2,2h25c1.1,0,2-0.9,2-2s-0.9-2-2-2h-8.9v-2H104c1.1,0,2-0.9,2-2S105.1,156.4,104,156.4z"/>
<path class="st1" d="M150.7,148.4h-14.2c11.6-7.5,15-22.9,7.5-34.6c-7.5-11.6-22.9-15-34.6-7.5s-15,22.9-7.5,34.6
	c1.9,3,4.5,5.5,7.5,7.5h-6.4c-0.8-0.8-1.6-1.6-2.3-2.4c-9.1,2.7-18.7,3.1-28.1,1.3c-0.4,0.4-0.8,0.7-1.2,1.1h-7.1
	C71,144.5,75.8,138.3,78,131c3.6-12.7-3.6-25-10.3-34.3c-1.2-1.6-7.4-9.6-8.7-11.7l3.9-12.4c0.3-1.1-0.3-2.2-1.3-2.5
	c-0.4-0.1-0.9-0.1-1.3,0l-5.9,2.2l-2.2-3.5c-0.4-0.6-1-0.9-1.7-0.9h-1.1c-0.7,0-1.3,0.4-1.7,0.9l-2.2,3.5l-5.9-2.2
	c-1-0.4-2.2,0.1-2.6,1.2c-0.2,0.4-0.2,0.9,0,1.3L41,85.1c-1.3,2-8.2,10.5-9.4,12.3c-6.4,8.8-13.2,20.6-9.5,33.6
	c2.2,7.3,7,13.5,13.6,17.4H17.3c-1.1-0.1-2.1,0.6-2.3,1.7c-0.1,1.1,0.6,2.1,1.7,2.3c0.2,0,0.3,0,0.5,0h133.4
	c1.1,0.1,2.1-0.6,2.3-1.7s-0.6-2.1-1.7-2.3C151.1,148.4,150.9,148.4,150.7,148.4z M45.7,76.6c0.9,0.3,1.9,0,2.4-0.8l1.9-3l1.9,3
	c0.5,0.8,1.5,1.1,2.4,0.8l3.6-1.3l-2.5,8.1H44.6l-2.5-8.1L45.7,76.6z M46,148.1c-9.6-1.8-17.3-8.8-20.1-18.2
	c-3.2-11.4,3-22.1,8.9-30.2c1.2-1.7,7.8-9.9,9.1-11.8h12.3c1.3,2,7.2,9.5,8.3,11.1c6.2,8.6,12.9,19.8,9.7,30.9
	c-2.8,9.2-10.4,16.2-19.8,18.1c-1.4,0.2-2.9,0.4-4.4,0.4C50,148.4,46.5,148.2,46,148.1z M102,127.4c0-11.6,9.4-21,21-21
	s21,9.4,21,21s-9.4,21-21,21l0,0C111.4,148.4,102,139,102,127.4z M60.5,7.6c1.7,0,3-1.3,3-3s-1.3-3-3-3s-3,1.3-3,3
	C57.5,6.2,58.9,7.6,60.5,7.6z M60.5,3.1c0.8,0,1.5,0.7,1.5,1.5s-0.7,1.5-1.5,1.5S59,5.4,59,4.6C59,3.8,59.7,3.1,60.5,3.1z
	 M158.3,69.4c-1.1,0-2,0.9-2,2s0.9,2,2,2s2-0.9,2-2C160.3,70.3,159.4,69.4,158.3,69.4z M158.3,72.4c-0.6,0-1-0.4-1-1s0.4-1,1-1
	s1,0.4,1,1C159.3,72,158.9,72.4,158.3,72.4z M129.4,1.9c-1.1,0-2,0.9-2,2s0.9,2,2,2s2-0.9,2-2C131.4,2.8,130.5,1.9,129.4,1.9z
	 M129.4,4.9c-0.6,0-1-0.4-1-1s0.4-1,1-1s1,0.4,1,1C130.4,4.5,129.9,4.9,129.4,4.9z M144,40.9c-1.1,0-2,0.9-2,2s0.9,2,2,2s2-0.9,2-2
	C146,41.8,145.1,40.9,144,40.9z M144,43.9c-0.6,0-1-0.4-1-1s0.4-1,1-1s1,0.4,1,1C145,43.5,144.6,43.9,144,43.9z M31.4,30.4
	c0-1.1-0.9-2-2-2s-2,0.9-2,2c0,1.1,0.9,2,2,2C30.5,32.4,31.4,31.5,31.4,30.4z M28.4,30.4c0-0.6,0.4-1,1-1s1,0.4,1,1s-0.4,1-1,1
	C28.8,31.4,28.4,31,28.4,30.4z"/>
<polygon class="st1" points="10.9,69.4 12.4,67.5 11.4,66.9 10.5,69.1 10.4,69.1 9.5,67 8.5,67.5 10,69.4 10,69.4 7.7,69.1 
	7.7,70.2 10,69.9 10,69.9 8.5,71.9 9.4,72.4 10.4,70.2 10.5,70.2 11.4,72.4 12.4,71.8 10.9,70 10.9,69.9 13.2,70.2 13.2,69.1 
	10.9,69.5 "/>
<polygon class="st1" points="10.2,8.6 9.4,9.7 9.9,10 10.5,8.7 10.5,8.7 11,10 11.6,9.7 10.7,8.6 10.7,8.6 12.1,8.7 12.1,8.1 
	10.7,8.3 10.7,8.3 11.6,7.1 11,6.8 10.5,8.1 10.5,8.1 9.9,6.8 9.4,7.2 10.2,8.3 10.2,8.3 8.9,8.1 8.9,8.7 10.2,8.5 "/>
<polygon class="st1" points="165.8,18.4 165.8,17.4 163.4,17.7 163.4,17.6 164.9,15.7 164,15.2 163,17.4 163,17.4 162.1,15.2 
	161.1,15.8 162.6,17.6 162.6,17.7 160.3,17.4 160.3,18.4 162.6,18.1 162.6,18.2 161.1,20 162,20.6 163,18.4 163,18.4 163.9,20.6 
	164.9,20 163.4,18.2 163.4,18.1 "/>
<polygon class="st1" points="98.6,17.3 99.8,15.7 99,15.2 98.2,17.1 98.2,17.1 97.4,15.2 96.6,15.7 97.8,17.3 97.8,17.3 95.9,17.1 
	95.9,18 97.8,17.7 97.8,17.8 96.6,19.4 97.3,19.8 98.2,18 98.2,18 99,19.8 99.8,19.4 98.6,17.8 98.6,17.7 100.6,18 100.6,17.1 
	98.6,17.3 "/>
</svg>
