<?xml version="1.0" encoding="utf-8"?>
<!-- Generator: Adobe Illustrator 24.3.0, SVG Export Plug-In . SVG Version: 6.00 Build 0)  -->
<svg version="1.1" id="Слой_1" xmlns="http://www.w3.org/2000/svg" xmlns:xlink="http://www.w3.org/1999/xlink" x="0px" y="0px"
	 viewBox="0 0 168 168" style="enable-background:new 0 0 168 168;" xml:space="preserve">
<style type="text/css">
	.st0{fill:#333333;}
	.st1{fill:#9BD63E;}
</style>
<circle class="st0" cx="2" cy="149.8" r="2"/>
<path class="st0" d="M11,147.8H8c-1.1,0-2,0.9-2,2s0.9,2,2,2h3c1.1,0,2-0.9,2-2S12.1,147.8,11,147.8z M160,147.8h-3
	c-1.1,0-2,0.9-2,2s0.9,2,2,2h3c1.1,0,2-0.9,2-2S161.1,147.8,160,147.8z"/>
<circle class="st0" cx="166" cy="149.8" r="2"/>
<path class="st1" d="M118.2,155.8h-8.3c-1.1,0.1-1.9,1.1-1.8,2.2c0.1,1,0.9,1.8,1.8,1.8h8.3c1.1-0.1,1.9-1.1,1.8-2.2
	C119.9,156.6,119.1,155.9,118.2,155.8z M58.2,155.8h-8.3c-1.1,0.1-1.9,1.1-1.8,2.2c0.1,1,0.9,1.8,1.8,1.8h8.3
	c1.1-0.1,1.9-1.1,1.8-2.2C59.9,156.6,59.1,155.9,58.2,155.8z M104,155.8H64c-1.1,0-2,0.9-2,2s0.9,2,2,2h15.9v2H72c-1.1,0-2,0.9-2,2
	s0.9,2,2,2h25c1.1,0,2-0.9,2-2s-0.9-2-2-2h-8.9v-2H104c1.1,0,2-0.9,2-2S105.1,155.8,104,155.8z M36,113.8V97L24.1,48.7
	c-0.6-2.6,1-5.3,3.6-6c0,0,0,0,0,0l8.2-2v-4.1l-9.2,2.2c-4.8,1.2-7.7,6-6.6,10.8c0,0,0,0,0,0L36,113.8z M55.8,81.8c0,1.1,0.9,2,2,2
	h54c1.1,0,2-0.9,2-2s-0.9-2-2-2h-54C56.7,79.8,55.8,80.7,55.8,81.8z"/>
<path class="st0" d="M57.8,93.8h54c1.1,0,2-0.9,2-2s-0.9-2-2-2h-54c-1.1,0-2,0.9-2,2S56.7,93.8,57.8,93.8z M76.7,64.3l-3.4,5.4
	c-0.6,0.9-0.3,2.2,0.6,2.8s2.2,0.3,2.8-0.6c0,0,0-0.1,0-0.1l4.5-7.3c-0.6,0.1-1.2,0.2-1.9,0.2C78.4,64.8,77.5,64.6,76.7,64.3
	L76.7,64.3z M86.8,64.6l4.5,7.3c0.6,1,1.8,1.3,2.7,0.7c1-0.6,1.3-1.8,0.7-2.7c0,0,0-0.1,0-0.1l-3.4-5.4
	C89.9,64.8,88.3,64.9,86.8,64.6L86.8,64.6z"/>
<path class="st0" d="M97,48.8c0-2-1.6-3.3-2.7-4.3c-0.4-0.3-0.8-0.7-1.1-1.1c-0.2-0.5-0.3-1.1-0.4-1.7c-0.2-1.5-0.5-3.5-2.2-4.5
	c-1.7-1-3.5-0.3-4.9,0.3c-0.5,0.2-1.1,0.4-1.6,0.5c-0.6-0.1-1.1-0.3-1.6-0.5c-1.3-0.5-3.2-1.3-4.9-0.3c-1.7,1-2,2.9-2.2,4.5
	c-0.1,0.6-0.2,1.1-0.4,1.7c-0.3,0.4-0.7,0.8-1.1,1.1c-1.2,0.9-2.7,2.2-2.7,4.3s1.6,3.3,2.7,4.3c0.4,0.3,0.8,0.7,1.1,1.1
	c0.2,0.5,0.3,1.1,0.4,1.7c0.2,1.5,0.5,3.5,2.2,4.5c0.6,0.3,1.2,0.5,1.9,0.5c1-0.1,2.1-0.3,3-0.8c0.5-0.2,1.1-0.4,1.6-0.5
	c0.6,0.1,1.1,0.3,1.6,0.5c1.4,0.5,3.2,1.3,4.9,0.3c1.7-1,2-2.9,2.2-4.5c0.1-0.6,0.2-1.1,0.4-1.7c0.3-0.4,0.7-0.8,1.1-1.1
	C95.4,52.1,97,50.8,97,48.8L97,48.8z M91.7,50c-0.8,0.6-1.5,1.3-2.1,2.2c-0.5,0.9-0.7,2-0.8,3c-0.1,0.5-0.2,1.1-0.3,1.6
	c-0.5-0.1-0.9-0.3-1.4-0.5c-1-0.4-2-0.7-3.1-0.8c-1.1,0.1-2.1,0.3-3.1,0.8c-0.4,0.2-0.9,0.3-1.4,0.5c-0.2-0.5-0.3-1-0.3-1.6
	c-0.1-1-0.4-2.1-0.8-3c-0.6-0.9-1.3-1.6-2.1-2.2c-0.5-0.3-0.9-0.7-1.2-1.2c0.4-0.4,0.8-0.8,1.2-1.2c0.8-0.6,1.5-1.3,2.1-2.2
	c0.5-0.9,0.7-2,0.8-3c0.1-0.5,0.2-1.1,0.3-1.6c0.5,0.1,0.9,0.3,1.4,0.5c1,0.4,2,0.7,3.1,0.8c1.1-0.1,2.1-0.3,3.1-0.8
	c0.4-0.2,0.9-0.3,1.4-0.5c0.2,0.5,0.3,1,0.3,1.6c0.1,1,0.4,2.1,0.8,3c0.6,0.9,1.3,1.6,2.1,2.2c0.5,0.3,0.9,0.7,1.2,1.2
	C92.6,49.2,92.2,49.6,91.7,50L91.7,50z"/>
<circle class="st0" cx="84" cy="48.8" r="2"/>
<path class="st0" d="M57.8,123.8H105c-0.4-1.3-0.7-2.6-0.8-4H57.8c-1.1,0-2,0.9-2,2S56.7,123.8,57.8,123.8z"/>
<path class="st0" d="M57.8,113.8h46.4c0.2-1.4,0.5-2.7,0.8-4H57.8c-1.1,0-2,0.9-2,2S56.7,113.8,57.8,113.8z M108,116.8
	c0,11,9,20,20,20s20-9,20-20s-9-20-20-20C117,96.8,108,105.7,108,116.8z M144,116.8c0,8.8-7.2,16-16,16s-16-7.2-16-16s7.2-16,16-16
	C136.8,100.8,144,107.9,144,116.8z M57.8,133.8h53.3c-1.2-1.2-2.3-2.6-3.2-4h-50c-1.1,0-2,0.9-2,2S56.7,133.8,57.8,133.8z"/>
<path class="st1" d="M57.8,103.8h50.1c0.9-1.4,2-2.8,3.2-4H57.8c-1.1,0-2,0.9-2,2S56.7,103.8,57.8,103.8z M122.1,117
	c-0.9-0.6-2.2-0.4-2.8,0.6c-0.6,0.9-0.4,2.1,0.5,2.7l4.5,3.1c0.8,0.6,1.9,0.4,2.6-0.3l9.5-10c0.8-0.8,0.8-2.1,0-2.8s-2.1-0.8-2.8,0
	c0,0,0,0,0,0.1l-8.3,8.8L122.1,117z"/>
<path class="st0" d="M150.7,147.8h-24.2c1-1.5,1.5-3.2,1.5-5v-2c-1.3,0-2.7-0.1-4-0.3v2.3c0,2.8-2.2,5-5,5H49c-2.8,0-5-2.2-5-5v-110
	c0-2.8,2.2-5,5-5h70c2.8,0,5,2.2,5,5v60.3c1.3-0.2,2.7-0.3,4-0.3v-60c0-5-4-9-9-9H49c-5,0-9,4-9,9v110c0,1.8,0.5,3.5,1.5,5H17.3
	c-1.1-0.1-2.1,0.6-2.3,1.7c-0.1,1.1,0.6,2.1,1.7,2.3c0.2,0,0.3,0,0.5,0h133.4c1.1,0.1,2.1-0.6,2.3-1.7s-0.6-2.1-1.7-2.3
	C151.1,147.8,150.9,147.8,150.7,147.8L150.7,147.8z M140,53.8c1.7,0,3-1.3,3-3s-1.3-3-3-3s-3,1.3-3,3C137,52.4,138.3,53.8,140,53.8z
	 M140,49.3c0.8,0,1.5,0.7,1.5,1.5s-0.7,1.5-1.5,1.5s-1.5-0.7-1.5-1.5C138.5,49.9,139.2,49.3,140,49.3z M73,13.3c-1.1,0-2,0.9-2,2
	s0.9,2,2,2s2-0.9,2-2C75,14.2,74.1,13.3,73,13.3z M73,16.3c-0.6,0-1-0.4-1-1s0.4-1,1-1s1,0.4,1,1C74,15.8,73.6,16.3,73,16.3z
	 M6.7,3.5c-1.1,0-2,0.9-2,2s0.9,2,2,2s2-0.9,2-2l0,0C8.7,4.4,7.8,3.5,6.7,3.5z M6.7,6.5c-0.6,0-1-0.4-1-1s0.4-1,1-1s1,0.4,1,1
	C7.7,6,7.3,6.5,6.7,6.5z M162,27.3c-1.1,0-2,0.9-2,2s0.9,2,2,2s2-0.9,2-2C164,28.2,163.1,27.3,162,27.3z M162,30.3c-0.6,0-1-0.4-1-1
	s0.4-1,1-1s1,0.4,1,1C163,29.8,162.6,30.3,162,30.3z M8.7,60.8c0-1.1-0.9-2-2-2s-2,0.9-2,2s0.9,2,2,2C7.8,62.8,8.7,61.9,8.7,60.8z
	 M5.7,60.8c0-0.6,0.4-1,1-1s1,0.4,1,1s-0.4,1-1,1C6.2,61.8,5.7,61.3,5.7,60.8z"/>
<path class="st0" d="M28.4,26.3l1.5-2L29,23.8L28,26h0l-1-2.2l-1,0.5l1.5,1.9v0L25.2,26v1.1l2.3-0.3v0l-1.5,1.9l0.9,0.6l1-2.2h0
	l0.9,2.2l1-0.6l-1.5-1.9v0l2.4,0.3V26L28.4,26.3L28.4,26.3z M46.1,4l-0.9,1.1l0.5,0.3l0.6-1.3h0l0.5,1.3L47.5,5L46.6,4v0L48,4.1V3.5
	l-1.4,0.2v0l0.9-1.1L47,2.2l-0.5,1.3h0l-0.6-1.3l-0.5,0.3l0.8,1.1v0l-1.3-0.2v0.6L46.1,4C46.1,3.9,46.1,4,46.1,4z M145.7,7V6
	l-2.3,0.3v0l1.5-1.9l-0.9-0.5L143,5.9h0L142,3.8l-0.9,0.5l1.4,1.9v0L140.3,6v1l2.3-0.3v0l-1.5,1.9l0.9,0.6l1-2.2h0l0.9,2.1l1-0.6
	l-1.5-1.8v0L145.7,7z M110.7,13l1.3-1.7l-0.8-0.4l-0.8,1.9h0l-0.8-1.8l-0.8,0.5l1.2,1.6v0l-1.9-0.3v0.9l2-0.3v0l-1.3,1.6l0.8,0.5
	l0.9-1.9h0l0.8,1.9l0.8-0.5l-1.3-1.6v0l2,0.2v-0.9L110.7,13C110.7,13.1,110.7,13,110.7,13z"/>
</svg>
