<?xml version="1.0" encoding="utf-8"?>
<!-- Generator: Adobe Illustrator 24.3.0, SVG Export Plug-In . SVG Version: 6.00 Build 0)  -->
<svg version="1.1" id="Слой_1" xmlns="http://www.w3.org/2000/svg" xmlns:xlink="http://www.w3.org/1999/xlink" x="0px" y="0px"
	 viewBox="0 0 168 168" style="enable-background:new 0 0 168 168;" xml:space="preserve">
<style type="text/css">
	.st0{fill:#FFC813;}
	.st1{fill:#9BD63E;}
</style>
<circle class="st0" cx="2" cy="144.8" r="2"/>
<path class="st0" d="M11,142.8H8c-1.1,0-2,0.9-2,2s0.9,2,2,2h3c1.1,0,2-0.9,2-2S12.1,142.8,11,142.8z"/>
<path class="st1" d="M118.2,150.8h-8.3c-1.1,0.1-1.9,1.1-1.8,2.2c0.1,1,0.9,1.8,1.8,1.8h8.3c1.1-0.1,1.9-1.1,1.8-2.2
	C119.9,151.7,119.1,150.9,118.2,150.8z M58.2,150.8h-8.3c-1.1,0.1-1.9,1.1-1.8,2.2c0.1,1,0.9,1.8,1.8,1.8h8.3
	c1.1-0.1,1.9-1.1,1.8-2.2C59.9,151.7,59.1,150.9,58.2,150.8z M104,150.8H64c-1.1,0-2,0.9-2,2s0.9,2,2,2h15.9v2H72c-1.1,0-2,0.9-2,2
	s0.9,2,2,2h25c1.1,0,2-0.9,2-2s-0.9-2-2-2h-8.9v-2H104c1.1,0,2-0.9,2-2S105.1,150.8,104,150.8z M81.1,108.2c0.4,2.2-0.3,4.5-1.8,6.1
	l-16.6,16.6c-2.6,2.6-6.9,2.6-9.5,0l-3.2-3.2c-2.6-2.6-2.6-6.9,0-9.5c0,0,0,0,0,0l16.6-16.6c1.6-1.6,3.9-2.3,6.1-1.8l3.2-3.2
	c-4.1-1.9-8.9-1-12.1,2.2l-16.6,16.6c-4.2,4.2-4.2,11,0,15.2l3.2,3.2c4.2,4.2,11,4.2,15.2,0l16.6-16.6c3.2-3.2,4-8,2.2-12.1
	L81.1,108.2z M120.9,63.1l-3.2-3.2c-4.2-4.2-11-4.2-15.2,0c0,0,0,0,0,0L85.9,76.5c-3.2,3.2-4,8-2.2,12.1l3.1-3.1
	c-0.4-2.2,0.3-4.5,1.8-6.1l16.6-16.6c2.6-2.6,6.9-2.6,9.5,0c0,0,0,0,0,0l3.2,3.2c2.6,2.6,2.6,6.9,0,9.5c0,0,0,0,0,0l-16.6,16.6
	c-1.6,1.6-3.9,2.3-6.1,1.8l-3.2,3.2c4.1,1.9,8.9,1,12.1-2.2l16.6-16.6C125.2,74.1,125.2,67.3,120.9,63.1
	C121,63.1,121,63.1,120.9,63.1z"/>
<path class="st0" d="M69.9,111c0.8,0.8,2,0.8,2.8,0c0,0,0,0,0,0l25.5-25.5c0.8-0.8,0.8-2,0-2.8c-0.8-0.8-2-0.8-2.8,0l-25.5,25.5
	C69.1,108.9,69.1,110.2,69.9,111C69.9,111,69.9,111,69.9,111z M160,142.8h-3c-1.1,0-2,0.9-2,2s0.9,2,2,2h3c1.1,0,2-0.9,2-2
	S161.1,142.8,160,142.8z"/>
<circle class="st0" cx="166" cy="144.8" r="2"/>
<path class="st0" d="M150.7,142.8h-20.9c2.7-2.6,4.2-6.2,4.2-10v-72c0-7.7-6.3-14-14-14H48c-7.7,0-14,6.3-14,14v72
	c0,3.8,1.5,7.4,4.2,10H17.3c-1.1-0.1-2.1,0.6-2.3,1.7c-0.1,1.1,0.6,2.1,1.7,2.3c0.2,0,0.3,0,0.5,0h133.4c1.1,0.1,2.1-0.6,2.3-1.7
	s-0.6-2.1-1.7-2.3C151.1,142.8,150.9,142.8,150.7,142.8z M48,142.8c-5.5,0-10-4.5-10-10v-72c0-5.5,4.5-10,10-10h72
	c5.5,0,10,4.5,10,10v72c0,5.5-4.5,10-10,10H48z M7.3,32.8c1.7,0,3-1.3,3-3s-1.3-3-3-3s-3,1.3-3,3C4.3,31.5,5.6,32.8,7.3,32.8z
	 M7.3,28.3c0.8,0,1.5,0.7,1.5,1.5s-0.7,1.5-1.5,1.5s-1.5-0.7-1.5-1.5l0,0C5.8,29,6.5,28.3,7.3,28.3z M159.3,41.8c-1.1,0-2,0.9-2,2
	s0.9,2,2,2s2-0.9,2-2C161.3,42.7,160.4,41.8,159.3,41.8z M159.3,44.8c-0.6,0-1-0.4-1-1s0.4-1,1-1s1,0.4,1,1
	C160.3,44.4,159.9,44.8,159.3,44.8z M90.3,30.8c-1.1,0-2,0.9-2,2c0,1.1,0.9,2,2,2s2-0.9,2-2C92.3,31.7,91.4,30.8,90.3,30.8z
	 M90.3,33.8c-0.6,0-1-0.4-1-1s0.4-1,1-1s1,0.4,1,1C91.3,33.4,90.9,33.8,90.3,33.8z M158.3,12.8c-1.1,0-2,0.9-2,2s0.9,2,2,2
	s2-0.9,2-2C160.3,13.7,159.4,12.8,158.3,12.8z M158.3,15.8c-0.6,0-1-0.4-1-1s0.4-1,1-1s1,0.4,1,1C159.3,15.4,158.9,15.8,158.3,15.8z
	 M21.3,71.8c0-1.1-0.9-2-2-2s-2,0.9-2,2s0.9,2,2,2C20.4,73.8,21.3,72.9,21.3,71.8z M18.3,71.8c0-0.6,0.4-1,1-1s1,0.4,1,1s-0.4,1-1,1
	C18.8,72.8,18.3,72.4,18.3,71.8z"/>
<polygon class="st0" points="43.9,36.8 45.4,34.9 44.4,34.4 43.5,36.5 43.5,36.5 42.5,34.4 41.5,34.9 43,36.8 43,36.9 40.7,36.6 
	40.7,37.6 43,37.3 43,37.4 41.5,39.3 42.4,39.8 43.4,37.6 43.5,37.6 44.4,39.8 45.4,39.3 43.9,37.4 43.9,37.3 46.2,37.6 46.2,36.6 
	43.9,36.9 "/>
<polygon class="st0" points="64.1,8.9 63.2,10 63.7,10.3 64.3,9.1 64.3,9.1 64.9,10.3 65.5,10 64.6,8.9 64.6,8.9 65.9,9.1 65.9,8.4 
	64.6,8.6 64.6,8.6 65.4,7.5 64.9,7.2 64.4,8.4 64.3,8.4 63.8,7.2 63.2,7.5 64.1,8.6 64.1,8.6 62.7,8.4 62.7,9.1 64.1,8.9 "/>
<polygon class="st0" points="145.3,68.5 145.3,67.5 143,67.8 143,67.8 144.4,65.9 143.5,65.3 142.6,67.5 142.6,67.5 141.6,65.4 
	140.7,65.9 142.1,67.8 142.1,67.8 139.9,67.5 139.9,68.5 142.1,68.3 142.1,68.3 140.7,70.2 141.5,70.7 142.5,68.5 142.6,68.5 
	143.5,70.7 144.5,70.1 143,68.3 143,68.3 "/>
<polygon class="st0" points="124.7,17.4 126,15.8 125.2,15.3 124.4,17.2 124.4,17.2 123.6,15.3 122.7,15.8 124,17.4 124,17.4 
	122,17.2 122,18.1 124,17.8 124,17.9 122.7,19.5 123.5,19.9 124.4,18.1 124.4,18.1 125.2,19.9 126,19.5 124.7,17.9 124.7,17.8 
	126.7,18.1 126.7,17.2 124.7,17.4 "/>
</svg>
