<svg xmlns="http://www.w3.org/2000/svg" data-name="Layer 1" viewBox="0 0 168 168"><circle cx="2" cy="144.832" r="2" fill="#2d4356"/><path fill="#2d4356" d="M11,142.8317H8a2,2,0,0,0,0,4h3a2,2,0,0,0,0-4Z"/><path fill="#0bceb2" d="M118.15387 150.8317h-8.30774a2.00641 2.00641 0 0 0 0 4h8.30774a2.00641 2.00641 0 0 0 0-4zM58.15387 150.8317H49.84613a2.00641 2.00641 0 0 0 0 4h8.30774a2.00641 2.00641 0 0 0 0-4zM104 150.8317H64a2 2 0 0 0 0 4H79.94v2H72a2 2 0 0 0 0 4H97a2 2 0 0 0 0-4H88.06v-2H104a2 2 0 0 0 0-4zM81.07379 108.24289a6.74213 6.74213 0 0 1-1.84674 6.08966L62.61 130.94962a6.75012 6.75012 0 0 1-9.546 0l-3.18195-3.182a6.75 6.75 0 0 1 0-9.546l16.617-16.617a6.74448 6.74448 0 0 1 6.08942-1.8468l3.15112-3.151a10.7263 10.7263 0 0 0-12.069 2.16943L47.05371 115.39322a10.76213 10.76213 0 0 0 0 15.20282l3.18195 3.182a10.75013 10.75013 0 0 0 15.20282 0l16.617-16.61707a10.758 10.758 0 0 0 2.16486-12.06458zM120.94635 63.06735l-3.182-3.182a10.74991 10.74991 0 0 0-15.20276 0l-16.617 16.617A10.75789 10.75789 0 0 0 83.77966 88.567l3.14661-3.14655A6.74241 6.74241 0 0 1 88.773 79.33078l16.617-16.617a6.7499 6.7499 0 0 1 9.5459 0l3.182 3.182a6.74993 6.74993 0 0 1 0 9.5459l-16.617 16.617a6.74448 6.74448 0 0 1-6.08948 1.84686l-3.15106 3.151a10.72621 10.72621 0 0 0 12.069-2.16943l16.617-16.617A10.76216 10.76216 0 0 0 120.94635 63.06735z"/><path fill="#2d4356" d="M69.8584 110.97379a1.99927 1.99927 0 0 0 2.82813 0L98.1416 85.51773a1.99979 1.99979 0 0 0-2.82812-2.82812L69.8584 108.14566A1.99927 1.99927 0 0 0 69.8584 110.97379zM160 142.8317h-3a2 2 0 0 0 0 4h3a2 2 0 0 0 0-4z"/><circle cx="166" cy="144.832" r="2" fill="#2d4356"/><path fill="#2d4356" d="M150.72131 142.8317H129.77924a13.95191 13.95191 0 0 0 4.22076-10v-72a14.01581 14.01581 0 0 0-14-14H48a14.01584 14.01584 0 0 0-14 14v72a13.952 13.952 0 0 0 4.22083 10H17.27869a2.017 2.017 0 1 0 0 4H150.72131a2.017 2.017 0 1 0 0-4zM48 142.8317a10 10 0 0 1-10-10v-72a10 10 0 0 1 10-10h72a10 10 0 0 1 10 10v72a10 10 0 0 1-10 10zM7.30471 32.8317a3 3 0 1 0-3-3A3.00344 3.00344 0 0 0 7.30471 32.8317zm0-4.5a1.5 1.5 0 1 1-1.5 1.5A1.50148 1.50148 0 0 1 7.30471 28.3317zM159.30471 41.8317a2 2 0 1 0 2 2A2.00229 2.00229 0 0 0 159.30471 41.8317zm0 3a1 1 0 1 1 1-1A1.001 1.001 0 0 1 159.30471 44.8317zM90.30471 30.8317a2 2 0 1 0 2 2A2.00229 2.00229 0 0 0 90.30471 30.8317zm0 3a1 1 0 1 1 1-1A1.001 1.001 0 0 1 90.30471 33.8317zM158.30471 12.8317a2 2 0 1 0 2 2A2.00229 2.00229 0 0 0 158.30471 12.8317zm0 3a1 1 0 1 1 1-1A1.001 1.001 0 0 1 158.30471 15.8317zM21.30471 71.8317a2 2 0 1 0-2 2A2.00229 2.00229 0 0 0 21.30471 71.8317zm-3 0a1 1 0 1 1 1 1A1.001 1.001 0 0 1 18.30471 71.8317z"/><polygon fill="#0bceb2" points="43.888 36.843 45.375 34.887 44.436 34.356 43.481 36.546 43.45 36.546 42.48 34.371 41.525 34.919 42.996 36.828 42.996 36.859 40.695 36.561 40.695 37.625 43.011 37.328 43.011 37.36 41.525 39.268 42.416 39.832 43.434 37.625 43.465 37.625 44.404 39.816 45.39 39.253 43.888 37.375 43.888 37.344 46.25 37.625 46.25 36.561 43.888 36.874 43.888 36.843"/><polygon fill="#0bceb2" points="64.081 8.898 63.225 9.997 63.739 10.322 64.325 9.051 64.342 9.051 64.883 10.313 65.451 9.988 64.586 8.907 64.586 8.889 65.946 9.051 65.946 8.439 64.586 8.619 64.586 8.601 65.442 7.475 64.902 7.168 64.352 8.429 64.334 8.429 63.775 7.177 63.225 7.493 64.072 8.592 64.072 8.61 62.747 8.439 62.747 9.051 64.081 8.88 64.081 8.898"/><polygon fill="#0bceb2" points="145.305 68.545 145.305 67.502 142.988 67.808 142.988 67.778 144.446 65.86 143.525 65.338 142.589 67.486 142.558 67.486 141.607 65.353 140.67 65.89 142.113 67.763 142.113 67.793 139.856 67.502 139.856 68.545 142.128 68.254 142.128 68.285 140.67 70.156 141.545 70.709 142.543 68.545 142.573 68.545 143.494 70.694 144.461 70.141 142.988 68.3 142.988 68.269 145.305 68.545"/><polygon fill="#0bceb2" points="124.748 17.417 126.006 15.763 125.211 15.313 124.404 17.166 124.377 17.166 123.557 15.326 122.748 15.789 123.993 17.405 123.993 17.431 122.047 17.179 122.047 18.079 124.006 17.828 124.006 17.855 122.748 19.469 123.503 19.946 124.364 18.079 124.39 18.079 125.185 19.933 126.019 19.456 124.748 17.868 124.748 17.841 126.746 18.079 126.746 17.179 124.748 17.444 124.748 17.417"/></svg>