<?xml version="1.0" encoding="utf-8"?>
<!-- Generator: Adobe Illustrator 24.3.0, SVG Export Plug-In . SVG Version: 6.00 Build 0)  -->
<svg version="1.1" id="Слой_1" xmlns="http://www.w3.org/2000/svg" xmlns:xlink="http://www.w3.org/1999/xlink" x="0px" y="0px"
	 viewBox="0 0 168 168" style="enable-background:new 0 0 168 168;" xml:space="preserve">
<style type="text/css">
	.st0{fill:#9BD63E;}
	.st1{fill:#FFC813;}
</style>
<path class="st0" d="M85.3,134h-15v-29.5c0-1.1-0.9-2-2-2s-2,0.9-2,2V136c0,1.1,0.9,2,2,2h17c1.1,0,2-0.9,2-2S86.4,134,85.3,134z
	 M68.3,60c1.1,0,2-0.9,2-2V34h3c1.1,0,2-0.9,2-2c0-1.1-0.9-2-2-2h-5c-1.1,0-2,0.9-2,2v26C66.3,59.1,67.2,60,68.3,60z M155,17
	c1.7,0,3-1.3,3-3s-1.3-3-3-3s-3,1.3-3,3C152,15.7,153.3,17,155,17z M155,12.5c0.8,0,1.5,0.7,1.5,1.5s-0.7,1.5-1.5,1.5
	s-1.5-0.7-1.5-1.5C153.5,13.2,154.2,12.5,155,12.5z M68,8c1.7,0,3-1.3,3-3s-1.3-3-3-3s-3,1.3-3,3C65,6.7,66.3,8,68,8z M68,3.5
	c0.8,0,1.5,0.7,1.5,1.5S68.8,6.5,68,6.5S66.5,5.8,66.5,5C66.5,4.2,67.2,3.5,68,3.5z M143,62c1.1,0,2-0.9,2-2s-0.9-2-2-2s-2,0.9-2,2
	C141,61.1,141.9,62,143,62z M143,59c0.6,0,1,0.4,1,1s-0.4,1-1,1s-1-0.4-1-1C142,59.4,142.4,59,143,59z M113,95c1.1,0,2-0.9,2-2
	s-0.9-2-2-2s-2,0.9-2,2C111,94.1,111.9,95,113,95z M113,92c0.6,0,1,0.4,1,1s-0.4,1-1,1s-1-0.4-1-1C112,92.4,112.4,92,113,92z M17,28
	c0-1.1-0.9-2-2-2s-2,0.9-2,2s0.9,2,2,2C16.1,30,17,29.1,17,28z M14,28c0-0.6,0.4-1,1-1s1,0.4,1,1s-0.4,1-1,1C14.4,29,14,28.6,14,28z
	"/>
<circle class="st1" cx="2" cy="146" r="2"/>
<path class="st1" d="M11,144H8c-1.1,0-2,0.9-2,2s0.9,2,2,2h3c1.1,0,2-0.9,2-2S12.1,144,11,144z M160,144h-3c-1.1,0-2,0.9-2,2
	s0.9,2,2,2h3c1.1,0,2-0.9,2-2S161.1,144,160,144z"/>
<circle class="st1" cx="166" cy="146" r="2"/>
<path class="st1" d="M150.7,144h-24.8c0.9-1.1,1.6-2.4,1.9-3.8l2.3-8.4c1-3.2-0.8-6.6-4-7.5c-0.7-0.2-1.4-0.3-2.2-0.3H85.3V90.1
	l12.4-3.2c4.3-1.1,6.8-5.5,5.7-9.8l-1-9c-0.9-3.5-4-6-7.6-6c-0.6,0-1.3,0.1-1.9,0.2l-7.5,2V28c0-4.4-4.6-8-9-8h-12c-4.4,0-8,3.6-8,8
	v44.3l-12.7,3.3c-4.3,1.1-6.8,5.5-5.7,9.8l1,9c0.9,3.5,4.1,6,7.7,6c0.7,0,1.3-0.1,2-0.3l7.7-2V140c0,1.4,0.4,2.8,1.1,4H17.3
	c-1.1-0.1-2.1,0.6-2.3,1.7c-0.1,1.1,0.6,2.1,1.7,2.3c0.2,0,0.3,0,0.5,0h133.4c1.1,0.1,2.1-0.6,2.3-1.7s-0.6-2.1-1.7-2.3
	C151.1,144,150.9,144,150.7,144z M64.3,144c-2.2,0-4-1.8-4-4V93l-12.7,3.3c-0.3,0.1-0.6,0.1-1,0.1c-1.7,0-3.3-1.1-3.8-2.8l-1.1-9.2
	c-0.6-2.1,0.7-4.3,2.9-4.9l15.7-4.1V28c0-2.2,1.8-4,4-4h12c2.4,0,5,2.1,5,4v41.4l12.5-3.2c0.3-0.1,0.6-0.1,0.9-0.1
	c1.7,0,3.2,1.2,3.7,2.8l1.1,9.2c0.6,2.1-0.7,4.3-2.9,4.9l-15.4,4v41H124c0.7-0.1,1.5,0.2,2,0.8c0.4,0.6,0.5,1.4,0.3,2l-2.3,8.4
	l0,0.1l0,0.1c-0.8,2.7-3.2,4.5-6,4.7L64.3,144z"/>
<circle class="st0" cx="68.3" cy="66" r="2"/>
<circle class="st0" cx="94.3" cy="136.1" r="2"/>
<polygon class="st1" points="10.6,69 12.1,67.1 11.1,66.5 10.2,68.7 10.1,68.7 9.2,66.5 8.2,67.1 9.7,69 9.7,69 7.4,68.7 7.4,69.8 
	9.7,69.5 9.7,69.5 8.2,71.4 9.1,72 10.1,69.8 10.2,69.8 11.1,72 12.1,71.4 10.6,69.5 10.6,69.5 12.9,69.8 12.9,68.7 10.6,69 "/>
<polygon class="st1" points="51.8,34.1 50.9,35.2 51.4,35.5 52,34.2 52,34.2 52.6,35.5 53.1,35.2 52.3,34.1 52.3,34.1 53.6,34.2 
	53.6,33.6 52.3,33.8 52.3,33.8 53.1,32.6 52.6,32.3 52,33.6 52,33.6 51.5,32.3 50.9,32.7 51.8,33.8 51.8,33.8 50.4,33.6 50.4,34.2 
	51.8,34 "/>
<polygon class="st1" points="104.7,14.9 106.1,13 105.2,12.5 104.3,14.7 104.3,14.7 103.3,12.5 102.4,13.1 103.8,14.9 103.8,15 
	101.6,14.7 101.6,15.7 103.8,15.4 103.8,15.5 102.4,17.3 103.2,17.9 104.2,15.7 104.3,15.7 105.2,17.9 106.2,17.3 104.7,15.5 
	104.7,15.4 107,15.7 107,14.7 104.7,15 "/>
<polygon class="st1" points="100.7,44 99.4,45.6 100.2,46.1 101.1,44.2 101.1,44.2 101.9,46.1 102.7,45.6 101.4,44 101.4,44 
	103.4,44.2 103.4,43.3 101.4,43.6 101.4,43.6 102.7,41.9 101.9,41.5 101.1,43.3 101.1,43.3 100.3,41.5 99.4,42 100.7,43.6 
	100.7,43.6 98.7,43.3 98.7,44.2 100.7,44 "/>
<path class="st0" d="M118.2,153h-8.3c-1.1,0.1-1.9,1.1-1.8,2.2c0.1,1,0.9,1.8,1.8,1.8h8.3c1.1-0.1,1.9-1.1,1.8-2.2
	C119.9,153.9,119.1,153.1,118.2,153z M58.2,153h-8.3c-1.1,0.1-1.9,1.1-1.8,2.2c0.1,1,0.9,1.8,1.8,1.8h8.3c1.1-0.1,1.9-1.1,1.8-2.2
	C59.9,153.9,59.1,153.1,58.2,153z M104,153H64c-1.1,0-2,0.9-2,2s0.9,2,2,2h15.9v2H72c-1.1,0-2,0.9-2,2s0.9,2,2,2h25c1.1,0,2-0.9,2-2
	s-0.9-2-2-2h-8.9v-2H104c1.1,0,2-0.9,2-2S105.1,153,104,153z"/>
</svg>
