<?xml version="1.0" encoding="utf-8"?>
<!-- Generator: Adobe Illustrator 24.3.0, SVG Export Plug-In . SVG Version: 6.00 Build 0)  -->
<svg version="1.1" id="Слой_1" xmlns="http://www.w3.org/2000/svg" xmlns:xlink="http://www.w3.org/1999/xlink" x="0px" y="0px"
	 viewBox="0 0 168 168" style="enable-background:new 0 0 168 168;" xml:space="preserve">
<style type="text/css">
	.st0{fill:#FFC813;}
	.st1{fill:#9BD63E;}
</style>
<path class="st0" d="M25.5,110.1h21.2v-46c-0.1-0.7,0.1-1.5,0.4-2.2c0.2,0,0.9,0.3,1.8,1.2l32.3,32.9c1.5,1.6,4,1.6,5.6,0.1
	c0,0,0,0,0.1-0.1l32.3-32.9c0.5-0.6,1.1-1,1.8-1.3c0.4,0.7,0.5,1.4,0.5,2.2v46h21.2l0.5-1.2c13.7-32.6-1.6-70.1-34.1-83.8
	S38.7,26.6,25,59.2c-6.7,15.9-6.7,33.8,0,49.7L25.5,110.1z M84,24c33.2,0,60,26.9,60,60.1c0,7.5-1.4,15-4.2,22h-14.5v-42
	c0-4.5-2.3-6.2-4.4-6.2c-1.5,0-3.1,0.8-4.7,2.4L84,93.3L51.8,60.3c-1.6-1.6-3.2-2.4-4.7-2.4c-2.1,0-4.4,1.6-4.4,6.2v42H28.2
	C16,75.3,31.1,40.4,62,28.2C69,25.4,76.5,24,84,24z"/>
<path class="st1" d="M50.7,47.8c0.5,0,1-0.2,1.4-0.6c7.9-7.6,18.4-12,29.4-12.3c1.1,0,2-1,1.9-2.1c0-1.1-1-2-2.1-1.9
	C69.4,31.3,58,36,49.3,44.3c-0.8,0.8-0.8,2-0.1,2.8C49.6,47.6,50.1,47.8,50.7,47.8L50.7,47.8z M159,14c0-1.7-1.3-3-3-3s-3,1.3-3,3
	s1.3,3,3,3C157.7,17,159,15.7,159,14z M154.5,14c0-0.8,0.7-1.5,1.5-1.5s1.5,0.7,1.5,1.5s-0.7,1.5-1.5,1.5
	C155.2,15.5,154.5,14.8,154.5,14z M69,8c1.7,0,3-1.3,3-3s-1.3-3-3-3s-3,1.3-3,3C66,6.7,67.3,8,69,8z M69,3.5c0.8,0,1.5,0.7,1.5,1.5
	S69.8,6.5,69,6.5S67.5,5.8,67.5,5C67.5,4.2,68.2,3.5,69,3.5z M149,42c1.1,0,2-0.9,2-2s-0.9-2-2-2s-2,0.9-2,2
	C147,41.1,147.9,42,149,42z M149,39c0.6,0,1,0.4,1,1s-0.4,1-1,1s-1-0.4-1-1C148,39.4,148.4,39,149,39z M95,19c1.1,0,2-0.9,2-2
	c0-1.1-0.9-2-2-2s-2,0.9-2,2C93,18.1,93.9,19,95,19z M95,16c0.6,0,1,0.4,1,1s-0.4,1-1,1s-1-0.4-1-1C94,16.4,94.4,16,95,16z M27,45
	c1.1,0,2-0.9,2-2s-0.9-2-2-2s-2,0.9-2,2C25,44.1,25.9,45,27,45z M27,42c0.6,0,1,0.4,1,1s-0.4,1-1,1s-1-0.4-1-1
	C26,42.4,26.4,42,27,42z"/>
<circle class="st0" cx="2" cy="146" r="2"/>
<path class="st0" d="M11,144H8c-1.1,0-2,0.9-2,2s0.9,2,2,2h3c1.1,0,2-0.9,2-2S12.1,144,11,144z M160,144h-3c-1.1,0-2,0.9-2,2
	s0.9,2,2,2h3c1.1,0,2-0.9,2-2S161.1,144,160,144z"/>
<circle class="st0" cx="166" cy="146" r="2"/>
<path class="st0" d="M150.7,144h-44.5c11.9-4.4,22.3-12.3,29.7-22.6l2.3-3.2h-25V87.6c0-2.1-1.3-3-2.6-3c-0.9,0-1.7,0.4-2.2,1.1
	L84,110.6L59.6,85.6c-0.6-0.6-1.4-1-2.2-1.1c-1.2,0-2.6,0.9-2.6,3v30.6h-25l2.3,3.2c7.5,10.3,17.8,18.2,29.7,22.6H17.3
	c-1.1-0.1-2.1,0.6-2.3,1.7c-0.1,1.1,0.6,2.1,1.7,2.3c0.2,0,0.3,0,0.5,0h133.4c1.1,0.1,2.1-0.6,2.3-1.7s-0.6-2.1-1.7-2.3
	C151.1,144,150.9,144,150.7,144z M37.8,122.2h21l0-31.7l22.4,22.8c1.5,1.6,4,1.6,5.6,0.1c0,0,0,0,0.1-0.1l22.4-22.8v31.7h21
	c-21.1,25.5-58.9,29.2-84.4,8.1C42.9,127.9,40.2,125.1,37.8,122.2L37.8,122.2z"/>
<ellipse transform="matrix(0.9996 -2.928244e-02 2.928244e-02 0.9996 -1.5047 1.3691)" class="st1" cx="46" cy="52.1" rx="2" ry="1.9"/>
<polygon class="st0" points="6.6,60 8.1,58.1 7.1,57.5 6.2,59.7 6.1,59.7 5.2,57.5 4.2,58.1 5.7,60 5.7,60 3.4,59.7 3.4,60.8 
	5.7,60.5 5.7,60.5 4.2,62.4 5.1,63 6.1,60.8 6.2,60.8 7.1,63 8.1,62.4 6.6,60.5 6.6,60.5 8.9,60.8 8.9,59.7 6.6,60 "/>
<polygon class="st0" points="122.3,5.8 123.1,4.6 122.6,4.3 122,5.6 122,5.6 121.5,4.3 120.9,4.7 121.8,5.8 121.8,5.8 120.4,5.6 
	120.4,6.2 121.8,6 121.8,6.1 120.9,7.2 121.4,7.5 122,6.2 122,6.2 122.6,7.5 123.1,7.2 122.3,6.1 122.3,6.1 123.6,6.2 123.6,5.6 
	122.3,5.8 "/>
<polygon class="st0" points="29.3,9.8 30.1,8.6 29.6,8.3 29,9.6 29,9.6 28.5,8.3 27.9,8.7 28.8,9.8 28.8,9.8 27.4,9.6 27.4,10.2 
	28.8,10 28.8,10.1 27.9,11.2 28.4,11.5 29,10.2 29,10.2 29.6,11.5 30.1,11.2 29.3,10.1 29.3,10.1 30.6,10.2 30.6,9.6 29.3,9.8 "/>
<polygon class="st0" points="165,63.7 165,62.7 162.7,63 162.7,62.9 164.1,61 163.2,60.5 162.3,62.7 162.3,62.7 161.3,60.5 
	160.4,61.1 161.8,62.9 161.8,63 159.6,62.7 159.6,63.7 161.8,63.4 161.8,63.5 160.4,65.3 161.2,65.9 162.2,63.7 162.3,63.7 
	163.2,65.9 164.2,65.3 162.7,63.5 162.7,63.4 "/>
<polygon class="st0" points="120.4,24.6 121.7,22.9 120.9,22.5 120.1,24.3 120.1,24.3 119.3,22.5 118.4,23 119.7,24.6 119.7,24.6 
	117.7,24.3 117.7,25.2 119.7,25 119.7,25 118.4,26.6 119.2,27.1 120.1,25.2 120.1,25.2 120.9,27.1 121.7,26.6 120.4,25 120.4,25 
	122.4,25.2 122.4,24.3 120.4,24.6 "/>
<path class="st1" d="M118.2,153h-8.3c-1.1,0.1-1.9,1.1-1.8,2.2c0.1,1,0.9,1.8,1.8,1.8h8.3c1.1-0.1,1.9-1.1,1.8-2.2
	C119.9,153.9,119.1,153.1,118.2,153z M58.2,153h-8.3c-1.1,0.1-1.9,1.1-1.8,2.2c0.1,1,0.9,1.8,1.8,1.8h8.3c1.1-0.1,1.9-1.1,1.8-2.2
	C59.9,153.9,59.1,153.1,58.2,153z M104,153H64c-1.1,0-2,0.9-2,2s0.9,2,2,2h15.9v2H72c-1.1,0-2,0.9-2,2s0.9,2,2,2h25c1.1,0,2-0.9,2-2
	s-0.9-2-2-2h-8.9v-2H104c1.1,0,2-0.9,2-2S105.1,153,104,153z"/>
</svg>
