<?xml version="1.0" encoding="utf-8"?>
<!-- Generator: Adobe Illustrator 24.3.0, SVG Export Plug-In . SVG Version: 6.00 Build 0)  -->
<svg version="1.1" id="Слой_1" xmlns="http://www.w3.org/2000/svg" xmlns:xlink="http://www.w3.org/1999/xlink" x="0px" y="0px"
	 viewBox="0 0 168 168" style="enable-background:new 0 0 168 168;" xml:space="preserve">
<style type="text/css">
	.st0{fill:#333333;}
	.st1{fill:#9BD63E;}
</style>
<circle class="st0" cx="2" cy="150.6" r="2"/>
<path class="st0" d="M11,148.6H8c-1.1,0-2,0.9-2,2s0.9,2,2,2h3c1.1,0,2-0.9,2-2S12.1,148.6,11,148.6z M160,148.6h-3
	c-1.1,0-2,0.9-2,2s0.9,2,2,2h3c1.1,0,2-0.9,2-2S161.1,148.6,160,148.6z"/>
<circle class="st0" cx="166" cy="150.6" r="2"/>
<path class="st1" d="M118.2,156.6h-8.3c-1.1,0.1-1.9,1.1-1.8,2.2c0.1,1,0.9,1.8,1.8,1.8h8.3c1.1-0.1,1.9-1.1,1.8-2.2
	C119.9,157.5,119.1,156.7,118.2,156.6z M58.2,156.6h-8.3c-1.1,0.1-1.9,1.1-1.8,2.2c0.1,1,0.9,1.8,1.8,1.8h8.3
	c1.1-0.1,1.9-1.1,1.8-2.2C59.9,157.5,59.1,156.7,58.2,156.6z M104,156.6H64c-1.1,0-2,0.9-2,2s0.9,2,2,2h15.9v2H72c-1.1,0-2,0.9-2,2
	s0.9,2,2,2h25c1.1,0,2-0.9,2-2s-0.9-2-2-2h-8.9v-2H104c1.1,0,2-0.9,2-2S105.1,156.6,104,156.6z"/>
<path class="st0" d="M150.7,148.6h-44.5c33.1-12.3,50-49.1,37.7-82.3c-11.9-32-46.8-49.1-79.4-38.7c-0.4,0-0.8,0.1-1.1,0.4
	C37.5,36.8,20,61.2,20,88.6c0,0.5,0,1.1,0,1.6c-0.1,0.3,0,0.6,0,0.8c1,25.8,17.5,48.5,41.7,57.5H17.3c-1.1-0.1-2.1,0.6-2.3,1.7
	c-0.1,1.1,0.6,2.1,1.7,2.3c0.2,0,0.3,0,0.5,0h133.4c1.1,0.1,2.1-0.6,2.3-1.7s-0.6-2.1-1.7-2.3C151.1,148.6,150.9,148.6,150.7,148.6
	L150.7,148.6z M79,95.6c-3.5,0-6.5,2.7-6.9,6.2l-19,3.3c-0.1-0.1-0.1-0.3-0.2-0.4L64,88.3c3,0.9,6.2-0.3,7.8-2.9L88,90.7
	c0,3.9,3.2,7,7,7c0.4,0,0.9,0,1.3-0.1l5.6,11.3c-0.3,0.3-0.6,0.7-0.8,1.1l-15.1-6.5c0.5-3.8-2.3-7.3-6.1-7.8
	C79.6,95.6,79.3,95.6,79,95.6z M82,102.6c0,1.7-1.3,3-3,3s-3-1.3-3-3s1.3-3,3-3C80.7,99.6,82,101,82,102.6z M54.7,57.6
	c0.1,0,0.2,0,0.3,0c2.2,0,4.2-1,5.5-2.7L73.2,60c-0.5,2.1,0,4.3,1.3,6L68.3,75c-2.9-1-6.1,0-7.9,2.5L54,75.4
	c-0.1-2.3-1.2-4.3-3.1-5.6L54.7,57.6z M52,50.6c0-1.7,1.3-3,3-3s3,1.3,3,3s-1.3,3-3,3C53.3,53.6,52,52.3,52,50.6z M77.8,68.3
	c1.4,0.5,2.8,0.5,4.2,0.1l8.4,17c-0.5,0.4-0.9,0.9-1.3,1.4L73,81.6c0-1.5-0.5-3-1.4-4.2L77.8,68.3z M77,61.6c0-1.7,1.3-3,3-3
	c1.7,0,3,1.3,3,3s-1.3,3-3,3l0,0C78.3,64.6,77,63.3,77,61.6z M88.1,49.4c1.5,0.4,3.1,0.3,4.5-0.3l9.2,9.2c-0.2,0.4-0.4,0.9-0.5,1.3
	H86.7c-0.4-1.2-1.1-2.3-2-3.2L88.1,49.4z M87,42.6c0-1.7,1.3-3,3-3s3,1.3,3,3s-1.3,3-3,3C88.3,45.6,87,44.3,87,42.6z M107.2,68.6
	c2.8,0.3,5.5-1,6.9-3.4l25.5,9.4l-19.6,22.4L102,91c0-0.1,0-0.3,0-0.4c0-1.9-0.8-3.7-2.2-5.1L107.2,68.6z M105,61.6c0-1.7,1.3-3,3-3
	c1.7,0,3,1.3,3,3s-1.3,3-3,3l0,0C106.3,64.6,105,63.3,105,61.6z M107,106.6c-0.5,0-1.1,0.1-1.6,0.2l-5.5-11.2
	c0.3-0.3,0.5-0.6,0.7-0.9l16.4,5.3l-6.5,7.5C109.5,107,108.2,106.6,107,106.6z M110,113.6c0,1.7-1.3,3-3,3s-3-1.3-3-3s1.3-3,3-3
	C108.7,110.6,110,112,110,113.6z M96.3,83.7c-0.7-0.1-1.5-0.2-2.2,0l-8.7-17.6c0.6-0.7,1.1-1.6,1.3-2.5h14.6
	c0.4,1.3,1.2,2.5,2.2,3.4L96.3,83.7z M98,90.6c0,1.7-1.3,3-3,3s-3-1.3-3-3s1.3-3,3-3C96.7,87.6,98,89,98,90.6z M69,81.6
	c0,1.7-1.3,3-3,3s-3-1.3-3-3s1.3-3,3-3C67.7,78.6,69,80,69,81.6z M84.4,107.1l15.6,6.7c0,1.7,0.7,3.3,1.8,4.5l-4.6,7.7
	c-1.2-0.4-2.6-0.5-3.8-0.2L84,107.5C84.2,107.4,84.3,107.2,84.4,107.1z M95,129.6c1.7,0,3,1.3,3,3s-1.3,3-3,3s-3-1.3-3-3
	C92,131,93.3,129.6,95,129.6z M97.9,147l-0.5-7.8c3.6-1.3,5.5-5.3,4.2-9c-0.3-0.7-0.6-1.4-1.1-2l4.8-7.9c1.7,0.4,3.5,0.2,5-0.6
	l13.4,13.8C116.3,140.1,107.4,144.7,97.9,147L97.9,147z M126.6,130.9L113.1,117c1.1-2,1.2-4.5,0.2-6.5l7.9-9l19.6,6.4
	C137.9,116.5,133,124.4,126.6,130.9L126.6,130.9z M144,88.6c0,5.2-0.7,10.4-2,15.4l-17.9-5.8l18.8-21.4
	C143.6,80.7,144,84.7,144,88.6z M141.3,70.9L115,61.2c-0.1-1.5-0.7-2.9-1.6-4.1L124,43.9C132.1,51.2,138.1,60.5,141.3,70.9
	L141.3,70.9z M84,28.6c13.4,0,26.4,4.5,37,12.8L110,54.9c-1.8-0.5-3.7-0.3-5.3,0.5l-8.9-8.9c2.2-3.2,1.4-7.5-1.8-9.7
	c-2.8-1.9-6.6-1.5-9,0.9l-14.7-7.6C74.7,29.2,79.4,28.6,84,28.6z M64.6,31.8l18.5,9.5c-0.4,2.1,0.2,4.2,1.6,5.9l-3.6,7.5
	c-2.1-0.4-4.3,0.3-5.9,1.8L62,51.2c0-0.2,0-0.4,0-0.5c0-3.9-3.1-7-7-7c-1.2,0-2.3,0.3-3.3,0.8l-3.8-3.8C53,36.9,58.6,33.9,64.6,31.8
	L64.6,31.8z M44.8,43.2l4.1,4.1c-1.7,3.1-0.8,7,2.1,9l-3.8,12.3c0,0-0.1,0-0.1,0c-3.9,0-7,3.1-7,7c0,0.5,0.1,1.1,0.2,1.6L24,87
	C24.5,70.2,32,54.3,44.8,43.2L44.8,43.2z M50,75.6c0,1.7-1.3,3-3,3s-3-1.3-3-3s1.3-3,3-3C48.7,72.6,50,74,50,75.6z M24.1,91.7
	l18.1-11c2.8,2.7,7.2,2.6,9.9-0.2c0.4-0.4,0.7-0.8,0.9-1.2l6.1,2c0,0.1,0,0.2,0,0.4c0,1.7,0.6,3.3,1.7,4.5l-11,16
	c-3.3-1.4-7.1-0.1-8.8,3.1L25,99.4C24.5,96.8,24.2,94.3,24.1,91.7z M50,108.6c0,1.7-1.3,3-3,3s-3-1.3-3-3s1.3-3,3-3
	C48.7,105.6,50,107,50,108.6z M26,104l14,5.2c0.3,3.6,3.3,6.4,7,6.4c0,0,0.1,0,0.1,0l8.2,25.7C40.9,133.5,30.2,120,26,104L26,104z
	 M50.9,114.4c1.8-1.2,2.9-3.2,3-5.4l18.8-3.2c0.4,0.8,0.9,1.4,1.5,2l-15.4,31.5L50.9,114.4z M61,144.1l16.9-34.5
	c0.9,0.2,1.8,0.1,2.7-0.1l9.3,18.4c-2.6,2.8-2.5,7.2,0.3,9.9c0.9,0.9,2,1.4,3.2,1.7l0.5,8.4C82.8,149.7,71.4,148.4,61,144.1
	L61,144.1z M137.4,39.6c1.7,0,3-1.3,3-3s-1.3-3-3-3s-3,1.3-3,3C134.4,38.3,135.7,39.6,137.4,39.6z M137.4,35.1
	c0.8,0,1.5,0.7,1.5,1.5s-0.7,1.5-1.5,1.5s-1.5-0.7-1.5-1.5C135.9,35.8,136.5,35.1,137.4,35.1z M161,53.5c-1.1,0-2,0.9-2,2s0.9,2,2,2
	s2-0.9,2-2C163,54.4,162.1,53.5,161,53.5z M161,56.5c-0.6,0-1-0.4-1-1s0.4-1,1-1s1,0.4,1,1C162,56,161.6,56.5,161,56.5z M37.5,16.3
	c-1.1,0-2,0.9-2,2s0.9,2,2,2s2-0.9,2-2C39.5,17.2,38.6,16.3,37.5,16.3z M37.5,19.3c-0.6,0-1-0.4-1-1s0.4-1,1-1s1,0.4,1,1
	C38.5,18.8,38,19.3,37.5,19.3z M163,5.2c-1.1,0-2,0.9-2,2s0.9,2,2,2s2-0.9,2-2C165,6.1,164.1,5.2,163,5.2z M163,8.2
	c-0.6,0-1-0.4-1-1s0.4-1,1-1s1,0.4,1,1C164,7.8,163.6,8.2,163,8.2z M97,17.3c0-1.1-0.9-2-2-2s-2,0.9-2,2s0.9,2,2,2
	C96.1,19.3,97,18.4,97,17.3z M94,17.3c0-0.6,0.4-1,1-1s1,0.4,1,1s-0.4,1-1,1C94.4,18.3,94,17.8,94,17.3z"/>
<path class="st0" d="M10.9,69.6l1.5-2l-0.9-0.5l-1,2.2h0l-1-2.2l-1,0.5l1.5,1.9v0l-2.3-0.3v1.1l2.3-0.3v0l-1.5,1.9l0.9,0.6l1-2.2h0
	l0.9,2.2l1-0.6l-1.5-1.9v0l2.4,0.3v-1.1L10.9,69.6C10.9,69.7,10.9,69.6,10.9,69.6z M10.2,5.8L9.4,6.9l0.5,0.3l0.6-1.3h0L11,7.2
	l0.6-0.3l-0.9-1.1v0l1.4,0.2V5.3l-1.4,0.2v0l0.9-1.1L11,4.1l-0.5,1.3h0L9.9,4.1L9.4,4.4l0.8,1.1v0L8.9,5.3v0.6L10.2,5.8
	C10.2,5.8,10.2,5.8,10.2,5.8z M79.7,4.6v-1l-2.3,0.3v0l1.5-1.9l-0.9-0.5L77,3.5h0L76,1.4l-0.9,0.5l1.4,1.9v0l-2.3-0.3v1l2.3-0.3v0
	l-1.5,1.9L76,6.7l1-2.2h0l0.9,2.1l1-0.6l-1.5-1.8v0C77.4,4.3,79.7,4.6,79.7,4.6z M132.4,8.5l1.3-1.7l-0.8-0.5L132,8.3h0l-0.8-1.8
	l-0.8,0.5l1.2,1.6v0l-1.9-0.3v0.9l2-0.3v0l-1.3,1.6l0.8,0.5l0.9-1.9h0l0.8,1.9l0.8-0.5L132.4,9v0l2,0.2V8.3L132.4,8.5
	C132.4,8.6,132.4,8.5,132.4,8.5z"/>
</svg>
