<?xml version="1.0" encoding="utf-8"?>
<!-- Generator: Adobe Illustrator 24.3.0, SVG Export Plug-In . SVG Version: 6.00 Build 0)  -->
<svg version="1.1" id="Слой_1" xmlns="http://www.w3.org/2000/svg" xmlns:xlink="http://www.w3.org/1999/xlink" x="0px" y="0px"
	 viewBox="0 0 168 168" style="enable-background:new 0 0 168 168;" xml:space="preserve">
<style type="text/css">
	.st0{fill:#333333;}
	.st1{fill:#9BD63E;}
</style>
<path class="st0" d="M40,117.5c6.1,0,11-4.9,11-11s-4.9-11-11-11s-11,4.9-11,11C29,112.6,33.9,117.5,40,117.5
	C40,117.5,40,117.5,40,117.5z M40,99.5c3.9,0,7,3.1,7,7s-3.1,7-7,7s-7-3.1-7-7C33,102.7,36.1,99.5,40,99.5z M117,106.5
	c0,6.1,4.9,11,11,11s11-4.9,11-11s-4.9-11-11-11C121.9,95.5,117,100.5,117,106.5C117,106.5,117,106.5,117,106.5z M135,106.5
	c0,3.9-3.1,7-7,7c-3.9,0-7-3.1-7-7s3.1-7,7-7C131.9,99.5,135,102.7,135,106.5z"/>
<path class="st0" d="M70,73.5h28c3.3,0,6-2.7,6-6V56.7c0-6.4-3.3-11-8.4-12.6c-1.2,1.4-2.5,2.5-4.1,3.4h0.2c4.1,0,8.4,2.4,8.4,9.1
	v10.9c0,1.1-0.9,2-2,2H70c-1.1,0-2-0.9-2-2V56.7c0-6.7,4.3-9.1,8.4-9.1h0.1c-1.6-0.9-2.9-2.1-4.1-3.4c-5.2,1.5-8.4,6.2-8.4,12.6
	v10.9C64,70.9,66.7,73.5,70,73.5z"/>
<path class="st0" d="M84,45.5c6.1,0,11-4.9,11-11s-4.9-11-11-11s-11,4.9-11,11C73,40.6,77.9,45.5,84,45.5C84,45.5,84,45.5,84,45.5z
	 M84,27.5c3.9,0,7,3.1,7,7s-3.1,7-7,7s-7-3.1-7-7C77,30.7,80.1,27.5,84,27.5z"/>
<path class="st0" d="M102.9,112c3.4-0.1,6.1-2.9,6.1-6.3v-2.3c0.1-3.4-2.6-6.3-6.1-6.3h0c-0.1-0.2-0.2-0.4-0.2-0.6l0,0
	c1.2-1.2,1.8-2.9,1.7-4.6c-0.1-1.6-0.8-3.1-1.9-4.2l-1.7-1.6c-1.2-1.2-2.8-1.9-4.6-1.9c-1.6,0-3.1,0.6-4.2,1.7l0,0
	c-0.2-0.1-0.4-0.2-0.6-0.2v0c-0.1-3.4-2.9-6.1-6.3-6.1h-2.3c-3.4-0.1-6.3,2.7-6.3,6.1v0c-0.2,0.1-0.4,0.2-0.6,0.2l0,0
	c-1.1-1.1-2.6-1.7-4.2-1.7c-1.7,0-3.3,0.7-4.6,1.9l-1.7,1.7c-2.5,2.4-2.5,6.3-0.2,8.8l0,0c-0.1,0.2-0.2,0.4-0.2,0.6h0
	c-3.4,0.1-6.1,2.9-6.1,6.3v2.3c-0.1,3.4,2.6,6.3,6.1,6.3h0c0.1,0.2,0.2,0.4,0.2,0.6l0,0c-2.4,2.5-2.3,6.4,0.2,8.8l1.6,1.6
	c1.2,1.2,2.8,1.9,4.6,1.9c1.6,0,3.1-0.6,4.2-1.7l0,0c0.2,0.1,0.4,0.2,0.6,0.2v0c0.1,3.4,2.9,6.1,6.3,6.1h2.3
	c3.4,0.1,6.3-2.7,6.3-6.1v0c0.2-0.1,0.4-0.2,0.6-0.2l0,0c1.1,1.1,2.6,1.7,4.2,1.7c1.7,0,3.3-0.7,4.6-1.9l1.7-1.7
	c1.2-1.2,1.9-2.8,1.9-4.6c0-1.6-0.6-3.1-1.7-4.2l0,0C102.7,112.4,102.8,112.2,102.9,112L102.9,112z M100,108
	c-0.4,1.9-1.2,3.7-2.2,5.3l2.1,2.1c0.8,0.9,0.7,2.3-0.2,3.1l-1.7,1.6c-0.5,0.5-1.1,0.7-1.7,0.7c-0.5,0-1-0.2-1.4-0.6l-2.1-2.1
	c-1.6,1-3.4,1.8-5.3,2.2v3c-0.1,1.2-1.1,2.1-2.3,2.1h-2.3c-1.2,0.1-2.3-0.9-2.3-2.1v-3c-1.9-0.4-3.7-1.2-5.3-2.2l-2.1,2.1
	c-0.4,0.4-0.9,0.6-1.4,0.6c-0.7,0-1.3-0.3-1.7-0.7l-1.6-1.6c-0.9-0.8-1-2.2-0.2-3.1l2.1-2.1c-1-1.6-1.8-3.4-2.2-5.3h-3
	c-1.2-0.1-2.1-1.1-2.1-2.3v-2.3c-0.1-1.2,0.9-2.3,2.1-2.3h3c0.4-1.9,1.2-3.7,2.2-5.3l-2.1-2.1c-0.8-0.9-0.7-2.3,0.2-3.1l1.6-1.6
	c0.5-0.5,1.1-0.7,1.7-0.7c0.5,0,1,0.2,1.4,0.6l2.1,2.1c1.6-1,3.4-1.8,5.3-2.2v-3c0.1-1.2,1.1-2.1,2.3-2.1h2.3
	c1.2-0.1,2.3,0.9,2.3,2.1v3c1.9,0.4,3.7,1.2,5.3,2.2l2.1-2.1c0.4-0.4,0.9-0.6,1.4-0.6c0.7,0,1.3,0.3,1.7,0.7l1.7,1.6
	c0.9,0.8,1,2.2,0.2,3.1l-2.1,2.1c1,1.6,1.8,3.4,2.2,5.3h3c1.2,0.1,2.1,1.1,2.1,2.3v2.3c0.1,1.2-0.9,2.3-2.1,2.3L100,108z"/>
<path class="st1" d="M84,95.5c-5,0-9,4-9,9s4,9,9,9s9-4,9-9c0,0,0,0,0,0C93,99.6,89,95.5,84,95.5z M84,109.5c-2.8,0-5-2.2-5-5
	s2.2-5,5-5c2.8,0,5,2.2,5,5C89,107.3,86.8,109.5,84,109.5z M38.1,91.5c1.1,0,2-0.9,2-2c0-0.1,0-0.2,0-0.3c-0.1-0.7-2-16.9,13.1-25.6
	L53,64.2c-0.4,1,0,2.2,1,2.6c1,0.4,2.2,0,2.6-1l0,0l3.2-7.4c0.4-1,0-2.2-1-2.6c-0.3-0.1-0.7-0.2-1-0.1l-8.3,1.1
	c-1.1,0.1-1.9,1.1-1.7,2.2s1.1,1.9,2.2,1.7l0.8-0.1C33.8,70.7,36.1,89.6,36.2,89.8C36.3,90.8,37.1,91.5,38.1,91.5L38.1,91.5z"/>
<path class="st1" d="M109.2,59.4c13.2,5.8,16.2,16.7,16.8,23.1l-0.7-1.1c-0.6-0.9-1.8-1.2-2.8-0.6s-1.2,1.8-0.6,2.8l4.4,7.1
	c0.4,0.6,1,0.9,1.7,0.9c0,0,0.1,0,0.1,0c0.7,0,1.4-0.4,1.7-1.1l4-7.7c0.5-1,0.2-2.2-0.8-2.7c-1-0.5-2.2-0.2-2.7,0.8c0,0,0,0.1,0,0.1
	l-0.4,0.7c-0.8-7.5-4.5-19.5-19-25.9c-1-0.4-2.2,0-2.6,1C107.7,57.7,108.2,58.9,109.2,59.4L109.2,59.4z"/>
<circle class="st0" cx="2" cy="149.5" r="2"/>
<path class="st0" d="M11,147.5H8c-1.1,0-2,0.9-2,2s0.9,2,2,2h3c1.1,0,2-0.9,2-2S12.1,147.5,11,147.5z M160,147.5h-3
	c-1.1,0-2,0.9-2,2s0.9,2,2,2h3c1.1,0,2-0.9,2-2S161.1,147.5,160,147.5z"/>
<circle class="st0" cx="166" cy="149.5" r="2"/>
<path class="st1" d="M118.2,155.5h-8.3c-1.1,0.1-1.9,1.1-1.8,2.2c0.1,1,0.9,1.8,1.8,1.8h8.3c1.1-0.1,1.9-1.1,1.8-2.2
	C119.9,156.4,119.1,155.6,118.2,155.5z M58.2,155.5h-8.3c-1.1,0.1-1.9,1.1-1.8,2.2c0.1,1,0.9,1.8,1.8,1.8h8.3
	c1.1-0.1,1.9-1.1,1.8-2.2C59.9,156.4,59.1,155.6,58.2,155.5z M104,155.5H64c-1.1,0-2,0.9-2,2s0.9,2,2,2h15.9v2H72c-1.1,0-2,0.9-2,2
	s0.9,2,2,2h25c1.1,0,2-0.9,2-2s-0.9-2-2-2h-8.9v-2H104c1.1,0,2-0.9,2-2S105.1,155.5,104,155.5z"/>
<path class="st0" d="M150.7,147.5h-3.1c0.2-0.6,0.3-1.3,0.4-2v-10.9c0-7.9-5-13.1-12.4-13.1h-15.2c-7.4,0-12.4,5.3-12.4,13.1v10.9
	c0,0.7,0.1,1.4,0.3,2H59.7c0.2-0.6,0.3-1.3,0.3-2v-10.9c0-7.9-5-13.1-12.4-13.1H32.4c-7.4,0-12.4,5.3-12.4,13.1v10.9
	c0,0.7,0.1,1.4,0.4,2h-3.1c-1.1-0.1-2.1,0.6-2.3,1.7c-0.1,1.1,0.6,2.1,1.7,2.3c0.2,0,0.3,0,0.5,0h133.4c1.1,0.1,2.1-0.6,2.3-1.7
	s-0.6-2.1-1.7-2.3C151.1,147.5,150.9,147.5,150.7,147.5L150.7,147.5z M26,147.5c-1.1,0-2-0.9-2-2v-10.9c0-6.7,4.3-9.1,8.4-9.1h15.2
	c4.1,0,8.4,2.4,8.4,9.1v10.9c0,1.1-0.9,2-2,2H26z M144,145.5c0,1.1-0.9,2-2,2h-28c-1.1,0-2-0.9-2-2v-10.9c0-6.7,4.3-9.1,8.4-9.1
	h15.2c4.1,0,8.4,2.4,8.4,9.1V145.5z M43,51.6c1.7,0,3-1.3,3-3s-1.3-3-3-3s-3,1.3-3,3C40,50.3,41.3,51.6,43,51.6z M43,47.1
	c0.8,0,1.5,0.7,1.5,1.5s-0.7,1.5-1.5,1.5s-1.5-0.7-1.5-1.5C41.5,47.8,42.2,47.1,43,47.1z M149.3,69.5c-1.1,0-2,0.9-2,2s0.9,2,2,2
	s2-0.9,2-2C151.3,70.4,150.4,69.5,149.3,69.5z M149.3,72.5c-0.6,0-1-0.4-1-1s0.4-1,1-1s1,0.4,1,1C150.3,72.1,149.9,72.5,149.3,72.5z
	 M126,48.6c-1.1,0-2,0.9-2,2s0.9,2,2,2s2-0.9,2-2C128,49.5,127.1,48.6,126,48.6z M126,51.6c-0.6,0-1-0.4-1-1s0.4-1,1-1s1,0.4,1,1
	C127,51.2,126.6,51.6,126,51.6z M139,2.5c-1.1,0-2,0.9-2,2s0.9,2,2,2s2-0.9,2-2C141,3.4,140.1,2.5,139,2.5z M139,5.5
	c-0.6,0-1-0.4-1-1s0.4-1,1-1s1,0.4,1,1C140,5,139.6,5.5,139,5.5z M17.3,27.5c0-1.1-0.9-2-2-2s-2,0.9-2,2s0.9,2,2,2
	C16.4,29.5,17.3,28.6,17.3,27.5z M14.3,27.5c0-0.6,0.4-1,1-1s1,0.4,1,1s-0.4,1-1,1C14.8,28.5,14.3,28.1,14.3,27.5z"/>
<path class="st0" d="M10.9,68.6l1.5-2l-0.9-0.5l-1,2.2h0l-1-2.2l-1,0.5l1.5,1.9v0l-2.3-0.3v1.1L10,69v0L8.5,71l0.9,0.6l1-2.2h0
	l0.9,2.2l1-0.6l-1.5-1.9v0l2.4,0.3v-1.1L10.9,68.6C10.9,68.6,10.9,68.6,10.9,68.6z M50.5,7.2l-0.9,1.1l0.5,0.3l0.6-1.3h0l0.5,1.3
	l0.6-0.3L51,7.2v0l1.4,0.2V6.7L51,6.9v0l0.9-1.1l-0.5-0.3l-0.5,1.3h0l-0.6-1.3l-0.5,0.3l0.8,1.1v0l-1.3-0.2v0.6L50.5,7.2
	C50.5,7.2,50.5,7.2,50.5,7.2z M161,31.4v-1l-2.3,0.3v0l1.5-1.9l-0.9-0.5l-0.9,2.1h0l-1-2.1l-0.9,0.5l1.4,1.9v0l-2.3-0.3v1l2.3-0.3v0
	l-1.5,1.9l0.9,0.6l1-2.2h0l0.9,2.1l1-0.6l-1.5-1.8v0L161,31.4L161,31.4z M116.7,19.1l1.3-1.7l-0.8-0.5l-0.8,1.9h0l-0.8-1.8l-0.8,0.5
	l1.2,1.6v0l-1.9-0.3v0.9l2-0.3v0l-1.3,1.6l0.8,0.5l0.9-1.9h0l0.8,1.9l0.8-0.5l-1.3-1.6v0l2,0.2v-0.9L116.7,19.1L116.7,19.1z"/>
</svg>
