<?xml version="1.0" encoding="utf-8"?>
<!-- Generator: Adobe Illustrator 24.3.0, SVG Export Plug-In . SVG Version: 6.00 Build 0)  -->
<svg version="1.1" id="Слой_1" xmlns="http://www.w3.org/2000/svg" xmlns:xlink="http://www.w3.org/1999/xlink" x="0px" y="0px"
	 viewBox="0 0 168 168" style="enable-background:new 0 0 168 168;" xml:space="preserve">
<style type="text/css">
	.st0{fill:#333333;}
	.st1{fill:#9BD63E;}
</style>
<path class="st0" d="M40,113h69.5c-0.8-1.2-1.3-2.6-1.5-4H40c-1.1,0-2-0.9-2-2V89c0-1.1,0.9-2,2-2h71.3c0.3-1.4,1-2.8,1.9-4H40
	c-3.3,0-6,2.7-6,6v18C34,110.3,36.7,113,40,113z"/>
<path class="st0" d="M60,98c0-1.1-0.9-2-2-2h-2.4l1.2-1.9c0.6-0.9,0.3-2.2-0.6-2.8c-0.9-0.6-2.2-0.3-2.8,0.6L52,94.2l-1.4-2.3
	c-0.6-0.9-1.8-1.2-2.8-0.6c-0.9,0.6-1.2,1.8-0.6,2.8l1.2,1.9H46c-1.1,0-2,0.9-2,2s0.9,2,2,2h2.4l-1.2,1.9c-0.6,0.9-0.3,2.2,0.6,2.8
	c0,0,0,0,0,0c0.9,0.6,2.2,0.3,2.8-0.6l1.4-2.3l1.4,2.3c0.6,0.9,1.8,1.2,2.8,0.6c0.9-0.6,1.2-1.8,0.6-2.8l-1.2-1.9H58
	C59.1,100,60,99.1,60,98z"/>
<path class="st1" d="M82,98c0-1.1-0.9-2-2-2h-2.4l1.2-1.9c0.6-0.9,0.3-2.2-0.6-2.8S76,91,75.4,91.9L74,94.2l-1.4-2.3
	c-0.6-0.9-1.8-1.2-2.8-0.6s-1.2,1.8-0.6,2.8l1.2,1.9H68c-1.1,0-2,0.9-2,2s0.9,2,2,2h2.4l-1.2,1.9c-0.6,0.9-0.3,2.2,0.6,2.8
	c0,0,0,0,0,0c0.9,0.6,2.2,0.3,2.8-0.6l1.4-2.3l1.4,2.3c0.6,0.9,1.8,1.2,2.8,0.6c0.9-0.6,1.2-1.8,0.6-2.8l-1.2-1.9H80
	C81.1,100,82,99.1,82,98z"/>
<path class="st0" d="M104,98c0-1.1-0.9-2-2-2h-2.4l1.2-1.9c0.6-0.9,0.3-2.2-0.6-2.8S98,91,97.4,91.9L96,94.2l-1.4-2.3
	c-0.6-0.9-1.8-1.2-2.8-0.6s-1.2,1.8-0.6,2.8l1.2,1.9H90c-1.1,0-2,0.9-2,2s0.9,2,2,2h2.4l-1.2,1.9c-0.6,0.9-0.3,2.2,0.6,2.8
	c0,0,0,0,0,0c0.9,0.6,2.2,0.3,2.8-0.6l1.4-2.3l1.4,2.3c0.6,0.9,1.8,1.2,2.8,0.6c0.9-0.6,1.2-1.8,0.6-2.8l-1.2-1.9h2.4
	C103.1,100,104,99.1,104,98z"/>
<path class="st0" d="M112,108c0,2.8,2.2,5,5,5h12c2.8,0,5-2.2,5-5V98c0-2-1.2-3.8-3-4.6v-4c0.1-3.4-2.6-6.3-6-6.4h-4
	c-3.4,0.1-6.1,3-6,6.4v4c-1.8,0.8-3,2.6-3,4.6V108z M119,89.4c-0.1-1.2,0.8-2.3,2-2.4h4c1.2,0.1,2.1,1.2,2,2.4V93h-8V89.4z M116,98
	c0-0.6,0.4-1,1-1h12c0.6,0,1,0.4,1,1v10c0,0.6-0.4,1-1,1h-4v-2c0-1.1-0.9-2-2-2s-2,0.9-2,2v2h-4c-0.6,0-1-0.4-1-1V98z"/>
<path class="st0" d="M146,119H22c-1.1,0-2,0.9-2,2s0.9,2,2,2h124c1.1,0,2-0.9,2-2S147.1,119,146,119z M121,29c1.7,0,3-1.3,3-3
	s-1.3-3-3-3s-3,1.3-3,3C118,27.7,119.3,29,121,29z M121,24.5c0.8,0,1.5,0.7,1.5,1.5s-0.7,1.5-1.5,1.5s-1.5-0.7-1.5-1.5
	C119.5,25.2,120.2,24.5,121,24.5z M46,58c-1.1,0-2,0.9-2,2s0.9,2,2,2s2-0.9,2-2C48,58.9,47.1,58,46,58z M46,61c-0.6,0-1-0.4-1-1
	s0.4-1,1-1s1,0.4,1,1C47,60.6,46.6,61,46,61z M49,26c-1.1,0-2,0.9-2,2s0.9,2,2,2s2-0.9,2-2C51,26.9,50.1,26,49,26z M49,29
	c-0.6,0-1-0.4-1-1s0.4-1,1-1s1,0.4,1,1C50,28.6,49.6,29,49,29z M159,61c-1.1,0-2,0.9-2,2s0.9,2,2,2s2-0.9,2-2
	C161,61.9,160.1,61,159,61z M159,64c-0.6,0-1-0.4-1-1s0.4-1,1-1s1,0.4,1,1C160,63.6,159.6,64,159,64z M11,34c0-1.1-0.9-2-2-2
	s-2,0.9-2,2s0.9,2,2,2C10.1,36,11,35.1,11,34z M8,34c0-0.6,0.4-1,1-1s1,0.4,1,1s-0.4,1-1,1C8.4,35,8,34.6,8,34z"/>
<path class="st0" d="M85.6,40l1.5-2l-0.9-0.5l-1,2.2h0l-1-2.2l-1,0.5l1.5,1.9v0l-2.3-0.3v1.1l2.3-0.3v0l-1.5,1.9l0.9,0.6l1-2.2h0
	l0.9,2.2l1-0.6l-1.5-1.9v0l2.4,0.3v-1.1L85.6,40C85.6,40,85.6,40,85.6,40z M13.8,63.1l-0.9,1.1l0.5,0.3l0.6-1.3h0l0.5,1.3l0.6-0.3
	l-0.9-1.1v0l1.4,0.2v-0.6l-1.4,0.2v0l0.9-1.1l-0.5-0.3L14,62.6h0l-0.6-1.3l-0.6,0.3l0.8,1.1v0l-1.3-0.2v0.6L13.8,63.1
	C13.8,63,13.8,63.1,13.8,63.1z M132,50.7v-1l-2.3,0.3v0l1.5-1.9l-0.9-0.5l-0.9,2.1h0l-1-2.1l-0.9,0.5l1.4,1.9v0l-2.3-0.3v1l2.3-0.3
	v0l-1.5,1.9l0.9,0.6l1-2.2h0l0.9,2.1l1-0.6l-1.5-1.8v0L132,50.7L132,50.7z M157.4,25.6l1.3-1.7l-0.8-0.5l-0.8,1.9h0l-0.8-1.8
	l-0.8,0.5l1.2,1.6v0l-1.9-0.3v0.9l2-0.3v0l-1.3,1.6l0.8,0.5l0.9-1.9h0l0.8,1.9l0.8-0.5l-1.3-1.6v0l2,0.2v-0.9L157.4,25.6L157.4,25.6
	L157.4,25.6z"/>
<circle class="st0" cx="2" cy="129" r="2"/>
<path class="st0" d="M11,127H8c-1.1,0-2,0.9-2,2c0,1.1,0.9,2,2,2h3c1.1,0,2-0.9,2-2C13,127.9,12.1,127,11,127z M160,127h-3
	c-1.1,0-2,0.9-2,2c0,1.1,0.9,2,2,2h3c1.1,0,2-0.9,2-2C162,127.9,161.1,127,160,127z"/>
<circle class="st0" cx="166" cy="129" r="2"/>
<path class="st1" d="M118.2,135h-8.3c-1.1,0.1-1.9,1.1-1.8,2.2c0.1,1,0.9,1.8,1.8,1.8h8.3c1.1-0.1,1.9-1.1,1.8-2.2
	C119.9,135.9,119.1,135.1,118.2,135z M58.2,135h-8.3c-1.1,0.1-1.9,1.1-1.8,2.2c0.1,1,0.9,1.8,1.8,1.8h8.3c1.1-0.1,1.9-1.1,1.8-2.2
	C59.9,135.9,59.1,135.1,58.2,135z M104,135H64c-1.1,0-2,0.9-2,2s0.9,2,2,2h15.9v2H72c-1.1,0-2,0.9-2,2s0.9,2,2,2h25c1.1,0,2-0.9,2-2
	s-0.9-2-2-2h-8.9v-2H104c1.1,0,2-0.9,2-2S105.1,135,104,135z"/>
<path class="st0" d="M150.7,131H17.3c-1.1,0.1-2.1-0.6-2.3-1.7c-0.1-1.1,0.6-2.1,1.7-2.3c0.2,0,0.3,0,0.5,0h133.4
	c1.1-0.1,2.1,0.6,2.3,1.7c0.1,1.1-0.6,2.1-1.7,2.3C151.1,131,150.9,131,150.7,131L150.7,131z"/>
</svg>
