<svg xmlns="http://www.w3.org/2000/svg" viewBox="0 0 512 512"><path d="M382.621 54.617C348.723 19.396 303.761 0 256.003 0s-92.72 19.396-126.605 54.617c-69.365 72.08-69.365 189.369-.031 261.425l113.299 118.225c3.485 3.633 8.3 5.69 13.337 5.69s9.852-2.057 13.337-5.69l113.28-118.2c69.365-72.087 69.365-189.369.001-261.45zm-26.656 235.859-99.962 104.309-99.986-104.333c-55.769-57.961-55.769-152.264 0-210.219 26.865-27.912 62.37-43.288 99.986-43.288s73.127 15.375 99.986 43.288c55.775 57.961 55.775 152.257-.024 210.243z"/><path d="M256.003 92.671c-41.083 0-74.506 33.423-74.506 74.506s33.423 74.506 74.506 74.506c41.089 0 74.506-33.423 74.506-74.506s-33.423-74.506-74.506-74.506zm0 112.067c-20.714 0-37.561-16.847-37.561-37.561s16.847-37.561 37.561-37.561 37.561 16.847 37.561 37.561-16.847 37.561-37.561 37.561zm222.17 286.727L459.7 327.059c-1.047-9.347-8.953-16.41-18.356-16.41h-96.673v36.945h80.165l14.322 127.461H72.853l14.322-127.461h80.153v-36.945H70.655c-9.403 0-17.303 7.063-18.356 16.41L33.827 491.465a18.483 18.483 0 0 0 18.361 20.536h407.63a18.481 18.481 0 0 0 18.355-20.536z"/></svg>