<?xml version="1.0" encoding="utf-8"?>
<!-- Generator: Adobe Illustrator 24.3.0, SVG Export Plug-In . SVG Version: 6.00 Build 0)  -->
<svg version="1.1" id="Слой_1" xmlns="http://www.w3.org/2000/svg" xmlns:xlink="http://www.w3.org/1999/xlink" x="0px" y="0px"
	 viewBox="0 0 168 168" style="enable-background:new 0 0 168 168;" xml:space="preserve">
<style type="text/css">
	.st0{fill:#333333;}
	.st1{fill:#9BD63E;}
</style>
<circle class="st0" cx="2" cy="150" r="2"/>
<path class="st0" d="M11,148H8c-1.1,0-2,0.9-2,2s0.9,2,2,2h3c1.1,0,2-0.9,2-2S12.1,148,11,148z M160,148h-3c-1.1,0-2,0.9-2,2
	s0.9,2,2,2h3c1.1,0,2-0.9,2-2S161.1,148,160,148z"/>
<circle class="st0" cx="166" cy="150" r="2"/>
<path class="st1" d="M118.2,156h-8.3c-1.1,0.1-1.9,1.1-1.8,2.2c0.1,1,0.9,1.8,1.8,1.8h8.3c1.1-0.1,1.9-1.1,1.8-2.2
	C119.9,156.9,119.1,156.1,118.2,156z M58.2,156h-8.3c-1.1,0.1-1.9,1.1-1.8,2.2c0.1,1,0.9,1.8,1.8,1.8h8.3c1.1-0.1,1.9-1.1,1.8-2.2
	C59.9,156.9,59.1,156.1,58.2,156z M104,156H64c-1.1,0-2,0.9-2,2s0.9,2,2,2h15.9v2H72c-1.1,0-2,0.9-2,2s0.9,2,2,2h25c1.1,0,2-0.9,2-2
	s-0.9-2-2-2h-8.9v-2H104c1.1,0,2-0.9,2-2S105.1,156,104,156z M55.3,112.9c-0.7-0.8-2-0.9-2.8-0.2c-0.8,0.7-0.9,2-0.2,2.8
	c0,0,0,0,0,0c0.3,0.4,0.7,0.7,1,1.1l0,0l0,0l0,0l0,0l0,0l0,0h0l0,0l0,0l0,0l0,0l0,0l0,0l0,0l0,0l0,0l0,0l0,0l0,0l0.1,0.1h0
	c0.5,0.5,0.9,1,1.4,1.4c0.8,0.8,2.1,0.7,2.8-0.1c0.8-0.8,0.7-2.1-0.1-2.8C56.9,114.7,56.1,113.8,55.3,112.9z"/>
<path class="st0" d="M53,66c0.7-1,1.5-1.9,2.2-2.8c0.7-0.8,0.6-2.1-0.2-2.8c-0.8-0.7-2.1-0.6-2.8,0.2c0,0-0.1,0.1-0.1,0.1l0,0l0,0
	l0,0l0,0l0,0l0,0l0,0l0,0l0,0l0,0l0,0l0,0l0,0l0,0l0,0l0,0l0,0l0,0l0,0l0,0l0,0l0,0l0,0l0,0l0,0l0,0l0,0l0,0l0,0l0,0l0,0l0,0l0,0
	l0,0l0,0l0,0l0,0l0,0l0,0l0,0l0,0l0,0l0,0l0,0l0,0l0,0l0,0l0,0l0,0l0,0l0,0l0,0l0,0l0,0l0,0l0,0l0,0l0,0l0,0l0,0l0,0l0,0l0,0l0,0
	l0,0l0,0l0,0l0,0l0,0l0,0l0,0l0,0l0,0l0,0l0,0l0,0l0,0l0,0l0,0l0,0l0,0l0,0l0,0l0,0l0,0l0,0l0,0l0,0l0,0l0,0l0,0l0,0l0,0l0,0l0,0
	l0,0l0,0l0,0l0,0l0,0l0,0l0,0l0,0l0,0l0,0l0,0l0,0l0,0l0,0l0,0l0,0l0,0l0,0l0,0l0,0l0,0l0,0l0,0l0,0c-0.4,0.5-0.8,1.1-1.2,1.6
	c-0.6,0.9-0.4,2.1,0.5,2.8S52.4,66.9,53,66z M49.4,103.8c-0.5-1-1.6-1.4-2.7-1c-1,0.5-1.4,1.6-1,2.7c0.1,0.3,0.3,0.7,0.5,1l0,0l0,0
	l0,0l0,0l0,0l0,0l0,0l0,0l0,0l0,0l0,0l0,0l0,0l0,0l0,0l0,0l0,0l0,0l0,0l0,0l0,0l0,0l0,0l0,0l0,0l0,0l0,0l0,0l0,0l0,0l0,0l0,0l0,0
	l0,0l0,0l0,0l0,0l0,0l0,0l0,0l0,0l0,0l0,0l0,0l0,0l0,0l0,0l0,0c0.2,0.4,0.4,0.8,0.6,1.2l0,0l0,0l0,0l0,0l0,0.1l0,0
	c0.2,0.3,0.4,0.7,0.5,1c0.6,1,1.8,1.3,2.7,0.7s1.3-1.8,0.7-2.7C50.5,106,49.9,104.9,49.4,103.8z M44,88.1C44,88.1,44,88.1,44,88.1
	c1.2,0,2-0.8,2.1-1.9c0.1-1.2,0.2-2.4,0.3-3.6c0.2-1.1-0.6-2.1-1.7-2.3s-2.1,0.6-2.3,1.7l0,0c-0.2,1.3-0.3,2.6-0.4,4
	C42,87.1,42.8,88.1,44,88.1z"/>
<path class="st0" d="M45.5,76.8c1,0.4,2.2-0.2,2.5-1.2c0,0,0,0,0,0c0.4-1.1,0.8-2.3,1.3-3.4c0.5-1,0-2.2-1-2.7c-1-0.5-2.2,0-2.6,1
	c-0.5,1.1-1,2.3-1.4,3.5l0,0l0,0l0,0l0,0l0,0l0,0l0,0l0,0l0,0l0,0l0,0l0,0l0,0l0,0l0,0l0,0l0,0l0,0l0,0l0,0l0,0l0,0l0,0l0,0l0,0l0,0
	l0,0l0,0l0,0l0,0l0,0l0,0l0,0l0,0C43.9,75.3,44.5,76.5,45.5,76.8z"/>
<path class="st0" d="M112.7,63.1c0.7,0.8,2,0.9,2.8,0.2c0.8-0.7,0.9-2,0.2-2.8c-0.2-0.3-0.5-0.5-0.7-0.8l0,0l0,0l0,0l0,0l0,0l0,0
	l0,0l0,0l0,0l0,0l0,0l0,0l0,0l0,0l0,0l0,0l0,0l0,0l0,0l0,0l0,0l0,0l0,0l0,0l0,0l0,0l0,0l0,0l0,0l0,0l0,0l0,0l0,0l0,0l0,0l0,0l0,0
	l0,0l0,0l0,0l0,0l0,0l0,0l0,0l0,0l0,0l0,0l0,0l0,0l0,0l0,0l0,0l0,0l0,0l0,0l0,0l0,0l0,0l0,0l0,0l0,0l0,0l0,0l0,0l0,0l0,0l0,0l0,0
	l0,0l0,0l0,0l0,0l0,0l0,0l0,0l0,0l0,0l0,0l0,0l0,0l0,0l0,0l0,0l0,0l0,0l0,0c-0.4-0.4-0.8-0.8-1.2-1.1c-0.8-0.8-2.1-0.7-2.8,0.1
	c-0.8,0.8-0.7,2.1,0.1,2.8C111.1,61.3,111.9,62.2,112.7,63.1z"/>
<path class="st0" d="M118.6,72.2c0.5,1,1.7,1.4,2.7,1c1-0.5,1.4-1.6,1-2.6c-0.3-0.5-0.5-1.1-0.8-1.6l0,0l0,0l0,0l0,0l0,0l0,0l0,0
	l0,0l0,0l0,0l0,0l0,0l0,0l0,0l0,0l0,0l0,0l0,0l0,0l0,0l0,0l0,0l0,0l0,0l0,0l0,0l0,0l0,0l0,0l0,0l0,0l0,0l0,0l0,0l0,0l0,0l0,0l0,0
	l0,0l0,0l0,0l0,0l0,0l0,0l0,0l0,0l0,0l0,0l0,0l0,0l0,0l0,0l0,0v0l0,0l0,0l0,0l0,0l0,0l0,0l0,0l0,0l0,0l0,0l0,0l0,0l0,0l0,0l0,0l0,0
	l0,0l0,0l0,0l0,0l0,0l0,0l0,0l0,0l0,0l0,0l0,0l0,0l0,0l0,0l0,0l0,0l0,0l0,0l0,0l0,0l0,0l0,0l0,0l0,0l0,0l0,0l0,0l0,0l0,0l0,0l0,0
	l0,0l0,0l0,0l0,0l0,0l0,0l0,0l0,0l0,0l0,0l0,0l0,0l0,0l0,0l0,0l0,0l0,0l0,0l0,0l0,0l0,0l0,0l0,0l0,0l0,0l0,0l0,0l0,0l0,0l0,0l0,0
	l0,0l0,0l0,0l0,0l0,0c-0.2-0.3-0.3-0.6-0.5-0.9c-0.6-1-1.8-1.3-2.7-0.7c-1,0.6-1.3,1.8-0.7,2.7l0,0C117.5,70,118.1,71.1,118.6,72.2z
	"/>
<path class="st0" d="M120.9,79c0.3,1.2,0.5,2.4,0.7,3.6c0.2,1.1,1.2,1.8,2.3,1.7c1.1-0.2,1.8-1.2,1.7-2.3c-0.1-0.5-0.1-1-0.2-1.4
	l0,0l0,0l0,0l0,0l0,0l0,0l0,0l0,0l0,0l0,0l0,0l0,0l0,0l0,0l0,0l0,0l0,0l0,0l0,0l0,0l0,0l0,0l0,0l0-0.1l0,0l0,0l0,0l0,0l0,0l0,0l0,0
	l0,0l0,0l0,0l0,0l0,0l0,0l0,0l0,0l0,0l0,0l0,0l0,0l0,0l0,0l0,0l0,0l0,0l0,0l0,0c-0.1-0.7-0.3-1.3-0.4-2c-0.3-1.1-1.3-1.7-2.4-1.5
	C121.3,76.8,120.7,77.9,120.9,79L120.9,79z"/>
<path class="st0" d="M59.3,58.6c0.4,0,0.9-0.2,1.2-0.4c0.9-0.7,1.9-1.5,2.9-2.1c0.9-0.6,1.2-1.8,0.6-2.8c-0.6-0.9-1.8-1.2-2.8-0.6
	c-0.4,0.2-0.7,0.5-1.1,0.7l0,0l0,0l0,0l0,0l0,0l0,0l0,0l0,0l0,0l0,0l0,0l0,0l0,0l0,0l0,0l0,0l0,0l0,0l0,0l0,0l0,0l0,0l0,0l0,0l0,0
	l0,0l0,0l0,0l0,0l0,0l0,0l0,0l0,0l0,0l0,0l0,0l0,0l0,0l0,0l0,0l0,0l0,0c-0.6,0.4-1.1,0.8-1.6,1.2c-0.9,0.7-1,1.9-0.3,2.8
	C58.1,58.3,58.7,58.6,59.3,58.6L59.3,58.6z"/>
<path class="st0" d="M91.1,50.7c1.2,0.2,2.4,0.5,3.5,0.8c1.1,0.3,2.2-0.3,2.5-1.4c0.3-1.1-0.3-2.2-1.4-2.5c-0.2-0.1-0.5-0.1-0.7-0.2
	h0l0,0l0,0l0,0l0,0l0,0l0,0l0,0l0,0l0,0l0,0l0,0l0,0l0,0l0,0l0,0l0,0l0,0l0,0l0,0l0,0l0,0l0,0l0,0l0,0l0,0l0,0l0,0
	c-0.8-0.2-1.7-0.4-2.6-0.6l0,0l0,0l0,0l0,0l0,0l0,0l0,0l0,0l0,0l0,0l0,0l0,0l0,0l0,0l0,0l0,0l0,0l0,0l0,0l0,0l0,0l0,0l0,0l0,0l0,0
	l0,0l0,0l0,0l0,0l0,0l0,0l0,0l0,0l0,0l0,0l0,0l0,0l0,0l0,0c-1.1-0.2-2.1,0.5-2.3,1.6S90,50.5,91.1,50.7L91.1,50.7z M69.1,52.9
	c0.3,0,0.5,0,0.7-0.1c1.1-0.4,2.3-0.8,3.4-1.2c1.1-0.3,1.7-1.4,1.4-2.5c-0.3-1.1-1.4-1.7-2.5-1.4c0,0,0,0,0,0
	c-0.2,0.1-0.4,0.1-0.6,0.2l0,0l0,0l0,0l0,0l0,0l0,0l0,0l0,0l0,0l0,0l0,0l0,0l0,0l0,0l0,0l0,0l0,0l0,0l0,0l0,0l0,0l0,0l0,0l0,0l0,0
	l0,0l0,0l0,0l0,0l0,0l0,0l0,0l0,0l0,0c-1,0.3-2,0.7-2.9,1.1c-1,0.4-1.5,1.6-1.1,2.6C67.6,52.4,68.3,52.9,69.1,52.9L69.1,52.9z"/>
<path class="st0" d="M80.2,50.2c0.1,0,0.1,0,0.2,0c1.2-0.1,2.4-0.2,3.6-0.2c1.1,0,2-0.9,2-2s-0.9-2-2-2h0l0,0h0l0,0h0l0,0h0l0,0h0
	l0,0h0l0,0h0l0,0l0,0h0l0,0h0l0,0l0,0l0,0l0,0l0,0h0l0,0h0l0,0h0l0,0l0,0l0,0l0,0l0,0l0,0l0,0l0,0l0,0l0,0l0,0l0,0l0,0l0,0l0,0l0,0
	l0,0l0,0l0,0l0,0l0,0l0,0l0,0l0,0l0,0l0,0l0,0l0,0l0,0l0,0l0,0l0,0l0,0l0,0l0,0l0,0l0,0l0,0h0l0,0l0,0l0,0l0,0l0,0l0,0l0,0l0,0l0,0
	l0,0l0,0l0,0l0,0l0,0l0,0l0,0l0,0l0,0l0,0l0,0l0,0l0,0l0,0l0,0l0,0l0,0l0,0l0,0l0,0l0,0l0,0l0,0l0,0l0,0l0,0l0,0l0,0l0,0l0,0l0,0
	l0,0l0,0l0,0l0,0l0,0l0,0l-0.1,0l0,0l0,0l0,0l0,0l0,0l0,0l0,0l0,0l0,0l0,0l0,0l0,0l0,0l0,0l0,0l0,0l0,0l0,0l0,0l0,0l0,0l0,0l0,0
	l-0.1,0h0l0,0l0,0l0,0l0,0l0,0l0,0l0,0l0,0l0,0l0,0l0,0l0,0l0,0l0,0l0,0l0,0l0,0l0,0l-0.1,0l0,0l0,0l0,0l0,0l0,0l0,0l0,0l0,0l0,0
	l0,0l0,0l0,0l0,0l0,0l0,0l0,0l0,0l0,0l0,0l-0.1,0h0l0,0l0,0l0,0l0,0l0,0l0,0l0,0l0,0l0,0l0,0l0,0l0,0l0,0l0,0l0,0l0,0l0,0l0,0l0,0
	l0,0l0,0l0,0l0,0l0,0l0,0l0,0l0,0l0,0l0,0l0,0l0,0l0,0l0,0l0,0l0,0l0,0l0,0l0,0l0,0l0,0l0,0l0,0l0,0l0,0l0,0l0,0l0,0l0,0l0,0l0,0
	l0,0l0,0l0,0l0,0l0,0l0,0l0,0l0,0l0,0l0,0l0,0l0,0l0,0l0,0l0,0l0,0l0,0l0,0l0,0l0,0l0,0l0,0l0,0l0,0l0,0l0,0l0,0l0,0l0,0l0,0l0,0
	l0,0l0,0l0,0l0,0l0,0l0,0l0,0l0,0l0,0l0,0l-0.1,0l0,0l0,0l0,0l0,0l0,0c-0.4,0-0.8,0.1-1.2,0.1c-1.1,0.1-1.9,1.1-1.8,2.2
	C78.3,49.4,79.2,50.2,80.2,50.2L80.2,50.2z M47.1,97c-0.3-1.2-0.5-2.4-0.7-3.6c-0.2-1.1-1.2-1.9-2.3-1.7c-1.1,0.2-1.9,1.2-1.7,2.3
	c0.1,0.7,0.2,1.4,0.4,2.1l0,0c0,0.1,0,0.2,0.1,0.3v0l0,0l0,0l0,0l0,0l0,0v0c0.1,0.5,0.2,1,0.3,1.5c0.3,1.1,1.4,1.7,2.4,1.5
	C46.7,99.1,47.3,98.1,47.1,97L47.1,97z"/>
<path class="st0" d="M108.8,117.4c-0.4,0-0.9,0.2-1.2,0.4c-0.9,0.7-1.9,1.5-2.9,2.1c-0.9,0.6-1.2,1.8-0.6,2.8
	c0.6,0.9,1.8,1.2,2.8,0.6c0,0,0,0,0,0c0.8-0.5,1.6-1.1,2.4-1.7l0,0l0,0l0,0l0,0l0,0l0,0l0,0l0,0l0,0l0,0l0,0l0,0l0,0l0,0l0,0l0,0
	l0,0l0,0l0,0l0,0l0,0l0,0l0,0l0,0l0,0l0,0l0,0l0,0l0,0l0,0l0,0l0,0l0,0l0,0l0,0l0,0l0,0l0,0l0,0l0,0l0,0l0,0
	c0.1-0.1,0.2-0.2,0.3-0.3c0.9-0.7,1-1.9,0.3-2.8C109.9,117.7,109.4,117.4,108.8,117.4L108.8,117.4z"/>
<path class="st0" d="M101.4,54.2c1.1,0.5,2.1,1.2,3.1,1.8c0.9,0.6,2.2,0.3,2.8-0.6c0.6-0.9,0.3-2.2-0.6-2.8c-1.1-0.7-2.3-1.4-3.5-2
	c-1-0.5-2.2-0.1-2.7,0.9C100,52.5,100.4,53.7,101.4,54.2L101.4,54.2z M98.9,123.1c-0.3,0-0.5,0-0.7,0.1c-1.1,0.4-2.3,0.8-3.4,1.2
	c-1.1,0.3-1.7,1.4-1.3,2.5c0.3,1.1,1.4,1.7,2.5,1.4c0.2-0.1,0.5-0.1,0.7-0.2l0,0l0,0l0,0l0,0l0,0l0,0l0,0l0,0l0,0l0,0l0,0l0,0l0,0
	l0,0l0,0l0,0l0,0l0,0l0,0l0,0c1-0.3,1.9-0.7,2.9-1c1-0.4,1.5-1.6,1.1-2.6C100.5,123.6,99.7,123.1,98.9,123.1L98.9,123.1z M115,110
	c-0.7,1-1.4,1.9-2.2,2.8c-0.7,0.8-0.6,2.1,0.2,2.8c0.8,0.7,2.1,0.6,2.8-0.2c0.1-0.1,0.1-0.1,0.2-0.2l0,0l0,0l0,0l0,0l0,0l0,0l0,0
	l0,0l0,0l0,0l0,0l0,0l0,0l0,0l0,0l0,0l0,0l0,0l0,0l0,0l0,0l0,0l0,0l0,0l0,0l0,0l0,0l0,0l0,0l0,0l0,0l0,0l0,0l0,0l0,0l0,0l0,0l0,0
	l0,0l0,0l0,0l0,0l0,0l0,0l0,0l0,0l0,0l0,0l0,0l0,0l0,0l0,0l0,0l0,0l0,0l0,0l0,0l0,0l0,0l0,0l0,0l0,0l0,0l0,0l0,0l0,0l0,0l0,0l0,0
	l0,0l0,0l0,0l0,0l0,0l0,0l0,0l0,0l0,0l0,0l0,0l0,0l0,0l0,0l0,0l0,0l0,0l0,0l0,0l0,0l0,0l0,0l0,0l0,0l0,0l0,0l0,0l0,0l0,0l0,0l0,0
	l0,0l0,0l0,0l0,0l0,0l0,0l0,0l0,0l0,0l0,0l0,0l0,0l0,0l0,0l0,0l0,0l0,0l0,0l0,0l0,0l0,0l0,0l0,0l0,0l0,0l0,0l0,0l0,0l0,0l0,0l0,0
	l0,0l0,0l0,0l0,0l0,0l0,0l0,0l0,0l0,0c0.3-0.4,0.6-0.8,0.9-1.3c0.6-0.9,0.4-2.1-0.5-2.8S115.6,109.1,115,110
	C115,110,115,110,115,110L115,110z"/>
<path class="st0" d="M122.5,99.1c-1-0.4-2.2,0.2-2.5,1.2c0,0,0,0,0,0c-0.4,1.1-0.8,2.3-1.3,3.4c-0.5,1,0,2.2,1,2.7
	c1,0.5,2.2,0,2.7-1c0,0,0,0,0,0c0.1-0.2,0.2-0.4,0.2-0.5l0,0l0,0l0,0l0,0l0,0l0,0l0,0l0,0l0,0l0,0l0,0l0,0l0,0l0,0l0,0l0,0
	c0.4-0.9,0.8-1.9,1.1-2.8l0,0l0,0l0,0l0,0l0,0l0,0l0,0l0,0l0,0l0,0l0,0l0,0l0,0l0,0l0,0l0,0l0,0l0,0l0,0l0,0l0,0l0,0l0,0v0l0,0
	C124.1,100.6,123.5,99.5,122.5,99.1z"/>
<path class="st0" d="M124,87.9C124,87.9,124,87.9,124,87.9c-1.2,0-2,0.8-2.1,1.9c-0.1,1.2-0.2,2.4-0.3,3.6c-0.2,1.1,0.6,2.1,1.7,2.3
	c0.1,0,0.2,0,0.3,0c1,0,1.8-0.7,2-1.7c0.1-1,0.3-2.1,0.3-3.1l0,0l0,0l0,0l0,0l0,0l0,0v0l0,0l0,0l0,0l0,0l0,0l0,0l0,0l0,0l0,0l0,0
	l0,0l0,0l0,0l0,0l0,0l0,0l0,0c0-0.2,0-0.4,0-0.7C126,88.8,125.2,87.9,124,87.9z"/>
<path class="st0" d="M84,130c0.2,0,0.4,0,0.6,0h0l0,0l0,0l0,0h0l0,0l0,0l0,0h0l0.1,0h0l0,0l0,0l0,0l0,0l0,0l0,0l0,0l0,0l0,0l0,0l0,0
	l0,0l0,0l0,0l0,0l0,0l0,0l0,0l0,0l0,0h0l0.1,0l0,0l0,0h0l0,0h0l0,0l0,0l0,0l0,0l0,0h0l0,0l0,0l0,0h0l0,0l0,0c0.4,0,0.8,0,1.2-0.1h0
	l0,0h0l0,0h0l0,0h0l0,0h0l0.1,0l0,0l0,0l0,0l0,0l0,0l0,0l0,0l0,0h0l0,0l0,0l0,0l0,0l0,0l0,0l0,0l0,0l0.1,0l0,0l0,0l0,0l0,0l0,0l0,0
	l0,0l0,0l0,0l0,0l0,0l0,0l0,0l0,0l0,0l0,0l0,0l0,0l0,0l0,0l0,0l0,0l0,0l0,0l0,0l0,0l0,0l0,0l0,0l0,0l0,0l0,0l0,0l0,0l0,0l0,0l0,0
	l0,0l0,0l0,0l0,0l0,0l0,0l0,0l0,0h0l0,0l0,0l0,0l0,0l0,0l0,0l0,0l0,0l0,0l0,0l0,0l0,0l0,0l0,0l0,0l0,0l0,0l0,0l0,0l0,0l0,0l0,0
	l0.1,0l0,0l0,0l0,0l0,0l0,0l0,0l0,0l0,0l0,0l0,0l0,0l0,0l0,0l0,0l0,0l0,0l0,0l0,0h0l0.1,0h0l0,0l0,0l0,0l0,0l0,0l0,0l0,0h0l0,0h0
	l0.2,0l0,0l0.1,0c1.1-0.1,1.9-1.1,1.8-2.2c-0.1-1-1-1.8-2-1.8c-0.1,0-0.1,0-0.2,0c-1.2,0.1-2.4,0.2-3.6,0.2c-1.1,0-2,0.9-2,2
	C82,129.1,82.9,130,84,130L84,130z M66.6,121.8c-1.1-0.6-2.1-1.2-3.1-1.8c-0.9-0.6-2.2-0.3-2.8,0.6c-0.6,0.9-0.3,2.2,0.6,2.8
	c1.1,0.7,2.3,1.4,3.5,2c1,0.5,2.2,0.1,2.7-0.9C68,123.5,67.6,122.3,66.6,121.8z"/>
<path class="st0" d="M76.8,125.3c-1.2-0.2-2.4-0.5-3.5-0.8c-1.1-0.3-2.2,0.3-2.5,1.4c-0.3,1.1,0.3,2.2,1.4,2.5
	c0.2,0.1,0.4,0.1,0.6,0.2l0,0l0,0l0,0l0,0l0,0l0,0l0,0l0,0l0,0l0,0l0,0l0,0l0,0l0,0l0,0l0,0l0,0l0,0l0,0l0,0l0,0l0,0l0,0l0.2,0l0,0
	l0,0l0,0l0,0l0,0l0,0l0,0l0,0l0,0l0,0l0,0l0,0l0,0l0,0l0,0l0,0l0,0l0,0l0,0l0,0l0,0l0,0l0,0l0,0l0,0l0,0l0,0l0,0l0,0
	c0.7,0.2,1.5,0.4,2.2,0.5l0,0l0,0l0,0l0,0l0,0l0,0l0,0l0,0l0,0l0,0l0,0l0,0l0,0l0,0l0,0l0,0l0,0l0,0l0,0l0,0l0,0l0,0l0.1,0l0,0
	c0.1,0,0.2,0,0.3,0.1c1.1,0.2,2.1-0.5,2.3-1.6C78.6,126.6,77.9,125.5,76.8,125.3L76.8,125.3z"/>
<path class="st0" d="M97.3,117.1c1-0.5,1.4-1.6,1-2.7s-1.6-1.4-2.7-1c0,0,0,0,0,0c-8,3.7-17.3,3.3-25-0.9c-1-0.5-2.2-0.2-2.7,0.8
	c-0.5,1-0.2,2.2,0.8,2.7l0,0C77.6,120.9,88.2,121.3,97.3,117.1L97.3,117.1z M58.5,76.3c0.5-1,0-2.2-1-2.7c-1-0.5-2.2,0-2.7,1
	c-4.2,9.2-3.8,19.8,1,28.6c0.5,1,1.7,1.3,2.7,0.8c1-0.5,1.3-1.7,0.8-2.7l0,0C55.2,93.6,54.9,84.4,58.5,76.3z M108.2,105.8
	c0.9,0.6,2.2,0.3,2.8-0.6c6.2-9.8,6.7-22.2,1.1-32.4c-0.5-1-1.7-1.3-2.7-0.8c-1,0.5-1.3,1.7-0.8,2.7c0,0,0,0,0,0
	c4.9,8.9,4.5,19.8-1,28.4C107,103.9,107.3,105.2,108.2,105.8z M67.9,64.7c0.4,0,0.8-0.1,1.1-0.3c8.6-5.5,19.4-5.8,28.4-1
	c1,0.5,2.2,0.2,2.7-0.8c0.5-1,0.2-2.2-0.8-2.7c-10.2-5.6-22.6-5.1-32.4,1.1c-0.9,0.6-1.2,1.8-0.6,2.8C66.6,64.3,67.2,64.7,67.9,64.7
	L67.9,64.7z"/>
<path class="st1" d="M95,79v-2c0-6.1-4.9-11-11-11s-11,4.9-11,11v2c-3.3,0-6,2.7-6,6v17c0,3.3,2.7,6,6,6h22c3.3,0,6-2.7,6-6V85
	C101,81.7,98.3,79,95,79z M77,77c0-3.9,3.1-7,7-7s7,3.1,7,7v2H77V77z M84.7,99.9L85,104h-2l0.3-4.1c-1-0.4-1.5-1.6-1.1-2.6
	s1.6-1.5,2.6-1.1s1.5,1.6,1.1,2.6C85.7,99.2,85.3,99.7,84.7,99.9z M97,102c0,1.1-0.9,2-2,2h-6c0-0.1,0-0.2,0-0.2l-0.1-2.2
	c1.9-2.7,1.4-6.4-1.3-8.4c-2.7-1.9-6.4-1.4-8.4,1.3c-1.5,2.1-1.5,4.9,0,7.1l-0.1,2.2c0,0.1,0,0.2,0,0.2h-6c-1.1,0-2-0.9-2-2V85
	c0-1.1,0.9-2,2-2h22c1.1,0,2,0.9,2,2V102z"/>
<path class="st0" d="M150.7,148H93.3c0.7-0.4,1.2-0.7,1.2-0.7c7-4.2,13.4-9.2,19.1-15.1c14.9-15.2,32.4-43.1,31.4-89.8
	c0-2.2-1.9-4-4.1-3.9c-0.2,0-0.4,0-0.5,0c-3.1,0.4-6.2,0.6-9.3,0.5c-10.2,0-29.5-1.8-44.5-14.2c-1.5-1.2-3.6-1.2-5.1,0
	c-15,12.4-34.4,14.2-44.5,14.2c-3.1,0-6.2-0.2-9.3-0.5c-2.2-0.3-4.2,1.2-4.6,3.4c0,0.2,0,0.3,0,0.5c-1,46.7,16.6,74.6,31.4,89.8
	c5.7,5.8,12.1,10.9,19.1,15.1c0,0,0.5,0.3,1.2,0.7H17.3c-1.1-0.1-2.1,0.6-2.3,1.7c-0.1,1.1,0.6,2.1,1.7,2.3c0.2,0,0.3,0,0.5,0h133.4
	c1.1,0.1,2.1-0.6,2.3-1.7s-0.6-2.1-1.7-2.3C151.1,148,150.9,148,150.7,148z M27,42.6c3.3,0.4,6.6,0.6,9.9,0.6
	c11.6,0,31.4-2.2,47.1-15.1c15.7,12.9,35.4,15.1,47.1,15.1c3.3,0,6.6-0.2,9.9-0.6C142.7,126,84.8,148,84,148l0,0l0,0
	C83.2,148,25.3,126,27,42.6z M55.1,8c1.7,0,3-1.3,3-3s-1.3-3-3-3s-3,1.3-3,3C52.1,6.7,53.4,8,55.1,8z M55.1,3.5
	c0.8,0,1.5,0.7,1.5,1.5s-0.7,1.5-1.5,1.5S53.6,5.8,53.6,5C53.6,4.2,54.3,3.5,55.1,3.5z M128,20.3c-1.1,0-2,0.9-2,2s0.9,2,2,2
	s2-0.9,2-2C130,21.2,129.1,20.3,128,20.3z M128,23.3c-0.6,0-1-0.4-1-1s0.4-1,1-1c0.6,0,1,0.4,1,1C129,22.9,128.6,23.3,128,23.3z
	 M149.9,3c-1.1,0-2,0.9-2,2s0.9,2,2,2s2-0.9,2-2C151.9,3.9,151,3,149.9,3z M149.9,6c-0.6,0-1-0.4-1-1s0.4-1,1-1s1,0.4,1,1
	C150.9,5.6,150.4,6,149.9,6z M158.5,61.3c-1.1,0-2,0.9-2,2s0.9,2,2,2s2-0.9,2-2C160.5,62.2,159.6,61.3,158.5,61.3z M158.5,64.3
	c-0.6,0-1-0.4-1-1s0.4-1,1-1s1,0.4,1,1C159.5,63.9,159.1,64.3,158.5,64.3z M12.5,69c0-1.1-0.9-2-2-2s-2,0.9-2,2s0.9,2,2,2
	C11.6,71,12.5,70.1,12.5,69z M9.5,69c0-0.6,0.4-1,1-1s1,0.4,1,1s-0.4,1-1,1C9.9,70,9.5,69.6,9.5,69z"/>
<polygon class="st0" points="10.9,15.1 12.4,13.2 11.4,12.6 10.5,14.8 10.4,14.8 9.5,12.6 8.5,13.2 10,15.1 10,15.1 7.7,14.8 
	7.7,15.9 10,15.6 10,15.6 8.5,17.5 9.4,18.1 10.4,15.9 10.5,15.9 11.4,18.1 12.4,17.5 10.9,15.7 10.9,15.6 13.2,15.9 13.2,14.8 
	10.9,15.2 "/>
<polygon class="st0" points="41.8,27.2 40.9,28.3 41.4,28.6 42,27.3 42,27.3 42.6,28.6 43.1,28.2 42.3,27.2 42.3,27.1 43.6,27.3 
	43.6,26.7 42.3,26.9 42.3,26.9 43.1,25.7 42.6,25.4 42,26.7 42,26.7 41.5,25.4 40.9,25.7 41.8,26.8 41.8,26.9 40.4,26.7 40.4,27.3 
	41.8,27.1 "/>
<polygon class="st0" points="164.7,27.5 164.7,26.5 162.4,26.8 162.4,26.8 163.9,24.8 162.9,24.3 162,26.5 162,26.5 161,24.3 
	160.1,24.9 161.5,26.7 161.5,26.8 159.3,26.5 159.3,27.5 161.5,27.2 161.5,27.3 160.1,29.1 161,29.7 162,27.5 162,27.5 162.9,29.7 
	163.9,29.1 162.4,27.3 162.4,27.2 "/>
<polygon class="st0" points="92.5,15.2 93.8,13.5 93,13.1 92.2,14.9 92.2,14.9 91.4,13.1 90.5,13.5 91.8,15.1 91.8,15.2 89.8,14.9 
	89.8,15.8 91.8,15.6 91.8,15.6 90.5,17.2 91.3,17.7 92.2,15.8 92.2,15.8 93,17.7 93.8,17.2 92.5,15.6 92.5,15.6 94.5,15.8 
	94.5,14.9 92.5,15.2 "/>
</svg>
