<?xml version="1.0" encoding="utf-8"?>
<!-- Generator: Adobe Illustrator 24.3.0, SVG Export Plug-In . SVG Version: 6.00 Build 0)  -->
<svg version="1.1" id="Слой_1" xmlns="http://www.w3.org/2000/svg" xmlns:xlink="http://www.w3.org/1999/xlink" x="0px" y="0px"
	 viewBox="0 0 168 168" style="enable-background:new 0 0 168 168;" xml:space="preserve">
<style type="text/css">
	.st0{fill:#333333;}
	.st1{fill:#9BD63E;}
</style>
<path class="st0" d="M106,86.2c0-12.2-9.8-22-21.9-22.1c-12.2,0-22,9.8-22.1,21.9c0,12.2,9.8,22,21.9,22.1c0,0,0.1,0,0.1,0
	C96.1,108.2,106,98.4,106,86.2z M66,86.2c0-9.9,8-18,17.9-18.1c9.9,0,18,8,18.1,17.9s-8,18-17.9,18.1c0,0,0,0-0.1,0
	C74.1,104.2,66,96.2,66,86.2z"/>
<path class="st1" d="M86.1,98.2v-1.8c1.7-0.3,3.1-1.3,4-2.7c1.2-1.9,1.2-4.4,0-6.3c-1.3-2.3-3.8-3-5.7-3.6c-2.1-0.6-3.1-1-3.4-2.1
	c-0.2-0.9,0.3-1.8,1.2-2.1c1.3-0.5,2.8-0.3,3.9,0.5c0.9,0.6,2.2,0.4,2.8-0.5c0.6-0.9,0.4-2.2-0.5-2.8c-0.5-0.4-1.1-0.6-1.7-0.9v-1.6
	c0-1.1-0.9-2-2-2s-2,0.9-2,2v1.1c-0.7,0.1-1.4,0.3-2.1,0.6c-2.7,1.1-4.2,4.1-3.4,6.9c1,3.2,3.9,4.1,6.1,4.7c1.8,0.5,2.9,0.9,3.4,1.8
	c0.4,0.7,0.4,1.5,0,2.2c-0.7,1.1-2.3,1.3-3.7,1c-0.5-0.1-1-0.4-1.5-0.7c-0.8-0.7-2.1-0.6-2.8,0.2c-0.7,0.8-0.6,2.1,0.2,2.8
	c0,0,0,0,0,0c0.9,0.7,1.9,1.3,3,1.5v1.7c0,1.1,0.9,2,2,2S86.1,99.3,86.1,98.2z"/>
<path class="st0" d="M75.9,123.8l16,11c0.9,0.6,2.2,0.4,2.8-0.5c0.2-0.3,0.4-0.7,0.4-1.1v-1h3c12.1,0,22-9.8,22-21.9
	c0,0,0-26.3-0.1-26.5c-1-14-10.2-26.2-23.4-31c-0.4,1.1-1.2,2-2.2,2.7l-0.8,0.5c16.8,5.2,26.2,23,20.9,39.8
	c-2.3,7.5-7.3,13.8-14,17.8c0,0-0.1,0-0.1,0H95v-2.3c0-1.1-0.9-2-2-2c-0.4,0-0.8,0.1-1.1,0.4l-16,11c-0.9,0.6-1.1,1.9-0.5,2.8
	C75.5,123.4,75.7,123.6,75.9,123.8z M91,115v0.5c0,1.1,0.9,2,2,2l8.4,0.1c6.2-3.4,11.3-8.6,14.6-14.9v7.5c0,9.9-8.1,17.9-18,17.9h-5
	c-0.8,0-1.6,0.5-1.9,1.3l-10.6-7.3L91,115z M74.1,63.1c0.7,0.3,1.5,0.3,2.1-0.1l16-11c0.9-0.6,1.1-1.9,0.5-2.8
	c-0.1-0.2-0.3-0.4-0.5-0.5l-16-11c-0.9-0.6-2.2-0.4-2.8,0.5C73.1,38.6,73,39,73,39.4v1h-3c-12.1,0-22,9.8-22,21.9v25.9
	c0,0.2,0,0.4,0.1,0.6c1,14,10.2,26.2,23.4,31c0.4-1.1,1.2-2,2.2-2.7l0.8-0.5c-16.8-5.2-26.2-23.1-20.9-39.8
	c2.3-7.4,7.3-13.8,14-17.8c0,0,0.1,0,0.1,0H73v2.3C73,62.1,73.4,62.8,74.1,63.1L74.1,63.1z M66.7,54.8c-6.3,3.4-11.4,8.7-14.7,15
	v-7.5c0-9.9,8.1-17.9,18-17.9h5c0.8,0,1.6-0.5,1.9-1.3l10.6,7.3L77,57.5V57c0-1.1-0.9-2-2-2L66.7,54.8z M89.2,15.2c1.7,0,3-1.3,3-3
	s-1.3-3-3-3s-3,1.3-3,3C86.3,13.9,87.6,15.2,89.2,15.2z M89.2,10.7c0.8,0,1.5,0.7,1.5,1.5s-0.7,1.5-1.5,1.5s-1.5-0.7-1.5-1.5
	C87.8,11.4,88.4,10.8,89.2,10.7z M125.1,6.7c-1.1,0-2,0.9-2,2s0.9,2,2,2s2-0.9,2-2C127.1,7.6,126.2,6.8,125.1,6.7z M125.1,9.7
	c-0.6,0-1-0.4-1-1s0.4-1,1-1s1,0.4,1,1C126.1,9.3,125.6,9.7,125.1,9.7z M61.1,3.7c-1.1,0-2,0.9-2,2s0.9,2,2,2s2-0.9,2-2
	C63.1,4.6,62.2,3.8,61.1,3.7z M61.1,6.7c-0.6,0-1-0.4-1-1s0.4-1,1-1s1,0.4,1,1C62.1,6.3,61.6,6.7,61.1,6.7z M136,31.7
	c-1.1,0-2,0.9-2,2s0.9,2,2,2s2-0.9,2-2C138,32.6,137.1,31.8,136,31.7z M136,34.7c-0.6,0-1-0.4-1-1s0.4-1,1-1s1,0.4,1,1
	C137,34.3,136.6,34.7,136,34.7z M17.1,58.7c0-1.1-0.9-2-2-2s-2,0.9-2,2s0.9,2,2,2C16.2,60.7,17.1,59.9,17.1,58.7z M14.1,58.7
	c0-0.6,0.4-1,1-1s1,0.4,1,1s-0.4,1-1,1C14.5,59.7,14.1,59.3,14.1,58.7z"/>
<path class="st0" d="M35.1,27.6l1.5-2l-0.9-0.5l-1,2.2h0l-1-2.2l-1,0.5l1.5,1.9v0l-2.3-0.3v1.1l2.3-0.3v0L32.8,30l0.9,0.6l1-2.2h0
	l0.9,2.2l1-0.6l-1.5-1.9v0l2.4,0.3v-1.1L35.1,27.6C35.1,27.6,35.1,27.6,35.1,27.6z M8.8,16.8L8,17.9l0.5,0.3L9.1,17h0l0.5,1.3
	l0.6-0.3l-0.9-1.1v0l1.4,0.2v-0.6l-1.4,0.2v0l0.9-1.1l-0.5-0.3l-0.6,1.3h0l-0.6-1.3L8,15.4l0.8,1.1v0l-1.3-0.2V17L8.8,16.8
	C8.8,16.8,8.8,16.8,8.8,16.8z M159.1,49.5v-1l-2.3,0.3v0l1.5-1.9l-0.9-0.5l-0.9,2.1h0l-1-2.1l-0.9,0.5l1.4,1.9v0l-2.3-0.3v1l2.3-0.3
	v0l-1.5,1.9l0.9,0.6l1-2.2h0l0.9,2.1l1-0.6l-1.5-1.8v0L159.1,49.5L159.1,49.5z M158.5,7.3l1.3-1.7L159,5.2l-0.8,1.9h0l-0.8-1.8
	l-0.8,0.5l1.2,1.6v0l-1.9-0.3V8l2-0.3v0l-1.3,1.6l0.8,0.5l0.9-1.9h0l0.8,1.9l0.8-0.5l-1.3-1.6v0l2,0.2V7.1L158.5,7.3L158.5,7.3
	L158.5,7.3z"/>
<circle class="st0" cx="2" cy="148.2" r="2"/>
<path class="st0" d="M11,146.2H8c-1.1,0-2,0.9-2,2s0.9,2,2,2h3c1.1,0,2-0.9,2-2S12.1,146.2,11,146.2z M160,146.2h-3
	c-1.1,0-2,0.9-2,2s0.9,2,2,2h3c1.1,0,2-0.9,2-2S161.1,146.2,160,146.2z"/>
<circle class="st0" cx="166" cy="148.2" r="2"/>
<path class="st1" d="M118.2,154.2h-8.3c-1.1,0.1-1.9,1.1-1.8,2.2c0.1,1,0.9,1.8,1.8,1.8h8.3c1.1-0.1,1.9-1.1,1.8-2.2
	C119.9,155.1,119.1,154.3,118.2,154.2z M58.2,154.2h-8.3c-1.1,0.1-1.9,1.1-1.8,2.2c0.1,1,0.9,1.8,1.8,1.8h8.3
	c1.1-0.1,1.9-1.1,1.8-2.2C59.9,155.1,59.1,154.3,58.2,154.2z M104,154.2H64c-1.1,0-2,0.9-2,2s0.9,2,2,2h15.9v2H72c-1.1,0-2,0.9-2,2
	s0.9,2,2,2h25c1.1,0,2-0.9,2-2s-0.9-2-2-2h-8.9v-2H104c1.1,0,2-0.9,2-2S105.1,154.2,104,154.2z"/>
<path class="st0" d="M150.7,146.2h-47.5c19.4-7.2,34.4-23.9,39.3-45.6c0.2-1.1-0.5-2.1-1.6-2.4c-1-0.2-2.1,0.4-2.3,1.5
	C132.5,127,109.2,146,82,146c-32,0-58-26.8-58-59.8s26-59.8,58-59.8c30.8,0,56.1,24.9,57.9,56.2l-0.4-0.7c-0.6-0.9-1.8-1.2-2.8-0.6
	c-0.9,0.6-1.2,1.8-0.6,2.8l4.1,6.3c0.6,0.9,1.8,1.2,2.8,0.6c0.2-0.2,0.4-0.4,0.6-0.6l4.1-6.3c0.6-0.9,0.3-2.2-0.6-2.8
	c-0.9-0.6-2.2-0.3-2.8,0.6l0,0l-0.3,0.5c-1.9-33.5-28.9-60.1-61.9-60.1c-34.2,0-62,28.6-62,63.8c0,27.6,17.1,51.1,41,60H17.3
	c-1.1-0.1-2.1,0.6-2.3,1.7c-0.1,1.1,0.6,2.1,1.7,2.3c0.2,0,0.3,0,0.5,0h133.4c1.1,0.1,2.1-0.6,2.3-1.7s-0.6-2.1-1.7-2.3
	C151.1,146.2,150.9,146.2,150.7,146.2L150.7,146.2z"/>
</svg>
