<?xml version="1.0" encoding="utf-8"?>
<!-- Generator: Adobe Illustrator 24.3.0, SVG Export Plug-In . SVG Version: 6.00 Build 0)  -->
<svg version="1.1" id="Слой_1" xmlns="http://www.w3.org/2000/svg" xmlns:xlink="http://www.w3.org/1999/xlink" x="0px" y="0px"
	 viewBox="0 0 168 168" style="enable-background:new 0 0 168 168;" xml:space="preserve">
<style type="text/css">
	.st0{fill:#333333;}
	.st1{fill:#9BD63E;}
</style>
<path class="st0" d="M90.8,100.8c0,9.3-7.5,16.8-16.8,16.8s-16.8-7.5-16.8-16.8C57.2,91.5,64.7,84,74,84
	C83.3,84,90.8,91.5,90.8,100.8L90.8,100.8z M53.2,100.8c0,11.5,9.3,20.8,20.8,20.8s20.8-9.3,20.8-20.8C94.8,89.3,85.5,80,74,80
	C62.5,80,53.2,89.3,53.2,100.8z"/>
<path class="st1" d="M120,112.4c-0.9-0.6-2.1-0.4-2.8,0.5c-0.5,0.7-2.1,3.2-0.9,5.3c0.5,0.9,1.7,1.3,2.6,0.8c1-0.5,1.4-1.6,1-2.6
	c0.1-0.4,0.3-0.8,0.6-1.2C121.1,114.3,120.9,113,120,112.4z M107.2,112.3c-0.9,0.6-1.2,1.8-0.6,2.8c0.1,0.2,0,0.5-0.1,0.7
	c-0.5,1-0.1,2.2,0.9,2.7c1,0.5,2.2,0.1,2.7-0.9c0.8-1.5,0.7-3.2-0.1-4.6C109.4,112,108.1,111.7,107.2,112.3z M87.7,36.3
	c-0.4-0.2-0.7-0.6-0.7-1.1c0-1.1-0.9-2-2-2c-1.1,0-2,0.9-2,2c0,2,1.2,3.9,3,4.7c1,0.5,2.2,0,2.6-1C89.1,38,88.7,36.8,87.7,36.3z
	 M78,28.7c-0.5-0.1-1.1-0.1-1.5,0.2c-0.5,0.3-0.8,0.7-0.9,1.2c-0.4,0.3-0.9,0.5-1.4,0.6c-1,0.2-1.8,1.1-1.7,2.1c0.1,1,0.9,1.8,2,1.8
	c0.1,0,0.2,0,0.3,0c0.4-0.1,3.9-0.7,4.6-3.5C79.7,30.1,79.1,29,78,28.7z M66.4,31.8c-2.3,0.5-4.2,2.2-4.8,4.5
	c-0.2,1.1,0.5,2.1,1.5,2.4c1.1,0.2,2.1-0.5,2.4-1.5c0.3-0.8,1-1.3,1.8-1.5c1.1-0.3,1.7-1.3,1.5-2.4C68.5,32.2,67.4,31.5,66.4,31.8z
	 M78.7,95.4c-0.6,4.2-2.1,7.2-4.3,9.1c-1.5,1.3-3.4,2-5.3,2.2c-0.1-2.2,0.5-4.3,1.7-6.2C72.3,98.2,75,96.5,78.7,95.4z M67.4,98.3
	c-2.1,3.2-2.8,7.1-2.1,10.8c0.2,0.8,0.9,1.5,1.7,1.6c0.4,0,0.7,0.1,1.1,0.1c3.2,0,6.3-1.1,8.8-3.2c3.6-3,5.6-8,6-14.6
	c0-0.6-0.2-1.2-0.7-1.6c-0.5-0.4-1.1-0.6-1.7-0.5C74.4,92,70,94.5,67.4,98.3z"/>
<path class="st0" d="M21.8,45.6c0-0.6,0.4-1,1-1c0.6,0,1,0.4,1,1c0,0.6-0.4,1-1,1C22.3,46.6,21.8,46.2,21.8,45.6z M24.8,45.6
	c0-1.1-0.9-2-2-2c-1.1,0-2,0.9-2,2c0,1.1,0.9,2,2,2C23.9,47.6,24.8,46.7,24.8,45.6z M114.9,20.4c-0.6,0-1-0.4-1-1c0-0.6,0.4-1,1-1
	c0.5,0,1,0.4,1,1C115.9,20,115.5,20.4,114.9,20.4z M114.9,17.4c-1.1,0-2,0.9-2,2c0,1.1,0.9,2,2,2c1.1,0,2-0.9,2-2
	C116.9,18.3,116,17.4,114.9,17.4z M137.1,8.1c-0.6,0-1-0.4-1-1c0-0.6,0.4-1,1-1c0.6,0,1,0.4,1,1C138.1,7.7,137.7,8.1,137.1,8.1z
	 M137.1,5.1c-1.1,0-2,0.9-2,2c0,1.1,0.9,2,2,2c1.1,0,2-0.9,2-2C139.1,6,138.2,5.1,137.1,5.1z M36.7,7.3c-0.6,0-1-0.4-1-1
	c0-0.6,0.4-1,1-1c0.6,0,1,0.4,1,1C37.7,6.8,37.2,7.3,36.7,7.3z M36.7,4.3c-1.1,0-2,0.9-2,2c0,1.1,0.9,2,2,2c1.1,0,2-0.9,2-2
	C38.7,5.2,37.8,4.3,36.7,4.3z M84,7c0.8,0,1.5,0.7,1.5,1.5c0,0.8-0.7,1.5-1.5,1.5c-0.8,0-1.5-0.7-1.5-1.5C82.5,7.6,83.2,7,84,7z
	 M84,11.5c1.7,0,3-1.3,3-3c0-1.7-1.3-3-3-3c-1.7,0-3,1.3-3,3C81,10.1,82.3,11.5,84,11.5z"/>
<polygon class="st0" points="59.6,20.5 61.1,18.5 60.1,18 59.2,20.2 59.1,20.2 58.2,18 57.2,18.6 58.7,20.5 58.7,20.5 56.4,20.2 
	56.4,21.3 58.7,21 58.7,21 57.2,22.9 58.1,23.5 59.1,21.3 59.2,21.3 60.1,23.5 61.1,22.9 59.6,21 59.6,21 61.9,21.3 61.9,20.2 
	59.6,20.5 "/>
<polygon class="st0" points="8,17.7 7.1,18.8 7.6,19.2 8.2,17.9 8.2,17.9 8.8,19.2 9.3,18.8 8.5,17.8 8.5,17.7 9.8,17.9 9.8,17.3 
	8.5,17.5 8.5,17.4 9.3,16.3 8.8,16 8.2,17.3 8.2,17.3 7.7,16 7.1,16.3 8,17.4 8,17.5 6.6,17.3 6.6,17.9 8,17.7 "/>
<polygon class="st0" points="142.6,43.4 142.6,42.4 140.2,42.7 140.2,42.7 141.7,40.7 140.8,40.2 139.8,42.4 139.8,42.4 138.9,40.2 
	137.9,40.8 139.4,42.6 139.4,42.7 137.1,42.4 137.1,43.4 139.4,43.1 139.4,43.2 137.9,45 138.8,45.6 139.8,43.4 139.8,43.4 
	140.7,45.6 141.7,45 140.2,43.2 140.2,43.1 "/>
<polygon class="st0" points="162.2,21.4 163.4,19.8 162.6,19.3 161.8,21.2 161.8,21.2 161,19.3 160.2,19.8 161.4,21.4 161.4,21.4 
	159.5,21.2 159.5,22.1 161.4,21.8 161.4,21.9 160.2,23.5 160.9,23.9 161.8,22.1 161.8,22.1 162.6,23.9 163.4,23.5 162.2,21.9 
	162.2,21.8 164.2,22.1 164.2,21.2 162.2,21.4 "/>
<circle class="st0" cx="2" cy="147.7" r="2"/>
<path class="st0" d="M160,145.7h-3c-1.1,0-2,0.9-2,2c0,1.1,0.9,2,2,2h3c1.1,0,2-0.9,2-2C162,146.6,161.1,145.7,160,145.7z M11,145.7
	H8c-1.1,0-2,0.9-2,2c0,1.1,0.9,2,2,2h3c1.1,0,2-0.9,2-2C13,146.6,12.1,145.7,11,145.7z"/>
<circle class="st0" cx="166" cy="147.7" r="2"/>
<path class="st1" d="M104,153.7H64c-1.1,0-2,0.9-2,2c0,1.1,0.9,2,2,2h15.9v2H72c-1.1,0-2,0.9-2,2c0,1.1,0.9,2,2,2h25
	c1.1,0,2-0.9,2-2c0-1.1-0.9-2-2-2h-8.9v-2H104c1.1,0,2-0.9,2-2C106,154.6,105.1,153.7,104,153.7z M58.2,153.7h-8.3
	c-1,0.1-1.8,1-1.8,2c0,1,0.8,1.9,1.8,2h8.3c1-0.1,1.8-1,1.8-2C60,154.7,59.2,153.8,58.2,153.7z M118.2,153.7h-8.3
	c-1,0.1-1.8,1-1.8,2c0,1,0.8,1.9,1.8,2h8.3c1-0.1,1.8-1,1.8-2C120,154.7,119.2,153.8,118.2,153.7z"/>
<path class="st0" d="M92.1,125.7h43.8c-1,11.3-10.5,20-21.9,20S93.1,137,92.1,125.7z M100.7,118.7c0.6-0.1,1.1-0.4,1.5-0.9
	c0.3-0.5,0.4-1.1,0.2-1.7c-0.1-0.5-0.2-1-0.2-1.4c0-2.6,2-4.8,4.6-5c0.8-0.1,1.5-0.6,1.7-1.4c0.7-2.1,2.7-3.6,5-3.6
	c2.3,0,4.3,1.4,5,3.6c0.3,0.9,1.1,1.4,2,1.4l0.2,0c2.8,0,5.1,2.2,5.2,5c0,0.5-0.1,1-0.2,1.4c-0.2,0.6-0.1,1.2,0.2,1.7
	c0.3,0.5,0.9,0.8,1.5,0.9c1.8,0.2,3.4,1.3,4.2,3H96.4C97.2,120,98.8,118.9,100.7,118.7z M44.6,53v-3.1c0-2.3,1.9-4.2,4.2-4.2h50.4
	c2.3,0,4.2,1.9,4.2,4.2V53c0,2.5-2,4.7-4.2,4.7c0,0-0.1,0-0.1,0c0,0-0.1,0-0.1,0H49c0,0-0.1,0-0.1,0c0,0-0.1,0-0.1,0
	C46.6,57.7,44.6,55.5,44.6,53z M74,25.7c9.2,0,17,8.1,20.3,16H53.7C57,33.8,64.8,25.7,74,25.7z M150.7,145.7h-22.9
	c7.6-4.8,12.2-13.1,12.2-22c0-1.1-0.9-2-2-2h-2.2c-0.7-3.1-3-5.5-5.9-6.5c0-0.2,0-0.3,0-0.5c0-4.6-3.5-8.4-8.1-8.9
	c-1.6-3.1-4.8-5.1-8.4-5.1c-3.5,0-6.7,2.1-8.2,5.3c-4.1,0.9-7,4.6-7,8.7c0,0.2,0,0.3,0,0.5c-3,1-5.2,3.5-5.9,6.5H90
	c-1.1,0-2,0.9-2,2c0,8.9,4.6,17.2,12.2,22H37.4c-3,0-5.4-2.4-5.4-5.4c0-6.3,10.6-7.7,10.7-7.7c0.7-0.1,1.3-0.6,1.6-1.2
	c0.3-0.7,0.2-1.4-0.3-2c-18.7-22.7-2.8-48,4.9-57.8c1.9-2.4,2.7-5.5,2.3-8.6l-0.2-1.2h45.7c-0.4,3,0.4,5.9,2.2,8.3
	c4.1,5.4,10.5,15.3,12.8,26.8c0.6-0.1,1.1-0.1,1.7-0.1c0.8,0,1.5,0.1,2.3,0.2c-2.5-13.4-10-24.6-13.6-29.3c-1.2-1.6-1.7-3.7-1.4-5.7
	l0.1-0.4c3.9-1,6.6-4.5,6.5-8.5v-3.1c0-4.5-3.7-8.2-8.2-8.2h-0.6c-3.5-9.7-12.9-20-24.6-20s-21.1,10.3-24.6,20h-0.6
	c-4.5,0-8.2,3.7-8.2,8.2V53c0,4,2.6,7.4,6.5,8.5l0.3,2c0.3,2-0.3,4-1.5,5.6c-6.3,8-24.7,35.3-6.9,60.3c-4.2,1.2-10.9,4.1-10.9,11
	c0,1.9,0.6,3.8,1.7,5.4H17.3c-0.8-0.1-1.5,0.3-2,0.9c-0.4,0.7-0.4,1.5,0,2.2c0.4,0.7,1.2,1,2,0.9h133.4c0.8,0.1,1.5-0.3,2-0.9
	c0.4-0.7,0.4-1.5,0-2.2C152.3,146,151.5,145.6,150.7,145.7z"/>
</svg>
