<?xml version="1.0" encoding="utf-8"?>
<!-- Generator: Adobe Illustrator 24.3.0, SVG Export Plug-In . SVG Version: 6.00 Build 0)  -->
<svg version="1.1" id="Слой_1" xmlns="http://www.w3.org/2000/svg" xmlns:xlink="http://www.w3.org/1999/xlink" x="0px" y="0px"
	 viewBox="0 0 168 168" style="enable-background:new 0 0 168 168;" xml:space="preserve">
<style type="text/css">
	.st0{fill:#9BD63E;}
	.st1{fill:#FFC813;}
</style>
<path class="st0" d="M52.2,64.2C42.2,64.1,34.1,72.1,34,82c0,1.1,0.9,2,2,2s2-0.9,2-2c0.1-7.7,6.4-13.9,14.2-13.8c1.1,0,2-0.9,2-2
	S53.3,64.2,52.2,64.2z M125.1,36.6c6.2,4.4,7.8,13,3.4,19.2c-0.6,0.9-0.4,2.1,0.5,2.8c0.9,0.6,2.1,0.4,2.8-0.5l0,0
	c5.6-8.1,3.7-19.1-4.3-24.8c-0.9-0.6-2.1-0.4-2.8,0.5C124,34.7,124.2,36,125.1,36.6z M121.6,132.7c-6.3,4.1-14.8,2.6-19-3.3
	c-0.6-0.9-1.9-1.1-2.8-0.5c-0.9,0.6-1.1,1.9-0.5,2.8c3.3,4.7,8.7,7.4,14.5,7.3c3.5,0,7-1,10-2.9c0.9-0.6,1.2-1.8,0.6-2.8
	S122.6,132.1,121.6,132.7C121.6,132.7,121.6,132.7,121.6,132.7z M160,6c0-1.7-1.3-3-3-3s-3,1.3-3,3s1.3,3,3,3C158.7,9,160,7.7,160,6
	z M155.5,6c0-0.8,0.7-1.5,1.5-1.5s1.5,0.7,1.5,1.5s-0.7,1.5-1.5,1.5C156.2,7.5,155.5,6.8,155.5,6z M53,9c1.7,0,3-1.3,3-3s-1.3-3-3-3
	s-3,1.3-3,3C50,7.7,51.3,9,53,9z M53,4.5c0.8,0,1.5,0.7,1.5,1.5S53.8,7.5,53,7.5S51.5,6.8,51.5,6C51.5,5.2,52.2,4.5,53,4.5z M160,40
	c-1.1,0-2,0.9-2,2s0.9,2,2,2s2-0.9,2-2C162,40.9,161.1,40,160,40z M160,43c-0.6,0-1-0.4-1-1s0.4-1,1-1s1,0.4,1,1
	C161,42.6,160.6,43,160,43z M89,14c1.1,0,2-0.9,2-2s-0.9-2-2-2s-2,0.9-2,2C87,13.1,87.9,14,89,14z M89,11c0.6,0,1,0.4,1,1
	s-0.4,1-1,1s-1-0.4-1-1C88,11.4,88.4,11,89,11z M34,56c1.1,0,2-0.9,2-2s-0.9-2-2-2s-2,0.9-2,2C32,55.1,32.9,56,34,56z M34,53
	c0.6,0,1,0.4,1,1s-0.4,1-1,1s-1-0.4-1-1C33,53.4,33.4,53,34,53z"/>
<circle class="st1" cx="2" cy="146" r="2"/>
<path class="st1" d="M11,144H8c-1.1,0-2,0.9-2,2s0.9,2,2,2h3c1.1,0,2-0.9,2-2S12.1,144,11,144z M160,144h-3c-1.1,0-2,0.9-2,2
	s0.9,2,2,2h3c1.1,0,2-0.9,2-2S161.1,144,160,144z"/>
<circle class="st1" cx="166" cy="146" r="2"/>
<path class="st1" d="M150.7,144h-21.4c13.3-8,17.7-25.3,9.7-38.7c-2.4-4-5.8-7.4-9.9-9.8c-4.7-2.5-10-3.8-15.3-3.6c-2.8,0-8-1.7-8-8
	c-0.2-4.3,3.2-7.9,7.4-8c0.2,0,0.4,0,0.5,0c5.3,0.1,10.6-1.2,15.3-3.6c13.4-7.9,17.9-25.2,10-38.6c-2.4-4.1-5.8-7.5-9.9-10
	c-4.3-2.5-9.2-3.8-14.1-3.7c-4.8-0.1-9.6,1.2-13.7,3.6c-8.6,5.1-13.9,14.3-13.9,24.3c0,4.5,1.5,9.4,4.5,14.8
	c0.9,1.8,1.3,3.9,1.1,5.9C92.7,71,91.1,73,88.9,74c-1.1,0.7-2.4,1-3.7,1c-3.1-0.1-5.9-1.7-7.4-4.3c-3-4.3-6.8-8.1-11.1-11.1
	c-8.6-5.1-19.2-5.1-27.8,0C25.4,67.5,21,84.8,28.9,98.2c2.4,4.1,5.8,7.5,9.9,9.9c8.6,5,19.2,5,27.7,0c4.6-2.7,8.3-6.6,10.8-11.3
	c0.9-1.6,3.4-4.3,6.9-4.3c1.5,0,2.9,0.5,4.2,1.2c3.7,2.4,5,7.2,3.1,11.2c-2.6,4.5-4,9.7-4.1,14.9c0,9.9,5.2,19.1,13.7,24.2H17.3
	c-1.1-0.1-2.1,0.6-2.3,1.7c-0.1,1.1,0.6,2.1,1.7,2.3c0.2,0,0.3,0,0.5,0h133.4c1.1,0.1,2.1-0.6,2.3-1.7s-0.6-2.1-1.7-2.3
	C151.1,144,150.9,144,150.7,144z M103.3,140.7c-7.4-4.4-11.9-12.3-11.9-20.8c0.1-4.6,1.3-9,3.6-13l0-0.1l0-0.1
	c2.8-5.8,0.8-12.9-4.6-16.4l0,0l0,0c-1.9-1.1-4-1.7-6.2-1.7c-5,0-8.7,3.4-10.3,6.3l0,0l0,0c-2.1,4-5.3,7.4-9.2,9.7l0,0l0,0
	c-7.3,4.3-16.4,4.3-23.7,0c-11.5-6.8-15.3-21.7-8.5-33.2c2.1-3.5,5-6.5,8.5-8.5c7.3-4.3,16.3-4.3,23.6,0c3.8,2.7,7.2,6.1,9.9,9.9
	c2.3,3.7,6.3,6,10.7,6.1c2,0,4-0.5,5.7-1.5c3.3-1.5,5.7-4.6,6.2-8.2c0.3-2.8-0.2-5.7-1.5-8.3l0-0.1l0-0.1c-2.7-4.9-4-9.1-4-12.9
	c0-8.6,4.6-16.5,11.9-20.8l0,0l0,0c3.5-2.1,7.5-3.1,11.6-3c4.2-0.1,8.3,1,12,3.1l0,0l0.1,0c11.5,6.8,15.3,21.6,8.5,33.1
	c-2.1,3.5-5,6.4-8.5,8.5c-4.1,2.1-8.7,3.2-13.3,3.1c-6.5-0.1-11.8,5-12,11.5c0,0.2,0,0.4,0,0.5c0,8.8,7.2,12,12,12
	c4.6-0.1,9.2,0.9,13.3,3.1c11.5,6.8,15.4,21.6,8.6,33.1c-2.1,3.5-5,6.5-8.6,8.6C119.8,145.1,110.6,145.1,103.3,140.7L103.3,140.7z"
	/>
<path class="st0" d="M60.7,66.1c-1-0.4-2.2,0.2-2.5,1.2c-0.4,1,0.2,2.1,1.2,2.5c0,0,0,0,0,0c1,0.4,2.2-0.2,2.5-1.2
	C62.2,67.6,61.7,66.5,60.7,66.1C60.7,66.1,60.7,66.1,60.7,66.1z M119.5,30.1c-1-0.3-2.1,0.3-2.4,1.3c0,0,0,0,0,0
	c-0.3,1,0.3,2.1,1.4,2.4c1,0.3,2.1-0.3,2.4-1.3c0,0,0,0,0,0C121.1,31.5,120.5,30.4,119.5,30.1z M129.2,127.4
	c-0.9-0.6-2.1-0.4-2.7,0.4c-0.6,0.8-0.5,1.9,0.3,2.5c0,0,0.1,0,0.1,0.1c0.9,0.6,2.1,0.4,2.7-0.4c0.6-0.8,0.5-1.9-0.3-2.5
	C129.3,127.4,129.3,127.4,129.2,127.4z"/>
<polygon class="st1" points="6.6,19 8.1,17.1 7.1,16.5 6.2,18.7 6.1,18.7 5.2,16.5 4.2,17.1 5.7,19 5.7,19 3.4,18.7 3.4,19.8 
	5.7,19.5 5.7,19.5 4.2,21.4 5.1,22 6.1,19.8 6.2,19.8 7.1,22 8.1,21.4 6.6,19.5 6.6,19.5 8.9,19.8 8.9,18.7 6.6,19 "/>
<polygon class="st1" points="46.3,27.8 47.1,26.6 46.6,26.3 46,27.6 46,27.6 45.5,26.3 44.9,26.7 45.8,27.8 45.8,27.8 44.4,27.6 
	44.4,28.2 45.8,28 45.8,28.1 44.9,29.2 45.4,29.5 46,28.2 46,28.2 46.6,29.5 47.1,29.2 46.3,28.1 46.3,28.1 47.6,28.2 47.6,27.6 
	46.3,27.8 "/>
<polygon class="st1" points="150,33.7 150,32.7 147.7,33 147.7,32.9 149.1,31 148.2,30.5 147.3,32.7 147.3,32.7 146.3,30.5 
	145.4,31.1 146.8,32.9 146.8,33 144.6,32.7 144.6,33.7 146.8,33.4 146.8,33.5 145.4,35.3 146.2,35.9 147.2,33.7 147.3,33.7 
	148.2,35.9 149.2,35.3 147.7,33.5 147.7,33.4 "/>
<polygon class="st1" points="119.4,14.6 120.7,12.9 119.9,12.5 119.1,14.3 119.1,14.3 118.3,12.5 117.4,13 118.7,14.6 118.7,14.6 
	116.7,14.3 116.7,15.2 118.7,15 118.7,15 117.4,16.6 118.2,17.1 119.1,15.2 119.1,15.2 119.9,17.1 120.7,16.6 119.4,15 119.4,15 
	121.4,15.2 121.4,14.3 119.4,14.6 "/>
<path class="st0" d="M118.2,153h-8.3c-1.1,0.1-1.9,1.1-1.8,2.2c0.1,1,0.9,1.8,1.8,1.8h8.3c1.1-0.1,1.9-1.1,1.8-2.2
	C119.9,153.9,119.1,153.1,118.2,153z M58.2,153h-8.3c-1.1,0.1-1.9,1.1-1.8,2.2c0.1,1,0.9,1.8,1.8,1.8h8.3c1.1-0.1,1.9-1.1,1.8-2.2
	C59.9,153.9,59.1,153.1,58.2,153z M104,153H64c-1.1,0-2,0.9-2,2s0.9,2,2,2h15.9v2H72c-1.1,0-2,0.9-2,2s0.9,2,2,2h25c1.1,0,2-0.9,2-2
	s-0.9-2-2-2h-8.9v-2H104c1.1,0,2-0.9,2-2S105.1,153,104,153z"/>
</svg>
