<?xml version="1.0" encoding="utf-8"?>
<!-- Generator: Adobe Illustrator 24.3.0, SVG Export Plug-In . SVG Version: 6.00 Build 0)  -->
<svg version="1.1" id="Слой_1" xmlns="http://www.w3.org/2000/svg" xmlns:xlink="http://www.w3.org/1999/xlink" x="0px" y="0px"
	 viewBox="0 0 168 168" style="enable-background:new 0 0 168 168;" xml:space="preserve">
<style type="text/css">
	.st0{fill:#9BD63E;}
	.st1{fill:#333333;}
</style>
<path class="st0" d="M84,55.4c-18.2,0-33,14.8-33,33s14.8,33,33,33s33-14.8,33-33S102.2,55.4,84,55.4z M84,117.4c-16,0-29-13-29-29
	s13-29,29-29s29,13,29,29S100,117.4,84,117.4z"/>
<path class="st0" d="M101,71.4L101,71.4c-9.4-9.3-24.5-9.3-33.8-0.1l-0.1,0.1L67,71.5c-9.2,9.3-9.2,24.4,0,33.7l0.1,0.1l0.1,0.1
	c9.3,9.2,24.4,9.2,33.7,0l0.1-0.1l0.1-0.1C110.3,95.9,110.3,80.8,101,71.4C101,71.5,101,71.5,101,71.4L101,71.4z M86,68.5
	c3.9,0.4,7.6,1.9,10.6,4.4l-5.7,5.7c-1.5-1-3.2-1.7-4.9-2V68.5z M82,68.5v8.1c-1.8,0.3-3.5,1-4.9,2.1L71.4,73
	C74.4,70.4,78.1,68.9,82,68.5z M68.5,75.8l5.7,5.7c-1,1.5-1.7,3.2-2.1,4.9H64C64.5,82.5,66,78.8,68.5,75.8z M64.1,90.4h8.1
	c0.3,1.8,1,3.5,2,4.9l-5.7,5.7C66,98,64.5,94.3,64.1,90.4z M82,108.3c-3.9-0.4-7.6-1.9-10.6-4.4l5.7-5.7c1.5,1,3.2,1.7,4.9,2V108.3z
	 M76,88.4c0-4.4,3.6-8,8-8s8,3.6,8,8s-3.6,8-8,8S76,92.8,76,88.4z M86,108.3v-8.1c1.8-0.3,3.5-1,4.9-2l5.7,5.7
	C93.6,106.4,89.9,107.9,86,108.3z M99.5,101.1l-5.7-5.7c1-1.5,1.7-3.2,2.1-4.9h8.1C103.5,94.3,102,98,99.5,101.1z M95.8,86.4
	c-0.3-1.8-1-3.5-2-4.9l5.7-5.7c2.5,3,4,6.7,4.4,10.6H95.8z M118.2,156.4h-8.3c-1.1,0.1-1.9,1.1-1.8,2.2c0.1,1,0.9,1.8,1.8,1.8h8.3
	c1.1-0.1,1.9-1.1,1.8-2.2C119.9,157.3,119.1,156.5,118.2,156.4z M58.2,156.4h-8.3c-1.1,0.1-1.9,1.1-1.8,2.2c0.1,1,0.9,1.8,1.8,1.8
	h8.3c1.1-0.1,1.9-1.1,1.8-2.2C59.9,157.3,59.1,156.5,58.2,156.4z M104,156.4H64c-1.1,0-2,0.9-2,2s0.9,2,2,2h15.9v2H72
	c-1.1,0-2,0.9-2,2s0.9,2,2,2h25c1.1,0,2-0.9,2-2s-0.9-2-2-2h-8.9v-2H104c1.1,0,2-0.9,2-2S105.1,156.4,104,156.4z"/>
<path class="st1" d="M124,40.4H44c-4.4,0-8,3.6-8,8v4h-2c-2.2,0-4,1.8-4,4v14c0,2.2,1.8,4,4,4h2v28h-2c-2.2,0-4,1.8-4,4v14
	c0,2.2,1.8,4,4,4h2v4c0,4.4,3.6,8,8,8h80c4.4,0,8-3.6,8-8v-80C132,44,128.4,40.4,124,40.4z M34,70.4v-14h8v14H34z M34,120.4v-14h8
	v14H34z M128,128.4c0,2.2-1.8,4-4,4H44c-2.2,0-4-1.8-4-4v-4h2c2.2,0,4-1.8,4-4v-14c0-2.2-1.8-4-4-4h-2v-28h2c2.2,0,4-1.8,4-4v-14
	c0-2.2-1.8-4-4-4h-2v-4c0-2.2,1.8-4,4-4h80c2.2,0,4,1.8,4,4V128.4z"/>
<circle class="st1" cx="2" cy="150.4" r="2"/>
<path class="st1" d="M11,148.4H8c-1.1,0-2,0.9-2,2s0.9,2,2,2h3c1.1,0,2-0.9,2-2S12.1,148.4,11,148.4z M160,148.4h-3
	c-1.1,0-2,0.9-2,2s0.9,2,2,2h3c1.1,0,2-0.9,2-2S161.1,148.4,160,148.4z"/>
<circle class="st1" cx="166" cy="150.4" r="2"/>
<path class="st1" d="M150.7,148.4H136v-4h4c4.4,0,8-3.6,8-8v-96c0-4.4-3.6-8-8-8h-1c0-4.4-3.6-8-8-8H37c-4.4,0-8,3.6-8,8h-1
	c-4.4,0-8,3.6-8,8v96c0,4.4,3.6,8,8,8h4v4H17.3c-1.1-0.1-2.1,0.6-2.3,1.7c-0.1,1.1,0.6,2.1,1.7,2.3c0.2,0,0.3,0,0.5,0h133.4
	c1.1,0.1,2.1-0.6,2.3-1.7s-0.6-2.1-1.7-2.3C151.1,148.4,150.9,148.4,150.7,148.4L150.7,148.4z M144,120.4h-6v-4h6V120.4z M144,60.4
	h-6v-4h6V60.4z M37,28.4h94c2.2,0,4,1.8,4,4H33C33,30.2,34.8,28.4,37,28.4z M28,140.4c-2.2,0-4-1.8-4-4v-96c0-2.2,1.8-4,4-4h112
	c2.2,0,4,1.8,4,4v12h-6c-2.2,0-4,1.8-4,4v4c0,2.2,1.8,4,4,4h6v48h-6c-2.2,0-4,1.8-4,4v4c0,2.2,1.8,4,4,4h6v12c0,2.2-1.8,4-4,4H28z
	 M36,148.4v-4h20v4H36z M60,148.4v-4h48v4H60z M112,148.4v-4h20v4H112z M84,17.4c1.7,0,3-1.3,3-3s-1.3-3-3-3s-3,1.3-3,3
	S82.3,17.4,84,17.4z M84,12.9c0.8,0,1.5,0.7,1.5,1.5s-0.7,1.5-1.5,1.5s-1.5-0.7-1.5-1.5C82.5,13.6,83.2,12.9,84,12.9z M163,46.4
	c-1.1,0-2,0.9-2,2s0.9,2,2,2s2-0.9,2-2C165,47.3,164.1,46.4,163,46.4z M163,49.4c-0.6,0-1-0.4-1-1s0.4-1,1-1s1,0.4,1,1
	S163.6,49.4,163,49.4z M3,8.4c-1.1,0-2,0.9-2,2s0.9,2,2,2s2-0.9,2-2S4.1,8.4,3,8.4z M3,11.4c-0.6,0-1-0.4-1-1s0.4-1,1-1s1,0.4,1,1
	S3.6,11.4,3,11.4z M153,32.4c-1.1,0-2,0.9-2,2s0.9,2,2,2s2-0.9,2-2C155,33.3,154.1,32.4,153,32.4z M153,35.4c-0.6,0-1-0.4-1-1
	s0.4-1,1-1s1,0.4,1,1S153.6,35.4,153,35.4z M33,18.2c0-1.1-0.9-2-2-2c-1.1,0-2,0.9-2,2s0.9,2,2,2C32.1,20.2,33,19.3,33,18.2z
	 M30,18.2c0-0.6,0.4-1,1-1s1,0.4,1,1s-0.4,1-1,1S30,18.8,30,18.2z"/>
<path class="st1" d="M9.5,44.7l1.5-2l-1-0.5l-1,2.2l0,0l-1-2.2l-1,0.5l1.5,1.9l0,0l-2.3-0.3v1.1l2.3-0.3l0,0L7,47l1,0.7l1-2.2l0,0
	l0.9,2.2l1-0.6l-1.5-1.9l0,0l2.4,0.3v-1.1L9.5,44.7L9.5,44.7z M59.7,4.1l-0.9,1.1l0.5,0.3L60,4.2l0,0l0.5,1.3l0.6-0.3l-0.9-1.1l0,0
	l1.4,0.2V3.6l-1.4,0.2l0,0l0.9-1.1l-0.5-0.3L60,3.6l0,0l-0.6-1.3l-0.6,0.3l0.8,1.1l0,0l-1.3-0.2v0.6H59.7L59.7,4.1z M163,6V5
	l-2.3,0.3l0,0l1.5-1.9l-0.9-0.5L160.4,5l0,0l-1-2.1l-0.9,0.5l1.4,1.9l0,0L157.6,5v1l2.3-0.3l0,0l-1.5,1.9l0.9,0.6l1-2.2l0,0l0.9,2.1
	l1-0.6l-1.5-1.8l0,0L163,6L163,6z M119.1,3.7l1.3-1.7l-0.8-0.5l-0.8,1.9l0,0L118,1.6l-0.8,0.5l1.2,1.6l0,0l-1.9-0.3v0.9l2-0.3l0,0
	l-1.3,1.6l0.8,0.5l0.9-1.9l0,0l0.8,1.9l0.8-0.5L119.2,4l0,0l2,0.2V3.5L119.1,3.7L119.1,3.7z"/>
</svg>
