<?xml version="1.0" encoding="utf-8"?>
<!-- Generator: Adobe Illustrator 24.3.0, SVG Export Plug-In . SVG Version: 6.00 Build 0)  -->
<svg version="1.1" id="Слой_1" xmlns="http://www.w3.org/2000/svg" xmlns:xlink="http://www.w3.org/1999/xlink" x="0px" y="0px"
	 viewBox="0 0 168 168" style="enable-background:new 0 0 168 168;" xml:space="preserve">
<style type="text/css">
	.st0{fill:#FFC813;}
	.st1{fill:#9BD63E;}
</style>
<path class="st0" d="M110,131.7c-3.3,0-6,2.7-6,6s2.7,6,6,6s6-2.7,6-6C116,134.4,113.3,131.7,110,131.7z M110,139.7
	c-1.1,0-2-0.9-2-2s0.9-2,2-2s2,0.9,2,2S111.1,139.7,110,139.7z M94,131.7c-3.3,0-6,2.7-6,6s2.7,6,6,6s6-2.7,6-6
	C100,134.4,97.3,131.7,94,131.7z M94,139.7c-1.1,0-2-0.9-2-2s0.9-2,2-2s2,0.9,2,2S95.1,139.7,94,139.7z M76,135.7H54
	c-1.1,0-2,0.9-2,2s0.9,2,2,2h22c1.1,0,2-0.9,2-2S77.1,135.7,76,135.7z"/>
<path class="st0" d="M129.6,57c0-0.3,0-0.6,0-0.9c0-11.3-9.1-20.4-20.3-20.4c-2,0-4,0.3-5.9,0.9c-4.1-10.4-16-15.5-26.4-11.4
	c-5.1,2-9.2,6.1-11.3,11.2c-10.9-2.8-22,3.8-24.8,14.7c-0.4,1.7-0.6,3.4-0.6,5.1c0,0.3,0,0.5,0,0.8C28.9,57,19.9,66.2,20,77.5
	c0.1,11,9,19.9,20,20.2v-4c-9.1-0.2-16.2-7.8-16-16.8c0.2-8.9,7.5-16,16.4-16c0.6,0,1.2,0,1.8,0.1c1.1,0.1,2.1-0.7,2.2-1.8
	c0-0.2,0-0.3,0-0.5c-0.1-0.8-0.2-1.7-0.2-2.6c0-9,7.3-16.4,16.3-16.4c1.9,0,3.9,0.3,5.7,1c1.1,0.4,2.2-0.2,2.6-1.3c0,0,0,0,0-0.1
	c2.6-8.7,11.7-13.6,20.4-11c5.4,1.6,9.5,5.9,11.1,11.3c0.3,1.1,1.4,1.7,2.5,1.4c0.1,0,0.1,0,0.2-0.1c8.3-3.5,17.9,0.4,21.4,8.8
	c0.9,2,1.3,4.2,1.3,6.4c0,0.8-0.1,1.7-0.2,2.5c-0.2,1.1,0.6,2.1,1.7,2.3c0.2,0,0.3,0,0.5,0c9.1,0,16.4,7.4,16.4,16.4
	c0,8.9-7.1,16.2-16,16.4v4c11.3-0.2,20.2-9.5,20-20.8C147.8,66.5,139.9,58,129.6,57z"/>
<path class="st1" d="M110,107.7c-3.3,0-6,2.7-6,6s2.7,6,6,6s6-2.7,6-6C116,110.4,113.3,107.7,110,107.7z M110,115.7
	c-1.1,0-2-0.9-2-2s0.9-2,2-2s2,0.9,2,2S111.1,115.7,110,115.7z M94,107.7c-3.3,0-6,2.7-6,6s2.7,6,6,6s6-2.7,6-6
	C100,110.4,97.3,107.7,94,107.7z M94,115.7c-1.1,0-2-0.9-2-2s0.9-2,2-2s2,0.9,2,2S95.1,115.7,94,115.7z M76,111.7H54
	c-1.1,0-2,0.9-2,2s0.9,2,2,2h22c1.1,0,2-0.9,2-2S77.1,111.7,76,111.7z M110,83.7c-3.3,0-6,2.7-6,6s2.7,6,6,6s6-2.7,6-6
	C116,86.4,113.3,83.7,110,83.7z M110,91.7c-1.1,0-2-0.9-2-2s0.9-2,2-2s2,0.9,2,2S111.1,91.7,110,91.7z M94,83.7c-3.3,0-6,2.7-6,6
	s2.7,6,6,6s6-2.7,6-6C100,86.4,97.3,83.7,94,83.7z M94,91.7c-1.1,0-2-0.9-2-2s0.9-2,2-2s2,0.9,2,2S95.1,91.7,94,91.7z M76,87.7H54
	c-1.1,0-2,0.9-2,2s0.9,2,2,2h22c1.1,0,2-0.9,2-2S77.1,87.7,76,87.7z"/>
<circle class="st0" cx="2" cy="149.7" r="2"/>
<path class="st0" d="M11,147.7H8c-1.1,0-2,0.9-2,2s0.9,2,2,2h3c1.1,0,2-0.9,2-2S12.1,147.7,11,147.7z M160,147.7h-3
	c-1.1,0-2,0.9-2,2s0.9,2,2,2h3c1.1,0,2-0.9,2-2S161.1,147.7,160,147.7z"/>
<circle class="st0" cx="166" cy="149.7" r="2"/>
<path class="st1" d="M118.2,155.7h-8.3c-1.1,0.1-1.9,1.1-1.8,2.2c0.1,1,0.9,1.8,1.8,1.8h8.3c1.1-0.1,1.9-1.1,1.8-2.2
	C119.9,156.6,119.1,155.8,118.2,155.7z M58.2,155.7h-8.3c-1.1,0.1-1.9,1.1-1.8,2.2c0.1,1,0.9,1.8,1.8,1.8h8.3
	c1.1-0.1,1.9-1.1,1.8-2.2C59.9,156.6,59.1,155.8,58.2,155.7z M104,155.7H64c-1.1,0-2,0.9-2,2s0.9,2,2,2h15.9v2H72c-1.1,0-2,0.9-2,2
	s0.9,2,2,2h25c1.1,0,2-0.9,2-2s-0.9-2-2-2h-8.9v-2H104c1.1,0,2-0.9,2-2S105.1,155.7,104,155.7z"/>
<path class="st0" d="M150.7,147.7h-27.1c0.2-0.6,0.3-1.3,0.3-2v-16c0-1.5-0.5-2.9-1.5-4c1-1.1,1.5-2.5,1.5-4v-16
	c0-1.5-0.5-2.9-1.5-4c1-1.1,1.5-2.5,1.5-4v-16c0-3.3-2.7-6-6-6H50c-3.3,0-6,2.7-6,6v16c0,1.5,0.5,2.9,1.5,4c-1,1.1-1.5,2.5-1.5,4v16
	c0,1.5,0.5,2.9,1.5,4c-1,1.1-1.5,2.5-1.5,4v16c0,0.7,0.1,1.4,0.3,2H17.3c-1.1-0.1-2.1,0.6-2.3,1.7c-0.1,1.1,0.6,2.1,1.7,2.3
	c0.2,0,0.3,0,0.5,0h133.4c1.1,0.1,2.1-0.6,2.3-1.7s-0.6-2.1-1.7-2.3C151.1,147.7,150.9,147.7,150.7,147.7L150.7,147.7z M48,81.7
	c0-1.1,0.9-2,2-2h68c1.1,0,2,0.9,2,2v16c0,1.1-0.9,2-2,2H50c-1.1,0-2-0.9-2-2V81.7z M48,105.7c0-1.1,0.9-2,2-2h68c1.1,0,2,0.9,2,2
	v16c0,1.1-0.9,2-2,2H50c-1.1,0-2-0.9-2-2V105.7z M50,147.7c-1.1,0-2-0.9-2-2v-16c0-1.1,0.9-2,2-2h68c1.1,0,2,0.9,2,2v16
	c0,1.1-0.9,2-2,2H50z M82.2,16.2c1.7,0,3-1.3,3-3s-1.3-3-3-3s-3,1.3-3,3C79.2,14.8,80.5,16.2,82.2,16.2z M82.2,11.7
	c0.8,0,1.5,0.7,1.5,1.5s-0.7,1.5-1.5,1.5s-1.5-0.7-1.5-1.5C80.7,12.3,81.3,11.7,82.2,11.7z M161.4,51c-1.1,0-2,0.9-2,2s0.9,2,2,2
	s2-0.9,2-2C163.4,51.9,162.5,51,161.4,51z M161.4,54c-0.6,0-1-0.4-1-1s0.4-1,1-1s1,0.4,1,1C162.4,53.5,162,54,161.4,54z M48,3.7
	c-1.1,0-2,0.9-2,2s0.9,2,2,2s2-0.9,2-2C50,4.6,49.1,3.7,48,3.7z M48,6.7c-0.6,0-1-0.4-1-1s0.4-1,1-1s1,0.4,1,1
	C49,6.3,48.6,6.7,48,6.7z M134.4,29.7c-1.1,0-2,0.9-2,2s0.9,2,2,2s2-0.9,2-2C136.4,30.6,135.5,29.7,134.4,29.7z M134.4,32.7
	c-0.6,0-1-0.4-1-1s0.4-1,1-1s1,0.4,1,1C135.4,32.3,134.9,32.7,134.4,32.7z M6.6,38.4c0-1.1-0.9-2-2-2s-2,0.9-2,2s0.9,2,2,2
	C5.7,40.4,6.6,39.5,6.6,38.4z M3.6,38.4c0-0.6,0.4-1,1-1s1,0.4,1,1s-0.4,1-1,1C4,39.4,3.6,38.9,3.6,38.4z"/>
<path class="st0" d="M7.8,7.2l1.5-2L8.3,4.7l-1,2.2h0l-1-2.2l-1,0.5l1.5,1.9v0L4.6,6.9V8l2.3-0.3v0L5.4,9.6l0.9,0.6l1-2.2h0l0.9,2.2
	l1-0.6L7.8,7.7v0L10.1,8V6.9L7.8,7.2L7.8,7.2z M38.8,37l-0.9,1.1l0.5,0.3l0.6-1.3h0l0.5,1.3l0.6-0.3L39.3,37v0l1.4,0.2v-0.6
	l-1.4,0.2v0l0.9-1.1l-0.5-0.3L39,36.5h0l-0.6-1.3l-0.5,0.3l0.8,1.1v0l-1.3-0.2v0.6L38.8,37L38.8,37z M156,5.5v-1l-2.3,0.3v0l1.5-1.9
	l-0.9-0.5l-0.9,2.1h0l-1-2.1l-0.9,0.5l1.4,1.9v0l-2.3-0.3v1l2.3-0.3v0l-1.5,1.9l0.9,0.6l1-2.2h0l0.9,2.1l1-0.6l-1.5-1.8v0L156,5.5
	L156,5.5z M109.4,9.8l1.3-1.7l-0.8-0.4L109,9.5h0l-0.8-1.8l-0.8,0.5l1.2,1.6v0l-1.9-0.3v0.9l2-0.3v0l-1.3,1.6l0.8,0.5l0.9-1.9h0
	l0.8,1.9l0.8-0.5l-1.3-1.6v0l2,0.2V9.6L109.4,9.8L109.4,9.8z"/>
</svg>
