<?xml version="1.0" encoding="utf-8"?>
<!-- Generator: Adobe Illustrator 24.3.0, SVG Export Plug-In . SVG Version: 6.00 Build 0)  -->
<svg version="1.1" id="Слой_1" xmlns="http://www.w3.org/2000/svg" xmlns:xlink="http://www.w3.org/1999/xlink" x="0px" y="0px"
	 viewBox="0 0 168 168" style="enable-background:new 0 0 168 168;" xml:space="preserve">
<style type="text/css">
	.st0{fill:#333333;}
	.st1{fill:#9BD63E;}
</style>
<path class="st0" d="M114,8.5c1.1,0,2-0.9,2-2s-0.9-2-2-2s-2,0.9-2,2C112,7.6,112.9,8.5,114,8.5z M114,5.5c0.6,0,1,0.4,1,1
	s-0.4,1-1,1s-1-0.4-1-1C113,5.9,113.4,5.5,114,5.5z M125,28.5c1.1,0,2-0.9,2-2s-0.9-2-2-2s-2,0.9-2,2C123,27.6,123.9,28.5,125,28.5z
	 M125,25.5c0.6,0,1,0.4,1,1s-0.4,1-1,1s-1-0.4-1-1C124,25.9,124.4,25.5,125,25.5z M15,26.5c1.7,0,3-1.3,3-3s-1.3-3-3-3s-3,1.3-3,3
	C12,25.2,13.3,26.5,15,26.5z M15,22c0.8,0,1.5,0.7,1.5,1.5S15.8,25,15,25s-1.5-0.7-1.5-1.5C13.5,22.7,14.2,22,15,22z M47,12.5
	c1.7,0,3-1.3,3-3s-1.3-3-3-3s-3,1.3-3,3C44,11.2,45.3,12.5,47,12.5z M47,8c0.8,0,1.5,0.7,1.5,1.5S47.8,11,47,11s-1.5-0.7-1.5-1.5
	C45.5,8.7,46.2,8,47,8z M45,34.5c1.1,0,2-0.9,2-2c0-1.1-0.9-2-2-2s-2,0.9-2,2C43,33.6,43.9,34.5,45,34.5z M45,31.5c0.6,0,1,0.4,1,1
	s-0.4,1-1,1s-1-0.4-1-1C44,31.9,44.4,31.5,45,31.5z"/>
<circle class="st0" cx="2" cy="141.5" r="2"/>
<path class="st0" d="M11,139.5H8c-1.1,0-2,0.9-2,2s0.9,2,2,2h3c1.1,0,2-0.9,2-2S12.1,139.5,11,139.5z M160,139.5h-3
	c-1.1,0-2,0.9-2,2s0.9,2,2,2h3c1.1,0,2-0.9,2-2S161.1,139.5,160,139.5z"/>
<circle class="st0" cx="166" cy="141.5" r="2"/>
<path class="st0" d="M150.7,139.5h-39.4c1.4-0.9,2.4-2.4,2.6-4.1c11.5-3.8,20.4-13.2,23.7-24.9h2c4.5,0.1,8.3-3.5,8.4-8v-16
	c-0.1-4.5-3.9-8.1-8.4-8h-0.8c-2.3-28.5-26-51-54.8-51S31.5,50,29.2,78.5h-0.8c-4.5-0.1-8.3,3.5-8.4,8v16c0.1,4.5,3.9,8.1,8.4,8H42
	v-32h-8.8c2.2-26.3,24.2-47,50.8-47c26.6,0,48.6,20.7,50.8,47H126v32h7.5c-3,9.9-10.5,17.7-20.3,21c-1.7-2.9-5.4-3.8-8.2-2.1
	s-3.8,5.4-2.1,8.2c0.5,0.8,1.1,1.5,1.9,2H17.3c-1.1-0.1-2.1,0.6-2.3,1.7c-0.1,1.1,0.6,2.1,1.7,2.3c0.2,0,0.3,0,0.5,0h133.4
	c1.1,0.1,2.1-0.6,2.3-1.7s-0.6-2.1-1.7-2.3C151.1,139.5,150.9,139.5,150.7,139.5z M38,82.5v24h-9.6c-2.3,0.1-4.3-1.7-4.4-4v-16
	c0.1-2.3,2.1-4.1,4.4-4H38z M130,82.5h9.6c2.3-0.1,4.3,1.7,4.4,4v16c-0.1,2.3-2.1,4.1-4.4,4H130V82.5z"/>
<path class="st1" d="M50.7,77.3c-2.7,0.3-4.8,2.7-4.7,5.4v7.5c-0.1,2.8,2,5.1,4.7,5.4l4.3,0.6c0.5,1.4,1,2.7,1.7,3.9
	c-0.6,0.8-1.1,1.6-1.7,2.4l-0.8,1.1c-1.8,2.2-1.5,5.4,0.6,7.3c1.3,1.3,2.6,2.6,4,3.9l1.3,1.3c1.9,2,5.1,2.2,7.3,0.4l3.4-2.6
	c1.1,0.5,2.2,1,3.4,1.4c0.1,1,0.3,2,0.4,3l0.2,1.3c0.3,2.7,2.7,4.8,5.4,4.7h7.6c2.7,0.1,5.1-1.9,5.4-4.6c0.2-1.5,0.4-2.9,0.6-4.4
	c1.4-0.5,2.7-1,3.9-1.7l3.5,2.5c1,0.7,2.1,1.2,3.4,1.2c1.5,0,3-0.7,4-1.8c1.7-1.7,3.4-3.5,5.1-5.2c2.1-1.9,2.3-5.1,0.4-7.3l-2.6-3.4
	c0.5-1.1,1-2.2,1.4-3.4c1.5-0.2,2.9-0.4,4.4-0.6c2.7-0.3,4.7-2.7,4.7-5.4v-7.6c0.1-2.7-2-5.1-4.7-5.4l-4.4-0.6
	c-0.5-1.4-1-2.7-1.7-3.9l2.5-3.5c1.8-2.2,1.5-5.4-0.6-7.3c-1.7-1.7-3.5-3.4-5.3-5.2c-1-1-2.4-1.6-3.9-1.7c-1.2,0-2.5,0.4-3.4,1.2
	l-0.3,0.2c-1,0.8-2.1,1.6-3.2,2.4c-1.1-0.5-2.2-1-3.4-1.4c-0.2-1.2-0.4-2.5-0.5-3.7l-0.1-0.7c-0.3-2.7-2.7-4.8-5.4-4.7h-7.6
	c-2.7-0.1-5.1,1.9-5.4,4.6L74.5,55c-0.1,0.8-0.2,1.7-0.4,2.5c-1.4,0.5-2.7,1-3.9,1.7c-1.1-0.8-2.3-1.7-3.5-2.6
	c-1-0.7-2.2-1.1-3.4-1.1l-0.1,0c-1.4,0.1-2.7,0.7-3.7,1.7c-1.2,1.2-2.4,2.4-3.6,3.7l-1.7,1.7c-2.1,1.9-2.2,5.1-0.4,7.3l1.2,1.5
	c0.5,0.6,1,1.3,1.4,1.9c-0.5,1.1-1,2.2-1.4,3.4L50.7,77.3z M61.7,72.4c-1-1.2-1.9-2.5-2.8-3.7L57.6,67c-0.4-0.5-0.4-0.7,0.1-1.2
	l1.5-1.6c1.2-1.3,2.5-2.5,3.7-3.7c0.1-0.2,0.3-0.3,0.5-0.3c0.2,0,0.4,0.1,0.6,0.2c1.8,1.3,3.7,2.7,5.5,4c0.2,0.1,0.3,0.1,0.5,0.1
	c0.2,0,0.3,0,0.4-0.1c2.3-1.4,4.8-2.5,7.4-3.1c0.4-0.1,0.7-0.4,0.7-0.8c0.3-2.1,0.6-4.1,0.9-6.2l0.1-0.6c0.1-0.5,0.3-0.6,0.8-0.6
	h7.6c0.5,0,0.7,0.2,0.8,0.7l0.1,0.4c0.3,2.1,0.6,4.2,0.9,6.3c0,0.4,0.3,0.8,0.7,0.8c2.4,0.6,4.7,1.5,6.8,2.8
	c0.2,0.1,0.3,0.1,0.5,0.1c0.2,0,0.4,0,0.6-0.2c1.5-1.2,3.1-2.4,4.6-3.6l0.7-0.5c0.2-0.1,0.4-0.2,0.6-0.3c0.1,0,0.3,0,0.6,0.3
	c1.8,1.7,3.5,3.4,5.3,5.2c0.4,0.4,0.5,0.7,0.1,1.1l-1.2,1.6c-0.9,1.3-1.9,2.6-2.8,3.8c-0.2,0.3-0.3,0.7,0,0.9
	c1.4,2.3,2.5,4.8,3.1,7.4c0.1,0.4,0.4,0.7,0.8,0.7l6.7,1c0.5,0.1,0.7,0.3,0.7,0.7v7.6c0,0.5-0.2,0.7-0.6,0.7c-2.2,0.3-4.5,0.7-6.7,1
	c-0.4,0-0.8,0.3-0.9,0.8c-0.6,2.4-1.5,4.8-2.8,6.9c-0.2,0.3-0.2,0.7,0.1,0.9c1.2,1.5,2.4,3.1,3.5,4.6l0.6,0.8
	c0.4,0.5,0.4,0.7-0.1,1.2l-0.1,0.1c-1.7,1.7-3.4,3.4-5.1,5.2c-0.3,0.3-0.5,0.4-0.6,0.4c-0.2,0-0.4-0.1-0.6-0.3l-1.9-1.4
	c-1.2-0.9-2.4-1.7-3.6-2.6c-0.1-0.1-0.3-0.1-0.5-0.1c-0.1,0-0.3,0-0.4,0.1c-2.3,1.4-4.8,2.5-7.4,3.1c-0.4,0.1-0.7,0.4-0.7,0.8
	c-0.3,2.3-0.7,4.5-1,6.8c0,0.4-0.3,0.6-0.6,0.6c0,0-0.1,0-0.1,0h-7.6c-0.5,0-0.7-0.2-0.8-0.7c-0.3-2.2-0.7-4.5-1-6.7
	c0-0.4-0.3-0.8-0.7-0.8c-2.4-0.6-4.7-1.5-6.8-2.8c-0.2-0.1-0.3-0.1-0.5-0.1c-0.2,0-0.4,0-0.6,0.2c-1.8,1.4-3.6,2.7-5.3,4.1
	c-0.5,0.4-0.7,0.3-1.1-0.1c-1.8-1.7-3.5-3.4-5.3-5.2c-0.4-0.4-0.5-0.7-0.1-1.2l1-1.3c1-1.4,2-2.8,3.1-4.2c0.2-0.3,0.3-0.7,0-0.9
	c-1.4-2.3-2.5-4.8-3.1-7.4c-0.1-0.4-0.4-0.7-0.8-0.7l-6.7-1c-0.5-0.1-0.7-0.3-0.7-0.8v-7.5c0-0.5,0.2-0.7,0.7-0.8l6.7-1
	c0.4,0,0.7-0.3,0.8-0.7c0.6-2.5,1.5-4.8,2.8-7C61.9,73,61.9,72.7,61.7,72.4z"/>
<polygon class="st0" points="156.9,18.1 156.9,17.4 155.4,17.6 155.4,17.6 156.4,16.4 155.8,16 155.2,17.4 155.2,17.4 154.5,16 
	153.9,16.4 154.9,17.6 154.9,17.6 153.4,17.4 153.4,18.1 154.9,17.9 154.9,17.9 153.9,19.1 154.5,19.5 155.1,18.1 155.2,18.1 
	155.8,19.5 156.4,19.1 155.4,17.9 155.4,17.9 "/>
<polygon class="st0" points="15.8,52.6 16.7,51.4 16.1,51 15.5,52.4 15.5,52.4 14.9,51 14.3,51.4 15.2,52.6 15.2,52.6 13.7,52.4 
	13.7,53.1 15.2,52.9 15.2,52.9 14.3,54.1 14.8,54.5 15.5,53.1 15.5,53.1 16.1,54.5 16.7,54.1 15.8,52.9 15.8,52.9 17.2,53.1 
	17.2,52.4 15.8,52.6 "/>
<polygon class="st0" points="93.8,20.6 92.9,21.7 93.4,22 94,20.7 94,20.7 94.6,22 95.1,21.7 94.3,20.6 94.3,20.6 95.6,20.7 
	95.6,20.1 94.3,20.3 94.3,20.3 95.1,19.1 94.6,18.8 94,20.1 94,20.1 93.5,18.8 92.9,19.2 93.8,20.3 93.8,20.3 92.4,20.1 92.4,20.7 
	93.8,20.5 "/>
<polygon class="st0" points="152.6,49.5 153.5,48.2 152.9,47.9 152.3,49.3 152.3,49.3 151.6,47.9 151,48.3 152,49.5 152,49.5 
	150.4,49.3 150.4,50 152,49.8 152,49.9 151,51.1 151.6,51.5 152.3,50 152.3,50 152.9,51.5 153.5,51.1 152.6,49.9 152.6,49.9 
	154.1,50 154.1,49.3 152.6,49.5 "/>
<polygon class="st0" points="73.8,5.5 72.8,6.8 73.4,7.2 74.1,5.7 74.1,5.7 74.7,7.2 75.4,6.8 74.4,5.5 74.4,5.5 76,5.7 76,4.9 
	74.4,5.1 74.4,5.1 75.4,3.8 74.8,3.4 74.1,4.9 74.1,4.9 73.4,3.4 72.8,3.8 73.8,5.1 73.8,5.1 72.2,4.9 72.2,5.7 73.8,5.5 "/>
<path class="st1" d="M118.2,148.5h-8.3c-1.1,0.1-1.9,1.1-1.8,2.2c0.1,1,0.9,1.8,1.8,1.8h8.3c1.1-0.1,1.9-1.1,1.8-2.2
	C119.9,149.4,119.1,148.6,118.2,148.5z M58.2,148.5h-8.3c-1.1,0.1-1.9,1.1-1.8,2.2c0.1,1,0.9,1.8,1.8,1.8h8.3
	c1.1-0.1,1.9-1.1,1.8-2.2C59.9,149.4,59.1,148.6,58.2,148.5z M104,148.5H64c-1.1,0-2,0.9-2,2s0.9,2,2,2h15.9v2H72c-1.1,0-2,0.9-2,2
	s0.9,2,2,2h25c1.1,0,2-0.9,2-2s-0.9-2-2-2h-8.9v-2H104c1.1,0,2-0.9,2-2S105.1,148.5,104,148.5z M84,102.9c9,0,16.4-7.3,16.4-16.4
	S93,70.1,84,70.1c-9,0-16.4,7.3-16.4,16.4C67.6,95.5,75,102.9,84,102.9z M84,74.8c6.4,0,11.7,5.2,11.7,11.7S90.4,98.2,84,98.2
	s-11.7-5.2-11.7-11.7l0,0C72.4,80.1,77.6,74.9,84,74.8z"/>
</svg>
