<?xml version="1.0" encoding="utf-8"?>
<!-- Generator: Adobe Illustrator 24.3.0, SVG Export Plug-In . SVG Version: 6.00 Build 0)  -->
<svg version="1.1" id="Слой_1" xmlns="http://www.w3.org/2000/svg" xmlns:xlink="http://www.w3.org/1999/xlink" x="0px" y="0px"
	 viewBox="0 0 168 168" style="enable-background:new 0 0 168 168;" xml:space="preserve">
<style type="text/css">
	.st0{fill:#9BD63E;}
	.st1{fill:#FFC813;}
</style>
<path class="st0" d="M56,72c0-1.7-1.3-3-3-3h-8c-1.7,0-3,1.3-3,3v8c0,1.7,1.3,3,3,3h8c1.7,0,3-1.3,3-3V72z M52,79h-6v-6h6V79z"/>
<path class="st0" d="M74,72c0-1.7-1.3-3-3-3h-8c-1.7,0-3,1.3-3,3v8c0,1.7,1.3,3,3,3h8c1.7,0,3-1.3,3-3V72z M70,79h-6v-6h6V79z"/>
<path class="st0" d="M92,80v-8c0-1.7-1.3-3-3-3h-8c-1.7,0-3,1.3-3,3v8c0,1.7,1.3,3,3,3h8C90.7,83,92,81.7,92,80z M88,79h-6v-6h6V79z
	"/>
<path class="st0" d="M56,90c0-1.7-1.3-3-3-3h-8c-1.7,0-3,1.3-3,3v8c0,1.7,1.3,3,3,3h8c1.7,0,3-1.3,3-3V90z M52,97h-6v-6h6V97z"/>
<path class="st0" d="M74,90c0-1.7-1.3-3-3-3h-8c-1.7,0-3,1.3-3,3v8c0,1.7,1.3,3,3,3h8c1.7,0,3-1.3,3-3V90z M70,97h-6v-6h6V97z
	 M53,105h-8c-1.7,0-3,1.3-3,3v8c0,1.7,1.3,3,3,3h8c1.7,0,3-1.3,3-3v-8C56,106.3,54.7,105,53,105z M52,115h-6v-6h6V115z"/>
<path class="st0" d="M71,105h-8c-1.7,0-3,1.3-3,3v8c0,1.7,1.3,3,3,3h8c1.7,0,3-1.3,3-3v-8C74,106.3,72.7,105,71,105z M70,115h-6v-6
	h6V115z"/>
<path class="st0" d="M52,134.1h-6c-1.1,0-2,0.9-2,2s0.9,2,2,2h6c1.1,0,2-0.9,2-2S53.1,134.1,52,134.1z"/>
<path class="st0" d="M106,140.1c1.1,0,2-0.9,2-2s-0.9-2-2-2h-6c-1.1,0-2,0.9-2,2s0.9,2,2,2H106z"/>
<path class="st0" d="M52,140.1h-6c-1.1,0-2,0.9-2,2s0.9,2,2,2h6c1.1,0,2-0.9,2-2S53.1,140.1,52,140.1z"/>
<path class="st0" d="M67,143.1c1.1,0,2-0.9,2-2v-1h1c1.1,0,2-0.9,2-2s-0.9-2-2-2h-1v-1c0-1.1-0.9-2-2-2s-2,0.9-2,2v1h-1
	c-1.1,0-2,0.9-2,2s0.9,2,2,2h1v1C65,142.2,65.9,143.1,67,143.1z"/>
<path class="st0" d="M88.9,134.2c-0.8-0.8-2-0.8-2.8,0l-1.1,1.1l-1.1-1.1c-0.8-0.8-2.1-0.7-2.8,0c-0.7,0.8-0.7,2,0,2.8l1.1,1.1
	l-1.1,1.1c-0.8,0.8-0.8,2,0,2.8c0.8,0.8,2,0.8,2.8,0c0,0,0,0,0,0l1.1-1.1l1.1,1.1c0.8,0.8,2,0.8,2.8,0c0.8-0.8,0.8-2,0-2.8
	c0,0,0,0,0,0l-1.1-1.1l1.1-1.1C89.7,136.3,89.7,135,88.9,134.2L88.9,134.2z"/>
<path class="st1" d="M51.3,46.1h1.4c0.8,0,1.3,0.3,1.3,0.9c0,0.2-0.1,1-1.3,1h-3.8c-1.1,0-2,0.9-2,2s0.9,2,2,2h2V53c0,1.1,0.9,2,2,2
	s2-0.9,2-2v-1.3c2.6-1,3.8-3.9,2.8-6.4c-0.8-2-2.8-3.3-5-3.2h-1.4c-1.2,0-1.3-0.8-1.3-1c0-0.4,0.2-1,1.3-1h3.8c1.1,0,2-0.9,2-2
	s-0.9-2-2-2h-0.3V35c0-1.1-0.9-2-2-2s-2,0.9-2,2v1.2c-2.7,0.1-4.8,2.2-4.8,4.9c0,2.8,2.3,5,5.1,5C51.2,46.1,51.2,46.1,51.3,46.1z
	 M110,82c-13.3,0-24,10.7-24,24s10.7,24,24,24s24-10.7,24-24C134,92.8,123.2,82,110,82z M110,126c-11,0-20-9-20-20s9-20,20-20
	s20,9,20,20C130,117,121,126,110,126z"/>
<path class="st1" d="M105.1,101.8c0-3.3-2.7-6-6-6s-6,2.7-6,6s2.7,6,6,6c0,0,0,0,0,0C102.4,107.8,105.1,105.1,105.1,101.8
	L105.1,101.8z M99.1,103.8c-1.1,0-2-0.9-2-2s0.9-2,2-2s2,0.9,2,2C101.1,102.9,100.2,103.8,99.1,103.8z M120.9,104.3
	c-3.3,0-6,2.7-6,6s2.7,6,6,6s6-2.7,6-6C126.9,107,124.2,104.3,120.9,104.3z M120.9,112.3c-1.1,0-2-0.9-2-2s0.9-2,2-2s2,0.9,2,2
	C122.9,111.4,122,112.3,120.9,112.3z M117.1,94.3c-0.9-0.6-2.2-0.3-2.7,0.7c0,0,0,0,0,0l-12,20c-0.6,0.9-0.3,2.2,0.7,2.7
	c0.9,0.6,2.2,0.3,2.7-0.7l12-20C118.3,96.1,118,94.9,117.1,94.3C117.1,94.3,117.1,94.3,117.1,94.3z"/>
<path class="st0" d="M110,78v-6c0-1.7-1.3-3-3-3h-8c-1.7,0-3,1.3-3,3v8c0,0.5,0.2,1.1,0.4,1.5c1.9-1.1,4-1.9,6.2-2.5H100v-6h6v5.3
	C107.3,78.1,108.7,78,110,78z M86.4,91c0.9-1.4,1.9-2.7,3-4c-0.1,0-0.3,0-0.4,0h-8c-1.7,0-3,1.3-3,3v8c0,1.7,1.3,3,3,3h1.5
	c0.2-1.4,0.6-2.7,1-4H82v-6H86.4z"/>
<path class="st0" d="M81,105c-1.7,0-3,1.3-3,3v8c0,1.7,1.3,3,3,3h4.2c-0.7-1.3-1.3-2.6-1.7-4H82v-6h0.2c-0.1-1-0.2-2-0.2-3
	c0-0.3,0-0.7,0-1H81z"/>
<circle class="st0" cx="64" cy="47" r="2"/>
<circle class="st0" cx="72" cy="47" r="2"/>
<circle class="st0" cx="80" cy="47" r="2"/>
<circle class="st0" cx="88" cy="47" r="2"/>
<circle class="st0" cx="96" cy="47" r="2"/>
<circle class="st0" cx="104" cy="47" r="2"/>
<circle class="st0" cx="2" cy="150" r="2"/>
<path class="st0" d="M11,148H8c-1.1,0-2,0.9-2,2s0.9,2,2,2h3c1.1,0,2-0.9,2-2S12.1,148,11,148z M160,148h-3c-1.1,0-2,0.9-2,2
	s0.9,2,2,2h3c1.1,0,2-0.9,2-2S161.1,148,160,148z"/>
<circle class="st0" cx="166" cy="150" r="2"/>
<path class="st0" d="M118.2,156h-8.3c-1.1,0.1-1.9,1.1-1.8,2.2c0.1,1,0.9,1.8,1.8,1.8h8.3c1.1-0.1,1.9-1.1,1.8-2.2
	C119.9,156.9,119.1,156.1,118.2,156z M58.2,156h-8.3c-1.1,0.1-1.9,1.1-1.8,2.2c0.1,1,0.9,1.8,1.8,1.8h8.3c1.1-0.1,1.9-1.1,1.8-2.2
	C59.9,156.9,59.1,156.1,58.2,156z M104,156H64c-1.1,0-2,0.9-2,2s0.9,2,2,2h15.9v2H72c-1.1,0-2,0.9-2,2s0.9,2,2,2h25c1.1,0,2-0.9,2-2
	s-0.9-2-2-2h-8.9v-2H104c1.1,0,2-0.9,2-2S105.1,156,104,156z"/>
<path class="st0" d="M150.7,148h-33.1c0.2-0.6,0.3-1.3,0.3-2v-13.2c-1.3,0.4-2.6,0.7-4,0.9V146c0,1.1-0.9,2-2,2H40c-1.1,0-2-0.9-2-2
	v-17h56.1c-1.7-1.2-3.2-2.5-4.6-4H38V62.6c0.6,0.2,1.3,0.3,2,0.3h72c0.7,0,1.4-0.1,2-0.3v15.6c1.4,0.2,2.7,0.5,4,0.9V30
	c0-3.3-2.7-6-6-6H40c-3.3,0-6,2.7-6,6v116c0,0.7,0.1,1.4,0.3,2H17.3c-1.1-0.1-2.1,0.6-2.3,1.7c-0.1,1.1,0.6,2.1,1.7,2.3
	c0.2,0,0.3,0,0.5,0h133.4c1.1,0.1,2.1-0.6,2.3-1.7s-0.6-2.1-1.7-2.3C151.1,148,150.9,148,150.7,148L150.7,148z M38,30
	c0-1.1,0.9-2,2-2h72c1.1,0,2,0.9,2,2v27c0,1.1-0.9,2-2,2H40c-1.1,0-2-0.9-2-2V30z M8.5,17c1.7,0,3-1.3,3-3s-1.3-3-3-3
	c-1.7,0-3,1.3-3,3C5.5,15.6,6.8,17,8.5,17z M8.5,12.5c0.8,0,1.5,0.7,1.5,1.5c0,0.8-0.7,1.5-1.5,1.5C7.7,15.5,7,14.8,7,14
	C7,13.1,7.7,12.5,8.5,12.5z M160.5,42c-1.1,0-2,0.9-2,2c0,1.1,0.9,2,2,2c1.1,0,2-0.9,2-2C162.5,42.9,161.6,42,160.5,42z M160.5,45
	c-0.6,0-1-0.4-1-1c0-0.6,0.4-1,1-1c0.6,0,1,0.4,1,1c0,0,0,0,0,0C161.5,44.6,161.1,45,160.5,45z M113.8,8.7c-1.1,0-2,0.9-2,2
	s0.9,2,2,2c1.1,0,2-0.9,2-2C115.8,9.6,114.9,8.7,113.8,8.7z M113.8,11.7c-0.6,0-1-0.4-1-1c0-0.6,0.4-1,1-1c0.6,0,1,0.4,1,1
	c0,0,0,0,0,0C114.8,11.2,114.4,11.7,113.8,11.7z M157.1,2c-1.1,0-2,0.9-2,2c0,1.1,0.9,2,2,2c1.1,0,2-0.9,2-2
	C159.1,2.9,158.2,2,157.1,2z M157.1,5c-0.6,0-1-0.4-1-1c0-0.6,0.4-1,1-1c0.6,0,1,0.4,1,1C158.1,4.6,157.6,5,157.1,5z M46,15.5
	c0-1.1-0.9-2-2-2c-1.1,0-2,0.9-2,2c0,1.1,0.9,2,2,2C45.1,17.5,46,16.6,46,15.5z M43,15.5c0-0.6,0.4-1,1-1c0.6,0,1,0.4,1,1
	c0,0.6-0.4,1-1,1C43.4,16.5,43,16,43,15.5z"/>
<path class="st0" d="M9.1,49.3l1.5-2l-0.9-0.5l-1,2.2h0l-1-2.2l-1,0.5l1.5,1.9v0l-2.3-0.3l0,1.1l2.3-0.3v0l-1.5,1.9l0.9,0.6l1-2.2h0
	l0.9,2.2l1-0.6l-1.5-1.9l0,0l2.4,0.3l0-1.1L9.1,49.3C9.1,49.4,9.1,49.3,9.1,49.3z M65,4.5l-0.9,1.1l0.5,0.3l0.6-1.3h0l0.5,1.3
	l0.6-0.3l-0.9-1.1v0l1.4,0.2l0-0.6l-1.4,0.2v0l0.9-1.1l-0.5-0.3L65.3,4h0l-0.6-1.3l-0.6,0.3L65,4.2v0L63.7,4l0,0.6L65,4.5
	C65,4.5,65,4.5,65,4.5z M144.6,24.3l0-1l-2.3,0.3l0,0l1.5-1.9l-0.9-0.5l-0.9,2.1l0,0l-0.9-2.1l-0.9,0.5l1.4,1.9v0l-2.3-0.3l0,1
	l2.3-0.3v0l-1.5,1.9l0.9,0.6l1-2.2l0,0l0.9,2.1l1-0.5l-1.5-1.8l0,0L144.6,24.3L144.6,24.3z M92.4,15.9l1.3-1.7l-0.8-0.5L92,15.6h0
	l-0.8-1.8l-0.8,0.5l1.2,1.6v0l-1.9-0.3l0,0.9l2-0.2v0l-1.3,1.6l0.8,0.5l0.9-1.9h0l0.8,1.9l0.8-0.5l-1.3-1.6v0l2,0.2l0-0.9L92.4,15.9
	L92.4,15.9z"/>
</svg>
