<?xml version="1.0" encoding="utf-8"?>
<!-- Generator: Adobe Illustrator 24.3.0, SVG Export Plug-In . SVG Version: 6.00 Build 0)  -->
<svg version="1.1" id="Слой_1" xmlns="http://www.w3.org/2000/svg" xmlns:xlink="http://www.w3.org/1999/xlink" x="0px" y="0px"
	 viewBox="0 0 168 168" style="enable-background:new 0 0 168 168;" xml:space="preserve">
<style type="text/css">
	.st0{fill:#9BD63E;}
	.st1{fill:#FFC813;}
</style>
<path class="st0" d="M83,112c-1.1,0-2,0.9-2,2v12c0,1.1,0.9,2,2,2s2-0.9,2-2v-12C85,112.9,84.1,112,83,112z M142,34c1.7,0,3-1.3,3-3
	c0-1.7-1.3-3-3-3s-3,1.3-3,3C139,32.7,140.3,34,142,34z M142,29.5c0.8,0,1.5,0.7,1.5,1.5s-0.7,1.5-1.5,1.5s-1.5-0.7-1.5-1.5
	C140.5,30.2,141.2,29.5,142,29.5z M68,8c1.7,0,3-1.3,3-3s-1.3-3-3-3s-3,1.3-3,3C65,6.7,66.3,8,68,8z M68,3.5c0.8,0,1.5,0.7,1.5,1.5
	S68.8,6.5,68,6.5S66.5,5.8,66.5,5C66.5,4.2,67.2,3.5,68,3.5z M167,43c0-1.1-0.9-2-2-2s-2,0.9-2,2s0.9,2,2,2
	C166.1,45,167,44.1,167,43z M164,43c0-0.6,0.4-1,1-1s1,0.4,1,1s-0.4,1-1,1C164.4,44,164,43.6,164,43z M86,19c1.1,0,2-0.9,2-2
	c0-1.1-0.9-2-2-2s-2,0.9-2,2C84,18.1,84.9,19,86,19z M86,16c0.6,0,1,0.4,1,1s-0.4,1-1,1s-1-0.4-1-1C85,16.4,85.4,16,86,16z M24,39
	c1.1,0,2-0.9,2-2s-0.9-2-2-2s-2,0.9-2,2C22,38.1,22.9,39,24,39z M24,36c0.6,0,1,0.4,1,1s-0.4,1-1,1s-1-0.4-1-1
	C23,36.4,23.4,36,24,36z"/>
<circle class="st1" cx="2" cy="140" r="2"/>
<path class="st1" d="M11,138H8c-1.1,0-2,0.9-2,2s0.9,2,2,2h3c1.1,0,2-0.9,2-2S12.1,138,11,138z M160,138h-3c-1.1,0-2,0.9-2,2
	s0.9,2,2,2h3c1.1,0,2-0.9,2-2S161.1,138,160,138z"/>
<circle class="st1" cx="166" cy="140" r="2"/>
<path class="st1" d="M150.7,138H97.9c0.7-1.2,1.1-2.6,1.1-4V91.6c28.1-1.7,49-8,49-15.6c0-7.6-21.4-14-50-15.6V57h26
	c4.4,0,8-3.6,8-8c0,0,0,0,0,0V34c0-4.4-3.6-8-8-8c0,0,0,0,0,0H42c-4.4,0-8,3.6-8,8c0,0,0,0,0,0v15c0,4.4,3.6,8,8,8c0,0,0,0,0,0h25
	v3.6C39.9,62.4,20,68.6,20,76s19.9,13.6,47,15.4V134c0,1.4,0.4,2.8,1.1,4H17.3c-1.1-0.1-2.1,0.6-2.3,1.7c-0.1,1.1,0.6,2.1,1.7,2.3
	c0.2,0,0.3,0,0.5,0h133.4c1.1,0.1,2.1-0.6,2.3-1.7s-0.6-2.1-1.7-2.3C151.1,138,150.9,138,150.7,138z M42,53c-2.2,0-4-1.8-4-4V34
	c0-2.2,1.8-4,4-4h82c2.2,0,4,1.8,4,4v15c0,2.2-1.8,4-4,4H94v27H71V53H42z M39.7,83.4C26.8,80.2,24,76.7,24,76s2.8-4.2,15.7-7.4
	c9-2.1,18.1-3.4,27.3-4V84h31V64.4c10.2,0.5,20.3,1.9,30.3,4.2c12.9,3.2,15.7,6.7,15.7,7.4s-2.8,4.2-15.7,7.4
	c-10.4,2.6-23.9,4.2-38.5,4.5H78.2C63.6,87.6,50.1,86,39.7,83.4z M95,134c0,2.2-1.8,4-4,4H75c-2.2,0-4-1.8-4-4V91.9h7.3
	c1.9,0,3.8,0.1,5.7,0.1c1.9,0,3.8,0,5.7-0.1H95V134z"/>
<circle class="st0" cx="83" cy="106" r="2"/>
<polygon class="st1" points="6.6,46 8.1,44.1 7.1,43.5 6.2,45.7 6.1,45.7 5.2,43.5 4.2,44.1 5.7,46 5.7,46 3.4,45.7 3.4,46.8 
	5.7,46.5 5.7,46.5 4.2,48.4 5.1,49 6.1,46.8 6.2,46.8 7.1,49 8.1,48.4 6.6,46.5 6.6,46.5 8.9,46.8 8.9,45.7 6.6,46 "/>
<polygon class="st1" points="34.3,8.8 35.1,7.6 34.6,7.3 34,8.6 34,8.6 33.5,7.3 32.9,7.7 33.8,8.8 33.8,8.8 32.4,8.6 32.4,9.2 
	33.8,9 33.8,9.1 32.9,10.2 33.4,10.5 34,9.2 34,9.2 34.6,10.5 35.1,10.2 34.3,9.1 34.3,9.1 35.6,9.2 35.6,8.6 34.3,8.8 "/>
<polygon class="st1" points="140,4.7 140,3.7 137.7,4 137.7,3.9 139.1,2 138.2,1.5 137.3,3.7 137.3,3.7 136.3,1.5 135.4,2.1 
	136.8,3.9 136.8,4 134.6,3.7 134.6,4.7 136.8,4.4 136.8,4.5 135.4,6.3 136.2,6.9 137.2,4.7 137.3,4.7 138.2,6.9 139.2,6.3 
	137.7,4.5 137.7,4.4 "/>
<polygon class="st1" points="115.7,20 114.4,21.6 115.2,22.1 116.1,20.2 116.1,20.2 116.9,22.1 117.7,21.6 116.4,20 116.4,20 
	118.4,20.2 118.4,19.3 116.4,19.6 116.4,19.6 117.7,17.9 116.9,17.5 116.1,19.3 116.1,19.3 115.3,17.5 114.4,18 115.7,19.6 
	115.7,19.6 113.7,19.3 113.7,20.2 115.7,20 "/>
<path class="st0" d="M118.2,147h-8.3c-1.1,0.1-1.9,1.1-1.8,2.2c0.1,1,0.9,1.8,1.8,1.8h8.3c1.1-0.1,1.9-1.1,1.8-2.2
	C119.9,147.9,119.1,147.1,118.2,147z M58.2,147h-8.3c-1.1,0.1-1.9,1.1-1.8,2.2c0.1,1,0.9,1.8,1.8,1.8h8.3c1.1-0.1,1.9-1.1,1.8-2.2
	C59.9,147.9,59.1,147.1,58.2,147z M104,147H64c-1.1,0-2,0.9-2,2s0.9,2,2,2h15.9v2H72c-1.1,0-2,0.9-2,2s0.9,2,2,2h25c1.1,0,2-0.9,2-2
	s-0.9-2-2-2h-8.9v-2H104c1.1,0,2-0.9,2-2S105.1,147,104,147z"/>
</svg>
