<svg xmlns="http://www.w3.org/2000/svg" data-name="Layer 1" viewBox="0 0 168 168"><path fill="#0bceb2" d="M118.15387 153h-8.30774a2.00641 2.00641 0 0 0 0 4h8.30774a2.00641 2.00641 0 0 0 0-4zM58.15387 153H49.84613a2.00641 2.00641 0 0 0 0 4h8.30774a2.00641 2.00641 0 0 0 0-4zM104 153H64a2 2 0 0 0 0 4H79.94v2H72a2 2 0 0 0 0 4H97a2 2 0 0 0 0-4H88.06v-2H104a2 2 0 0 0 0-4z"/><path fill="#2d4356" d="M128,49H40A10.01648,10.01648,0,0,0,30,59v70a10.01648,10.01648,0,0,0,10,10h88a10.01648,10.01648,0,0,0,10-10V59A10.01648,10.01648,0,0,0,128,49Zm-16,86H58V115.26c.58-7.78,10.98-10.16,12.92-10.53l3.79-1.48a9.92009,9.92009,0,0,0,3.22-4,12.21064,12.21064,0,0,0,14.14-.01,9.81759,9.81759,0,0,0,3.21,3.99l3.79,1.49c1.79.3501,12.35,2.7,12.93,10.54ZM71,78.7c0-7.28,6.28-13.2,14-13.2s14,5.92,14,13.2c0,7.25-6.41,18.8-14,18.8S71,85.95,71,78.7ZM134,129a6.00472,6.00472,0,0,1-6,6H116V115.06006c-.8-11.79-15.95-14.24-16.55-14.33008-2.63-.45-3.71-2.73-4.14-4.17993C100.02,91.7,103,84.27,103,78.7c0-9.48-8.08-17.2-18-17.2S67,69.22,67,78.7c0,5.56995,2.98,13,7.69,17.85-.42,1.46-1.5,3.73-4.1,4.16992-.64.1001-15.8,2.55-16.59,14.34009V135H40a6.00472,6.00472,0,0,1-6-6V59a6.00476,6.00476,0,0,1,6-6h88a6.00476,6.00476,0,0,1,6,6Z"/><path fill="#0bceb2" d="M104,119H96a2,2,0,0,0,0,4h8a2,2,0,0,0,0-4Z"/><circle cx="2" cy="147" r="2" fill="#2d4356"/><path fill="#2d4356" d="M11 145H8a2 2 0 0 0 0 4h3a2 2 0 0 0 0-4zM160 145h-3a2 2 0 0 0 0 4h3a2 2 0 0 0 0-4z"/><circle cx="166" cy="147" r="2" fill="#2d4356"/><path fill="#2d4356" d="M150.72,145h-9.43A17.95728,17.95728,0,0,0,148,131V57a18.0271,18.0271,0,0,0-18-18H38A18.0271,18.0271,0,0,0,20,57v74a17.95728,17.95728,0,0,0,6.71,14H17.28a2.0172,2.0172,0,1,0,0,4H150.72a2.0172,2.0172,0,1,0,0-4ZM130,145H38a14.01541,14.01541,0,0,1-14-14V57A14.01537,14.01537,0,0,1,38,43h92a14.01537,14.01537,0,0,1,14,14v74A14.01541,14.01541,0,0,1,130,145Z"/><path fill="#0bceb2" d="M99.07,104.72a16.42956,16.42956,0,0,1-2.2,2.92,15.32482,15.32482,0,0,1-11.2,4.86H84.31a15.5583,15.5583,0,0,1-13.39-7.77l3.79-1.48a11.54752,11.54752,0,0,0,9.6,5.25h1.36a11.37626,11.37626,0,0,0,8.3-3.61A13.08836,13.08836,0,0,0,95.28,103.23Z"/><path fill="#2d4356" d="M123 11a3 3 0 1 0-3-3A3.00344 3.00344 0 0 0 123 11zm0-4.5A1.5 1.5 0 1 1 121.5 8 1.50148 1.50148 0 0 1 123 6.5zM66.27585 9a2 2 0 1 0 2 2A2.00229 2.00229 0 0 0 66.27585 9zm0 3a1 1 0 1 1 1-1A1.001 1.001 0 0 1 66.27585 12zM23.99994 5a2 2 0 1 0 2 2A2.00229 2.00229 0 0 0 23.99994 5zm0 3a1 1 0 1 1 1-1A1.001 1.001 0 0 1 23.99994 8zM153 44a2 2 0 1 0 2 2A2.00229 2.00229 0 0 0 153 44zm0 3a1 1 0 1 1 1-1A1.001 1.001 0 0 1 153 47zM7.69529 44.50627a2 2 0 1 0-2 2A2.00229 2.00229 0 0 0 7.69529 44.50627zm-3 0a1 1 0 1 1 1 1A1.001 1.001 0 0 1 4.69529 44.50627z"/><polygon fill="#0bceb2" points="23.415 30.935 24.902 28.979 23.963 28.447 23.009 30.637 22.977 30.637 22.008 28.462 21.052 29.01 22.523 30.919 22.523 30.95 20.223 30.653 20.223 31.717 22.539 31.42 22.539 31.451 21.052 33.36 21.944 33.923 22.962 31.717 22.992 31.717 23.931 33.907 24.917 33.344 23.415 31.466 23.415 31.435 25.777 31.717 25.777 30.653 23.415 30.966 23.415 30.935"/><polygon fill="#0bceb2" points="52.081 28.6 51.225 29.699 51.739 30.024 52.325 28.753 52.342 28.753 52.883 30.015 53.451 29.69 52.586 28.609 52.586 28.591 53.946 28.753 53.946 28.141 52.586 28.321 52.586 28.303 53.442 27.177 52.902 26.87 52.352 28.131 52.334 28.131 51.775 26.879 51.225 27.195 52.072 28.294 52.072 28.312 50.747 28.141 50.747 28.753 52.081 28.582 52.081 28.6"/><polygon fill="#0bceb2" points="156.724 13.521 156.724 12.478 154.407 12.785 154.407 12.754 155.866 10.836 154.945 10.314 154.009 12.462 153.977 12.462 153.027 10.329 152.089 10.867 153.533 12.739 153.533 12.77 151.276 12.478 151.276 13.521 153.548 13.23 153.548 13.261 152.089 15.133 152.964 15.686 153.963 13.521 153.992 13.521 154.913 15.67 155.881 15.118 154.407 13.276 154.407 13.245 156.724 13.521"/><polygon fill="#0bceb2" points="94.051 26.658 95.309 25.004 94.514 24.554 93.707 26.407 93.68 26.407 92.86 24.567 92.051 25.03 93.296 26.645 93.296 26.672 91.349 26.42 91.349 27.32 93.309 27.069 93.309 27.095 92.051 28.71 92.806 29.187 93.667 27.32 93.693 27.32 94.487 29.174 95.322 28.697 94.051 27.108 94.051 27.082 96.049 27.32 96.049 26.42 94.051 26.685 94.051 26.658"/></svg>