<?xml version="1.0" encoding="utf-8"?>
<!-- Generator: Adobe Illustrator 24.3.0, SVG Export Plug-In . SVG Version: 6.00 Build 0)  -->
<svg version="1.1" id="Слой_1" xmlns="http://www.w3.org/2000/svg" xmlns:xlink="http://www.w3.org/1999/xlink" x="0px" y="0px"
	 viewBox="0 0 168 168" style="enable-background:new 0 0 168 168;" xml:space="preserve">
<style type="text/css">
	.st0{fill:#9BD63E;}
	.st1{fill:#333333;}
</style>
<path class="st0" d="M97.8,44.8c-0.5-2-0.8-4-0.8-6.1c0.2-8.3,7-14.9,15.3-14.7c8.1,0.2,14.5,6.6,14.7,14.7c0,1.6-0.2,3.2-0.7,4.7
	c-1.7,6-4.9,11.3-8.8,14.5c-1.6,1.3-3.7,2.1-5.8,2c-0.7,0-1.4-0.1-2-0.2c0.5,1.5,0.8,3.1,1,4.7c0.2,0,0.4,0,0.7,0h0.1
	c1.8,0,3.6-0.2,5.4-0.6c0.8-0.2,1.6-0.5,2.3-0.8c1.7,3.8,5.2,6.6,9.3,7.4l0,0l0,0c0.1,0,14.5,2.5,15.4,12.6
	c-0.1,1.5-0.6,8.6-1.2,15.3c-0.1,0.9-0.9,1.5-1.7,1.6h-27.8c2.8,1,5.4,2.4,7.9,4h20c2.9,0,5.4-2.3,5.7-5.2
	c0.7-7.7,1.2-15.7,1.2-15.7c-0.9-13.7-18.7-16.6-18.7-16.6c-4.6-0.8-6.4-4.8-7.2-7.4c3.9-4.1,6.7-9.2,8.1-14.7
	c0.5-1.9,0.8-3.8,0.8-5.8c-0.2-10.5-8.8-18.9-19.3-18.7c-10.3,0.1-18.6,8.4-18.7,18.7c0,1.3,0.1,2.6,0.3,3.9
	C94.9,43.2,96.4,43.9,97.8,44.8L97.8,44.8z M27,104h18c2.5-1.6,5.1-3,7.9-4H27c-0.9-0.1-1.7-0.7-1.9-1.6c-0.5-5.1-0.9-10.1-1.1-15.2
	C24.8,73,39.2,70.5,39.4,70.5l0,0l0,0c4.1-0.8,7.6-3.5,9.3-7.4c0.8,0.3,1.5,0.6,2.3,0.8c1.8,0.4,3.6,0.6,5.4,0.6h0.1
	c0.2,0,0.5,0,0.7,0c0.2-1.6,0.5-3.1,1-4.6c-0.5,0.1-1,0.1-1.5,0.1c-3.1-0.1-6-1.4-8.1-3.8c-4.1-4.9-6.5-11.1-6.6-17.5
	c0.2-8.3,7-14.9,15.3-14.7c8.1,0.2,14.5,6.6,14.7,14.7c0,1.6-0.2,3.2-0.7,4.7c-0.1,0.3-0.2,0.6-0.3,0.9c1.5-0.8,3-1.5,4.6-2
	c0.2-1.2,0.3-2.4,0.3-3.6C75.8,28.2,67.2,19.8,56.7,20C46.4,20.1,38.1,28.4,38,38.7c0.2,7.4,2.9,14.5,7.7,20.2
	c0.1,0.1,0.2,0.2,0.3,0.3c-0.7,2.6-2.6,6.6-7.2,7.4c0,0-17.9,2.9-18.7,16.6c0,0,0.2,7.2,1.1,15.7C21.5,101.7,24,104,27,104z M138,33
	c1.7,0,3-1.3,3-3s-1.3-3-3-3s-3,1.3-3,3C135,31.7,136.3,33,138,33z M138,28.5c0.8,0,1.5,0.7,1.5,1.5s-0.7,1.5-1.5,1.5
	s-1.5-0.7-1.5-1.5C136.5,29.2,137.2,28.5,138,28.5z M68,8c1.7,0,3-1.3,3-3s-1.3-3-3-3s-3,1.3-3,3C65,6.7,66.3,8,68,8z M68,3.5
	c0.8,0,1.5,0.7,1.5,1.5S68.8,6.5,68,6.5S66.5,5.8,66.5,5C66.5,4.2,67.2,3.5,68,3.5z M158,17c0-1.1-0.9-2-2-2s-2,0.9-2,2
	c0,1.1,0.9,2,2,2C157.1,19,158,18.1,158,17z M155,17c0-0.6,0.4-1,1-1s1,0.4,1,1s-0.4,1-1,1C155.4,18,155,17.6,155,17z M87,23
	c1.1,0,2-0.9,2-2s-0.9-2-2-2s-2,0.9-2,2C85,22.1,85.9,23,87,23z M87,20c0.6,0,1,0.4,1,1s-0.4,1-1,1s-1-0.4-1-1
	C86,20.4,86.4,20,87,20z M31,44c1.1,0,2-0.9,2-2s-0.9-2-2-2c-1.1,0-2,0.9-2,2C29,43.1,29.9,44,31,44z M31,41c0.6,0,1,0.4,1,1
	s-0.4,1-1,1s-1-0.4-1-1C30,41.4,30.4,41,31,41z"/>
<circle class="st1" cx="2" cy="146" r="2"/>
<path class="st1" d="M11,144H8c-1.1,0-2,0.9-2,2s0.9,2,2,2h3c1.1,0,2-0.9,2-2S12.1,144,11,144z M160,144h-3c-1.1,0-2,0.9-2,2
	s0.9,2,2,2h3c1.1,0,2-0.9,2-2S161.1,144,160,144z"/>
<circle class="st1" cx="166" cy="146" r="2"/>
<path class="st1" d="M150.7,144h-24.9c0.4-0.8,0.6-1.6,0.7-2.4c0.9-9.4,1.5-19.4,1.5-19.4c-1.1-16.9-23.1-20.4-23.1-20.4
	c-5.4-1-7.7-5.5-8.7-8.7c4.7-5.1,8.1-11.3,9.8-18.1c0.6-2.3,1-4.7,1-7.1c0-12.7-10.3-23-23-23S61,55.3,61,68
	c0.2,8.9,3.4,17.6,9,24.5c-0.8,3.1-3.1,8.3-8.9,9.3c0,0-22,3.5-23.1,20.4c0,0,0.3,8.8,1.4,19.4c0.1,0.8,0.3,1.7,0.7,2.4H17.3
	c-1.1-0.1-2.1,0.6-2.3,1.7c-0.1,1.1,0.6,2.1,1.7,2.3c0.2,0,0.3,0,0.5,0h133.4c1.1,0.1,2.1-0.6,2.3-1.7s-0.6-2.1-1.7-2.3
	C151.1,144,150.9,144,150.7,144L150.7,144z M65,68c0-10.5,8.5-19,19-19s19,8.5,19,19c0,2-0.3,4.1-0.8,6.1c-2.1,7.6-6.1,14.3-11,18.3
	c-2.1,1.7-4.8,2.7-7.5,2.7c-4-0.1-7.8-1.8-10.4-4.9C68.1,83.9,65.2,76.1,65,68z M46.6,144c-1.6-0.1-2.9-1.2-3.2-2.8
	c-1-9.4-1.3-17.5-1.4-18.9c1-13.3,19.6-16.5,19.7-16.6l0,0l0,0c6-1.1,9.4-5.2,11.1-9.4c1.2,0.5,2.3,0.9,3.6,1.3c0.1,0,0.4,0.1,1,0.2
	c2,0.8,4.1,1.2,6.2,1.2c2.7,0,5.3-0.7,7.7-2c0.6-0.2,1.1-0.4,1.7-0.7c1.8,4.1,5.2,8.3,11.1,9.4l0,0l0,0c0.2,0,18.7,3.2,19.7,16.5
	c-0.1,1.7-0.7,10.6-1.5,19c-0.2,1.6-1.5,2.7-3.1,2.8H46.6z"/>
<path class="st0" d="M11.6,43l1.5-2l-0.9-0.5l-1,2.2h0l-1-2.2l-1,0.5l1.5,1.9v0l-2.3-0.3v1.1l2.3-0.3v0l-1.5,1.9l0.9,0.6l1-2.2h0
	l0.9,2.2l1-0.6l-1.5-1.9v0l2.4,0.3v-1.1L11.6,43L11.6,43z M37.3,10.8l0.9-1.1l-0.5-0.3L37,10.6h0l-0.6-1.3l-0.6,0.3l0.8,1.1v0
	l-1.3-0.2v0.6l1.3-0.2v0l-0.9,1.1l0.5,0.3l0.6-1.3h0l0.5,1.3l0.6-0.3l-0.9-1.1v0l1.4,0.2v-0.6L37.3,10.8
	C37.3,10.8,37.3,10.8,37.3,10.8z M148,57.7v-1l-2.3,0.3v0l1.5-1.9l-0.9-0.5l-0.9,2.1h0l-1-2.1l-0.9,0.5l1.4,1.9v0l-2.3-0.3v1
	l2.3-0.3v0l-1.5,1.9l0.9,0.6l1-2.2h0l0.9,2.1l1-0.6l-1.5-1.8v0L148,57.7L148,57.7z M119.4,6.6l1.3-1.7l-0.8-0.4l-0.8,1.9h0l-0.8-1.8
	L117.4,5l1.2,1.6v0l-1.9-0.3v0.9l2-0.3v0l-1.3,1.6l0.8,0.5l0.9-1.9h0l0.8,1.9l0.8-0.5L119.4,7v0l2,0.2V6.3L119.4,6.6
	C119.4,6.6,119.4,6.6,119.4,6.6z M118.2,153h-8.3c-1.1,0.1-1.9,1.1-1.8,2.2c0.1,1,0.9,1.8,1.8,1.8h8.3c1.1-0.1,1.9-1.1,1.8-2.2
	C119.9,153.9,119.1,153.1,118.2,153z M58.2,153h-8.3c-1.1,0.1-1.9,1.1-1.8,2.2c0.1,1,0.9,1.8,1.8,1.8h8.3c1.1-0.1,1.9-1.1,1.8-2.2
	C59.9,153.9,59.1,153.1,58.2,153z M104,153H64c-1.1,0-2,0.9-2,2s0.9,2,2,2h15.9v2H72c-1.1,0-2,0.9-2,2s0.9,2,2,2h25c1.1,0,2-0.9,2-2
	s-0.9-2-2-2h-8.9v-2H104c1.1,0,2-0.9,2-2S105.1,153,104,153z"/>
</svg>
