<?xml version="1.0" encoding="utf-8"?>
<!-- Generator: Adobe Illustrator 24.3.0, SVG Export Plug-In . SVG Version: 6.00 Build 0)  -->
<svg version="1.1" id="Слой_1" xmlns="http://www.w3.org/2000/svg" xmlns:xlink="http://www.w3.org/1999/xlink" x="0px" y="0px"
	 viewBox="0 0 168 168" style="enable-background:new 0 0 168 168;" xml:space="preserve">
<style type="text/css">
	.st0{fill:#9BD63E;}
	.st1{fill:#FFC813;}
</style>
<path class="st0" d="M118.2,153h-8.3c-1.1,0.1-1.9,1.1-1.8,2.2c0.1,1,0.9,1.8,1.8,1.8h8.3c1.1-0.1,1.9-1.1,1.8-2.2
	C119.9,153.9,119.1,153.1,118.2,153z M58.2,153h-8.3c-1.1,0.1-1.9,1.1-1.8,2.2c0.1,1,0.9,1.8,1.8,1.8h8.3c1.1-0.1,1.9-1.1,1.8-2.2
	C59.9,153.9,59.1,153.1,58.2,153z M104,153H64c-1.1,0-2,0.9-2,2s0.9,2,2,2h15.9v2H72c-1.1,0-2,0.9-2,2s0.9,2,2,2h25c1.1,0,2-0.9,2-2
	s-0.9-2-2-2h-8.9v-2H104c1.1,0,2-0.9,2-2S105.1,153,104,153z"/>
<path class="st1" d="M128,49H40c-5.5,0-10,4.5-10,10v70c0,5.5,4.5,10,10,10h88c5.5,0,10-4.5,10-10V59C138,53.5,133.5,49,128,49z
	 M112,135H58v-19.7c0.6-7.8,11-10.2,12.9-10.5l3.8-1.5c1.4-1,2.5-2.4,3.2-4c4.2,3,9.9,3,14.1,0c0.7,1.6,1.8,3,3.2,4l3.8,1.5
	c1.8,0.4,12.3,2.7,12.9,10.5V135z M71,78.7c0-7.3,6.3-13.2,14-13.2s14,5.9,14,13.2c0,7.2-6.4,18.8-14,18.8S71,85.9,71,78.7z
	 M134,129c0,3.3-2.7,6-6,6h-12v-19.9c-0.8-11.8-15.9-14.2-16.6-14.3c-2.6-0.4-3.7-2.7-4.1-4.2c4.7-4.9,7.7-12.3,7.7-17.9
	c0-9.5-8.1-17.2-18-17.2s-18,7.7-18,17.2c0,5.6,3,13,7.7,17.8c-0.4,1.5-1.5,3.7-4.1,4.2c-0.6,0.1-15.8,2.6-16.6,14.3V135H40
	c-3.3,0-6-2.7-6-6V59c0-3.3,2.7-6,6-6h88c3.3,0,6,2.7,6,6V129z"/>
<path class="st0" d="M104,119h-8c-1.1,0-2,0.9-2,2s0.9,2,2,2h8c1.1,0,2-0.9,2-2S105.1,119,104,119z"/>
<circle class="st1" cx="2" cy="147" r="2"/>
<path class="st1" d="M11,145H8c-1.1,0-2,0.9-2,2s0.9,2,2,2h3c1.1,0,2-0.9,2-2S12.1,145,11,145z M160,145h-3c-1.1,0-2,0.9-2,2
	s0.9,2,2,2h3c1.1,0,2-0.9,2-2S161.1,145,160,145z"/>
<circle class="st1" cx="166" cy="147" r="2"/>
<path class="st1" d="M150.7,145h-9.4c4.2-3.4,6.7-8.6,6.7-14V57c0-9.9-8.1-18-18-18H38c-9.9,0-18,8.1-18,18v74
	c0,5.4,2.5,10.6,6.7,14h-9.4c-1.1-0.1-2.1,0.6-2.3,1.7s0.6,2.1,1.7,2.3c0.2,0,0.4,0,0.5,0h133.4c1.1,0.1,2.1-0.6,2.3-1.7
	s-0.6-2.1-1.7-2.3C151.1,145,150.9,145,150.7,145z M130,145H38c-7.7,0-14-6.3-14-14V57c0-7.7,6.3-14,14-14h92c7.7,0,14,6.3,14,14v74
	C144,138.7,137.7,145,130,145z"/>
<path class="st0" d="M99.1,104.7c-0.6,1.1-1.4,2-2.2,2.9c-2.9,3.1-7,4.9-11.2,4.9h-1.4c-5.5,0-10.6-3-13.4-7.8l3.8-1.5
	c2.1,3.3,5.7,5.2,9.6,5.2h1.4c3.1,0,6.2-1.3,8.3-3.6c0.5-0.5,0.9-1.1,1.3-1.7L99.1,104.7z"/>
<path class="st1" d="M123,11c1.7,0,3-1.3,3-3s-1.3-3-3-3s-3,1.3-3,3C120,9.7,121.3,11,123,11z M123,6.5c0.8,0,1.5,0.7,1.5,1.5
	s-0.7,1.5-1.5,1.5s-1.5-0.7-1.5-1.5C121.5,7.2,122.2,6.5,123,6.5z M66.3,9c-1.1,0-2,0.9-2,2s0.9,2,2,2s2-0.9,2-2
	C68.3,9.9,67.4,9,66.3,9z M66.3,12c-0.6,0-1-0.4-1-1s0.4-1,1-1s1,0.4,1,1C67.3,11.6,66.8,12,66.3,12z M24,5c-1.1,0-2,0.9-2,2
	s0.9,2,2,2s2-0.9,2-2C26,5.9,25.1,5,24,5z M24,8c-0.6,0-1-0.4-1-1s0.4-1,1-1s1,0.4,1,1C25,7.6,24.6,8,24,8z M153,44
	c-1.1,0-2,0.9-2,2s0.9,2,2,2s2-0.9,2-2C155,44.9,154.1,44,153,44z M153,47c-0.6,0-1-0.4-1-1s0.4-1,1-1s1,0.4,1,1
	C154,46.6,153.6,47,153,47z M7.7,44.5c0-1.1-0.9-2-2-2s-2,0.9-2,2s0.9,2,2,2C6.8,46.5,7.7,45.6,7.7,44.5z M4.7,44.5c0-0.6,0.4-1,1-1
	s1,0.4,1,1s-0.4,1-1,1C5.1,45.5,4.7,45.1,4.7,44.5z"/>
<polygon class="st1" points="23.4,30.9 24.9,29 24,28.4 23,30.6 23,30.6 22,28.5 21.1,29 22.5,30.9 22.5,30.9 20.2,30.7 20.2,31.7 
	22.5,31.4 22.5,31.5 21.1,33.4 21.9,33.9 23,31.7 23,31.7 23.9,33.9 24.9,33.3 23.4,31.5 23.4,31.4 25.8,31.7 25.8,30.7 23.4,31 "/>
<polygon class="st1" points="52.1,28.6 51.2,29.7 51.7,30 52.3,28.8 52.3,28.8 52.9,30 53.5,29.7 52.6,28.6 52.6,28.6 53.9,28.8 
	53.9,28.1 52.6,28.3 52.6,28.3 53.4,27.2 52.9,26.9 52.4,28.1 52.3,28.1 51.8,26.9 51.2,27.2 52.1,28.3 52.1,28.3 50.7,28.1 
	50.7,28.8 52.1,28.6 "/>
<polygon class="st1" points="156.7,13.5 156.7,12.5 154.4,12.8 154.4,12.8 155.9,10.8 154.9,10.3 154,12.5 154,12.5 153,10.3 
	152.1,10.9 153.5,12.7 153.5,12.8 151.3,12.5 151.3,13.5 153.5,13.2 153.5,13.3 152.1,15.1 153,15.7 154,13.5 154,13.5 154.9,15.7 
	155.9,15.1 154.4,13.3 154.4,13.2 "/>
<polygon class="st1" points="94.1,26.7 95.3,25 94.5,24.6 93.7,26.4 93.7,26.4 92.9,24.6 92.1,25 93.3,26.6 93.3,26.7 91.3,26.4 
	91.3,27.3 93.3,27.1 93.3,27.1 92.1,28.7 92.8,29.2 93.7,27.3 93.7,27.3 94.5,29.2 95.3,28.7 94.1,27.1 94.1,27.1 96,27.3 96,26.4 
	94.1,26.7 "/>
</svg>
