<?xml version="1.0" encoding="utf-8"?>
<!-- Generator: Adobe Illustrator 24.3.0, SVG Export Plug-In . SVG Version: 6.00 Build 0)  -->
<svg version="1.1" id="Слой_1" xmlns="http://www.w3.org/2000/svg" xmlns:xlink="http://www.w3.org/1999/xlink" x="0px" y="0px"
	 viewBox="0 0 168 168" style="enable-background:new 0 0 168 168;" xml:space="preserve">
<style type="text/css">
	.st0{fill:#333333;}
	.st1{fill:#9BD63E;}
</style>
<path class="st0" d="M48.4,64.1c11,0,19.9-8.9,19.9-19.9s-8.9-19.9-19.9-19.9s-19.9,8.9-19.9,19.9c0,0,0,0,0,0
	C28.5,55.2,37.4,64.1,48.4,64.1z M48.4,28.3c8.8,0,15.9,7.1,15.9,15.9s-7.1,15.9-15.9,15.9c-8.8,0-15.9-7.1-15.9-15.9
	C32.5,35.4,39.6,28.3,48.4,28.3L48.4,28.3z"/>
<path class="st0" d="M122,45.3h2.7v4.5c0,1.1,0.9,2,2,2c0.5,0,1-0.2,1.4-0.5l6.3-5.9H146c1.1,0,2-0.9,2-2V25.7c0-1.1-0.9-2-2-2h-24
	c-1.1,0-2,0.9-2,2v17.5C120,44.4,120.9,45.3,122,45.3z M124,27.7h20v13.5h-10.5c-0.5,0-1,0.2-1.4,0.5l-3.5,3.3v-1.8c0-1.1-0.9-2-2-2
	H124L124,27.7z M28.9,110.4c0.5,0,1.1,0,1.7-0.1v3.9c0,1.1,0.9,2,2,2h33.1c1.1,0,2-0.9,2-2V110l4.2,0.1l0.1,0c0,0,0.1,0,0.1,0
	c3.5-0.2,6.1-3.9,6-8.4l-0.6-26.4c0-0.5-0.1-1.1-0.2-1.6c-0.1-4.6-3.4-8.4-7.5-8.4h-9.2c0,0,0,0-0.1,0c-0.1,0-0.2,0-0.3,0
	c-0.1,0-0.1,0-0.2,0.1c-0.1,0-0.1,0-0.2,0.1c-0.1,0-0.2,0.1-0.2,0.1c0,0-0.1,0-0.1,0.1c-0.1,0.1-0.2,0.2-0.3,0.3L48.4,76.4
	L37.7,65.8l0,0l0,0c0,0,0,0-0.1-0.1c-0.1-0.1-0.2-0.1-0.2-0.2c0,0-0.1-0.1-0.2-0.1c-0.1,0-0.1-0.1-0.2-0.1c-0.1,0-0.1,0-0.2-0.1
	c-0.1,0-0.1,0-0.2-0.1c-0.1,0-0.2,0-0.3,0c0,0-0.1,0-0.1,0h-7.9c-4.1,0-7.5,3.7-7.5,8.4c-0.1,0.5-0.2,1.1-0.2,1.7L20,101.6l0,0.3
	c-0.1,1.9-0.1,4.5,1.9,6.4C23.4,109.7,25.7,110.4,28.9,110.4z M24,102.1l0.6-26.7c0-0.4,0.1-0.8,0.1-1.1c0-0.1,0-0.3,0-0.4v-0.1
	c0-2.5,1.6-4.5,3.5-4.5h7.1L47,80.6c0.8,0.8,2,0.8,2.8,0l11.5-11.4h8.3c2,0,3.5,2,3.5,4.5v0.1c0,0.2,0,0.3,0.1,0.5
	c0.1,0.4,0.1,0.7,0.1,1.1l0.6,26.4c0.1,2.5-1.2,4.2-2.1,4.3l-4.2-0.1V92.6c0-1.1-0.9-2-2-2s-2,0.9-2,2v19.7H34.6V92.6
	c0-1.1-0.9-2-2-2c-1.1,0-2,0.9-2,2v13.7c-3.9,0.3-5.4-0.4-5.9-0.9C24,104.8,24,103.7,24,102.1L24,102.1z M114.3,97.2
	c10.5,0,19-8.5,19-19s-8.5-19-19-19s-19,8.5-19,19l0,0C95.3,88.7,103.8,97.2,114.3,97.2z M114.3,63.2c8.3,0,15,6.7,15,15
	s-6.7,15-15,15s-15-6.7-15-15l0,0C99.3,69.9,106,63.2,114.3,63.2z"/>
<circle class="st0" cx="128.5" cy="35.1" r="2"/>
<circle class="st0" cx="140.5" cy="35.1" r="2"/>
<circle class="st0" cx="134.5" cy="35.1" r="2"/>
<path class="st1" d="M74,45.3h2.7v4.5c0,1.1,0.9,2,2,2c0.5,0,1-0.2,1.4-0.5l6.3-5.9H98c1.1,0,2-0.9,2-2V25.7c0-1.1-0.9-2-2-2H74
	c-1.1,0-2,0.9-2,2v17.5C72,44.4,72.9,45.3,74,45.3z M76,27.7h20v13.5H85.5c-0.5,0-1,0.2-1.4,0.5l-3.5,3.3v-1.8c0-1.1-0.9-2-2-2H76
	V27.7z"/>
<circle class="st1" cx="80" cy="35.1" r="2"/>
<circle class="st1" cx="92" cy="35.1" r="2"/>
<circle class="st1" cx="86" cy="35.1" r="2"/>
<path class="st0" d="M150.7,147.8h-17.5v-2.3l4.1,0.1l0.1,0c0,0,0.1,0,0.1,0c3.5-0.2,6.1-3.9,5.9-8.5l-0.6-26.6
	c0-0.6-0.1-1.1-0.2-1.6c0-4.7-3.4-8.4-7.5-8.4h-9.1c-0.1,0-0.3,0-0.4,0c0,0-0.1,0-0.1,0c-0.2,0-0.3,0.1-0.4,0.2c0,0-0.1,0-0.1,0.1
	c-0.1,0.1-0.2,0.2-0.3,0.3L114,111.6L103.4,101c-0.1-0.1-0.2-0.2-0.3-0.3c0,0-0.1-0.1-0.1-0.1c-0.1-0.1-0.3-0.1-0.4-0.2
	c-0.1,0-0.1,0-0.2-0.1c-0.1,0-0.3,0-0.4,0l0,0h-7.9c-4.1,0-7.4,3.8-7.5,8.4c-0.1,0.5-0.2,1.1-0.2,1.7L85.8,137l0,0.3
	c-0.1,1.9-0.1,4.6,2,6.5c1.5,1.3,3.7,2,6.9,2c0.5,0,1.1,0,1.7-0.1v2h-79c-1.1-0.1-2.1,0.6-2.3,1.7c-0.1,1.1,0.6,2.1,1.7,2.3
	c0.2,0,0.3,0,0.5,0h133.4c1.1,0.1,2.1-0.6,2.3-1.7s-0.6-2.1-1.7-2.3C151.1,147.7,150.9,147.7,150.7,147.8z M100.2,147.8v-19.8
	c0-1.1-0.9-2-2-2s-2,0.9-2,2v13.8c-3.9,0.3-5.3-0.4-5.9-0.9c-0.7-0.6-0.7-1.7-0.7-3.4l0.6-26.9c0-0.4,0.1-0.8,0.1-1.1
	c0-0.1,0-0.3,0-0.4v-0.1c0-2.5,1.6-4.5,3.5-4.5h7l11.5,11.5c0.8,0.8,2,0.8,2.8,0c0,0,0,0,0,0l11.5-11.5h8.3c1.9,0,3.5,2.1,3.5,4.5
	v0.1c0,0.2,0,0.3,0.1,0.4c0.1,0.4,0.1,0.7,0.1,1.1l0.6,26.5c0.1,2.5-1.2,4.3-2.1,4.4l-4.1-0.1v-13.5c0-1.1-0.9-2-2-2s-2,0.9-2,2
	v19.8H100.2z M68.3,8.2c1.7,0,3-1.3,3-3s-1.3-3-3-3s-3,1.3-3,3C65.3,6.9,66.6,8.2,68.3,8.2z M68.3,3.7c0.8,0,1.5,0.7,1.5,1.5
	s-0.7,1.5-1.5,1.5s-1.5-0.7-1.5-1.5C66.8,4.4,67.5,3.8,68.3,3.7z M150.3,4.2c-1.1,0-2,0.9-2,2s0.9,2,2,2s2-0.9,2-2
	C152.3,5.1,151.4,4.3,150.3,4.2z M150.3,7.2c-0.6,0-1-0.4-1-1s0.4-1,1-1s1,0.4,1,1C151.3,6.8,150.9,7.2,150.3,7.2z M98.3,40.2
	c-1.1,0-2,0.9-2,2s0.9,2,2,2s2-0.9,2-2C100.3,41.1,99.4,40.3,98.3,40.2z M98.3,43.2c-0.6,0-1-0.4-1-1s0.4-1,1-1s1,0.4,1,1
	C99.3,42.8,98.9,43.2,98.3,43.2z M162.3,36.2c-1.1,0-2,0.9-2,2s0.9,2,2,2s2-0.9,2-2C164.3,37.1,163.4,36.3,162.3,36.2z M162.3,39.2
	c-0.6,0-1-0.4-1-1s0.4-1,1-1s1,0.4,1,1C163.3,38.8,162.9,39.2,162.3,39.2z M9.3,6.2c0-1.1-0.9-2-2-2s-2,0.9-2,2s0.9,2,2,2
	C8.4,8.2,9.3,7.4,9.3,6.2z M6.3,6.2c0-0.6,0.4-1,1-1s1,0.4,1,1s-0.4,1-1,1C6.8,7.2,6.3,6.8,6.3,6.2z"/>
<polygon class="st0" points="6.9,51.3 8.4,49.3 7.4,48.8 6.5,51 6.4,51 5.5,48.8 4.5,49.3 6,51.2 6,51.3 3.7,51 3.7,52 6,51.7 
	6,51.8 4.5,53.7 5.4,54.2 6.4,52 6.5,52 7.4,54.2 8.4,53.7 6.9,51.8 6.9,51.8 9.2,52 9.2,51 6.9,51.3 "/>
<polygon class="st0" points="40.1,18.3 39.2,19.4 39.7,19.7 40.3,18.5 40.3,18.5 40.9,19.7 41.5,19.4 40.6,18.3 40.6,18.3 
	41.9,18.5 41.9,17.9 40.6,18 40.6,18 41.4,16.9 40.9,16.6 40.4,17.8 40.3,17.8 39.8,16.6 39.2,16.9 40.1,18 40.1,18 38.7,17.9 
	38.7,18.5 40.1,18.3 "/>
<polygon class="st0" points="94.3,15 94.3,13.9 92,14.2 92,14.2 93.4,12.3 92.5,11.8 91.6,13.9 91.6,13.9 90.6,11.8 89.7,12.3 
	91.1,14.2 91.1,14.2 88.9,13.9 88.9,15 91.1,14.7 91.1,14.7 89.7,16.6 90.5,17.1 91.5,15 91.6,15 92.5,17.1 93.5,16.6 92,14.7 
	92,14.7 "/>
<polygon class="st0" points="116.7,19.8 118,18.2 117.2,17.7 116.4,19.6 116.4,19.6 115.6,17.7 114.7,18.2 116,19.8 116,19.8 
	114,19.6 114,20.5 116,20.2 116,20.3 114.7,21.9 115.5,22.4 116.4,20.5 116.4,20.5 117.2,22.4 118,21.9 116.7,20.3 116.7,20.3 
	118.7,20.5 118.7,19.6 116.7,19.9 "/>
<circle class="st0" cx="2" cy="149.8" r="2"/>
<path class="st0" d="M11,147.8H8c-1.1,0-2,0.9-2,2s0.9,2,2,2h3c1.1,0,2-0.9,2-2S12.1,147.8,11,147.8z M160,147.8h-3
	c-1.1,0-2,0.9-2,2s0.9,2,2,2h3c1.1,0,2-0.9,2-2S161.1,147.8,160,147.8z"/>
<circle class="st0" cx="166" cy="149.8" r="2"/>
<path class="st1" d="M118.2,155.8h-8.3c-1.1,0.1-1.9,1.1-1.8,2.2c0.1,1,0.9,1.8,1.8,1.8h8.3c1.1-0.1,1.9-1.1,1.8-2.2
	C119.9,156.6,119.1,155.8,118.2,155.8z M58.2,155.8h-8.3c-1.1,0.1-1.9,1.1-1.8,2.2c0.1,1,0.9,1.8,1.8,1.8h8.3
	c1.1-0.1,1.9-1.1,1.8-2.2C59.9,156.6,59.1,155.8,58.2,155.8z M104,155.8H64c-1.1,0-2,0.9-2,2s0.9,2,2,2h15.9v2H72c-1.1,0-2,0.9-2,2
	s0.9,2,2,2h25c1.1,0,2-0.9,2-2s-0.9-2-2-2h-8.9v-2H104c1.1,0,2-0.9,2-2S105.1,155.8,104,155.8z"/>
</svg>
