<?xml version="1.0" encoding="utf-8"?>
<!-- Generator: Adobe Illustrator 24.3.0, SVG Export Plug-In . SVG Version: 6.00 Build 0)  -->
<svg version="1.1" id="Слой_1" xmlns="http://www.w3.org/2000/svg" xmlns:xlink="http://www.w3.org/1999/xlink" x="0px" y="0px"
	 viewBox="0 0 168 168" style="enable-background:new 0 0 168 168;" xml:space="preserve">
<style type="text/css">
	.st0{fill:#9BD63E;}
	.st1{fill:#333333;}
</style>
<path class="st0" d="M117,66H64.9L105,52.1V62h4v-9.9c0-1.3-0.6-2.5-1.7-3.3c-1-0.7-2.4-0.9-3.6-0.5L52.3,66.1c0,0,0,0,0,0
	c-0.2,0.1-0.3,0.1-0.5,0.3c0,0-0.1,0-0.1,0.1c-0.1,0.1-0.2,0.2-0.3,0.3c0,0,0,0,0,0.1c-0.1,0.1-0.2,0.3-0.2,0.5c0,0,0,0.1,0,0.1
	C51,67.6,51,67.8,51,68v14h-2c-1.1,0-2,0.9-2,2v18c0,1.1,0.9,2,2,2h2v12c0,2.2,1.8,4,4,4h62c2.2,0,4-1.8,4-4V70
	C121,67.8,119.2,66,117,66z M51,100V86h21c3.9,0,7,3.1,7,7s-3.1,7-7,7H51z M55,116v-12h17c6.1,0,11-4.9,11-11s-4.9-11-11-11H55V70
	h62l0,46H55z"/>
<circle class="st1" cx="71" cy="93" r="2"/>
<path class="st1" d="M22,90.1c1.1,0,2-0.9,2-2V88c0-1.3,0-2.6,0.1-3.8c0.1-1.1-0.8-2.1-1.9-2.1s-2.1,0.8-2.1,1.9
	C20,85.3,20,86.6,20,88v0.1C20,89.2,20.9,90.1,22,90.1z"/>
<path class="st1" d="M25.2,99.8c-0.3-1.3-0.5-2.6-0.6-3.9c-0.1-1.1-1.1-1.9-2.2-1.8c-1.1,0.1-1.9,1.1-1.8,2.2c0,0,0,0,0,0.1
	c0.2,1.4,0.4,2.8,0.7,4.1c0.2,1.1,1.2,1.8,2.3,1.6S25.4,101,25.2,99.8C25.2,99.8,25.2,99.8,25.2,99.8z"/>
<path class="st1" d="M28.6,111c-0.5-1.2-1-2.4-1.4-3.7c-0.3-1.1-1.5-1.6-2.5-1.3s-1.6,1.5-1.3,2.5c0,0,0,0,0,0.1
	c0.4,1.3,0.9,2.6,1.5,3.9c0.4,1,1.5,1.6,2.6,1.2c1-0.4,1.6-1.5,1.2-2.6C28.6,111.1,28.6,111.1,28.6,111L28.6,111z M25.9,66.2
	c1,0.4,2.2-0.1,2.6-1.1c0.5-1.2,1-2.4,1.6-3.6c0.5-1,0.1-2.2-0.9-2.7c-1-0.5-2.2-0.1-2.7,0.9c-0.6,1.3-1.2,2.5-1.7,3.8
	C24.4,64.6,24.9,65.8,25.9,66.2z"/>
<path class="st1" d="M22.8,78c1.1,0.2,2.1-0.5,2.3-1.6c0.2-1.3,0.5-2.6,0.9-3.8c0.3-1.1-0.4-2.2-1.4-2.4c-1.1-0.3-2.2,0.4-2.4,1.4
	l0,0c-0.4,1.3-0.7,2.7-0.9,4.1C21,76.7,21.7,77.8,22.8,78C22.8,78,22.8,78,22.8,78L22.8,78z"/>
<path class="st1" d="M40.1,46.2c0.5,0,1-0.2,1.4-0.6c0.9-0.9,1.9-1.8,2.9-2.7c0.8-0.7,0.9-2,0.2-2.8c-0.7-0.8-2-0.9-2.8-0.2
	c0,0,0,0,0,0c-1,0.9-2.1,1.9-3,2.9c-0.8,0.8-0.7,2.1,0.1,2.9C39.1,46,39.6,46.2,40.1,46.2L40.1,46.2z"/>
<path class="st1" d="M31.3,55.3c0.9,0.6,2.2,0.3,2.8-0.6c0.7-1.1,1.5-2.2,2.3-3.2c0.7-0.9,0.5-2.1-0.4-2.8c-0.9-0.6-2.1-0.5-2.8,0.4
	c-0.8,1.1-1.7,2.2-2.4,3.4C30.1,53.5,30.3,54.7,31.3,55.3C31.3,55.3,31.3,55.3,31.3,55.3z M71.7,29.2c0.1,0,0.3,0,0.4,0
	c1.3-0.3,2.6-0.5,3.9-0.6c1.1-0.2,1.9-1.2,1.7-2.3c-0.2-1.1-1.1-1.8-2.2-1.7c-1.4,0.2-2.8,0.4-4.1,0.7c-1.1,0.2-1.8,1.3-1.6,2.4
	C70,28.5,70.8,29.2,71.7,29.2L71.7,29.2z M49.4,38.5c0.4,0,0.8-0.1,1.1-0.3c1.1-0.7,2.2-1.4,3.3-2.1c1-0.5,1.3-1.8,0.7-2.7
	c-0.5-1-1.8-1.3-2.7-0.7c0,0,0,0,0,0c-1.2,0.7-2.4,1.4-3.5,2.2c-0.9,0.6-1.2,1.9-0.5,2.8c0,0,0,0,0,0C48.2,38.2,48.8,38.5,49.4,38.5
	L49.4,38.5z M95.5,29.1c1.3,0.3,2.6,0.5,3.8,0.9c1.1,0.3,2.2-0.4,2.4-1.4c0.3-1.1-0.4-2.2-1.4-2.4c0,0,0,0,0,0
	c-1.3-0.4-2.7-0.7-4.1-0.9c-1.1-0.2-2.1,0.5-2.3,1.6C93.7,27.8,94.5,28.9,95.5,29.1z"/>
<path class="st1" d="M139.4,64.8c0.5,1.2,1,2.4,1.4,3.7c0.4,1,1.5,1.6,2.5,1.2c1-0.4,1.6-1.5,1.2-2.5c-0.4-1.3-0.9-2.6-1.5-3.9
	c-0.4-1-1.6-1.5-2.6-1C139.4,62.7,139,63.9,139.4,64.8L139.4,64.8z"/>
<path class="st1" d="M142.8,76.1c0.3,1.3,0.5,2.6,0.6,3.9c0.1,1.1,1.2,1.9,2.2,1.7s1.9-1.2,1.7-2.2c-0.2-1.4-0.4-2.8-0.7-4.1
	c-0.2-1.1-1.3-1.8-2.4-1.6C143.3,73.9,142.6,75,142.8,76.1L142.8,76.1z"/>
<path class="st1" d="M106.8,32.5c1.2,0.5,2.4,1,3.6,1.6c1,0.5,2.2,0.1,2.7-0.9c0.5-1,0.1-2.2-0.9-2.7c0,0,0,0,0,0
	c-1.3-0.6-2.5-1.2-3.8-1.7c-1-0.4-2.2,0.1-2.6,1.1C105.3,30.9,105.8,32.1,106.8,32.5z M60.1,32.8c0.3,0,0.5-0.1,0.8-0.2
	c1.2-0.5,2.4-1,3.7-1.4c1-0.3,1.6-1.5,1.3-2.5c-0.3-1-1.5-1.6-2.5-1.3c0,0,0,0,0,0c-1.3,0.5-2.6,0.9-3.9,1.5c-1,0.4-1.5,1.6-1.1,2.6
	C58.6,32.3,59.3,32.8,60.1,32.8z M83.8,28H84c1.3,0,2.5,0,3.8,0.1c0,0,0.1,0,0.1,0c1.1,0,2-0.9,2-2c0-1.1-0.8-1.9-1.9-2
	C86.7,24,85.3,24,84,24h-0.2c-1.1,0-2,0.9-2,2S82.7,28,83.8,28z"/>
<path class="st1" d="M32.1,118.1c-0.6-1-1.8-1.3-2.7-0.7c-1,0.6-1.3,1.8-0.7,2.7c0.7,1.2,1.4,2.4,2.2,3.5c0.6,0.9,1.9,1.1,2.8,0.5
	c0.9-0.6,1.2-1.9,0.5-2.8c0,0,0,0,0,0C33.4,120.3,32.7,119.2,32.1,118.1L32.1,118.1z"/>
<path class="st1" d="M61.1,143.5c-1.2-0.5-2.4-1-3.6-1.6c-1-0.5-2.2-0.1-2.7,0.9c-0.5,1-0.1,2.2,0.9,2.7c1.3,0.6,2.5,1.2,3.8,1.7
	c1,0.4,2.2-0.1,2.6-1.1C62.6,145.1,62.1,143.9,61.1,143.5z M126.4,130.4c-0.9,0.9-1.9,1.8-2.9,2.7c-0.8,0.7-0.9,2-0.2,2.8
	c0,0,0,0,0,0c0.7,0.8,2,0.9,2.8,0.2c1-0.9,2.1-1.9,3.1-2.9c0.8-0.8,0.7-2.1,0-2.8C128.4,129.7,127.2,129.7,126.4,130.4z"/>
<path class="st1" d="M136.7,120.8c-0.9-0.6-2.2-0.4-2.8,0.5c0,0,0,0,0,0c-0.7,1.1-1.5,2.2-2.3,3.2c-0.7,0.9-0.5,2.1,0.4,2.8
	c0.9,0.6,2.1,0.5,2.8-0.4c0.9-1.1,1.7-2.2,2.4-3.4C137.8,122.6,137.6,121.4,136.7,120.8C136.7,120.8,136.7,120.8,136.7,120.8z"/>
<path class="st1" d="M132,45.7c-0.9-1-1.9-2.1-2.9-3c-0.8-0.8-2.1-0.8-2.8,0c-0.8,0.8-0.8,2,0,2.8c0.9,0.9,1.8,1.9,2.7,2.9
	c0.7,0.8,2,0.9,2.8,0.2C132.6,47.7,132.7,46.5,132,45.7C132,45.7,132,45.7,132,45.7z"/>
<path class="st1" d="M139.3,55.8c-0.7-1.2-1.4-2.4-2.2-3.5c-0.6-0.9-1.9-1.2-2.8-0.5c-0.9,0.6-1.2,1.9-0.5,2.8
	c0.7,1.1,1.4,2.2,2.1,3.3c0.6,0.9,1.8,1.3,2.7,0.7C139.6,58,139.9,56.8,139.3,55.8z"/>
<path class="st1" d="M146,85.8c-1.1,0-2,0.9-2,2V88c0,1.3,0,2.6-0.1,3.9c-0.1,1.1,0.8,2.1,1.9,2.1c1.1,0.1,2.1-0.8,2.1-1.9
	c0.1-1.4,0.1-2.8,0.1-4.2v-0.2C148,86.7,147.1,85.8,146,85.8z M142.1,109.9c-1-0.4-2.2,0.1-2.6,1.1c0,0,0,0,0,0
	c-0.5,1.2-1,2.4-1.6,3.6c-0.5,1-0.1,2.2,0.9,2.7c1,0.5,2.2,0.1,2.7-0.9c0.6-1.3,1.2-2.5,1.7-3.8
	C143.6,111.5,143.1,110.3,142.1,109.9L142.1,109.9z"/>
<path class="st1" d="M145.2,98.1c-1.1-0.2-2.1,0.5-2.4,1.6c-0.3,1.3-0.6,2.6-0.9,3.8c-0.3,1.1,0.3,2.2,1.4,2.4c0,0,0,0,0,0
	c1.1,0.3,2.2-0.4,2.4-1.4c0.4-1.3,0.7-2.7,0.9-4.1C147,99.4,146.3,98.3,145.2,98.1L145.2,98.1z M122.8,37.1
	c-1.1-0.8-2.2-1.7-3.4-2.4c-0.9-0.6-2.2-0.4-2.8,0.6c-0.6,0.9-0.4,2.2,0.6,2.8l0,0c1.1,0.7,2.2,1.5,3.2,2.3c0.9,0.7,2.1,0.5,2.8-0.4
	C123.9,39,123.7,37.8,122.8,37.1C122.8,37.1,122.8,37.1,122.8,37.1z"/>
<path class="st1" d="M84,148c-1.3,0-2.6,0-3.9-0.1c-1.1-0.1-2.1,0.8-2.1,1.9c-0.1,1.1,0.8,2.1,1.9,2.1c1.4,0.1,2.7,0.1,4.1,0.1
	c1.1,0,2-0.9,2-2S85.1,148,84,148z"/>
<path class="st1" d="M50.7,137.9c-1.1-0.7-2.2-1.5-3.2-2.3c-0.9-0.7-2.1-0.5-2.8,0.4c-0.6,0.9-0.5,2.1,0.4,2.8
	c1.1,0.9,2.2,1.7,3.4,2.4c0.9,0.6,2.2,0.4,2.8-0.6C51.9,139.8,51.6,138.5,50.7,137.9L50.7,137.9z M117.4,137.9
	c-1.1,0.7-2.2,1.4-3.3,2.1c-1,0.6-1.3,1.8-0.7,2.7c0.6,0.9,1.8,1.3,2.7,0.7c1.2-0.7,2.4-1.4,3.6-2.2c0.9-0.6,1.2-1.8,0.6-2.8
	C119.6,137.5,118.3,137.3,117.4,137.9C117.4,137.9,117.4,137.9,117.4,137.9z"/>
<path class="st1" d="M38.9,127.6c-0.7-0.8-2-0.9-2.8-0.2c-0.8,0.7-0.9,2-0.2,2.8l0,0c0.9,1,1.9,2.1,2.9,3.1c0.8,0.8,2,0.8,2.8,0
	c0.8-0.8,0.8-2,0-2.8C40.7,129.5,39.8,128.6,38.9,127.6L38.9,127.6z M107,143.4c-1.2,0.5-2.4,1-3.7,1.4c-1,0.4-1.6,1.5-1.2,2.5
	c0,0,0,0,0,0c0.4,1,1.5,1.6,2.5,1.2c1.3-0.4,2.6-0.9,3.9-1.5c1-0.4,1.5-1.6,1-2.6C109.1,143.5,108,143,107,143.4z"/>
<circle class="st1" cx="2" cy="150" r="2"/>
<path class="st1" d="M11,148H8c-1.1,0-2,0.9-2,2s0.9,2,2,2h3c1.1,0,2-0.9,2-2S12.1,148,11,148z M160,148h-3c-1.1,0-2,0.9-2,2
	s0.9,2,2,2h3c1.1,0,2-0.9,2-2S161.1,148,160,148z"/>
<circle class="st1" cx="166" cy="150" r="2"/>
<path class="st0" d="M118.2,156h-8.3c-1.1,0.1-1.9,1.1-1.8,2.2c0.1,1,0.9,1.8,1.8,1.8h8.3c1.1-0.1,1.9-1.1,1.8-2.2
	C119.9,156.9,119.1,156.1,118.2,156z M58.2,156h-8.3c-1.1,0.1-1.9,1.1-1.8,2.2c0.1,1,0.9,1.8,1.8,1.8h8.3c1.1-0.1,1.9-1.1,1.8-2.2
	C59.9,156.9,59.1,156.1,58.2,156z M104,156H64c-1.1,0-2,0.9-2,2s0.9,2,2,2h15.9v2H72c-1.1,0-2,0.9-2,2s0.9,2,2,2h25c1.1,0,2-0.9,2-2
	s-0.9-2-2-2h-8.9v-2H104c1.1,0,2-0.9,2-2S105.1,156,104,156z"/>
<path class="st1" d="M150.7,148H98c-0.4-0.9-1.3-1.3-2.2-1.2c-1.3,0.3-2.6,0.5-3.9,0.6c-0.4,0.1-0.8,0.2-1.1,0.5h-17
	c-0.3-0.6-0.8-1-1.4-1.1c-1.3-0.3-2.6-0.5-3.8-0.9c-1-0.3-2.1,0.3-2.4,1.4c-0.1,0.2-0.1,0.4-0.1,0.6H17.3c-1.1-0.1-2.1,0.6-2.3,1.7
	c-0.1,1.1,0.6,2.1,1.7,2.3c0.2,0,0.3,0,0.5,0h133.4c1.1,0.1,2.1-0.6,2.3-1.7s-0.6-2.1-1.7-2.3C151.1,148,150.9,148,150.7,148
	L150.7,148z M114.3,12.5c1.7,0,3-1.3,3-3s-1.3-3-3-3s-3,1.3-3,3C111.3,11.2,112.6,12.5,114.3,12.5z M114.3,8c0.8,0,1.5,0.7,1.5,1.5
	s-0.7,1.5-1.5,1.5s-1.5-0.7-1.5-1.5C112.8,8.7,113.5,8,114.3,8z M158.3,64.5c-1.1,0-2,0.9-2,2s0.9,2,2,2s2-0.9,2-2
	C160.3,65.4,159.4,64.5,158.3,64.5z M158.3,67.5c-0.6,0-1-0.4-1-1s0.4-1,1-1s1,0.4,1,1C159.3,67.1,158.9,67.5,158.3,67.5z M39.3,5.5
	c-1.1,0-2,0.9-2,2s0.9,2,2,2s2-0.9,2-2C41.3,6.4,40.4,5.5,39.3,5.5z M39.3,8.5c-0.6,0-1-0.4-1-1s0.4-1,1-1s1,0.4,1,1
	C40.3,8.1,39.9,8.5,39.3,8.5z M158.3,5.5c-1.1,0-2,0.9-2,2s0.9,2,2,2s2-0.9,2-2C160.3,6.4,159.4,5.5,158.3,5.5z M158.3,8.5
	c-0.6,0-1-0.4-1-1s0.4-1,1-1s1,0.4,1,1C159.3,8.1,158.9,8.5,158.3,8.5z M17.3,23.5c0-1.1-0.9-2-2-2s-2,0.9-2,2s0.9,2,2,2
	C16.4,25.5,17.3,24.6,17.3,23.5z M14.3,23.5c0-0.6,0.4-1,1-1s1,0.4,1,1s-0.4,1-1,1C14.8,24.5,14.3,24.1,14.3,23.5z"/>
<path class="st1" d="M10.9,64.5l1.5-2L11.4,62l-1,2.2h0l-1-2.2l-1,0.5l1.5,1.9v0l-2.3-0.3v1.1L10,65v0L8.5,67l0.9,0.6l1-2.2h0
	l0.9,2.2l1-0.6l-1.5-1.9v0l2.4,0.3v-1.1L10.9,64.5C10.9,64.6,10.9,64.5,10.9,64.5z M42.1,28.6l-0.9,1.1l0.5,0.3l0.6-1.3h0l0.5,1.3
	l0.6-0.3l-0.9-1.1v0l1.4,0.2v-0.6l-1.4,0.2v0l0.9-1.1l-0.5-0.3l-0.5,1.3h0l-0.6-1.3l-0.5,0.3l0.8,1.1v0l-1.3-0.2v0.6L42.1,28.6
	C42.1,28.6,42.1,28.6,42.1,28.6z M155.3,43.2v-1l-2.3,0.3v0l1.5-1.9l-0.9-0.5l-0.9,2.1h0l-1-2.1l-0.9,0.5l1.4,1.9v0l-2.3-0.3v1
	l2.3-0.3v0l-1.5,1.9l0.9,0.6l1-2.2h0l0.9,2.1l1-0.6L153,43v0L155.3,43.2L155.3,43.2z M73.7,4.1L75,2.4L74.2,2l-0.8,1.9h0L72.6,2
	l-0.8,0.5L73,4.1v0L71,3.9v0.9l2-0.3v0l-1.3,1.6l0.8,0.5l0.9-1.9h0l0.8,1.9L75,6.1l-1.3-1.6v0l2,0.2V3.9L73.7,4.1L73.7,4.1z"/>
</svg>
