<?xml version="1.0" encoding="utf-8"?>
<!-- Generator: Adobe Illustrator 24.3.0, SVG Export Plug-In . SVG Version: 6.00 Build 0)  -->
<svg version="1.1" id="Слой_1" xmlns="http://www.w3.org/2000/svg" xmlns:xlink="http://www.w3.org/1999/xlink" x="0px" y="0px"
	 viewBox="0 0 168 168" style="enable-background:new 0 0 168 168;" xml:space="preserve">
<style type="text/css">
	.st0{fill:#9BD63E;}
	.st1{fill:#333333;}
</style>
<path class="st0" d="M85.3,107.7v-1.3c3.4-0.3,5.1-2,5.1-4.7c0-6-9.1-4.5-9.1-7.7c0-1,0.8-1.9,2.9-1.9c1.3,0,2.5,0.4,3.5,1.3
	c0.3,0.3,0.7,0.5,1.1,0.5c0.7,0,1.3-0.5,1.4-1.3c0-0.3-0.1-0.5-0.2-0.8c-1.2-1.3-2.8-2.1-4.5-2.2v-1.4c0-0.6-0.6-1.1-1.2-1.1
	c-0.6,0-1.1,0.5-1.1,1.1v1.4c-3.2,0.3-4.6,2.2-4.6,4.3c0,5.8,9.1,4.2,9.1,7.7c0,1.5-1.1,2.2-3.4,2.2c-1.6,0-3-0.7-4.1-1.8
	c-0.3-0.3-0.7-0.5-1.1-0.5c-0.7,0-1.3,0.6-1.3,1.3c0,0.2,0.1,0.5,0.2,0.7c1.2,1.6,3.1,2.7,5.2,2.9v1.3c0,0.6,0.6,1.1,1.2,1.1
	C84.8,108.8,85.3,108.3,85.3,107.7L85.3,107.7z"/>
<circle class="st1" cx="2" cy="150" r="2"/>
<path class="st1" d="M11,148H8c-1.1,0-2,0.9-2,2s0.9,2,2,2h3c1.1,0,2-0.9,2-2S12.1,148,11,148z M160,148h-3c-1.1,0-2,0.9-2,2
	s0.9,2,2,2h3c1.1,0,2-0.9,2-2S161.1,148,160,148z"/>
<circle class="st1" cx="166" cy="150" r="2"/>
<path class="st0" d="M118.2,156h-8.3c-1.1,0.1-1.9,1.1-1.8,2.2c0.1,1,0.9,1.8,1.8,1.8h8.3c1.1-0.1,1.9-1.1,1.8-2.2
	C119.9,156.9,119.1,156.1,118.2,156z M58.2,156h-8.3c-1.1,0.1-1.9,1.1-1.8,2.2c0.1,1,0.9,1.8,1.8,1.8h8.3c1.1-0.1,1.9-1.1,1.8-2.2
	C59.9,156.9,59.1,156.1,58.2,156z M104,156H64c-1.1,0-2,0.9-2,2s0.9,2,2,2h15.9v2H72c-1.1,0-2,0.9-2,2s0.9,2,2,2h25c1.1,0,2-0.9,2-2
	s-0.9-2-2-2h-8.9v-2H104c1.1,0,2-0.9,2-2S105.1,156,104,156z"/>
<path class="st1" d="M83.8,16.5c1.7,0,3-1.3,3-3s-1.3-3-3-3s-3,1.3-3,3C80.8,15.2,82.2,16.5,83.8,16.5z M83.8,12
	c0.8,0,1.5,0.7,1.5,1.5S84.7,15,83.8,15s-1.5-0.7-1.5-1.5C82.3,12.7,83,12,83.8,12z M44.2,2c-1.1,0-2,0.9-2,2s0.9,2,2,2s2-0.9,2-2
	C46.2,2.9,45.3,2,44.2,2z M44.2,5c-0.6,0-1-0.4-1-1s0.4-1,1-1s1,0.4,1,1C45.2,4.6,44.7,5,44.2,5z M137.1,2c-1.1,0-2,0.9-2,2
	s0.9,2,2,2s2-0.9,2-2C139.1,2.9,138.2,2,137.1,2z M137.1,5c-0.6,0-1-0.4-1-1s0.4-1,1-1s1,0.4,1,1C138.1,4.6,137.7,5,137.1,5z
	 M111.1,20.5c-1.1,0-2,0.9-2,2s0.9,2,2,2s2-0.9,2-2C113.1,21.4,112.2,20.5,111.1,20.5z M111.1,23.5c-0.6,0-1-0.4-1-1s0.4-1,1-1
	s1,0.4,1,1C112.1,23,111.7,23.5,111.1,23.5z M7.8,12.5c0-1.1-0.9-2-2-2s-2,0.9-2,2s0.9,2,2,2C6.9,14.5,7.8,13.6,7.8,12.5z M4.8,12.5
	c0-0.6,0.4-1,1-1s1,0.4,1,1s-0.4,1-1,1C5.3,13.5,4.8,13.1,4.8,12.5z"/>
<path class="st1" d="M54.4,27l1.5-2L55,24.5l-1,2.2h0l-1-2.2l-1,0.5l1.5,1.9v0l-2.3-0.3v1.1l2.3-0.3v0l-1.5,1.9l0.9,0.6l1-2.2h0
	l0.9,2.2l1-0.6l-1.5-1.9v0l2.4,0.3v-1.1L54.4,27L54.4,27z M23,49.6l-0.9,1.1l0.5,0.3l0.6-1.3h0l0.5,1.3l0.6-0.3l-0.9-1.1v0l1.4,0.2
	v-0.6l-1.4,0.2v0l0.9-1.1l-0.5-0.3l-0.5,1.3h0l-0.6-1.3l-0.5,0.3l0.8,1.1v0l-1.3-0.2v0.6L23,49.6L23,49.6z M142.6,47.3v-1l-2.3,0.3
	v0l1.5-1.9l-0.9-0.5l-0.9,2.1h0l-1-2.1l-0.9,0.5l1.4,1.9v0l-2.3-0.3v1l2.3-0.3v0l-1.5,1.9l0.9,0.6l1-2.2h0l0.9,2.1l1-0.6l-1.5-1.8v0
	L142.6,47.3L142.6,47.3z M162.2,18.3l1.3-1.7l-0.8-0.5l-0.8,1.9h0l-0.8-1.8l-0.8,0.5l1.2,1.6v0l-1.9-0.3v0.9l2-0.3v0l-1.3,1.6
	l0.8,0.5l0.9-1.9h0l0.8,1.9l0.8-0.5l-1.3-1.6v0l2,0.2V18L162.2,18.3L162.2,18.3z"/>
<path class="st1" d="M150.7,148h-29.6c11.4-4.5,16.9-13.5,16.9-27.4c0-11.5-3.8-22.6-10.9-31.7c-6.6-8.5-15.7-14.9-25.9-18.3
	l11.3-22.8c1.4-2.6,1.3-5.7-0.1-8.2c-1.3-2.2-3.5-3.5-6-3.7l-1.6-0.3c-0.2,0-0.4-0.1-0.7-0.1c-0.7,0-1.3,0-1.9,0l-0.7,0
	c-1-3.6-4.4-6.9-10.3-10c-4.6-2.3-9.9-2.3-14.5,0c-6,3.1-9.4,6.4-10.3,10l-0.7,0c-0.6,0-1.2,0-1.9,0h-1.8c-2.9,0-5.6,1.5-7.1,4
	c-1.4,2.3-1.4,5.1-0.1,7.4l6.7,13.2c-4.7-1.9-10-1.6-14.5,0.7c-1,0.5-1.3,1.8-0.8,2.7c0.5,0.9,1.7,1.3,2.6,0.8
	c5.9-3,11.3-1.1,14.9,1.3c-5.2-0.2-12.1,0.8-15.7,6c-0.6,0.9-0.4,2.2,0.5,2.8c0.9,0.6,2.2,0.4,2.8-0.5l0,0
	c3.3-4.7,10.9-4.6,15.1-4.1l0.3,0.6C56.5,74,47.5,80.4,40.9,88.9C33.8,98,30,109.1,30,120.6c0,13.9,5.5,22.9,16.9,27.4H17.3
	c-1.1-0.1-2.1,0.6-2.3,1.7c-0.1,1.1,0.6,2.1,1.7,2.3c0.2,0,0.3,0,0.5,0h133.4c1.1,0.1,2.1-0.6,2.3-1.7s-0.6-2.1-1.7-2.3
	C151.1,148,150.9,148,150.7,148L150.7,148z M58.5,45.2c-1.4-2.5,0.6-5.5,3.7-5.5h1.8c1.2,0,2.2,0,3,0c2.5,0,3.2-0.2,3.2-1.9
	c0-3.7,5.2-6.9,8.4-8.6c3.4-1.7,7.4-1.7,10.8,0c3.3,1.7,8.4,4.8,8.4,8.6c0,1.7,0.7,1.9,3.2,1.9c0.8,0,1.8,0,3,0L106,40
	c3.1,0,4.4,3.5,3,6L97.5,69c-0.4,0.4-0.9,0.7-1.4,0.9c-2.4,1.2-7,2-12.2,2c-6.5,0-11.9-1.3-13.5-3L58.5,45.2z M84,148
	c-4.6,0-9,0-13.2-0.2c1.1-1.8,3-3.1,5.1-3.4c0.7-0.1,1.2-0.6,1.5-1.2c1.1-2.4,3.4-4,6-4.2c0.1,0,0.2,0,0.3,0c0,0,0,0,0.1,0
	c0,0,0,0,0.1,0c0.4,0,1,0,1.1,0c2.7,0.2,5,1.8,6.1,4.2c0.3,0.6,0.8,1.1,1.5,1.2c2.1,0.3,4,1.6,5.1,3.4C93.3,148,88.7,148,84,148
	L84,148z M101.6,146.9c-0.1-0.3-0.3-0.5-0.4-0.8l0,0l0-0.1c-1.5-2.7-4-4.6-7-5.4c-1.8-3.1-4.9-5.2-8.5-5.6v-5.6
	c3.6-3,7.6-5.6,11.8-7.7c0.4,0.3,0.8,0.5,1.3,0.6c1.8,0.4,3.6,0.6,5.5,0.6c1.8,0,3.7-0.3,5.4-0.9c3.4-1.4,5.7-4.6,6.1-8.2
	c0.2-2-1.1-3.7-3-4.2c-1.8-0.4-3.6-0.6-5.5-0.6c-1.8,0-3.7,0.3-5.4,0.9c-3.4,1.4-5.7,4.6-6.1,8.2v0c-3.4,1.7-6.7,3.8-9.7,6v-8.3
	c0,0,0.1,0,0.1,0c0,0,0-0.1-0.1-0.1c-0.7,0.1-1.4,0.1-2.1,0.1c-0.7,0-1.4,0-2.1-0.1c0,0,0,0.1-0.1,0.1c0.1,0,0.1,0,0.2,0v8.5
	c-3.2-2.3-6.5-4.4-10-6.2c0,0,0,0,0,0c-0.4-3.6-2.7-6.8-6.1-8.2c-1.7-0.7-3.6-1-5.4-0.9c-1.8,0-3.7,0.2-5.5,0.6
	c-1.9,0.5-3.2,2.3-3,4.2c0.4,3.6,2.7,6.8,6.1,8.2c1.7,0.7,3.6,1,5.4,0.9c1.8,0,3.7-0.2,5.5-0.6c0.5-0.1,0.9-0.3,1.3-0.6
	c4.1,2.1,7.9,4.6,11.5,7.5v5.9c-3.2,0.6-6,2.6-7.6,5.5c-3.3,0.8-6.1,3.1-7.4,6.2c-0.1,0.2-0.2,0.5-0.2,0.7c-19-1.2-32.6-6.1-32.6-27
	c0-22,14.9-40.5,35.4-46.6h1.6c4.5,1.8,10.7,2,12.9,2c4.4,0.1,8.8-0.6,12.9-2h1.6c20.5,6.1,35.4,24.6,35.4,46.6
	c0,20.8-13.4,25.8-32.2,27C101.8,147.4,101.7,147.2,101.6,146.9L101.6,146.9z M99.7,118.5c0.3-2.1,1.6-4,3.6-4.8
	c1.2-0.5,2.5-0.7,3.9-0.6c1.5,0,3,0.2,4.5,0.5c-0.3,2.1-1.6,4-3.6,4.8c-1.2,0.5-2.5,0.7-3.9,0.6C102.7,119,101.2,118.8,99.7,118.5z
	 M68,118.5c-1.5,0.3-3,0.5-4.5,0.5c-1.3,0-2.6-0.2-3.9-0.6c-2-0.9-3.3-2.7-3.6-4.8c1.5-0.3,3-0.5,4.5-0.5c1.3,0,2.6,0.2,3.9,0.6
	C66.4,114.5,67.7,116.3,68,118.5z"/>
<path class="st0" d="M84,115.9c-9.9,0-17.9-8-17.9-17.9s8-17.9,17.9-17.9s17.9,8,17.9,17.9l0,0C101.9,107.9,93.9,115.9,84,115.9z
	 M84,84.1c-7.7,0-13.9,6.2-13.9,13.9s6.2,13.9,13.9,13.9s13.9-6.2,13.9-13.9l0,0C97.9,90.3,91.7,84.1,84,84.1z"/>
</svg>
