<?xml version="1.0" encoding="utf-8"?>
<!-- Generator: Adobe Illustrator 24.3.0, SVG Export Plug-In . SVG Version: 6.00 Build 0)  -->
<svg version="1.1" id="Слой_1" xmlns="http://www.w3.org/2000/svg" xmlns:xlink="http://www.w3.org/1999/xlink" x="0px" y="0px"
	 viewBox="0 0 168 168" style="enable-background:new 0 0 168 168;" xml:space="preserve">
<style type="text/css">
	.st0{fill:#9BD63E;}
	.st1{fill:#FFC813;}
</style>
<path class="st0" d="M119,22.9c1.7,0,3-1.3,3-3s-1.3-3-3-3s-3,1.3-3,3S117.3,22.9,119,22.9z M119,18.4c0.8,0,1.5,0.7,1.5,1.5
	s-0.7,1.5-1.5,1.5s-1.5-0.7-1.5-1.5S118.2,18.4,119,18.4z M162,46.7c-1.1,0-2,0.9-2,2s0.9,2,2,2s2-0.9,2-2
	C164,47.6,163.1,46.7,162,46.7z M162,49.7c-0.6,0-1-0.4-1-1s0.4-1,1-1s1,0.4,1,1C163,49.2,162.6,49.7,162,49.7z M46,24.9
	c-1.1,0-2,0.9-2,2s0.9,2,2,2s2-0.9,2-2S47.1,24.9,46,24.9z M46,27.9c-0.6,0-1-0.4-1-1s0.4-1,1-1s1,0.4,1,1S46.5,27.9,46,27.9z
	 M153,3.1c-1.1,0-2,0.9-2,2s0.9,2,2,2s2-0.9,2-2S154.1,3.1,153,3.1z M153,6.1c-0.6,0-1-0.4-1-1s0.4-1,1-1s1,0.4,1,1
	C154,5.6,153.6,6.1,153,6.1z M19.3,8.1c0-1.1-0.9-2-2-2s-2,0.9-2,2s0.9,2,2,2S19.3,9.2,19.3,8.1z M16.3,8.1c0-0.6,0.4-1,1-1
	s1,0.4,1,1s-0.4,1-1,1C16.8,9.1,16.3,8.6,16.3,8.1z"/>
<polygon class="st0" points="15.7,45.9 17.2,43.9 16.3,43.4 15.3,45.6 15.3,45.6 14.3,43.4 13.4,44 14.8,45.9 14.8,45.9 12.5,45.6 
	12.5,46.7 14.8,46.4 14.8,46.4 13.4,48.3 14.2,48.9 15.3,46.7 15.3,46.7 16.2,48.9 17.2,48.3 15.7,46.4 15.7,46.4 18.1,46.7 
	18.1,45.6 "/>
<polygon class="st0" points="67.5,5.2 66.7,6.3 67.2,6.6 67.8,5.4 67.8,5.4 68.3,6.6 68.9,6.3 68,5.2 68,5.2 69.4,5.4 69.4,4.8 
	68,4.9 68,4.9 68.9,3.8 68.4,3.5 67.8,4.7 67.8,4.7 67.2,3.5 66.7,3.8 67.5,4.9 67.5,4.9 66.2,4.8 66.2,5.4 "/>
<polygon class="st0" points="96.4,12.5 96.4,11.4 94.1,11.7 94.1,11.7 95.6,9.8 94.7,9.3 93.7,11.4 93.7,11.4 92.8,9.3 91.8,9.8 
	93.3,11.7 93.3,11.7 91,11.4 91,12.5 93.3,12.2 93.3,12.2 91.8,14.1 92.7,14.6 93.7,12.5 93.7,12.5 94.6,14.6 95.6,14.1 94.1,12.2 
	94.1,12.2 "/>
<polygon class="st0" points="142.4,33.6 143.6,32 142.8,31.5 142,33.4 142,33.4 141.2,31.5 140.4,32 141.6,33.6 141.6,33.6 
	139.6,33.4 139.6,34.3 141.6,34 141.6,34.1 140.4,35.7 141.1,36.2 142,34.3 142,34.3 142.8,36.1 143.6,35.7 142.4,34.1 142.4,34.1 
	144.4,34.3 144.4,33.4 142.4,33.7 "/>
<path class="st0" d="M118.2,154.9h-8.3c-1.1,0.1-1.9,1.1-1.8,2.2c0.1,1,0.9,1.8,1.8,1.8h8.3c1.1-0.1,1.9-1.1,1.8-2.2
	C119.9,155.8,119.1,155,118.2,154.9z M58.2,154.9h-8.3c-1.1,0.1-1.9,1.1-1.8,2.2c0.1,1,0.9,1.8,1.8,1.8h8.3c1.1-0.1,1.9-1.1,1.8-2.2
	C59.9,155.8,59.1,155,58.2,154.9z M104,154.9H64c-1.1,0-2,0.9-2,2s0.9,2,2,2h15.9v2H72c-1.1,0-2,0.9-2,2s0.9,2,2,2h25
	c1.1,0,2-0.9,2-2s-0.9-2-2-2h-8.9v-2H104c1.1,0,2-0.9,2-2S105.1,154.9,104,154.9z M128,77.8v1.4c0,0.7,0.5,1.2,1.2,1.2
	s1.2-0.5,1.2-1.2l0,0v-1.4c3.4-0.3,5.2-2.2,5.2-4.9c0-6.3-9.3-4.8-9.3-8.1c0-1,0.8-2,2.9-2c1.3,0,2.6,0.5,3.6,1.3
	c0.3,0.3,0.7,0.5,1.1,0.6c0.7,0,1.4-0.6,1.4-1.3c0-0.3-0.1-0.6-0.3-0.8c-1.1-1.4-2.8-2.2-4.6-2.3v-1.5c0-0.7-0.5-1.2-1.2-1.2
	S128,58,128,58.7l0,0v1.4c-3.2,0.4-4.7,2.3-4.7,4.6c0,6.1,9.3,4.4,9.3,8.1c0,1.6-1.1,2.3-3.4,2.3c-1.6,0-3.1-0.7-4.2-1.9
	c-0.3-0.3-0.7-0.5-1.1-0.6c-0.8,0-1.4,0.6-1.3,1.4c0,0.2,0.1,0.5,0.2,0.7C123.9,76.5,125.9,77.6,128,77.8z M94,101.8v1.4
	c0,0.7,0.5,1.2,1.2,1.2s1.2-0.5,1.2-1.2l0,0v-1.4c3.4-0.3,5.2-2.2,5.2-4.9c0-6.3-9.3-4.8-9.3-8.1c0-1,0.8-2,2.9-2
	c1.3,0,2.6,0.5,3.6,1.3c0.3,0.3,0.7,0.5,1.1,0.6c0.7,0,1.4-0.6,1.4-1.3c0-0.3-0.1-0.6-0.3-0.8c-1.1-1.4-2.8-2.2-4.6-2.3v-1.5
	c0-0.7-0.5-1.2-1.2-1.2S94,82.1,94,82.8l0,0v1.4c-3.2,0.4-4.7,2.3-4.7,4.6c0,6.1,9.3,4.4,9.3,8.1c0,1.6-1.1,2.3-3.4,2.3
	c-1.6,0-3.1-0.7-4.2-1.9c-0.3-0.3-0.7-0.5-1.1-0.6c-0.8,0-1.4,0.6-1.3,1.4c0,0.2,0.1,0.5,0.2,0.7C89.9,100.5,91.9,101.6,94,101.8z
	 M30.3,114.9c0.2,0,0.4,0,0.6,0c-4.3-8-6.6-16.9-6.9-26h28v-4H24.1c0.5-14.9,6.6-29.2,17-39.9c4.5,4.1,9.7,7.6,15.2,10.3
	c-2.2,8.1-3.5,16.4-3.8,24.8c0.7-2.1,2.3-3.8,4.4-4.7c0.6-6.2,1.7-12.4,3.3-18.5c7,2.8,14.4,4.3,21.9,4.6v14.9c1.2-1,2.6-1.8,4-2.5
	V61.6c7.5-0.2,14.9-1.8,21.9-4.6c0.5,1.6,0.9,3.3,1.2,5.1c0.7-2,1.7-3.8,2.9-5.5c-0.1-0.4-0.2-0.8-0.3-1.2c0.8-0.4,1.6-0.8,2.4-1.2
	c2.2-2.2,4.9-3.9,7.8-5c1.7-1.3,3.4-2.6,5-4.1c0.9,0.9,1.8,1.9,2.6,2.9c2,0,4,0.4,5.9,1c-21-28.4-61-34.5-89.5-13.6
	c-24.9,18.3-33.1,51.8-19.6,79.5H30.3z M124,42.3c-4,3.6-8.6,6.7-13.4,9.1c-3.3-10.1-8-18.2-13.6-23.1
	C107.1,30.6,116.4,35.4,124,42.3z M86,27.1c8.5,1.4,16.1,11.5,20.8,26.1c-6.6,2.7-13.6,4.2-20.8,4.4V27.1z M82,27.1v30.5
	c-7.1-0.2-14.2-1.7-20.8-4.4C65.9,38.6,73.5,28.5,82,27.1z M71,28.4c-5.6,4.9-10.2,13-13.5,23.1C52.5,49,48,46,44,42.3
	C51.6,35.4,60.9,30.6,71,28.4z"/>
<circle class="st1" cx="2" cy="148.9" r="2"/>
<path class="st1" d="M11,146.9H8c-1.1,0-2,0.9-2,2s0.9,2,2,2h3c1.1,0,2-0.9,2-2S12.1,146.9,11,146.9z M160,146.9h-3
	c-1.1,0-2,0.9-2,2s0.9,2,2,2h3c1.1,0,2-0.9,2-2S161.1,146.9,160,146.9z"/>
<circle class="st1" cx="166" cy="148.9" r="2"/>
<path class="st1" d="M150.7,146.9H145v-4c0-2.2-1.8-4-4-4h-1v-4h1c2.2,0,4-1.8,4-4v-4v-0.1c1.8-0.4,3-2,3-3.9v-4
	c0-1.8-1.2-3.4-3-3.9v-0.1v-4c0-2.2-1.8-4-4-4v-4c2.2,0,4-1.8,4-4v-4c0-1.4-0.8-2.8-2.1-3.5c0-0.2,0-0.4,0.1-0.5v-4c0-2.2-1.8-4-4-4
	h-0.4c7.7-5.3,9.7-15.9,4.4-23.6s-15.9-9.7-23.6-4.4s-9.7,15.9-4.4,23.6c1.2,1.7,2.7,3.2,4.4,4.4H119c-2.2,0-4,1.8-4,4v4
	c0,1.4,0.8,2.8,2.1,3.5c0,0.2,0,0.4-0.1,0.5v4c-2.2,0-4,1.8-4,4v4c0,2.2,1.8,4,4,4v4c0,1.8,1.2,3.4,3,3.9v0.1v4v0.1
	c-1.8,0.4-3,2-3,3.9v4h-1c-2.2,0-4,1.8-4,4v4c0,2.2,1.8,4,4,4h1v4h-9v-4c0-1.8-1.2-3.4-3-3.9v-0.1v-4h1c2.2,0,4-1.8,4-4v-4
	c0-2.2-1.8-4-4-4h-1v-4c2.2,0,4-1.8,4-4v-4c0-2.2-1.8-4-4-4h-0.4c7.7-5.3,9.7-15.9,4.4-23.6c-5.3-7.7-15.9-9.7-23.6-4.4
	c-7.7,5.3-9.7,15.9-4.4,23.6c1.2,1.7,2.7,3.2,4.4,4.4H85c-2.2,0-4,1.8-4,4v4c-2.2,0-4,1.8-4,4v4c0,2.2,1.8,4,4,4h1v4h-1
	c-2.2,0-4,1.8-4,4v4c0,1.8,1.2,3.4,3,3.9v0.1v4H70V82.7c0-2-1.6-3.7-3.7-3.7h-6.7c-2,0-3.7,1.7-3.7,3.7V147h-4v-44.3
	c0-2-1.6-3.7-3.7-3.7h-6.7c-2,0-3.7,1.7-3.7,3.7V147h-4v-24.3c0-2-1.6-3.7-3.7-3.7h-6.7c-2,0-3.7,1.7-3.7,3.7V147H17
	c-1.1-0.1-2.1,0.6-2.3,1.7c-0.1,1.1,0.6,2.1,1.7,2.3c0.2,0,0.3,0,0.5,0h133.4c1.1,0.1,2.1-0.6,2.3-1.7s-0.6-2.1-1.7-2.3
	C151.1,146.9,150.9,146.9,150.7,146.9z M24,146.9v-24h6v24H24z M42,146.9v-44h6v44H42z M60,146.9v-64h6v64H60z M106,126.9v4H86v-4
	C86,126.9,106,126.9,106,126.9z M82,92.9c0-7.2,5.8-13,13-13s13,5.8,13,13s-5.8,13-13,13S82,100.1,82,92.9z M85,110.9h20v4H85V110.9
	z M81,122.9v-4h20v4H81z M81,134.9h20v4H81V134.9z M84,146.9v-4h20v4H84z M121,130.9v-4h20v4H121z M144,118.9v4h-20v-4H144z
	 M141,114.9h-20v-4h20V114.9z M141,98.9h-20v-4h20V98.9z M116,68.9c0-7.2,5.8-13,13-13s13,5.8,13,13s-5.8,13-13,13
	S116,76.1,116,68.9z M119,86.9h20v4h-20V86.9z M117,106.9v-4h20v4H117z M116,138.9v-4h20v4H116z M121,146.9v-4h20v4H121z"/>
</svg>
